<svg xmlns="http://www.w3.org/2000/svg" width="397" height="382.31" viewBox="0 0 397 382.31">
  <g id="Grupo_899200" data-name="Grupo 899200" transform="translate(-915 -3869)">
    <g id="User_flow-amico_1_" data-name="User flow-amico (1)" transform="translate(900.59 3841.635)">
      <g id="freepik--Floor--inject-9" transform="translate(14.41 192.36)">
        <ellipse id="freepik--floor--inject-9-2" data-name="freepik--floor--inject-9" cx="198.5" cy="108.657" rx="198.5" ry="108.657" fill="rgba(0,0,0,0.06)"/>
      </g>
      <g id="freepik--Shadows--inject-9" transform="translate(16.321 239.898)">
        <path id="freepik--Shadow--inject-9" d="M61.968,366.184,18.213,340.966c-2.047-1.18-2.047-3.1,0-4.28l97.207-56.191a8.207,8.207,0,0,1,7.415,0l43.754,25.218c2.047,1.188,2.047,3.1,0,4.28l-97.2,56.191A8.232,8.232,0,0,1,61.968,366.184Z" transform="translate(-16.678 -279.61)" fill="rgba(18,89,75,0.11)"/>
        <path id="freepik--shadow--inject-9-2" data-name="freepik--shadow--inject-9" d="M87.325,381.412l4.651,2.7a2.443,2.443,0,0,0,2.191,0l86.784-50.116a.666.666,0,0,0,0-1.264l-4.659-2.688a2.393,2.393,0,0,0-2.191,0L87.316,380.148C86.718,380.519,86.718,381.066,87.325,381.412Z" transform="translate(-27.728 -287.507)" fill="rgba(18,89,75,0.11)"/>
        <path id="freepik--shadow--inject-9-3" data-name="freepik--shadow--inject-9" d="M263.909,407.728l4.651,2.688a2.393,2.393,0,0,0,2.191,0l48.624-28.032c.607-.345.607-.91,0-1.264l-4.659-2.688a2.443,2.443,0,0,0-2.191,0l-48.616,28.032C263.26,406.818,263.26,407.382,263.909,407.728Z" transform="translate(-55.524 -295.127)" fill="rgba(18,89,75,0.11)"/>
        <path id="freepik--shadow--inject-9-4" data-name="freepik--shadow--inject-9" d="M381.275,339.686l4.659,2.688a2.443,2.443,0,0,0,2.191,0l48.624-28.032a.666.666,0,0,0,0-1.264l-4.659-2.688a2.393,2.393,0,0,0-2.191,0l-48.624,28.032a.666.666,0,0,0,0,1.264Z" transform="translate(-74.006 -284.414)" fill="rgba(18,89,75,0.11)"/>
        <ellipse id="freepik--shadow--inject-9-5" data-name="freepik--shadow--inject-9" cx="43.721" cy="25.243" rx="43.721" ry="25.243" transform="translate(112.687 94.14)" fill="rgba(18,89,75,0.11)"/>
      </g>
      <g id="freepik--Device--inject-9" transform="translate(54.255 56.738)">
        <g id="freepik--Mobile--inject-9">
          <path id="Trazado_663671" data-name="Trazado 663671" d="M151.7,62.929,66.3,112.245a9.192,9.192,0,0,0-4.6,7.634V318.454c0,3.126,1.929,6.783,4.314,8.156s6.513,1.222,9.218-.337l85.1-49.138a10.878,10.878,0,0,0,4.9-8.493V70.74c0-3.126-2.612-5.266-5-6.639S154.416,61.362,151.7,62.929Z" transform="translate(-61.7 -62.227)" fill="#4db5e1"/>
          <path id="Trazado_663672" data-name="Trazado 663672" d="M74.06,336.814c-2.62,1.02-5.991.969-8.047-.219-2.376-1.373-4.314-5.055-4.314-8.156V129.863a8.7,8.7,0,0,1,1.239-4.213l7.912,4.508a9.614,9.614,0,0,0-2.283,5.721V332.416C68.567,336.182,70.951,337.968,74.06,336.814Z" transform="translate(-61.7 -72.212)" opacity="0.4"/>
          <path id="Trazado_663673" data-name="Trazado 663673" d="M165.459,70.327c-.185-2.806-2.309-3.9-4.887-2.418L73.139,118.395a8.148,8.148,0,0,0-2.047,1.769l-7.912-4.491a8.746,8.746,0,0,1,2.941-3.185L151.936,62.92c2.713-1.559,6.168-.194,8.544,1.18S165.3,67.3,165.459,70.327Z" transform="translate(-61.933 -62.227)" opacity="0.3"/>
          <path id="Trazado_663674" data-name="Trazado 663674" d="M161.624,68.873,74.191,119.334a9.588,9.588,0,0,0-4.331,7.49V323.378c0,4.213,3,5.949,6.656,3.834l85.1-49.138a10.878,10.878,0,0,0,4.9-8.493V71.678C166.528,68.561,164.345,67.289,161.624,68.873Z" transform="translate(-62.985 -63.165)" fill="#4db5e1"/>
          <path id="Trazado_663675" data-name="Trazado 663675" d="M161.624,68.873,74.191,119.334a9.588,9.588,0,0,0-4.331,7.49V323.378c0,4.213,3,5.949,6.656,3.834l85.1-49.138a10.878,10.878,0,0,0,4.9-8.493V71.678C166.528,68.561,164.345,67.289,161.624,68.873Z" transform="translate(-62.985 -63.165)" opacity="0.2"/>
          <path id="Trazado_663676" data-name="Trazado 663676" d="M162.869,87.209V265.4a10.321,10.321,0,0,1-4.659,8.072l-78.83,45.5c-2.528,1.491-4.659.286-4.659-2.688V136.634a10.456,10.456,0,0,1,3.269-7.027l.447-.4a7.523,7.523,0,0,1,.944-.649l10.557-6.1.843-.5,1.045-.581,2.528-1.432c1.828-1,3.808-.463,3.808,1.685v6.656c0,2.182,1.635,3.008,3.648,1.845l32.97-19.219a7.827,7.827,0,0,0,3.707-6.016V97.32a5.333,5.333,0,0,1,2.25-4.213l15.773-9.041.463-.27C160.215,81.893,162.869,83.418,162.869,87.209Z" transform="translate(-63.75 -65.493)" fill="#37474f"/>
          <path id="Trazado_663677" data-name="Trazado 663677" d="M156.511,261.228v-177L140.738,93.3a5.333,5.333,0,0,0-2.25,4.213V105.1a7.827,7.827,0,0,1-3.648,6.058l-32.97,19.219a2.6,2.6,0,0,1-2.764.219c-.548-.371-5.755-3.918-6.42-4.407a2.393,2.393,0,0,1-.843-2.031v-2.528l-1.045.581-.843.5L79.4,128.81a7.524,7.524,0,0,0-.944.649l-.447.4a10.456,10.456,0,0,0-3.269,7.027V313.829l77.128-44.53a10.322,10.322,0,0,0,4.643-8.072Z" transform="translate(-63.753 -65.691)" fill="#455a64"/>
          <path id="Trazado_663678" data-name="Trazado 663678" d="M118.851,123.578l11.846-6.833c.708-.413,1.281-.118,1.281.649a2.755,2.755,0,0,1-1.281,2.123l-11.846,6.833c-.708.413-1.281.118-1.281-.64A2.764,2.764,0,0,1,118.851,123.578Z" transform="translate(-70.496 -70.78)" fill="#455a64"/>
          <path id="Trazado_663679" data-name="Trazado 663679" d="M140.136,112.56c.666-.379,1.2-.076,1.2.691a2.646,2.646,0,0,1-1.2,2.081c-.666.379-1.2.076-1.2-.691a2.637,2.637,0,0,1,1.2-2.081Z" transform="translate(-73.86 -70.125)" fill="#455a64"/>
          <path id="Trazado_663680" data-name="Trazado 663680" d="M145.836,109.27c.666-.379,1.2-.067,1.2.691a2.646,2.646,0,0,1-1.2,2.081c-.657.388-1.2.076-1.2-.691a2.671,2.671,0,0,1,1.2-2.081Z" transform="translate(-74.758 -69.607)" fill="#455a64"/>
          <path id="Trazado_663681" data-name="Trazado 663681" d="M105.946,132.309c.666-.388,1.2-.076,1.2.691a2.662,2.662,0,0,1-1.2,2.081c-.657.379-1.2.067-1.2-.7a2.662,2.662,0,0,1,1.2-2.073Z" transform="translate(-68.478 -73.234)" fill="#455a64"/>
          <path id="Trazado_663682" data-name="Trazado 663682" d="M111.655,129.019c.657-.388,1.2-.076,1.2.691a2.671,2.671,0,0,1-1.2,2.081c-.666.379-1.2.067-1.2-.691A2.646,2.646,0,0,1,111.655,129.019Z" transform="translate(-69.375 -72.716)" fill="#455a64"/>
        </g>
        <g id="freepik--Window--inject-9" transform="translate(23.128 33.202)">
          <path id="Trazado_663683" data-name="Trazado 663683" d="M175.6,102.035c-1.07-.623-2.528-.539-4.162.4h0L155.19,111.7a5.325,5.325,0,0,0-2.25,4.28v7.5a7.844,7.844,0,0,1-3.648,6.066L118.117,147.7v-4.28a2.056,2.056,0,0,0-.961-1.9c-.75-.421-4.887-2.823-5.468-3.151a2.957,2.957,0,0,0-2.856.211l-3.606,2.014-.843.5-10.557,6.1a7.526,7.526,0,0,0-.944.649l-.447.4a10.456,10.456,0,0,0-3.269,7.027V334.971a3.286,3.286,0,0,0,1.357,3.008c.843.5,4.643,2.679,5.485,3.168a3.274,3.274,0,0,0,3.294-.329l78.83-45.5a10.321,10.321,0,0,0,4.659-8.072V108.995c0-1.879-.666-3.193-1.744-3.808Z" transform="translate(-89.15 -101.633)" fill="#ebebeb"/>
          <path id="Trazado_663684" data-name="Trazado 663684" d="M117.33,148.3a3.109,3.109,0,0,0-2.7.295l-3.6,2.022-.843.5-10.557,6.1a7.524,7.524,0,0,0-.944.649l-.447.4a10.507,10.507,0,0,0-1.685,2.106L91,157.2a10.464,10.464,0,0,1,1.685-2.106l.447-.4a7.522,7.522,0,0,1,.944-.649l10.557-6.1.843-.5,3.606-2.014a2.957,2.957,0,0,1,2.856-.219Z" transform="translate(-89.441 -108.453)" fill="#f5f5f5"/>
          <path id="Trazado_663685" data-name="Trazado 663685" d="M193.106,105.186c-1.062-.623-2.528-.539-4.162.4l-16.236,9.268a4.28,4.28,0,0,0-1.609,1.812l-5.468-3.16a4.314,4.314,0,0,1,1.6-1.812l16.245-9.268c1.618-.935,3.092-1.02,4.162-.4Z" transform="translate(-101.19 -101.633)" fill="#f5f5f5"/>
          <path id="Trazado_663686" data-name="Trazado 663686" d="M170.64,118.94a5.51,5.51,0,0,0-.649,2.469v7.5a7.423,7.423,0,0,1-1.795,4.432l-5.477-3.16a7.507,7.507,0,0,0,1.8-4.432v-7.5a5.51,5.51,0,0,1,.649-2.469Z" transform="translate(-100.732 -103.86)" opacity="0.1"/>
          <path id="Trazado_663687" data-name="Trazado 663687" d="M177.936,106.181h0l-16.245,9.268a5.35,5.35,0,0,0-2.25,4.28v7.5a7.827,7.827,0,0,1-3.648,6.058l-32.961,19.269c-2.014,1.163-3.648.337-3.648-1.845v-6.656c0-2.149-1.988-2.688-3.817-1.685l-3.6,2.014-.843.5-10.557,6.1a7.524,7.524,0,0,0-.944.649l-.447.4a10.456,10.456,0,0,0-3.269,7.027V338.72c0,2.974,2.09,4.213,4.659,2.688l78.83-45.5a10.321,10.321,0,0,0,4.659-8.072V109.585C183.834,105.835,181.18,104.31,177.936,106.181Z" transform="translate(-90.182 -102.223)" fill="#4db5e1"/>
          <g id="Grupo_895336" data-name="Grupo 895336" transform="translate(5.528 3.159)" opacity="0.7">
            <path id="Trazado_663688" data-name="Trazado 663688" d="M177.936,106.181h0l-16.245,9.268a5.35,5.35,0,0,0-2.25,4.28v7.5a7.827,7.827,0,0,1-3.648,6.058l-32.961,19.269c-2.014,1.163-3.648.337-3.648-1.845v-6.656c0-2.149-1.988-2.688-3.817-1.685l-3.6,2.014-.843.5-10.557,6.1a7.524,7.524,0,0,0-.944.649l-.447.4a10.456,10.456,0,0,0-3.269,7.027V338.72c0,2.974,2.09,4.213,4.659,2.688l78.83-45.5a10.321,10.321,0,0,0,4.659-8.072V109.585C183.834,105.835,181.18,104.31,177.936,106.181Z" transform="translate(-95.71 -105.381)" fill="#fff"/>
          </g>
          <path id="Trazado_663689" data-name="Trazado 663689" d="M95.67,252.068l30.113-39.516,34.849,22.454-8.1-8.628L164.272,208.6l19.691,13.211v40.14L95.67,312.927Z" transform="translate(-90.176 -118.473)" fill="#4db5e1"/>
          <path id="Trazado_663690" data-name="Trazado 663690" d="M162.941,189.7c2.839-1.685,5.14-.312,5.14,2.957a11.358,11.358,0,0,1-5.14,8.9c-2.831,1.635-5.131.3-5.131-2.966a11.341,11.341,0,0,1,5.131-8.889Z" transform="translate(-99.959 -115.385)" fill="#4db5e1"/>
          <path id="Trazado_663691" data-name="Trazado 663691" d="M183.826,311.564V260.05c-11.467-6.227-27.114-5.114-44.353,4.845-16.978,9.8-32.388,26.372-43.813,45.5v52.113c0,2.974,2.09,4.213,4.659,2.688l78.83-45.5a10.321,10.321,0,0,0,4.676-8.131Z" transform="translate(-90.175 -125.966)" fill="#fafafa"/>
          <path id="Trazado_663692" data-name="Trazado 663692" d="M182.152,259.76v52.365a8.72,8.72,0,0,1-3.817,6.614L99.5,364.238a2.679,2.679,0,0,1-1.239.413c-.775,0-.843-1.028-.843-1.643V308.157c-.565.9-1.129,1.82-1.685,2.755v52.113c0,2.106,1.045,3.328,2.528,3.328a4.272,4.272,0,0,0,2.09-.64l78.83-45.5a10.321,10.321,0,0,0,4.659-8.072V260.611C183.332,260.341,182.742,260.055,182.152,259.76Z" transform="translate(-90.186 -126.527)" fill="#ebebeb"/>
          <path id="Trazado_663693" data-name="Trazado 663693" d="M129.17,304.1,166.6,282.5c1-.581,1.82-.169,1.82.918a3.91,3.91,0,0,1-1.828,3.033l-37.418,21.6c-1,.581-1.82.169-1.82-.918a3.9,3.9,0,0,1,1.82-3.033Z" transform="translate(-95.164 -130.066)" fill="#455a64"/>
          <path id="Trazado_663694" data-name="Trazado 663694" d="M133.23,314.223l30.577-17.652c1.011-.581,1.828-.169,1.828.927a3.91,3.91,0,0,1-1.828,3.025L133.23,318.174c-1,.581-1.82.169-1.82-.918a3.918,3.918,0,0,1,1.82-3.033Z" transform="translate(-95.803 -132.281)" fill="#455a64"/>
          <path id="Trazado_663695" data-name="Trazado 663695" d="M133.23,290.772l30.577-17.652c1.011-.581,1.828-.169,1.828.918a3.909,3.909,0,0,1-1.828,3.033L133.23,294.724c-1,.581-1.82.169-1.82-.918a3.918,3.918,0,0,1,1.82-3.033Z" transform="translate(-95.803 -128.589)" fill="#455a64"/>
          <path id="Trazado_663696" data-name="Trazado 663696" d="M139.53,338.135v1.449c0,2.334,1.635,3.269,3.648,2.106l16.666-9.631a8.072,8.072,0,0,0,3.648-6.319v-1.458c0-2.326-1.635-3.269-3.648-2.106L143.178,331.8a8.072,8.072,0,0,0-3.648,6.336Z" transform="translate(-97.081 -136.276)" fill="#4db5e1"/>
          <path id="Trazado_663697" data-name="Trazado 663697" d="M146.37,335.065a1.3,1.3,0,0,1,.573-.185.775.775,0,0,1,.447.093.733.733,0,0,1,.295.3.961.961,0,0,1,.11.438.27.27,0,0,1,0,.135.2.2,0,0,1-.067.093l-.632.362a.253.253,0,0,1-.11,0,.161.161,0,0,1-.084-.042l-.051-.051a.2.2,0,0,0-.084-.051.3.3,0,0,0-.152,0,.573.573,0,0,0-.211.084l-.177.118a.842.842,0,0,0-.152.152.9.9,0,0,0-.11.177.581.581,0,0,0,0,.211.219.219,0,0,0,0,.16.253.253,0,0,0,.152.042,1.07,1.07,0,0,0,.295-.042l.447-.109a1.4,1.4,0,0,1,.463-.067.522.522,0,0,1,.329.126.64.64,0,0,1,.2.337,2.09,2.09,0,0,1,.067.573,2.477,2.477,0,0,1-.118.741,2.679,2.679,0,0,1-.312.691,2.956,2.956,0,0,1-.472.6,2.8,2.8,0,0,1-.6.455,1.525,1.525,0,0,1-.607.219.91.91,0,0,1-.463-.084.758.758,0,0,1-.312-.32,1.137,1.137,0,0,1-.11-.5.421.421,0,0,1,0-.135.253.253,0,0,1,.076-.084l.632-.371a.228.228,0,0,1,.11,0,.152.152,0,0,1,.076,0l.059.067.1.076a.27.27,0,0,0,.168,0,.6.6,0,0,0,.244-.084,1.953,1.953,0,0,0,.43-.337.615.615,0,0,0,.169-.413.152.152,0,0,0-.059-.143.32.32,0,0,0-.194,0,1.557,1.557,0,0,0-.32.067l-.463.118a.708.708,0,0,1-.733-.126,1.357,1.357,0,0,1-.236-.851,2.755,2.755,0,0,1,.093-.674,3.554,3.554,0,0,1,.278-.674,3.252,3.252,0,0,1,.43-.6A2.527,2.527,0,0,1,146.37,335.065Z" transform="translate(-97.93 -138.353)" fill="#455a64"/>
          <path id="Trazado_663698" data-name="Trazado 663698" d="M151.439,332.127a.076.076,0,0,1,.093,0,.168.168,0,0,1,0,.118v.792a.362.362,0,0,1,0,.16.278.278,0,0,1-.093.118l-.843.489v3.834a.379.379,0,0,1-.042.16.278.278,0,0,1-.093.118l-.632.362a.067.067,0,0,1-.093,0,.152.152,0,0,1,0-.118v-3.825l-.843.489a.067.067,0,0,1-.093,0,.143.143,0,0,1-.042-.118v-.792a.379.379,0,0,1,.042-.16.278.278,0,0,1,.093-.118Z" transform="translate(-98.534 -137.918)" fill="#455a64"/>
          <path id="Trazado_663699" data-name="Trazado 663699" d="M153.957,330.74h.143a.244.244,0,0,1,.076.126l1.053,4.086a.345.345,0,0,1,0,.1.354.354,0,0,1,0,.135.219.219,0,0,1-.076.093l-.615.354c-.059.042-.11.042-.135,0a.2.2,0,0,1-.051-.093l-.135-.539-1.289.741-.135.7a.794.794,0,0,1-.051.152.337.337,0,0,1-.143.143l-.607.354h-.076a.1.1,0,0,1,0-.093s0-.067,0-.126l1.062-5.308a.759.759,0,0,1,.067-.211.371.371,0,0,1,.152-.169Zm-.784,3.716.784-.447-.4-1.567Z" transform="translate(-99.03 -137.702)" fill="#455a64"/>
          <path id="Trazado_663700" data-name="Trazado 663700" d="M157.806,328.555a1.619,1.619,0,0,1,.573-.227.581.581,0,0,1,.421.067.649.649,0,0,1,.278.379,2.266,2.266,0,0,1,.093.7,3.234,3.234,0,0,1-.152,1.02,2.654,2.654,0,0,1-.43.843l.607,1.432a.16.16,0,0,1,0,.067.354.354,0,0,1,0,.135.3.3,0,0,1-.076.093l-.657.379c-.067.042-.11.042-.143,0l-.067-.1-.531-1.289-.447.261v1.6a.379.379,0,0,1,0,.16.278.278,0,0,1-.093.118l-.632.362a.067.067,0,0,1-.093,0,.152.152,0,0,1,0-.118v-4.819a.412.412,0,0,1,0-.169.2.2,0,0,1,.093-.109Zm-.548,2.578.548-.32a1,1,0,0,0,.337-.312.935.935,0,0,0,.126-.506c0-.211-.042-.329-.126-.362a.455.455,0,0,0-.337.076l-.548.32Z" transform="translate(-99.744 -137.32)" fill="#455a64"/>
          <path id="Trazado_663701" data-name="Trazado 663701" d="M162.772,325.59h.093a.168.168,0,0,1,0,.118v.792a.413.413,0,0,1,0,.169.236.236,0,0,1-.093.11l-.843.489V331.1a.362.362,0,0,1,0,.16.354.354,0,0,1-.093.118l-.64.362a.067.067,0,0,1-.093,0,.177.177,0,0,1,0-.126v-3.825l-.843.489h-.084a.143.143,0,0,1,0-.126v-.792a.287.287,0,0,1,0-.16.236.236,0,0,1,.084-.11Z" transform="translate(-100.329 -136.891)" fill="#455a64"/>
          <path id="Trazado_663702" data-name="Trazado 663702" d="M121.168,176.62l44.041-25.429c2.014-1.163,3.648-.337,3.648,1.854a7.827,7.827,0,0,1-3.648,6.058l-44.041,25.429c-2.014,1.163-3.648.337-3.648-1.854a7.828,7.828,0,0,1,3.648-6.058Z" transform="translate(-93.616 -109.352)" fill="#455a64"/>
        </g>
      </g>
      <g id="freepik--Lines--inject-9" transform="translate(179.564 40.435)">
        <g id="freepik--lines--inject-9-2" data-name="freepik--lines--inject-9">
          <path id="Trazado_663703" data-name="Trazado 663703" d="M327.2,153.607a1.171,1.171,0,0,1-.565-.143,1.39,1.39,0,0,1-.615-1.281,3.733,3.733,0,0,1,1.685-2.966,1.255,1.255,0,0,1,2.031,1.171,3.75,3.75,0,0,1-1.685,2.966A1.753,1.753,0,0,1,327.2,153.607Zm1.382-4.011a1.1,1.1,0,0,0-.531.169,3.134,3.134,0,0,0-1.4,2.418.64.64,0,0,0,1.078.623,3.134,3.134,0,0,0,1.4-2.418.843.843,0,0,0-.3-.733A.455.455,0,0,0,328.58,149.6Z" transform="translate(-228.621 -59.575)" fill="#455a64"/>
          <path id="Trazado_663704" data-name="Trazado 663704" d="M352.99,138.717a1.062,1.062,0,0,1-.556-.152,1.382,1.382,0,0,1-.615-1.272,3.733,3.733,0,0,1,1.685-2.966h0a1.247,1.247,0,0,1,2.022,1.171,3.716,3.716,0,0,1-1.685,2.957A1.635,1.635,0,0,1,352.99,138.717Zm1.39-4.011a1.045,1.045,0,0,0-.539.169h0a3.126,3.126,0,0,0-1.39,2.418.64.64,0,0,0,1.079.623,3.143,3.143,0,0,0,1.39-2.418.843.843,0,0,0-.295-.733.455.455,0,0,0-.244-.059Z" transform="translate(-232.683 -57.23)" fill="#455a64"/>
          <path id="Trazado_663705" data-name="Trazado 663705" d="M330.021,148.878a.312.312,0,0,1-.27-.16.3.3,0,0,1,.11-.43l18.629-10.726a.32.32,0,0,1,.43.118.312.312,0,0,1-.118.43l-18.621,10.768a.346.346,0,0,1-.16,0Z" transform="translate(-229.202 -57.778)" fill="#455a64"/>
          <path id="Trazado_663706" data-name="Trazado 663706" d="M295.329,231.587a1.171,1.171,0,0,1-.565-.143,1.39,1.39,0,0,1-.615-1.281,3.741,3.741,0,0,1,1.685-2.966h0a1.255,1.255,0,0,1,2.031,1.171,3.733,3.733,0,0,1-1.685,2.966A1.685,1.685,0,0,1,295.329,231.587Zm1.382-4.011a1.138,1.138,0,0,0-.531.169h0a3.135,3.135,0,0,0-1.4,2.418.64.64,0,0,0,1.078.624,3.134,3.134,0,0,0,1.4-2.418.843.843,0,0,0-.295-.733A.506.506,0,0,0,296.71,227.577Z" transform="translate(-223.604 -71.852)" fill="#455a64"/>
          <path id="Trazado_663707" data-name="Trazado 663707" d="M326.64,300.773a1.053,1.053,0,0,1-.556-.143,1.39,1.39,0,0,1-.615-1.281,3.741,3.741,0,0,1,1.685-2.966h0a1.4,1.4,0,0,1,1.415-.11,1.424,1.424,0,0,1,.607,1.281,3.733,3.733,0,0,1-1.685,2.966A1.685,1.685,0,0,1,326.64,300.773Zm1.39-4.011a1.137,1.137,0,0,0-.539.169h0a3.143,3.143,0,0,0-1.39,2.418.64.64,0,0,0,1.078.624,3.126,3.126,0,0,0,1.39-2.418.843.843,0,0,0-.295-.733A.548.548,0,0,0,328.03,296.762Z" transform="translate(-228.535 -82.748)" fill="#455a64"/>
          <path id="Trazado_663708" data-name="Trazado 663708" d="M374.55,273.127a1.2,1.2,0,0,1-.565-.143,1.382,1.382,0,0,1-.607-1.281,3.7,3.7,0,0,1,1.685-2.966h0a1.255,1.255,0,0,1,2.031,1.171,3.733,3.733,0,0,1-1.685,2.966,1.685,1.685,0,0,1-.859.253Zm.843-3.842A3.1,3.1,0,0,0,374,271.7a.642.642,0,0,0,1.078.623,3.151,3.151,0,0,0,1.39-2.418.642.642,0,0,0-1.078-.624Z" transform="translate(-236.077 -78.391)" fill="#455a64"/>
          <path id="Trazado_663709" data-name="Trazado 663709" d="M296.312,233.451a.379.379,0,0,1-.16-.042.32.32,0,0,1-.152-.27v-5.384a.312.312,0,0,1,.312-.312.32.32,0,0,1,.32.312v4.836l46.088-26.6a.312.312,0,0,1,.472.27v23.322a.312.312,0,0,1-.312.32.32.32,0,0,1-.32-.32V206.834l-46.088,26.617A.345.345,0,0,1,296.312,233.451Z" transform="translate(-223.896 -68.55)" fill="#455a64"/>
          <path id="Trazado_663710" data-name="Trazado 663710" d="M350.713,248.592a.3.3,0,0,1-.219-.093l-4.643-4.508a.312.312,0,0,1-.067-.362l4.643-9.833a.329.329,0,0,1,.227-.177.337.337,0,0,1,.278.084l4.643,4.474a.3.3,0,0,1,.067.362l-4.626,9.866a.3.3,0,0,1-.227.177Zm-4.263-4.9,4.162,4.044,4.364-9.268-4.171-4Z" transform="translate(-231.729 -72.906)" fill="#455a64"/>
          <path id="Trazado_663711" data-name="Trazado 663711" d="M333.152,262.975a.312.312,0,0,1-.312-.312V251.9a.312.312,0,0,1,.152-.27l10.886-6.3a.314.314,0,1,1,.32.539l-10.726,6.218v10.574a.312.312,0,0,1-.32.312Z" transform="translate(-229.696 -74.744)" fill="#455a64"/>
          <path id="Trazado_663712" data-name="Trazado 663712" d="M329.335,269.4l6.007-3.463c.91-.531,1.685-.1,1.685.952v1.592a3.674,3.674,0,0,1-1.685,2.873l-6.007,3.463c-.918.531-1.685.1-1.685-.952v-1.592a3.657,3.657,0,0,1,1.685-2.873Z" transform="translate(-228.879 -77.959)" fill="#4db5e1"/>
          <path id="Trazado_663713" data-name="Trazado 663713" d="M366.185,248.19l6.008-3.463c.91-.531,1.685-.1,1.685.952v1.567a3.657,3.657,0,0,1-1.685,2.865l-6.008,3.471c-.91.522-1.685.1-1.685-.961v-1.567a3.674,3.674,0,0,1,1.685-2.865Z" transform="translate(-234.68 -74.62)" fill="#4db5e1"/>
          <path id="Trazado_663714" data-name="Trazado 663714" d="M329.47,294.755a.329.329,0,0,1-.278-.16.312.312,0,0,1,.118-.43l2.949-1.685v-15.79a.32.32,0,1,1,.632,0v15.958a.312.312,0,0,1-.16.27l-3.1,1.795A.378.378,0,0,1,329.47,294.755Z" transform="translate(-229.115 -79.629)" fill="#455a64"/>
          <path id="Trazado_663715" data-name="Trazado 663715" d="M367.971,242.877a.32.32,0,0,1-.312-.32v-10.2l-10.406,5.991a.32.32,0,0,1-.438-.118.312.312,0,0,1,.152-.4l10.886-6.26a.3.3,0,0,1,.312,0,.312.312,0,0,1,.16.278v10.751a.32.32,0,0,1-.354.286Z" transform="translate(-233.467 -72.576)" fill="#455a64"/>
          <path id="Trazado_663716" data-name="Trazado 663716" d="M370,271.647a.244.244,0,0,1-.152-.042.3.3,0,0,1-.16-.27V255.2a.32.32,0,1,1,.632,0v15.587l2.629-1.517a.337.337,0,0,1,.438.11.329.329,0,0,1-.118.438l-3.109,1.786a.27.27,0,0,1-.16.042Z" transform="translate(-235.497 -76.246)" fill="#455a64"/>
          <path id="Trazado_663717" data-name="Trazado 663717" d="M422.459,141.127a1.087,1.087,0,0,1-.564-.152,1.39,1.39,0,0,1-.615-1.281,3.724,3.724,0,0,1,1.685-2.957h0a1.255,1.255,0,0,1,2.031,1.171,3.716,3.716,0,0,1-1.685,2.957,1.744,1.744,0,0,1-.851.261Zm.843-3.842a3.134,3.134,0,0,0-1.4,2.41.842.842,0,0,0,.3.733.775.775,0,0,0,.775-.11,3.118,3.118,0,0,0,1.4-2.41.842.842,0,0,0-.3-.733A.775.775,0,0,0,423.3,137.285Z" transform="translate(-243.619 -57.61)" fill="#455a64"/>
          <path id="Trazado_663718" data-name="Trazado 663718" d="M444.569,47.547A1.087,1.087,0,0,1,444,47.4a1.382,1.382,0,0,1-.615-1.272,3.733,3.733,0,0,1,1.685-2.966,1.255,1.255,0,0,1,2.031,1.171,3.741,3.741,0,0,1-1.685,2.966A1.685,1.685,0,0,1,444.569,47.547Zm1.382-4.011a1.137,1.137,0,0,0-.531.169,3.134,3.134,0,0,0-1.4,2.418.784.784,0,0,0,.3.725.792.792,0,0,0,.775-.1,3.134,3.134,0,0,0,1.4-2.418.843.843,0,0,0-.295-.733.505.505,0,0,0-.253-.059Z" transform="translate(-247.099 -42.877)" fill="#455a64"/>
          <path id="Trazado_663719" data-name="Trazado 663719" d="M444.569,68.887a1.087,1.087,0,0,1-.565-.152,1.382,1.382,0,0,1-.615-1.272,3.733,3.733,0,0,1,1.685-2.966,1.255,1.255,0,0,1,2.031,1.171,3.716,3.716,0,0,1-1.685,2.957A1.685,1.685,0,0,1,444.569,68.887Zm1.382-4.011a1.045,1.045,0,0,0-.531.169,3.134,3.134,0,0,0-1.4,2.41.64.64,0,0,0,1.078.623,3.118,3.118,0,0,0,1.4-2.41.842.842,0,0,0-.295-.733.506.506,0,0,0-.253-.059Z" transform="translate(-247.099 -46.237)" fill="#455a64"/>
          <path id="Trazado_663720" data-name="Trazado 663720" d="M444.569,90.227a1.087,1.087,0,0,1-.565-.152,1.39,1.39,0,0,1-.615-1.281,3.716,3.716,0,0,1,1.685-2.957,1.255,1.255,0,0,1,2.031,1.171,3.716,3.716,0,0,1-1.685,2.957A1.744,1.744,0,0,1,444.569,90.227Zm1.382-4.011a1.045,1.045,0,0,0-.531.169,3.117,3.117,0,0,0-1.4,2.41.64.64,0,0,0,1.079.624,3.118,3.118,0,0,0,1.4-2.41.843.843,0,0,0-.295-.733.506.506,0,0,0-.253-.059Z" transform="translate(-247.099 -49.597)" fill="#455a64"/>
          <path id="Trazado_663721" data-name="Trazado 663721" d="M444.569,111.564a1.087,1.087,0,0,1-.565-.143,1.39,1.39,0,0,1-.615-1.281,3.741,3.741,0,0,1,1.685-2.966,1.4,1.4,0,0,1,1.416-.1,1.382,1.382,0,0,1,.615,1.272,3.733,3.733,0,0,1-1.685,2.966A1.685,1.685,0,0,1,444.569,111.564Zm1.382-4.011a1.07,1.07,0,0,0-.531.177,3.118,3.118,0,0,0-1.4,2.41.64.64,0,0,0,1.079.623,3.134,3.134,0,0,0,1.4-2.418.843.843,0,0,0-.295-.725.514.514,0,0,0-.253-.067Z" transform="translate(-247.099 -52.961)" fill="#455a64"/>
          <path id="Trazado_663722" data-name="Trazado 663722" d="M425.282,124.068a.32.32,0,0,1-.16-.59l6.058-3.5V52.046a.329.329,0,0,1,.152-.278l9.319-5.376a.312.312,0,0,1,.43.118.3.3,0,0,1-.11.43l-9.159,5.291V120.2a.329.329,0,0,1-.16.278l-6.21,3.581A.346.346,0,0,1,425.282,124.068Z" transform="translate(-244.201 -43.424)" fill="#455a64"/>
          <path id="Trazado_663723" data-name="Trazado 663723" d="M432.65,73.637a.312.312,0,0,1-.152-.59l9.31-5.376a.317.317,0,0,1,.32.548L432.81,73.6A.345.345,0,0,1,432.65,73.637Z" transform="translate(-245.359 -46.774)" fill="#455a64"/>
          <path id="Trazado_663724" data-name="Trazado 663724" d="M432.65,94.941a.312.312,0,0,1-.152-.59l9.31-5.359a.317.317,0,0,1,.32.548l-9.319,5.35A.345.345,0,0,1,432.65,94.941Z" transform="translate(-245.359 -50.131)" fill="#455a64"/>
          <path id="Trazado_663725" data-name="Trazado 663725" d="M432.65,116.237a.312.312,0,0,1-.152-.59l9.31-5.376a.317.317,0,0,1,.32.548L432.81,116.2a.345.345,0,0,1-.16.042Z" transform="translate(-245.359 -53.481)" fill="#455a64"/>
          <path id="Trazado_663726" data-name="Trazado 663726" d="M214.432,282.331a.32.32,0,0,1-.27-.16.312.312,0,0,1,.118-.43l20.373-11.8V167.405a.3.3,0,0,1,.16-.27l13.692-7.9a.32.32,0,0,1,.43.11.329.329,0,0,1-.118.438l-13.532,7.811V270.156a.312.312,0,0,1-.16.278l-20.533,11.855A.345.345,0,0,1,214.432,282.331Z" transform="translate(-211.005 -61.189)" fill="#455a64"/>
          <path id="Trazado_663727" data-name="Trazado 663727" d="M255.919,160.379a1.087,1.087,0,0,1-.565-.143,1.39,1.39,0,0,1-.615-1.281,3.741,3.741,0,0,1,1.685-2.966h0a1.255,1.255,0,0,1,2.022,1.171,3.741,3.741,0,0,1-1.685,2.966,1.753,1.753,0,0,1-.843.253Zm.843-3.842a3.16,3.16,0,0,0-1.39,2.418.642.642,0,0,0,1.078.623,3.126,3.126,0,0,0,1.39-2.418.642.642,0,0,0-1.078-.623Z" transform="translate(-217.399 -60.642)" fill="#455a64"/>
          <path id="Trazado_663728" data-name="Trazado 663728" d="M211.609,307.917a1.112,1.112,0,0,1-.565-.152,1.39,1.39,0,0,1-.615-1.281,3.716,3.716,0,0,1,1.685-2.957,1.255,1.255,0,0,1,2.031,1.171,3.724,3.724,0,0,1-1.685,2.957A1.744,1.744,0,0,1,211.609,307.917ZM213,303.9a1.069,1.069,0,0,0-.539.177,3.117,3.117,0,0,0-1.4,2.41.647.647,0,0,0,1.087.624,3.151,3.151,0,0,0,1.39-2.41.843.843,0,0,0-.295-.733.481.481,0,0,0-.244-.084Z" transform="translate(-210.424 -83.869)" fill="#455a64"/>
        </g>
      </g>
      <g id="freepik--Character--inject-9" transform="translate(108.676 158.153)">
        <g id="freepik--character--inject-9-2" data-name="freepik--character--inject-9">
          <path id="Trazado_663729" data-name="Trazado 663729" d="M176.693,382.389s-1.247-26.347.135-36.4c1.188-8.619,2.814-12.546,3.059-14.5,0,0,1.34-20.289,1.517-37.511.084-8.291.843-14.189,5.384-24.038l28.555,6.488c.59,4.373,3.252,33.989,3.733,59.864.413,22.665-.236,42.5-.236,42.5v1.2a10.768,10.768,0,0,0,1.137,4.373,25.935,25.935,0,0,0,4.525,7.482c.607.649,4.769,4.3,5.317,5.055,1.786,2.081-1.913,3.261-4.668,2.89-2.907-.388-7.415-1.491-8.7-3.261-.843-1.171-1.491-5.3-2.368-6.5-2.957-4.027-4.171-5.763-4.213-7.044,0-2.326.758-3.252,1.045-4.558-.244-2.747-6.168-25.328-6.269-33.315-.051-3.808.211-9.058.211-9.058l-4.6-26.372c-1.778,6.58-5,18.865-6.041,25.142-1.289,7.667-5.645,30-8.426,40.157A53.3,53.3,0,0,0,183.964,383s-.093.885-.093.893c-.059,1.137-.556,13.262-1,15.815-.935,5.342-5.687,4.668-6.446.354-.649-3.682.16-15.057.177-16.455Z" transform="translate(-134.143 -196.342)" fill="#ffa8a7"/>
          <path id="Trazado_663730" data-name="Trazado 663730" d="M176.255,403.4c-1.34,0-.455,5.207-.8,8.535-.371,3.581-1.542,6.184-1.879,9.117a11.9,11.9,0,0,0,1.121,7.507c.927,2.14,5.62,5.055,7.406,2.014a17.23,17.23,0,0,0,1.963-9.892c-.211-3.446-.421-5.974-.489-8.594-.067-2.309,1.685-7.735,0-8.063l-.093.893c-.624,1.247-6.564,2.106-7.271-.286Z" transform="translate(-133.705 -217.353)" fill="#37474f"/>
          <path id="Trazado_663731" data-name="Trazado 663731" d="M215.8,407.47c-.413,1.685,0,6.243,0,6.243a6.108,6.108,0,0,0,3.3,2.637l1.154-6.37Z" transform="translate(-140.352 -217.994)" fill="#263238"/>
          <path id="Trazado_663732" data-name="Trazado 663732" d="M219.77,416.719l5.679-1.871,1.365-5.039-6.378,3.227Z" transform="translate(-141.007 -218.363)"/>
          <path id="Trazado_663733" data-name="Trazado 663733" d="M225,400.258v-1.2c.775.379,2.469,6.589,4.769,10.852,2.1,3.893,6.252,6.066,7.583,7.76,1.8,2.267-1.685,5.182-7.33,3.977-2.8-.6-7.027-2.384-8.173-4.272s-1.542-5.35-2.477-6.741-3.168-2.983-3.64-4.558a8.586,8.586,0,0,1,0-4.356c.438-1.441.843-3.176,1.314-3.016v1.087c.371.767,1.736,1.685,4.575,1.82C223.066,401.691,224.339,401.48,225,400.258Z" transform="translate(-140.326 -216.613)" fill="#37474f"/>
          <path id="Trazado_663734" data-name="Trazado 663734" d="M214.922,273.318s3.488,25.125,4.112,44.108.067,43.468.067,43.468-1.963,1.4-6.269,1.592-5.805-1.247-5.805-1.247-2.637-8.6-3.05-14.652a61.828,61.828,0,0,1,0-9.85l-3.851-25.319s-4.609,24.013-5.165,27.03-5.814,24.679-5.814,24.679a11.8,11.8,0,0,1-7.583,1.887c-4.12-.548-5.831-2.528-5.831-2.528s-.227-11.038.573-17.138,2.8-10.785,3.075-14.779.118-25.37.573-34.014c.522-9.706.75-11.838,5.055-23.786Z" transform="translate(-134.069 -196.788)" fill="#4db5e1"/>
          <path id="Trazado_663735" data-name="Trazado 663735" d="M214.922,273.318s3.488,25.125,4.112,44.108.067,43.468.067,43.468-1.963,1.4-6.269,1.592-5.805-1.247-5.805-1.247-2.637-8.6-3.05-14.652a61.828,61.828,0,0,1,0-9.85l-3.851-25.319s-4.609,24.013-5.165,27.03-5.814,24.679-5.814,24.679a11.8,11.8,0,0,1-7.583,1.887c-4.12-.548-5.831-2.528-5.831-2.528s-.227-11.038.573-17.138,2.8-10.785,3.075-14.779.118-25.37.573-34.014c.522-9.706.75-11.838,5.055-23.786Z" transform="translate(-134.069 -196.788)" opacity="0.4"/>
          <path id="Trazado_663736" data-name="Trazado 663736" d="M204.69,314.766l3.2-15.866s5.586-1.458,8.2-4.87c0,0-.725,3.783-6.471,6.2l-3.37,15.807,1.163,16.329Z" transform="translate(-138.633 -200.135)" opacity="0.15"/>
          <path id="Trazado_663737" data-name="Trazado 663737" d="M260.737,205.189c-2.966-4.078-4.407-3.294-5.6.9a47.5,47.5,0,0,1-2.3,6.1,15.621,15.621,0,0,0-1.1-3.429,1.938,1.938,0,0,0-2.233-1.188c-.354.152.1,1.449,0,3.008-.1,2-.447,3.37,0,5.451a7.457,7.457,0,0,1-.455,3.488c-2.258,4-10.364,15.166-10.364,15.166-1.584-.935-6.665-3.741-13.481-7.094-5.847-2.89-6.437-3.32-10.5-3.5l-.219,11.358c6.623,2.839,11.939,5.578,22.673,9.58,3.37,1.247,6.075,1.474,7.8-1.137s6.842-11.206,10.49-17.694c2.056-3.657,3.851-7.448,4.853-9.411C263.787,209.941,261.8,206.646,260.737,205.189Z" transform="translate(-140.174 -185.726)" fill="#ffa8a7"/>
          <path id="Trazado_663738" data-name="Trazado 663738" d="M196.593,228l-9.15,1.171a33.7,33.7,0,0,1-1.685,16.548l3.008,13.709c-.11,1.592-2.949,5.738-5.055,12.31,4.828,6.454,25.749,7.861,33.467,2.191-.6-7.372-1.247-11.2-1.483-13.481l.16-8.83c9.664-7.937-1.685-19.632-5.982-23.474h-4.011Z" transform="translate(-135.33 -189.739)" fill="#455a64"/>
          <path id="Trazado_663739" data-name="Trazado 663739" d="M126.332,240.608a1.171,1.171,0,0,1,.969-.666,3.724,3.724,0,0,1,1.222.126,36.793,36.793,0,0,0,7.305.843c.649,0,1.424-.051,1.761-.615s-.093-1.5-.4-2.224a4.6,4.6,0,0,1-.286-2.6c.1-.514.581-1.517,1.23-.75a19.682,19.682,0,0,0,3.092,3.16c2.031,1.727,2.7,3.168,4.685,4.836a147.846,147.846,0,0,0,16.135,10.161c7.2-11.661,10.751-23.1,16.363-23.516,2.983,2.873,2.806,12.7-.286,17.4-3.37,5.055-7.583,11.231-10.321,14.416-2.132,2.452-5.148,3.968-9.159,1.272-5.182-3.463-9.951-7.44-12.158-9.133a26.234,26.234,0,0,0-4.693-3.286,8.055,8.055,0,0,0-2.7-.784c-1.062-.093-2.132-.16-3.21-.219a21.72,21.72,0,0,1-4.811-.784A4.432,4.432,0,0,1,129,247.214a4.364,4.364,0,0,1-.843-1.458c-.177-.463-.506-.843-.7-1.3a2.14,2.14,0,0,1,.118-2.031,3.37,3.37,0,0,1-.969-.708,1.163,1.163,0,0,1-.278-1.112Z" transform="translate(-126.29 -189.954)" fill="#ffa8a7"/>
          <path id="Trazado_663740" data-name="Trazado 663740" d="M196.041,218.2c0-1.474-4.98-5.561-7.448-9.268-2.283-3.463-4.954-12.428,2.149-16.464-.177-5.772,2.839-7.541,7.356-9.117,3.589-1.255,10.886-1.1,16.211,1.618a8.788,8.788,0,0,1,4.145,4.1,5.342,5.342,0,0,1,.084,4.1c-.295,1.011-.042,1.078.531,1.87a2.932,2.932,0,0,1,.573,2.115c-.219,1.618-1.769,2.022-1.955,2.823a.792.792,0,0,0,1.357.708,1.635,1.635,0,0,1-1.921,1.3c-1.744-.093-3.3-2.469-3.3-2.469Z" transform="translate(-135.713 -182.59)" fill="#263238"/>
          <path id="Trazado_663741" data-name="Trazado 663741" d="M212.674,193.71c2.241.977,4.364,4.4,4.339,13.987,0,8.122-2.528,10.17-3.783,10.776s-3.707.295-6.1-.067v4.668s2.435,3.606,1.264,6.69c-9.984-1.744-11.568-6.96-11.568-6.96l-.177-10.65a3.37,3.37,0,0,1-3.792-.2c-2.132-1.576-2.713-4.744-1.213-6.387s3.421-1.778,5.156.059c0,0,3.64.506,8.426-2.528S212.194,196.827,212.674,193.71Z" transform="translate(-136.447 -184.341)" fill="#ffa8a7"/>
          <path id="Trazado_663742" data-name="Trazado 663742" d="M217,206.8a1.087,1.087,0,1,0,.333-.775A1.078,1.078,0,0,0,217,206.8Z" transform="translate(-140.571 -186.232)" fill="#263238"/>
          <path id="Trazado_663743" data-name="Trazado 663743" d="M206.81,207.383a1.154,1.154,0,1,0,1.2-1.163A1.188,1.188,0,0,0,206.81,207.383Z" transform="translate(-138.966 -186.311)" fill="#263238"/>
          <path id="Trazado_663744" data-name="Trazado 663744" d="M208.434,215.14l3.9,1.2a1.988,1.988,0,0,1-2.528,1.5A2.233,2.233,0,0,1,208.434,215.14Z" transform="translate(-139.209 -187.715)" fill="#b16668"/>
          <path id="Trazado_663745" data-name="Trazado 663745" d="M210.64,218.071a1.929,1.929,0,0,0-1.929-1.913,1.961,1.961,0,0,0-.32,0,2.157,2.157,0,0,0,1.458,1.811,1.812,1.812,0,0,0,.792.1Z" transform="translate(-139.215 -187.874)" fill="#f28f8f"/>
          <path id="Trazado_663746" data-name="Trazado 663746" d="M219.88,204.264l-2.78-1.1a1.432,1.432,0,0,1,1.921-.843A1.55,1.55,0,0,1,219.88,204.264Z" transform="translate(-140.586 -185.678)" fill="#263238"/>
          <path id="Trazado_663747" data-name="Trazado 663747" d="M198,206.28V210.8a2.115,2.115,0,0,0,2.165-2.182A2.334,2.334,0,0,0,198,206.28Z" transform="translate(-137.579 -186.32)" fill="#263238"/>
          <path id="Trazado_663748" data-name="Trazado 663748" d="M212.71,206.3l.868,6.6,2.932-1.424Z" transform="translate(-139.895 -186.323)" fill="#f28f8f"/>
          <path id="Trazado_663749" data-name="Trazado 663749" d="M208.584,222.281c-2.528-.295-7.7-1.744-8.544-3.851a5.552,5.552,0,0,0,1.862,2.679c1.567,1.34,6.69,2.738,6.69,2.738Z" transform="translate(-137.901 -188.233)" fill="#f28f8f"/>
        </g>
      </g>
      <g id="freepik--Screens--inject-9" transform="translate(224.046 27.365)">
        <g id="freepik--window--inject-9-2" data-name="freepik--window--inject-9" transform="translate(0.008 46.253)">
          <path id="Trazado_663750" data-name="Trazado 663750" d="M309.5,82.521a2.814,2.814,0,0,0-2.839.278h0l-7.945,4.584a3.64,3.64,0,0,0-1.533,2.915v5.055a5.333,5.333,0,0,1-2.477,4.12l-14.981,8.771v-2.907a1.4,1.4,0,0,0-.657-1.3l-3.716-2.149a2.064,2.064,0,0,0-1.946.143l-2.452,1.373-.59.337-3.96,2.317a7.222,7.222,0,0,0-.64.438l-.3.27a7.128,7.128,0,0,0-2.224,4.786v99.532a2.25,2.25,0,0,0,.918,2.047l3.733,2.157a2.233,2.233,0,0,0,2.241-.227l41.142-23.752a7.01,7.01,0,0,0,3.168-5.494V87.265a2.806,2.806,0,0,0-1.18-2.6Z" transform="translate(-263.227 -82.26)" fill="#e0e0e0"/>
          <path id="Trazado_663751" data-name="Trazado 663751" d="M279.163,107.575a2.115,2.115,0,0,0-1.837.2l-2.452,1.382-.59.337-3.994,2.309a5.244,5.244,0,0,0-.649.447l-.3.27a7.256,7.256,0,0,0-1.163,1.432L264.46,111.8a6.935,6.935,0,0,1,1.154-1.441l.3-.27a6.161,6.161,0,0,1,.64-.438l4-2.309.59-.345,2.452-1.365a2,2,0,0,1,1.946-.152Z" transform="translate(-263.421 -85.888)" fill="#f0f0f0"/>
          <path id="Trazado_663752" data-name="Trazado 663752" d="M319.647,84.67a2.8,2.8,0,0,0-2.831.278l-7.945,4.584a2.957,2.957,0,0,0-1.087,1.239l-3.724-2.149a2.957,2.957,0,0,1,1.087-1.239L313.1,82.8a2.8,2.8,0,0,1,2.831-.278Z" transform="translate(-269.655 -82.26)" fill="#f0f0f0"/>
          <path id="Trazado_663753" data-name="Trazado 663753" d="M307.472,91.959a3.623,3.623,0,0,0-.447,1.685V98.7a5.055,5.055,0,0,1-1.222,3.016l-3.724-2.149a5.123,5.123,0,0,0,1.222-3.016V91.5a3.733,3.733,0,0,1,.447-1.685Z" transform="translate(-269.343 -83.449)" opacity="0.1"/>
          <path id="Trazado_663754" data-name="Trazado 663754" d="M311.086,85.348h0l-7.945,4.584a3.64,3.64,0,0,0-1.491,2.915V97.9a5.291,5.291,0,0,1-2.486,4.12l-16.219,9.5c-1.365.792-2.477.227-2.477-1.255v-4.525c0-1.466-1.348-1.837-2.6-1.146l-2.452,1.365-.59.337-4,2.317a6.167,6.167,0,0,0-.64.438l-.3.27a7.128,7.128,0,0,0-2.224,4.786v99.532c0,2.022,1.424,2.848,3.168,1.828l41.142-23.752a7.01,7.01,0,0,0,3.168-5.494V87.665C315.13,85.112,313.293,84.067,311.086,85.348Z" transform="translate(-263.924 -82.66)" fill="#fafafa"/>
          <path id="Trazado_663755" data-name="Trazado 663755" d="M312.872,85.562c1.357,0,1.466,1.6,1.466,2.1v98.58a6.286,6.286,0,0,1-2.789,4.836L270.407,214.8a2.132,2.132,0,0,1-1.036.329c-.893,0-.986-1.045-.986-1.5V114.1a6.344,6.344,0,0,1,1.963-4.213l.11-.093.169-.152a3.909,3.909,0,0,1,.548-.371l3.994-2.317.581-.337,2.452-1.365a1.761,1.761,0,0,1,.843-.236c.438,0,.64.227.64.716v4.508a2.123,2.123,0,0,0,2.081,2.376,3.067,3.067,0,0,0,1.55-.463l16.194-9.5a6.092,6.092,0,0,0,2.865-4.786V92.817a2.882,2.882,0,0,1,1.146-2.25l7.945-4.592a2.941,2.941,0,0,1,1.407-.438m0-.767a3.623,3.623,0,0,0-1.786.548L303.14,89.9a3.648,3.648,0,0,0-1.491,2.941V97.9a5.291,5.291,0,0,1-2.486,4.12l-16.219,9.5a2.368,2.368,0,0,1-1.163.362c-.784,0-1.314-.59-1.314-1.618v-4.525a1.34,1.34,0,0,0-1.407-1.483,2.46,2.46,0,0,0-1.188.337l-2.452,1.365-.59.337-4,2.317a6.173,6.173,0,0,0-.64.438l-.3.27a7.128,7.128,0,0,0-2.224,4.786v99.532c0,1.432.716,2.267,1.753,2.267a2.857,2.857,0,0,0,1.415-.438l41.143-23.752a7.01,7.01,0,0,0,3.168-5.494V87.66c0-1.812-.91-2.865-2.224-2.865Z" transform="translate(-263.924 -82.655)" fill="#e0e0e0"/>
          <path id="Trazado_663756" data-name="Trazado 663756" d="M274.26,127.819,311.51,106.3v35.851L274.26,163.67Z" transform="translate(-264.964 -86.045)" fill="#4db5e1"/>
          <path id="Trazado_663757" data-name="Trazado 663757" d="M274.26,168.091v-14.34l12.411-16.135,15.529,8.956-3.193-3.193,5.982-9,6.521,5.468v6.724Z" transform="translate(-264.964 -90.466)" opacity="0.2"/>
          <path id="Trazado_663758" data-name="Trazado 663758" d="M303.3,124.383c1.685-.961,3.025-.177,3.025,1.753a6.665,6.665,0,0,1-3.025,5.232c-1.685.969-3.016.185-3.016-1.744a6.69,6.69,0,0,1,3.016-5.241Z" transform="translate(-269.06 -88.827)" opacity="0.2"/>
          <path id="Trazado_663759" data-name="Trazado 663759" d="M277.351,176.431c1.685-.986,3.109-.185,3.109,1.795a6.859,6.859,0,0,1-3.1,5.376c-1.685.994-3.1.185-3.109-1.795a6.884,6.884,0,0,1,3.1-5.376Z" transform="translate(-264.962 -97.019)" fill="#4db5e1"/>
          <path id="Trazado_663760" data-name="Trazado 663760" d="M286.3,169.759l16.674-9.614c.556-.312.994-.059.986.573v.329a2.233,2.233,0,0,1-1,1.685L286.3,172.345c-.548.312-.994.059-.994-.581v-.32a2.191,2.191,0,0,1,.986-1.685Z" transform="translate(-266.703 -94.501)" fill="#455a64"/>
          <path id="Trazado_663761" data-name="Trazado 663761" d="M286.035,175.232l25.5-14.711c.4-.236.725-.042.725.421v.236a1.685,1.685,0,0,1-.733,1.264l-25.488,14.711a.453.453,0,0,1-.733-.421V176.5a1.618,1.618,0,0,1,.725-1.264Z" transform="translate(-266.703 -94.565)" fill="#4db5e1"/>
          <path id="Trazado_663762" data-name="Trazado 663762" d="M274.922,227.615a.227.227,0,0,1-.1,0,.177.177,0,0,1-.093-.16v-3.572l-.91.522a.2.2,0,0,1-.236,0,.194.194,0,0,1,0-.236l3.522-6.007a.185.185,0,0,1,.253-.076l3.522,1.946a.185.185,0,0,1,.1.169.2.2,0,0,1-.093.169l-1.1.632v3.749a.177.177,0,0,1-.093.16L275.04,227.6A.194.194,0,0,1,274.922,227.615Zm0-4.28a.194.194,0,0,1,.093,0,.185.185,0,0,1,.093.169v3.572l4.28-2.469v-3.792a.2.2,0,0,1,.1-.168l.893-.522-3.059-1.685-3.067,5.224.573-.329Z" transform="translate(-264.851 -103.64)" fill="#4db5e1"/>
          <path id="Trazado_663763" data-name="Trazado 663763" d="M314.2,204.863h0l-.716-.135a3.16,3.16,0,0,1-2.528-3.117,4.525,4.525,0,0,1,1.415-3.6,1.239,1.239,0,0,1,1.2-.261,1.137,1.137,0,0,1,.573.539,3.37,3.37,0,0,1,1.685-2.275.994.994,0,0,1,.986.126,2.224,2.224,0,0,1,.6,1.972,12.765,12.765,0,0,1-2.351,5.687l-.7.986A.219.219,0,0,1,314.2,204.863Zm-.994-6.808a1.045,1.045,0,0,0-.615.253,4.1,4.1,0,0,0-1.255,3.261,2.772,2.772,0,0,0,2.191,2.772l.59.118.632-.885a12.318,12.318,0,0,0,2.283-5.494,1.93,1.93,0,0,0-.447-1.643.607.607,0,0,0-.624-.067A3.37,3.37,0,0,0,314.4,198.9v.059a.185.185,0,0,1-.042.118.194.194,0,0,1-.177.135h0a.194.194,0,0,1-.194-.169,1.154,1.154,0,0,0-.565-.961.632.632,0,0,0-.211-.025Z" transform="translate(-270.74 -100.157)" fill="#4db5e1"/>
          <path id="Trazado_663764" data-name="Trazado 663764" d="M293.334,217.926a.126.126,0,0,1-.093,0,.185.185,0,0,1-.1-.16V216.73a4.044,4.044,0,0,1,1.685-3.219l.91-.531a1.23,1.23,0,0,1,1.239-.084,1.609,1.609,0,0,1,.649,1.458v1.036a.194.194,0,0,1-.093.169l-4.12,2.368a.126.126,0,0,1-.076,0Zm3.151-4.811a1.087,1.087,0,0,0-.539.16h0l-.918.531a3.64,3.64,0,0,0-1.5,2.89v.708l3.733-2.157v-.927a1.247,1.247,0,0,0-.463-1.129A.657.657,0,0,0,296.485,213.115Zm-.64,0Z" transform="translate(-267.936 -102.806)" fill="#4db5e1"/>
          <path id="Trazado_663765" data-name="Trazado 663765" d="M294.978,211.505a.91.91,0,0,1-.447-.118,1.407,1.407,0,0,1-.573-1.272,3.421,3.421,0,0,1,1.466-2.78,1.062,1.062,0,0,1,1.087-.076,1.4,1.4,0,0,1,.565,1.272,3.438,3.438,0,0,1-1.458,2.78,1.306,1.306,0,0,1-.64.194Zm1.087-3.977a.927.927,0,0,0-.447.135,3.067,3.067,0,0,0-1.281,2.452,1.045,1.045,0,0,0,.379.935.7.7,0,0,0,.708-.067,3.075,3.075,0,0,0,1.272-2.452,1.028,1.028,0,0,0-.379-.935A.471.471,0,0,0,296.065,207.528Z" transform="translate(-268.064 -101.921)" fill="#4db5e1"/>
          <path id="Trazado_663766" data-name="Trazado 663766" d="M309.852,168.518l-33.947,19.607a3.674,3.674,0,0,0-1.685,2.865v3.37c0,1.053.741,1.483,1.685.952l33.955-19.59a3.674,3.674,0,0,0,1.685-2.865v-3.37C311.5,168.417,310.762,168,309.852,168.518Z" transform="translate(-264.957 -95.805)" fill="#4db5e1"/>
          <path id="Trazado_663767" data-name="Trazado 663767" d="M309.852,168.518l-33.947,19.607a3.674,3.674,0,0,0-1.685,2.865v3.37c0,1.053.741,1.483,1.685.952l33.955-19.59a3.674,3.674,0,0,0,1.685-2.865v-3.37C311.5,168.417,310.762,168,309.852,168.518Z" transform="translate(-264.957 -95.805)" fill="#fff" opacity="0.5"/>
          <path id="Trazado_663768" data-name="Trazado 663768" d="M309.852,181.288l-33.947,19.607a3.674,3.674,0,0,0-1.685,2.865v3.37c0,1.053.741,1.483,1.685.952l33.955-19.59a3.674,3.674,0,0,0,1.685-2.865v-3.37C311.5,181.187,310.762,180.766,309.852,181.288Z" transform="translate(-264.957 -97.815)" fill="#4db5e1"/>
          <path id="Trazado_663769" data-name="Trazado 663769" d="M309.852,181.288l-33.947,19.607a3.674,3.674,0,0,0-1.685,2.865v3.37c0,1.053.741,1.483,1.685.952l33.955-19.59a3.674,3.674,0,0,0,1.685-2.865v-3.37C311.5,181.187,310.762,180.766,309.852,181.288Z" transform="translate(-264.957 -97.815)" fill="#fff" opacity="0.7"/>
        </g>
        <g id="freepik--window--inject-9-3" data-name="freepik--window--inject-9" transform="translate(80.051)">
          <path id="Trazado_663770" data-name="Trazado 663770" d="M404.5,27.661a2.8,2.8,0,0,0-2.831.278h0l-7.945,4.584a3.648,3.648,0,0,0-1.534,2.915v5.055a5.325,5.325,0,0,1-2.528,4.129l-14.981,8.763V50.478a1.39,1.39,0,0,0-.649-1.3l-3.716-2.14a2.014,2.014,0,0,0-1.946.143l-2.452,1.365-.59.345L361.406,51.2a4.608,4.608,0,0,0-.64.447l-.3.27a7.086,7.086,0,0,0-2.224,4.777v99.532a2.233,2.233,0,0,0,.918,2.047l3.733,2.157a2.216,2.216,0,0,0,2.241-.227l41.143-23.752a7.01,7.01,0,0,0,3.168-5.485V32.388a2.823,2.823,0,0,0-1.18-2.6Z" transform="translate(-358.225 -27.37)" fill="#e0e0e0"/>
          <path id="Trazado_663771" data-name="Trazado 663771" d="M374.171,52.765a2.081,2.081,0,0,0-1.837.194l-2.452,1.382-.59.337-4,2.317a3.923,3.923,0,0,0-.64.438l-.3.27a6.917,6.917,0,0,0-1.163,1.432l-3.724-2.149a7.2,7.2,0,0,1,1.163-1.432c.1-.093.194-.185.3-.27a4.6,4.6,0,0,1,.64-.447l4-2.309.59-.337,2.452-1.373a2.039,2.039,0,0,1,1.946-.152Z" transform="translate(-358.42 -31.005)" fill="#f0f0f0"/>
          <path id="Trazado_663772" data-name="Trazado 663772" d="M414.658,29.8a2.8,2.8,0,0,0-2.831.278l-7.945,4.558a2.9,2.9,0,0,0-1.1,1.23L399.07,33.8a2.873,2.873,0,0,1,1.087-1.23L408.1,27.9a2.823,2.823,0,0,1,2.831-.278C411.6,28.043,413.983,29.425,414.658,29.8Z" transform="translate(-364.656 -27.365)" fill="#f0f0f0"/>
          <path id="Trazado_663773" data-name="Trazado 663773" d="M402.474,37.1a3.741,3.741,0,0,0-.438,1.685v5.055a5.055,5.055,0,0,1-1.222,3.016l-3.724-2.149a5.123,5.123,0,0,0,1.222-3.016V36.635a3.757,3.757,0,0,1,.447-1.685Z" transform="translate(-364.344 -28.559)" opacity="0.1"/>
          <path id="Trazado_663774" data-name="Trazado 663774" d="M406.088,30.488h0l-7.945,4.558a3.623,3.623,0,0,0-1.5,2.941v5.055a5.325,5.325,0,0,1-2.528,4.129L377.9,56.658c-1.373.792-2.486.236-2.486-1.255V50.878c0-1.466-1.348-1.828-2.587-1.146l-2.452,1.373-.59.337-4,2.309a4.61,4.61,0,0,0-.64.447c-.11.084-.2.177-.3.27a7.1,7.1,0,0,0-2.224,4.777v99.532c0,2.031,1.415,2.848,3.168,1.828l41.142-23.752a7.01,7.01,0,0,0,3.168-5.485V32.789C410.124,30.252,408.3,29.216,406.088,30.488Z" transform="translate(-358.917 -27.771)" fill="#fafafa"/>
          <path id="Trazado_663775" data-name="Trazado 663775" d="M407.866,30.7c1.365,0,1.466,1.6,1.466,2.1v98.58a6.243,6.243,0,0,1-2.789,4.828L365.4,159.962a2.081,2.081,0,0,1-1.028.329c-.893,0-.994-1.045-.994-1.5V59.241a6.32,6.32,0,0,1,1.972-4.213l.11-.1.169-.152a4.7,4.7,0,0,1,.539-.371l4-2.317.581-.329,2.443-1.373a1.786,1.786,0,0,1,.843-.236c.438,0,.64.227.64.716v4.525a2.123,2.123,0,0,0,2.064,2.4,3.151,3.151,0,0,0,1.55-.463l16.211-9.5a6.066,6.066,0,0,0,2.865-4.777V38a2.865,2.865,0,0,1,1.154-2.25l7.945-4.584a2.865,2.865,0,0,1,1.4-.447m0-.767a3.615,3.615,0,0,0-1.778.548l-7.945,4.541a3.623,3.623,0,0,0-1.5,2.941v5.055a5.325,5.325,0,0,1-2.528,4.129L377.9,56.655a2.368,2.368,0,0,1-1.163.362c-.784,0-1.323-.59-1.323-1.618V50.875a1.34,1.34,0,0,0-1.4-1.508,2.528,2.528,0,0,0-1.188.337l-2.452,1.373-.59.337-4,2.309a4.611,4.611,0,0,0-.64.447c-.11.084-.2.177-.3.27a7.1,7.1,0,0,0-2.224,4.777v99.558c0,1.441.708,2.266,1.753,2.266a2.814,2.814,0,0,0,1.415-.438l41.143-23.752a7.01,7.01,0,0,0,3.168-5.485V32.785c0-1.812-.91-2.865-2.233-2.865Z" transform="translate(-358.917 -27.767)" fill="#e0e0e0"/>
          <path id="Trazado_663776" data-name="Trazado 663776" d="M369.26,72.959,406.518,51.44V94.546L369.26,116.056Z" transform="translate(-359.963 -31.155)" fill="#4db5e1"/>
          <path id="Trazado_663777" data-name="Trazado 663777" d="M369.26,121.36V107.02l12.8-21.89L397.2,98.055l-3.1-5.384,4.761-7.541,7.659,6.252V99.85Z" transform="translate(-359.963 -36.459)" opacity="0.2"/>
          <path id="Trazado_663778" data-name="Trazado 663778" d="M398.3,68.583c1.685-.961,3.025-.177,3.025,1.753A6.673,6.673,0,0,1,398.3,75.61c-1.685.969-3.025.185-3.025-1.744A6.741,6.741,0,0,1,398.3,68.583Z" transform="translate(-364.059 -33.789)" opacity="0.2"/>
          <path id="Trazado_663779" data-name="Trazado 663779" d="M369.921,172.759a.168.168,0,0,1-.093,0,.194.194,0,0,1-.093-.169v-3.572l-.918.531a.194.194,0,0,1-.261-.261l3.53-6.016a.177.177,0,0,1,.253-.067l3.522,1.938a.2.2,0,0,1,.1.169.185.185,0,0,1-.1.168l-1.1.632V169.9a.185.185,0,0,1-.1.168l-4.651,2.688Zm0-4.289a.227.227,0,0,1,.1,0,.194.194,0,0,1,.093.169v3.572l4.272-2.469v-3.792a.194.194,0,0,1,.093-.169l.9-.514-3.067-1.685-3.059,5.232.573-.337A.168.168,0,0,1,369.921,168.471Z" transform="translate(-359.848 -48.746)" fill="#4db5e1"/>
          <path id="Trazado_663780" data-name="Trazado 663780" d="M390.212,160.952h0l-.716-.143a3.151,3.151,0,0,1-2.528-3.109,4.55,4.55,0,0,1,1.407-3.6,1.213,1.213,0,0,1,1.213-.261,1.137,1.137,0,0,1,.573.539,3.37,3.37,0,0,1,1.685-2.275,1,1,0,0,1,.986.118,2.233,2.233,0,0,1,.59,1.98,12.731,12.731,0,0,1-2.342,5.687l-.708.986a.177.177,0,0,1-.16.076Zm-.994-6.8a1.045,1.045,0,0,0-.615.253,4.1,4.1,0,0,0-1.264,3.261,2.8,2.8,0,0,0,2.182,2.764l.59.118.632-.893a12.386,12.386,0,0,0,2.275-5.494,1.938,1.938,0,0,0-.438-1.643.64.64,0,0,0-.632-.059,3.35,3.35,0,0,0-1.567,2.528.282.282,0,0,1-.042.185.194.194,0,0,1-.177.126h0a.185.185,0,0,1-.185-.16,1.146,1.146,0,0,0-.565-.961.488.488,0,0,0-.194-.025Z" transform="translate(-362.749 -46.991)" fill="#4db5e1"/>
          <path id="Trazado_663781" data-name="Trazado 663781" d="M406.874,152.376a.16.16,0,0,1-.1,0,.177.177,0,0,1-.093-.16V151.18a4.044,4.044,0,0,1,1.685-3.219l.918-.531h0a1.23,1.23,0,0,1,1.239-.084,1.609,1.609,0,0,1,.649,1.458v1.036a.186.186,0,0,1-.1.169l-4.12,2.334A.126.126,0,0,1,406.874,152.376Zm2.612-4.651-.918.531a3.648,3.648,0,0,0-1.508,2.89v.708l3.733-2.157v-.927a1.247,1.247,0,0,0-.455-1.129.843.843,0,0,0-.843.084Z" transform="translate(-365.854 -46.234)" fill="#4db5e1"/>
          <path id="Trazado_663782" data-name="Trazado 663782" d="M408.51,145.955a.927.927,0,0,1-.447-.118,1.4,1.4,0,0,1-.564-1.272,3.421,3.421,0,0,1,1.466-2.78,1.053,1.053,0,0,1,1.078-.076,1.407,1.407,0,0,1,.573,1.272,3.421,3.421,0,0,1-1.466,2.78A1.306,1.306,0,0,1,408.51,145.955Zm1.087-3.977a.994.994,0,0,0-.447.135,3.084,3.084,0,0,0-1.272,2.452,1.07,1.07,0,0,0,.379.944.725.725,0,0,0,.708-.076,3.075,3.075,0,0,0,1.272-2.452,1.045,1.045,0,0,0-.379-.935.489.489,0,0,0-.253-.067Z" transform="translate(-365.982 -45.349)" fill="#4db5e1"/>
          <path id="Trazado_663783" data-name="Trazado 663783" d="M370.905,128.548l24.637-14.223c.91-.531,1.685-.152,1.685.843a3.539,3.539,0,0,1-1.685,2.747l-24.637,14.214c-.918.531-1.685.16-1.685-.843A3.539,3.539,0,0,1,370.905,128.548Z" transform="translate(-359.956 -41.017)" fill="#455a64"/>
          <path id="Trazado_663784" data-name="Trazado 663784" d="M370.905,136.217l32.5-18.772c.918-.531,1.685-.152,1.685.843a3.522,3.522,0,0,1-1.685,2.747l-32.5,18.747c-.918.522-1.685.152-1.685-.843a3.539,3.539,0,0,1,1.685-2.721Z" transform="translate(-359.956 -41.509)" fill="#455a64"/>
          <path id="Trazado_663785" data-name="Trazado 663785" d="M372.361,148.24c1.685-.994,3.1-.194,3.1,1.786a6.858,6.858,0,0,1-3.1,5.376c-1.685.994-3.1.185-3.1-1.786A6.816,6.816,0,0,1,372.361,148.24Z" transform="translate(-359.963 -46.327)" fill="#4db5e1"/>
          <path id="Trazado_663786" data-name="Trazado 663786" d="M381.306,141.563l16.674-9.588c.548-.312.986-.059.977.573v.27a2.2,2.2,0,0,1-1,1.685l-16.649,9.614c-.548.312-.986.059-.986-.573v-.329A2.182,2.182,0,0,1,381.306,141.563Z" transform="translate(-361.704 -43.813)" fill="#455a64"/>
          <path id="Trazado_663787" data-name="Trazado 663787" d="M381.035,147.031l25.513-14.72c.4-.236.725-.042.716.421v.236a1.685,1.685,0,0,1-.741,1.264l-25.488,14.711c-.4.236-.725.051-.725-.421v-.236A1.584,1.584,0,0,1,381.035,147.031Z" transform="translate(-361.702 -43.871)" fill="#4db5e1"/>
        </g>
        <g id="freepik--window--inject-9-4" data-name="freepik--window--inject-9" transform="translate(0 177.187)">
          <path id="Trazado_663788" data-name="Trazado 663788" d="M309.5,237.951a2.814,2.814,0,0,0-2.839.27h0l-7.945,4.592a3.64,3.64,0,0,0-1.533,2.915v5.055a5.333,5.333,0,0,1-2.477,4.12l-14.981,8.746V260.7a1.373,1.373,0,0,0-.657-1.289l-3.716-2.081a2.014,2.014,0,0,0-1.946.143l-2.452,1.373-.59.337-3.96,2.283a5.162,5.162,0,0,0-.649.438l-.3.27a7.128,7.128,0,0,0-2.224,4.777v99.541a2.25,2.25,0,0,0,.918,2.047l3.733,2.157a2.233,2.233,0,0,0,2.241-.228l41.142-23.752a7.01,7.01,0,0,0,3.168-5.494v-98.58a2.789,2.789,0,0,0-1.18-2.587Z" transform="translate(-263.217 -237.664)" fill="#e0e0e0"/>
          <path id="Trazado_663789" data-name="Trazado 663789" d="M279.163,263.015a2.115,2.115,0,0,0-1.837.2l-2.452,1.373-.59.337-3.994,2.317a6.263,6.263,0,0,0-.649.438l-.3.27a7.775,7.775,0,0,0-1.163,1.432l-3.716-2.149a6.884,6.884,0,0,1,1.154-1.432l.3-.27a5.054,5.054,0,0,1,.64-.438l4-2.317.59-.337,2.452-1.373a2.014,2.014,0,0,1,1.946-.143Z" transform="translate(-263.412 -241.293)" fill="#f0f0f0"/>
          <path id="Trazado_663790" data-name="Trazado 663790" d="M319.647,240.07a2.78,2.78,0,0,0-2.831.27l-7.937,4.592a2.89,2.89,0,0,0-1.1,1.23l-3.724-2.149a2.932,2.932,0,0,1,1.087-1.23l7.954-4.592a2.814,2.814,0,0,1,2.831-.27Z" transform="translate(-269.647 -237.659)" fill="#f0f0f0"/>
          <path id="Trazado_663791" data-name="Trazado 663791" d="M307.472,247.349a3.792,3.792,0,0,0-.447,1.685v5.055a5.055,5.055,0,0,1-1.222,3.016l-3.724-2.149a5.156,5.156,0,0,0,1.23-3.016v-5.055a3.775,3.775,0,0,1,.438-1.685Z" transform="translate(-269.335 -238.846)" opacity="0.1"/>
          <path id="Trazado_663792" data-name="Trazado 663792" d="M311.078,240.739h0l-7.945,4.592a3.64,3.64,0,0,0-1.533,2.915V253.3a5.334,5.334,0,0,1-2.477,4.12l-16.228,9.5c-1.365.792-2.477.227-2.477-1.255V261.1c0-1.458-1.348-1.828-2.6-1.146l-2.452,1.373-.59.337-4,2.317a5.057,5.057,0,0,0-.64.438l-.3.27a7.128,7.128,0,0,0-2.224,4.786v99.566c0,2.022,1.424,2.839,3.168,1.828l41.142-23.752a7.01,7.01,0,0,0,3.168-5.494v-98.58C315.122,240.511,313.285,239.466,311.078,240.739Z" transform="translate(-263.908 -238.059)" fill="#fafafa"/>
          <path id="Trazado_663793" data-name="Trazado 663793" d="M312.869,240.955c1.357,0,1.466,1.609,1.466,2.1v98.58a6.252,6.252,0,0,1-2.789,4.828L270.4,370.213a2.157,2.157,0,0,1-1.036.337c-.893,0-.986-1.053-.986-1.5V269.518a6.344,6.344,0,0,1,1.963-4.213l.11-.093.169-.152a3.967,3.967,0,0,1,.548-.379l3.994-2.309.581-.337,2.452-1.365a1.761,1.761,0,0,1,.843-.236c.438,0,.64.227.64.708v4.533a2.123,2.123,0,0,0,2.081,2.376,3.067,3.067,0,0,0,1.55-.463l16.219-9.487a6.083,6.083,0,0,0,2.865-4.786V248.26a2.865,2.865,0,0,1,1.154-2.25l7.945-4.592a2.907,2.907,0,0,1,1.4-.447m0-.758a3.69,3.69,0,0,0-1.786.539l-7.945,4.592a3.64,3.64,0,0,0-1.533,2.915v5.055a5.333,5.333,0,0,1-2.477,4.12l-16.228,9.5a2.351,2.351,0,0,1-1.163.354c-.784,0-1.314-.581-1.314-1.609v-4.584a1.34,1.34,0,0,0-1.407-1.475,2.528,2.528,0,0,0-1.188.329L275.4,261.32l-.59.337-4,2.317a5.065,5.065,0,0,0-.64.438l-.3.27a7.128,7.128,0,0,0-2.224,4.786v99.566c0,1.432.716,2.267,1.753,2.267a2.856,2.856,0,0,0,1.415-.438L311.95,347.11a7.01,7.01,0,0,0,3.168-5.494v-98.58c0-1.812-.91-2.856-2.224-2.856Z" transform="translate(-263.913 -238.056)" fill="#e0e0e0"/>
          <path id="Trazado_663794" data-name="Trazado 663794" d="M274.917,383.011a.228.228,0,0,1-.1,0,.177.177,0,0,1-.093-.16v-3.572l-.91.522a.185.185,0,0,1-.261-.261l3.522-6.016a.194.194,0,0,1,.253-.067l3.53,1.946a.177.177,0,0,1,.093.16.185.185,0,0,1-.093.169l-1.1.64v3.783a.185.185,0,0,1-.093.168l-4.659,2.688A.168.168,0,0,1,274.917,383.011Zm0-4.28a.168.168,0,0,1,.093,0,.177.177,0,0,1,.093.16v3.572l4.28-2.469V376.2a.185.185,0,0,1,.1-.16l.893-.522-3.059-1.685-3.067,5.232.573-.329Z" transform="translate(-264.837 -259.035)" fill="#4db5e1"/>
          <path id="Trazado_663795" data-name="Trazado 663795" d="M295.2,371.213h0l-.716-.135a3.143,3.143,0,0,1-2.528-3.117,4.474,4.474,0,0,1,1.407-3.589,1.23,1.23,0,0,1,1.2-.27,1.137,1.137,0,0,1,.573.539,3.429,3.429,0,0,1,1.685-2.275,1.019,1.019,0,0,1,.986.126,2.224,2.224,0,0,1,.6,1.972,12.765,12.765,0,0,1-2.351,5.687l-.7.986A.194.194,0,0,1,295.2,371.213Zm-.986-6.808a1.1,1.1,0,0,0-.623.253,4.129,4.129,0,0,0-1.255,3.261,2.78,2.78,0,0,0,2.191,2.772l.59.118.632-.843a12.319,12.319,0,0,0,2.283-5.494,1.929,1.929,0,0,0-.447-1.643.607.607,0,0,0-.623-.067,3.37,3.37,0,0,0-1.567,2.528.143.143,0,0,1,0,.059.185.185,0,0,1-.042.118.194.194,0,0,1-.177.135h0a.2.2,0,0,1-.194-.168,1.154,1.154,0,0,0-.565-.961.59.59,0,0,0-.2-.067Z" transform="translate(-267.74 -257.281)" fill="#4db5e1"/>
          <path id="Trazado_663796" data-name="Trazado 663796" d="M311.865,362.625a.168.168,0,0,1-.093,0,.194.194,0,0,1-.093-.169v-1.028a4.053,4.053,0,0,1,1.685-3.227l.91-.522a1.188,1.188,0,0,1,1.239-.084,1.6,1.6,0,0,1,.649,1.458v1.028a.185.185,0,0,1-.093.169l-4.12,2.351Zm3.151-4.811a1.112,1.112,0,0,0-.539.169h0l-.918.531a3.614,3.614,0,0,0-1.5,2.89v.725l3.733-2.157v-.918a1.264,1.264,0,0,0-.472-1.137A.632.632,0,0,0,315.017,357.814ZM314.385,357.814Z" transform="translate(-270.846 -256.52)" fill="#4db5e1"/>
          <path id="Trazado_663797" data-name="Trazado 663797" d="M313.508,356.186a.843.843,0,0,1-.447-.118,1.382,1.382,0,0,1-.573-1.272,3.471,3.471,0,0,1,1.466-2.78,1.078,1.078,0,0,1,1.087-.067,1.4,1.4,0,0,1,.565,1.272,3.455,3.455,0,0,1-1.458,2.78A1.289,1.289,0,0,1,313.508,356.186Zm1.1-3.96a.842.842,0,0,0-.447.143,3.042,3.042,0,0,0-1.272,2.443,1.028,1.028,0,0,0,.379.944.691.691,0,0,0,.7-.076,3.067,3.067,0,0,0,1.272-2.443,1.045,1.045,0,0,0-.379-.944.472.472,0,0,0-.253-.067Z" transform="translate(-270.972 -255.634)" fill="#4db5e1"/>
          <path id="Trazado_663798" data-name="Trazado 663798" d="M286.381,298.684l15.048-8.712c.556-.329,1.011-.093,1.011.506a2.165,2.165,0,0,1-1.011,1.685l-15.048,8.687c-.556.32-1.011.093-1.011-.506A2.191,2.191,0,0,1,286.381,298.684Z" transform="translate(-266.704 -245.872)" fill="#4db5e1"/>
          <path id="Trazado_663799" data-name="Trazado 663799" d="M283.531,305.1l19.851-11.467c.556-.32,1.011-.093,1.011.514a2.165,2.165,0,0,1-1.011,1.685l-19.851,11.459c-.556.329-1.011.1-1.011-.506a2.165,2.165,0,0,1,1.011-1.685Z" transform="translate(-266.256 -246.449)" fill="#4db5e1"/>
          <path id="Trazado_663800" data-name="Trazado 663800" d="M275.244,319.87l16.674-9.605c.548-.32.986-.059.977.573v.32a2.233,2.233,0,0,1-1.011,1.685l-16.641,9.647c-.548.32-.994.059-.994-.573v-.329a2.208,2.208,0,0,1,.994-1.719Z" transform="translate(-264.954 -249.068)" fill="#455a64"/>
          <path id="Trazado_663801" data-name="Trazado 663801" d="M275.074,325.328l35.607-20.559c.455-.261.843-.051.843.48v3.463a1.82,1.82,0,0,1-.843,1.432l-35.6,20.567c-.455.261-.843.042-.843-.48V326.76a1.82,1.82,0,0,1,.834-1.432Z" transform="translate(-264.952 -248.207)" fill="#e0e0e0"/>
          <path id="Trazado_663802" data-name="Trazado 663802" d="M275.074,342.3l35.607-20.55c.455-.27.843-.051.843.472v3.463a1.854,1.854,0,0,1-.843,1.441l-35.6,20.559c-.455.261-.843.051-.843-.48v-3.471a1.845,1.845,0,0,1,.834-1.432Z" transform="translate(-264.952 -250.88)" fill="#e0e0e0"/>
          <path id="Trazado_663803" data-name="Trazado 663803" d="M275.244,336.848l16.674-9.614c.548-.32.986-.059.977.573v.329a2.241,2.241,0,0,1-1.011,1.685l-16.641,9.605c-.548.32-.994.059-.994-.573v-.32A2.191,2.191,0,0,1,275.244,336.848Z" transform="translate(-264.954 -251.74)" fill="#455a64"/>
          <path id="Trazado_663804" data-name="Trazado 663804" d="M275.254,357.363l13.532-7.819c.548-.32.994-.059.994.573v4.845a2.207,2.207,0,0,1-.994,1.685l-13.532,7.819c-.556.32-.994.059-.994-.573v-4.878A2.182,2.182,0,0,1,275.254,357.363Z" transform="translate(-264.955 -255.252)" fill="#4db5e1"/>
          <path id="Trazado_663805" data-name="Trazado 663805" d="M301.036,342.513l13.54-7.827c.548-.312.986-.059.986.573v4.878a2.2,2.2,0,0,1-.986,1.727l-13.54,7.819c-.548.312-.986.059-.986-.573V344.2a2.182,2.182,0,0,1,.986-1.685Z" transform="translate(-269.015 -252.914)" fill="#4db5e1"/>
          <text id="Sign_in" data-name="Sign in" transform="translate(15.793 46.899)" fill="#455a64" font-size="6" font-family="SegoeUI-Bold, Segoe UI" font-weight="700"><tspan x="0" y="0">Sign in</tspan></text>
        </g>
        <g id="freepik--window--inject-9-5" data-name="freepik--window--inject-9" transform="translate(98.648 120.171)">
          <path id="Trazado_663806" data-name="Trazado 663806" d="M426.615,170.251a2.831,2.831,0,0,0-2.839.27h0l-7.945,4.592a3.64,3.64,0,0,0-1.533,2.915v5.055a5.334,5.334,0,0,1-2.477,4.12l-14.981,8.771v-2.915a1.39,1.39,0,0,0-.657-1.289l-3.716-2.149a2.039,2.039,0,0,0-1.946.143l-2.452,1.373-.59.337-4,2.317a5.774,5.774,0,0,0-.64.438l-.3.27a7.128,7.128,0,0,0-2.224,4.786v99.532a2.25,2.25,0,0,0,.918,2.047l3.733,2.157a2.233,2.233,0,0,0,2.241-.228l41.142-23.752a7.01,7.01,0,0,0,3.168-5.494V174.97a2.806,2.806,0,0,0-1.18-2.587Z" transform="translate(-380.296 -169.99)" fill="#e0e0e0"/>
          <path id="Trazado_663807" data-name="Trazado 663807" d="M396.251,195.345a2.115,2.115,0,0,0-1.837.2l-2.452,1.373-.59.345-4,2.309a5.9,5.9,0,0,0-.64.447l-.3.27a6.741,6.741,0,0,0-1.163,1.432l-3.724-2.157a7.449,7.449,0,0,1,1.163-1.432l.3-.27a5.387,5.387,0,0,1,.64-.438l4-2.317.59-.337,2.452-1.365a2,2,0,0,1,1.946-.152Z" transform="translate(-380.492 -173.623)" fill="#f0f0f0"/>
          <path id="Trazado_663808" data-name="Trazado 663808" d="M436.767,172.4a2.781,2.781,0,0,0-2.831.278l-7.945,4.584a2.974,2.974,0,0,0-1.1,1.239l-3.716-2.157a2.932,2.932,0,0,1,1.087-1.23l7.945-4.584a2.814,2.814,0,0,1,2.839-.278Z" transform="translate(-386.733 -169.99)" fill="#f0f0f0"/>
          <path id="Trazado_663809" data-name="Trazado 663809" d="M424.584,179.689a3.716,3.716,0,0,0-.438,1.685v5.055a5.055,5.055,0,0,1-1.222,3.016L419.2,187.3a5.123,5.123,0,0,0,1.222-3.016v-5.055a3.792,3.792,0,0,1,.447-1.685Z" transform="translate(-386.421 -171.178)" opacity="0.1"/>
          <path id="Trazado_663810" data-name="Trazado 663810" d="M428.2,173.078h0l-7.945,4.584a3.64,3.64,0,0,0-1.533,2.915v5.055a5.325,5.325,0,0,1-2.486,4.12l-16.219,9.5c-1.365.792-2.477.227-2.477-1.255v-4.533c0-1.458-1.348-1.828-2.6-1.146l-2.452,1.373-.59.337-4,2.317a5.382,5.382,0,0,0-.64.438l-.3.27a7.128,7.128,0,0,0-2.224,4.786v99.532c0,2.022,1.424,2.848,3.168,1.828l41.142-23.752a7.01,7.01,0,0,0,3.168-5.493v-98.58C432.209,172.842,430.405,171.8,428.2,173.078Z" transform="translate(-380.994 -170.389)" fill="#fafafa"/>
          <path id="Trazado_663811" data-name="Trazado 663811" d="M429.981,173.294c1.357,0,1.458,1.6,1.458,2.09v98.58a6.277,6.277,0,0,1-2.78,4.836l-41.176,23.735a2.234,2.234,0,0,1-1.036.329c-.893,0-.986-1.045-.986-1.5V201.831a6.328,6.328,0,0,1,1.963-4.213l.1-.093.177-.152a3.524,3.524,0,0,1,.548-.379l3.994-2.309.581-.337,2.443-1.365a1.82,1.82,0,0,1,.843-.236c.438,0,.64.227.64.708v4.533a2.123,2.123,0,0,0,2.081,2.376,3.067,3.067,0,0,0,1.55-.463l16.219-9.487a6.109,6.109,0,0,0,2.865-4.786v-5.055a2.881,2.881,0,0,1,1.146-2.25l7.945-4.592a2.94,2.94,0,0,1,1.407-.438m0-.767a3.623,3.623,0,0,0-1.786.548l-7.945,4.584a3.64,3.64,0,0,0-1.533,2.915v5.055a5.325,5.325,0,0,1-2.486,4.12l-16.219,9.5a2.368,2.368,0,0,1-1.163.362c-.784,0-1.314-.59-1.314-1.618v-4.533a1.34,1.34,0,0,0-1.407-1.474,2.528,2.528,0,0,0-1.188.329l-2.452,1.373-.59.337-4,2.317a5.383,5.383,0,0,0-.64.438l-.3.27a7.128,7.128,0,0,0-2.224,4.786v99.532c0,1.432.716,2.267,1.753,2.267a2.856,2.856,0,0,0,1.416-.438L429.02,279.44a7.01,7.01,0,0,0,3.168-5.493v-98.58c0-1.8-.91-2.856-2.224-2.856Z" transform="translate(-380.991 -170.386)" fill="#e0e0e0"/>
          <path id="Trazado_663812" data-name="Trazado 663812" d="M392.039,315.34h-.1a.177.177,0,0,1-.093-.16v-3.572l-.918.522a.185.185,0,0,1-.253-.261l3.522-6.007a.185.185,0,0,1,.253-.076l3.522,1.946a.177.177,0,0,1,.1.169.2.2,0,0,1-.093.169l-1.1.632v3.792a.177.177,0,0,1-.093.16l-4.659,2.688Zm0-4.28h.093a.177.177,0,0,1,.093.16v3.573l4.28-2.469v-3.783a.194.194,0,0,1,.093-.169l.9-.522-3.059-1.685-3.067,5.224.573-.329Z" transform="translate(-381.925 -191.365)" fill="#4db5e1"/>
          <path id="Trazado_663813" data-name="Trazado 663813" d="M412.309,303.536h0l-.784-.177A3.16,3.16,0,0,1,409,300.241a4.508,4.508,0,0,1,1.415-3.589,1.222,1.222,0,0,1,1.2-.27,1.179,1.179,0,0,1,.573.539,3.37,3.37,0,0,1,1.685-2.267.994.994,0,0,1,.986.118,2.258,2.258,0,0,1,.6,1.98,12.723,12.723,0,0,1-2.351,5.679l-.7.986a.194.194,0,0,1-.1.118Zm-.994-6.8a1.045,1.045,0,0,0-.615.253,4.1,4.1,0,0,0-1.264,3.252,2.78,2.78,0,0,0,2.2,2.772l.59.118.632-.885a12.19,12.19,0,0,0,2.275-5.494,1.9,1.9,0,0,0-.438-1.685.607.607,0,0,0-.623-.067,3.37,3.37,0,0,0-1.567,2.528v.059a.168.168,0,0,1-.042.118.194.194,0,0,1-.177.135h0a.194.194,0,0,1-.194-.16,1.171,1.171,0,0,0-.565-.969.632.632,0,0,0-.211.025Z" transform="translate(-384.814 -189.604)" fill="#4db5e1"/>
          <path id="Trazado_663814" data-name="Trazado 663814" d="M428.964,294.955a.168.168,0,0,1-.093,0,.185.185,0,0,1-.1-.16v-1.036a4.07,4.07,0,0,1,1.685-3.227l.91-.522a1.2,1.2,0,0,1,1.239-.084,1.6,1.6,0,0,1,.649,1.458v1.036a.177.177,0,0,1-.093.16l-4.12,2.376A.168.168,0,0,1,428.964,294.955Zm3.151-4.811a1.112,1.112,0,0,0-.539.169h0l-.927.5a3.64,3.64,0,0,0-1.5,2.89v.7l3.733-2.149v-.927a1.247,1.247,0,0,0-.463-1.129.666.666,0,0,0-.286-.051Zm-.64,0Z" transform="translate(-387.928 -188.851)" fill="#4db5e1"/>
          <path id="Trazado_663815" data-name="Trazado 663815" d="M430.628,288.537a.9.9,0,0,1-.447-.11,1.407,1.407,0,0,1-.573-1.272,3.421,3.421,0,0,1,1.466-2.78,1.062,1.062,0,0,1,1.087-.076,1.4,1.4,0,0,1,.565,1.272,3.438,3.438,0,0,1-1.458,2.78A1.289,1.289,0,0,1,430.628,288.537Zm1.087-3.977a.843.843,0,0,0-.447.143,3.059,3.059,0,0,0-1.281,2.452,1.045,1.045,0,0,0,.379.935.725.725,0,0,0,.708-.067,3.084,3.084,0,0,0,1.272-2.452,1.045,1.045,0,0,0-.379-.944.564.564,0,0,0-.253-.067Z" transform="translate(-388.059 -187.968)" fill="#4db5e1"/>
          <path id="Trazado_663816" data-name="Trazado 663816" d="M403.5,231.03l15.04-8.687c.565-.32,1.011-.093,1.011.506a2.165,2.165,0,0,1-1.011,1.685l-15.04,8.678c-.556.329-1.011.093-1.011-.506a2.165,2.165,0,0,1,1.011-1.677Z" transform="translate(-383.79 -178.209)" fill="#4db5e1"/>
          <path id="Trazado_663817" data-name="Trazado 663817" d="M400.651,237.432l19.842-11.459c.565-.32,1.011-.093,1.011.514a2.14,2.14,0,0,1-1.011,1.685l-19.842,11.45c-.556.32-1.011.093-1.011-.514a2.165,2.165,0,0,1,1.011-1.677Z" transform="translate(-383.342 -178.78)" fill="#4db5e1"/>
          <path id="Trazado_663818" data-name="Trazado 663818" d="M392.364,252.178l16.674-9.614c.548-.32.986-.059.977.573v.329A2.241,2.241,0,0,1,409,245.151l-16.641,9.605c-.556.32-.994.059-.994-.573v-.32a2.174,2.174,0,0,1,.994-1.685Z" transform="translate(-382.04 -181.394)" fill="#455a64"/>
          <path id="Trazado_663819" data-name="Trazado 663819" d="M392.194,257.658,427.8,237.1c.455-.261.843-.051.843.48v3.463a1.82,1.82,0,0,1-.843,1.432l-35.6,20.567c-.463.261-.843.051-.843-.48V259.09a1.837,1.837,0,0,1,.834-1.432Z" transform="translate(-382.038 -180.537)" fill="#e0e0e0"/>
          <path id="Trazado_663820" data-name="Trazado 663820" d="M392.194,274.629l35.607-20.55c.455-.27.843-.051.843.472v3.471a1.845,1.845,0,0,1-.843,1.432l-35.6,20.559c-.463.261-.843.051-.843-.48v-3.463a1.854,1.854,0,0,1,.834-1.441Z" transform="translate(-382.038 -183.21)" fill="#e0e0e0"/>
          <path id="Trazado_663821" data-name="Trazado 663821" d="M392.364,269.179l16.674-9.614c.548-.312.986-.059.977.573v.329A2.241,2.241,0,0,1,409,262.152l-16.641,9.605c-.556.32-.994.067-.994-.573v-.32a2.191,2.191,0,0,1,.994-1.685Z" transform="translate(-382.04 -184.071)" fill="#455a64"/>
          <path id="Trazado_663822" data-name="Trazado 663822" d="M392.366,289.693l13.54-7.819c.548-.32.986-.059.986.573v4.878a2.182,2.182,0,0,1-.994,1.685l-13.532,7.819c-.548.32-.986.059-.986-.573v-4.878A2.2,2.2,0,0,1,392.366,289.693Z" transform="translate(-382.041 -187.583)" fill="#4db5e1"/>
          <path id="Trazado_663823" data-name="Trazado 663823" d="M418.154,274.8l13.532-7.827c.556-.32.994-.067.994.573v4.878a2.208,2.208,0,0,1-.994,1.685l-13.532,7.819c-.548.312-.994.059-.994-.573v-4.878a2.19,2.19,0,0,1,.994-1.677Z" transform="translate(-386.1 -185.236)" fill="#4db5e1"/>
          <text id="Sign_up" data-name="Sign up" transform="translate(14.453 47.96)" fill="#455a64" font-size="6" font-family="SegoeUI-Bold, Segoe UI" font-weight="700"><tspan x="0" y="0">Sign up</tspan></text>
        </g>
      </g>
    </g>
  </g>
</svg>
