<svg xmlns="http://www.w3.org/2000/svg" width="381.713" height="392.925" viewBox="0 0 381.713 392.925">
  <g id="Grupo_899195" data-name="Grupo 899195" transform="translate(-933.287 -696)">
    <g id="Programming-amico" transform="translate(907.657 671.122)">
      <g id="freepik--Floor--inject-59" transform="translate(25.63 206.459)">
        <ellipse id="freepik--floor--inject-59-2" data-name="freepik--floor--inject-59" cx="190.857" cy="105.672" rx="190.857" ry="105.672" fill="rgba(0,0,0,0.06)"/>
      </g>
      <g id="freepik--Shadows--inject-59" transform="translate(77.142 205.263)" opacity="0.1">
        <path id="freepik--Shadow--inject-59" d="M405.65,327.322l-106.4,61.454a3.141,3.141,0,0,1-2.86,0L143,300.255a.851.851,0,0,1,0-1.651l106.4-61.454a3.141,3.141,0,0,1,2.86,0l153.4,88.521a.851.851,0,0,1,0,1.651Z" transform="translate(-94.515 -236.805)" fill="#12594b"/>
        <ellipse id="freepik--shadow--inject-59-2" data-name="freepik--shadow--inject-59" cx="63.905" cy="36.898" rx="63.905" ry="36.898" transform="translate(0 112.553)" fill="#12594b"/>
        <ellipse id="freepik--shadow--inject-59-3" data-name="freepik--shadow--inject-59" cx="50.304" cy="29.042" rx="50.304" ry="29.042" transform="translate(91.415 77.63)" fill="#12594b"/>
      </g>
      <g id="freepik--Desk--inject-59" transform="translate(136.426 35.176)">
        <g id="freepik--desk--inject-59-2" data-name="freepik--desk--inject-59">
          <g id="freepik--Table--inject-59" transform="translate(0 77.06)">
            <path id="Trazado_668520" data-name="Trazado 668520" d="M328.045,286.242v94.479a2.111,2.111,0,0,1-.953,1.651l-2.026,1.166a2.094,2.094,0,0,1-1.907,0l-2.026-1.166a2.111,2.111,0,0,1-.953-1.651V286.242c0-.6.426-.851.953-.545l2.026,1.166a2.094,2.094,0,0,0,1.907,0l2.026-1.166C327.619,285.391,328.045,285.637,328.045,286.242Z" transform="translate(-180.266 -151.036)" fill="#37474f"/>
            <path id="Trazado_668521" data-name="Trazado 668521" d="M323.159,383.5l-2.026-1.166a2.111,2.111,0,0,1-.953-1.651V286.242c0-.6.426-.851.953-.545l2.026,1.166a2.111,2.111,0,0,1,.953,1.626v94.479C324.112,383.555,323.687,383.819,323.159,383.5Z" transform="translate(-180.266 -151.036)" fill="#455a64"/>
            <path id="Trazado_668522" data-name="Trazado 668522" d="M429.555,227.6v94.428a2.085,2.085,0,0,1-.953,1.651l-2.026,1.192a2.145,2.145,0,0,1-1.907,0l-2.026-1.175a2.111,2.111,0,0,1-.953-1.651V227.6c0-.6.434-.851.953-.553l2.026,1.175a2.094,2.094,0,0,0,1.907,0l2.026-1.175C429.129,226.75,429.555,226.988,429.555,227.6Z" transform="translate(-195.374 -142.308)" fill="#37474f"/>
            <path id="Trazado_668523" data-name="Trazado 668523" d="M424.669,324.872l-2.026-1.175a2.111,2.111,0,0,1-.953-1.651V227.6c0-.6.434-.851.953-.553l2.026,1.175a2.1,2.1,0,0,1,.953,1.651V324.3A.6.6,0,0,1,424.669,324.872Z" transform="translate(-195.374 -142.308)" fill="#455a64"/>
            <path id="Trazado_668524" data-name="Trazado 668524" d="M191.335,207.352v94.479a2.111,2.111,0,0,1-.953,1.651l-2.026,1.166a2.094,2.094,0,0,1-1.907,0l-2.026-1.166a2.111,2.111,0,0,1-.953-1.651V207.352c0-.6.426-.851.953-.545l2.051,1.166a2.094,2.094,0,0,0,1.907,0l2.026-1.166C190.909,206.5,191.335,206.747,191.335,207.352Z" transform="translate(-159.918 -139.295)" fill="#37474f"/>
            <path id="Trazado_668525" data-name="Trazado 668525" d="M186.479,304.6l-2.026-1.166a2.111,2.111,0,0,1-.953-1.651V207.3c0-.6.426-.851.953-.545l2.026,1.209a2.111,2.111,0,0,1,.953,1.651v94.428C187.407,304.658,186.981,304.9,186.479,304.6Z" transform="translate(-159.923 -139.287)" fill="#455a64"/>
            <path id="Trazado_668526" data-name="Trazado 668526" d="M408.766,219.521v-.689a3.822,3.822,0,0,0-1.7-3l-152.359-87.9a3.839,3.839,0,0,0-3.473,0L157.5,182.061a3.822,3.822,0,0,0-1.7,3v.741a3.822,3.822,0,0,0,1.7,3L309.861,276.7a3.9,3.9,0,0,0,3.473,0l93.73-54.177a3.822,3.822,0,0,0,1.7-3Z" transform="translate(-155.8 -127.512)" fill="#9fb6eb"/>
            <path id="Trazado_668527" data-name="Trazado 668527" d="M408.766,219.521v-.689a3.822,3.822,0,0,0-1.7-3l-152.359-87.9a3.839,3.839,0,0,0-3.473,0L157.5,182.061a3.822,3.822,0,0,0-1.7,3v.741a3.822,3.822,0,0,0,1.7,3L309.861,276.7a3.9,3.9,0,0,0,3.473,0l93.73-54.177a3.822,3.822,0,0,0,1.7-3Z" transform="translate(-155.8 -127.512)" opacity="0.6"/>
            <path id="Trazado_668528" data-name="Trazado 668528" d="M338.82,287.87v4.7a3.609,3.609,0,0,0,1.7-.417L434.3,238.017a3.839,3.839,0,0,0,1.7-3v-.7a3.856,3.856,0,0,0-1.413-2.775c.621.536.519,1.277-.323,1.779l-93.73,54.134a3.515,3.515,0,0,1-1.719.417Z" transform="translate(-183.04 -142.995)" fill="#9fb6eb"/>
            <path id="Trazado_668529" data-name="Trazado 668529" d="M338.82,287.87v4.7a3.609,3.609,0,0,0,1.7-.417L434.3,238.017a3.839,3.839,0,0,0,1.7-3v-.7a3.856,3.856,0,0,0-1.413-2.775c.621.536.519,1.277-.323,1.779l-93.73,54.134a3.515,3.515,0,0,1-1.719.417Z" transform="translate(-183.04 -142.995)" opacity="0.5"/>
            <path id="Trazado_668530" data-name="Trazado 668530" d="M407.231,217.827,313.484,271.97a3.839,3.839,0,0,1-3.473,0L157.644,184.1a1.055,1.055,0,0,1,0-2l93.73-54.177a3.839,3.839,0,0,1,3.473,0l152.384,87.9a1.055,1.055,0,0,1,0,2Z" transform="translate(-155.968 -127.512)" fill="#9fb6eb"/>
            <path id="Trazado_668531" data-name="Trazado 668531" d="M407.231,217.827,313.484,271.97a3.839,3.839,0,0,1-3.473,0L157.644,184.1a1.055,1.055,0,0,1,0-2l93.73-54.177a3.839,3.839,0,0,1,3.473,0l152.384,87.9a1.055,1.055,0,0,1,0,2Z" transform="translate(-155.968 -127.512)" opacity="0.4"/>
          </g>
          <g id="freepik--Keyboard--inject-59" transform="translate(53.436 124.449)">
            <path id="freepik--shadow--inject-59-4" data-name="freepik--shadow--inject-59" d="M309.408,225.321,287.2,238.174a2.766,2.766,0,0,1-2.494,0L219.1,200.348a.758.758,0,0,1,0-1.438l22.207-12.861a2.775,2.775,0,0,1,2.485,0l65.616,37.834a.758.758,0,0,1,0,1.438Z" transform="translate(-218.579 -183.57)" opacity="0.15"/>
            <g id="freepik--keyboard--inject-59-2" data-name="freepik--keyboard--inject-59" transform="translate(1.864)">
              <path id="Trazado_668532" data-name="Trazado 668532" d="M220.77,196.247a.851.851,0,0,1,.519-.715l20.862-12.044a2.724,2.724,0,0,1,2.485,0L308.3,220.3a.851.851,0,0,1,.511.724v2.187a.851.851,0,0,1-.511.715L287.45,235.97a2.741,2.741,0,0,1-2.494,0L221.289,199.2a.851.851,0,0,1-.519-.715Z" transform="translate(-220.77 -183.188)" fill="#263238"/>
              <path id="Trazado_668533" data-name="Trazado 668533" d="M287.45,233.732,308.3,221.739a.758.758,0,0,0,0-1.438l-63.667-36.813a2.724,2.724,0,0,0-2.485,0l-20.862,12.044a.758.758,0,0,0,0,1.438l63.667,36.753a2.766,2.766,0,0,0,2.494.009Z" transform="translate(-220.769 -183.188)" fill="#37474f"/>
              <path id="Trazado_668534" data-name="Trazado 668534" d="M297.74,240.636v2.239a2.485,2.485,0,0,0,1.166-.289l20.845-12.035a.851.851,0,0,0,.519-.724v-2.2a.851.851,0,0,1-.519.723l-20.845,11.993A2.553,2.553,0,0,1,297.74,240.636Z" transform="translate(-232.225 -189.802)" fill="#263238"/>
              <path id="Trazado_668535" data-name="Trazado 668535" d="M225.307,196.818h0l2.06-1.192,2.8,1.617-2.077,1.234-2.8-1.617Zm3.234-1.864,2.068-1.192,2.2,1.268-2.077,1.175-2.2-1.268Zm.681,4.128,2.068-1.192,2.2,1.268-2.077,1.234-2.2-1.268Zm2.553-5.958h0l2.068-1.192,3.549,2.06-2.077,1.226-3.549-2.051Zm.077,3.779h0l2.06-1.2,1.753,1.013-2.068,1.192-1.745-1.03Zm.681,4.12h0l2.06-1.192,2.2,1.268-2.085,1.234-2.2-1.268Zm2.179-2.468,2.06-1.192,1.7,1.013L236.4,199.61l-1.7-1.013Zm.289-7.3h0l2.068-1.192,2.8,1.617-2.06,1.175-2.8-1.617Zm.851,11.687h0l2.06-1.192,15.9,9.176-2.077,1.234-15.9-9.176Zm.6-7.124h0l2.06-1.192,1.7,1.013-2.077,1.226-1.745-1Zm1.132,4.392,2.06-1.192,1.745,1.013-2.077,1.234-1.745-1.013Zm.655-10.81h0l2.06-1.192,1.753,1.013-2.077,1.226-1.728-1.047Zm.681,4.128h0l2.06-1.192,1.753,1-2.06,1.166-1.753-1Zm.383,3.949h0l2.06-1.192,1.745,1.013-2.077,1.226-1.745-1Zm1.132,4.392,2.06-1.192,1.7,1.013-2.077,1.234-1.7-1.013Zm.664-10.818h0l2.06-1.192,1.753,1.013-2.077,1.226-1.7-1Zm.681,4.128h0l2.06-1.192,1.753,1-2.077,1.234-1.745-1Zm.383,3.949h0l2.06-1.192,1.7,1.013-2.077,1.226-1.7-1Zm0-11.993h0l2.06-1.192,2.2,1.268-2.085,1.234-2.2-1.268Zm1.132,16.385,2.06-1.192,1.745,1.013-2.077,1.234-1.745-1.013Zm.664-10.818h0l2.06-1.192,1.753,1.013-2.06,1.132-1.745-1Zm.681,4.128h0l2.06-1.192,1.753,1-2.077,1.234L244.62,196.8Zm.383,3.949h0l2.06-1.192,1.745,1.013-2.077,1.226-1.745-1Zm1.132,4.392,2.06-1.192,1.7,1.013-2.077,1.234-1.7-1.013Zm.562-15.406h0l2.068-1.192,1.745,1-2.077,1.234-1.745-1Zm.1,4.588h0l2.06-1.192,1.753,1.013-2.068,1.183-1.7-1Zm.681,4.128h0l2.06-1.192,1.753,1-2.077,1.234-1.745-1Zm.383,3.949h0l2.06-1.192,1.7,1.013-2.077,1.226-1.7-1Zm1.132,4.392h0l2.077-1.251,1.7,1.013-2.077,1.234-1.745-1.013Zm.562-15.406h0l2.06-1.192,1.753,1-2.077,1.234-1.7-1Zm.1,4.588h0l2.06-1.192,1.753,1.013-2.06,1.158-1.7-1Zm.681,4.128h0l2.06-1.192,1.753,1-2.077,1.234-1.745-1Zm.383,3.949h0l2.068-1.192,1.745,1.013-2.077,1.226-1.745-1Zm1.132,4.392h0l2.06-1.2,1.745,1.013-2.077,1.234-1.745-1.013Zm.562-15.406h0l2.068-1.192,1.745,1-2.077,1.234-1.745-1Zm.1,4.588h0l2.068-1.192,1.745,1.013-2.085,1.226-1.7-1Zm.315,15.117,2.068-1.192,2.2,1.268-2.077,1.234-2.2-1.268Zm.366-10.989h0l2.06-1.192,1.753,1-2.077,1.234-1.745-1Zm.383,3.949h0l2.068-1.192,1.719.945-2.077,1.226-1.745-1Zm1.132,4.392,2.06-1.192,1.753,1.013-2.085,1.234-1.745-1.013Zm.562-15.406h0l2.068-1.192,1.728.979-2.077,1.234-1.745-1Zm.1,4.588h0l2.068-1.192,1.745,1.013-2.077,1.226-1.745-1Zm.681,4.128h0l2.068-1.192,1.7,1-2.077,1.234-1.7-1Zm.085,11.244h0l2.068-1.192,2.2,1.268-2.077,1.234-2.2-1.268Zm.3-7.294h0l2.06-1.192,1.7,1.013-1.983,1.158-1.7-1Zm1.132,4.392,2.06-1.192,1.753,1.013-2.085,1.234-1.745-1.013Zm.664-10.818h0l2.068-1.192,1.7,1.013L259.949,202l-1.711-1.072Zm.681,4.128h0L261,203.891l1.745,1-2.077,1.234-1.745-1Zm.383,3.949h0l2.06-1.192,1.745,1.013-2.077,1.226-1.728-1.107Zm.085-11.916h0l2.068-1.192,1.745,1.013-2.077,1.234-1.736-1.115Zm.068,19.5,2.068-1.192,2.2,1.268-2.094,1.141-2.2-1.268Zm.979-3.166h0l2.06-1.2,1.753,1.013-2.085,1.234-1.7-1.013Zm.664-10.818,2.06-1.192,1.753,1.013-2.077,1.226-1.745-1Zm.681,4.128h0l2.068-1.192,1.745,1-2.077,1.234-1.745-1Zm.383,3.949h0l2.06-1.192,1.753,1.013-2.085,1.226-1.728-1.081Zm.085-11.916h0l2.068-1.192,1.745,1.013L264,199.848l-1.7-1.013Zm.528,19.764,2.068-1.2,2.8,1.617-2.077,1.234-2.8-1.617Zm.519-3.4h0l2.06-1.2,5.516,3.183-2.077,1.234-5.464-3.328Zm.664-10.818h0l2.068-1.192,1.745,1.013-2.077,1.226-1.745-1Zm.681,4.128h0l2.068-1.192,1.728.851-2.077,1.234-1.745-1Zm.383,3.949h0l2.06-1.192,1.753,1.013-2.1,1.081-1.7-1Zm.085-11.916h0l2.068-1.192,1.745,1.013-2.077,1.234-1.745-1.013Zm1.7,5.516h0l2.068-1.192,1.745,1.013-2.077,1.226-1.745-1Zm.468,15.2h0l2.06-1.192,1.753,1-2.085,1.234-1.7-1Zm.213-11.065h0l2.068-1.192,1.7,1-1.975,1.055-1.7-1Zm.383,3.949h0l2.06-1.192,1.6.919a1.021,1.021,0,0,0,.5.111,1.132,1.132,0,0,0,.528-.111l2.715-1.566,2.043,1.183-5.3,3.1-4.162-2.4Zm.085-11.916h0l2.068-1.192L271.789,202l-2.06,1.013L267.984,202Zm1.7,5.516h0l2.06-1.192,1.753,1.013-2.077,1.226-1.7-1Zm.468,15.2h0l2.06-1.192,1.753,1-2.085,1.234-1.7-1Zm.213-11.065h0l2.068-1.192,1.745,1-2.077,1.234-1.745-1Zm1.7-7.277h0l2.06-1.192,1.753,1-2.085,1.234-1.745-1Zm.468,4.8h0l2.06-1.192,1.753,1.013-2.077,1.226-1.745-1Zm.468,15.2h0l2.068-1.192,1.745,1-2.085,1.234-1.7-1Zm.375-3.515,2.06-1.192,1.753,1.013L275.1,222.1l-1.7-1.209Zm1.549-14.836h0l2.06-1.192,1.745,1-2.077,1.234-1.745-1Zm.468,4.8h0l2.068-1.192,3.1,1.787-2.077,1.234-3.1-1.787Zm1.072,15.551h0l2.06-1.192,4.613,2.656-2.085,1.234-4.6-2.656Zm.511-10.9h0l2.068-1.192,1.745,1.013-2.077,1.226-1.745-1Zm.809-7.8h0l2.06-1.192,1.745,1-2.068,1.021-1.7-1Zm1.915,16.836h0l2.068-1.192,1.745,1.013-2.077,1.234-1.745-1.013Zm.136-7.388h0l2.068-1.192,1.7,1.013-2.077,1.226-1.7-1Zm.375-3.515h0l2.068-1.192,1.7,1-2.077,1.234-1.7-1Zm.434-4.256h0l2.06-1.192,1.7,1-2.077,1.234-1.7-1Zm1.541,20.351h0l2.06-1.192,1.753,1-2.085,1.234-1.7-1Zm.374-3.515h0l2.068-1.192,1.7,1.013-2.077,1.234-1.7-1.013Zm.136-7.388h0l2.068-1.192,1.745,1.013-2.077,1.226-1.745-1Zm.238,3.864L285,221.655l1.7,1.013-2.077,1.226-1.7-1Zm.136-7.38h0l2.068-1.192,1.745,1-2.077,1.234-1.745-1Zm1.064-3.915h0l2.06-1.192,1.753,1-2.034,1.013-1.745-1Zm.911,19.985h0l5.294-3.064,1.745,1.013-5.3,3.1-1.753-1Zm.375-3.515h0l2.068-1.192,1.745,1.013-2.051.987-1.7-1.013Zm.375-3.524,2.068-1.192,1.745,1.013-2.077,1.226-1.711-1.251Zm.136-7.38h0L288,215.927l1.745,1-2.077,1.234-1.745-1Zm.23,3.864h0l2.068-1.192,1.745,1-2.077,1.234-1.745-1Zm.851-7.78h0l2.06-1.192,1.753,1-2.077,1.234-1.745-1Zm1.66,12.946,2.068-1.192,1.745,1.013L290.4,227.2,288.676,226Zm.366-3.515h0l2.068-1.192,1.745,1-2.051,1-1.745-1Zm.374-3.515h0l2.06-1.192,1.753,1-2.085,1.234-1.7-1Zm.46-4.256h0l2.06-1.192,1.753,1-2.077,1.234-1.745-1Zm1.66,12.946h0l5.3-3.056,1.745,1-5.311,3.107-1.745-1.013Zm.366-3.515h0l2.068-1.192,1.745,1-2.077,1.234-1.745-1Zm.374-3.515h0l2.06-1.192,1.753,1-2.094.987-1.7-1Zm1.9-4.4h0l.851-.519,1.753,1.013-.9.553-1.7-1Zm.962,6.052h0l2.06-1.192,1.753,1-2.085,1.234-1.7-1Zm1.9-4.4h0l.851-.519,1.753,1.013-.9.553-1.7-1Zm.962,6.052h0l2.06-1.192,1.753,1-2.085,1.234-1.7-1Zm1.9-4.4h0l.851-.519,1.753,1.013-.9.553-1.7-1Zm2.851,1.651h0l.851-.519,1.753,1.013-.9.553-1.7-1Z" transform="translate(-221.442 -183.597)" fill="#9fb6eb"/>
            </g>
          </g>
          <g id="freepik--Device--inject-59" transform="translate(97.901 15.817)">
            <path id="freepik--shadow--inject-59-5" data-name="freepik--shadow--inject-59" d="M368.5,223.336l19.534-11.278-97.68-56.4L270.82,166.938Z" transform="translate(-270.82 -70.458)" opacity="0.15"/>
            <g id="freepik--Monitor--inject-59" transform="translate(3.283)">
              <path id="Trazado_668536" data-name="Trazado 668536" d="M317.774,206.594l-13.942-8.069a3.688,3.688,0,0,1-2.162-3V193.58l13.125-7.448a3.081,3.081,0,0,0,1.387-2.409V166.53l24.36,14.078V197.8a3.081,3.081,0,0,1-1.387,2.409l-10.963,6.384A11.525,11.525,0,0,1,317.774,206.594Z" transform="translate(-278.695 -72.076)" fill="#e6e6e6"/>
              <path id="Trazado_668537" data-name="Trazado 668537" d="M340.47,202.845v1.932l4.46-2.553a3.064,3.064,0,0,0,1.387-2.409V182.621l-4.639-2.681c-.094,1.183-.2,2.4-.3,3.583l3.251,1.89v13.431a3.039,3.039,0,0,1-1.387,2.409Z" transform="translate(-284.469 -74.072)" fill="#e0e0e0"/>
              <path id="Trazado_668538" data-name="Trazado 668538" d="M338.857,197.32a3.064,3.064,0,0,1-1.387,2.409l-9.278,5.413a11.525,11.525,0,0,1-10.418,0l-13.951-8.069c-2.877-1.651-2.877-4.349,0-6.009l9.286-5.413a3.064,3.064,0,0,0,1.387-2.4V169.81l24.36,14.078Z" transform="translate(-278.694 -72.564)" fill="#f5f5f5"/>
              <path id="Trazado_668539" data-name="Trazado 668539" d="M311.79,187.284h0l2.826-1.634a3.064,3.064,0,0,0,1.387-2.4V169.81l24.36,14.078V197.32a3.064,3.064,0,0,1-1.387,2.409l-2.775,1.609Z" transform="translate(-280.201 -72.564)" fill="#ebebeb"/>
              <path id="Trazado_668540" data-name="Trazado 668540" d="M301.67,198.31v1.941a3.672,3.672,0,0,0,2.153,3l13.951,8.061a10.487,10.487,0,0,0,4.971,1.234v-1.932a10.487,10.487,0,0,1-4.971-1.234l-13.951-8.069A3.661,3.661,0,0,1,301.67,198.31Z" transform="translate(-278.695 -76.806)" fill="#ebebeb"/>
              <path id="Trazado_668541" data-name="Trazado 668541" d="M373.959,198.871a3.72,3.72,0,0,1-3.362-.06l-94.215-54.355a3.821,3.821,0,0,1-1.7-3v-82.5a3.26,3.26,0,0,1,5-2.885l94.207,54.4a3.822,3.822,0,0,1,1.7,3v82.461A3.711,3.711,0,0,1,373.959,198.871Z" transform="translate(-274.677 -55.56)" fill="#455a64"/>
              <path id="Trazado_668542" data-name="Trazado 668542" d="M370.6,199.178l-94.215-54.347a3.822,3.822,0,0,1-1.7-3V59.314c0-1.107.775-1.549,1.7-1L370.6,112.708a3.847,3.847,0,0,1,1.7,3v82.469C372.334,199.305,371.551,199.731,370.6,199.178Z" transform="translate(-274.677 -55.935)" fill="#37474f"/>
              <path id="Trazado_668543" data-name="Trazado 668543" d="M387.67,222.111A3.243,3.243,0,0,0,392.4,219.1V209.82l-3.251,1.856v9.278C389.151,221.992,388.513,222.443,387.67,222.111Z" transform="translate(-291.494 -78.519)" fill="#e0e0e0"/>
              <path id="Trazado_668544" data-name="Trazado 668544" d="M372.334,202.143v9.278c0,1.107-.783,1.558-1.7,1l-94.249-54.372a3.822,3.822,0,0,1-1.7-3V145.77Z" transform="translate(-274.677 -68.986)" fill="#fff"/>
              <path id="Trazado_668545" data-name="Trazado 668545" d="M369.638,182.994V117.727a2.315,2.315,0,0,0-1.038-1.8L279.508,64.495c-.57-.332-1.038-.068-1.038.6v65.267a2.29,2.29,0,0,0,1.038,1.8L368.6,183.6C369.145,183.93,369.638,183.658,369.638,182.994Z" transform="translate(-275.242 -56.868)" fill="#9fb6eb"/>
              <path id="Trazado_668546" data-name="Trazado 668546" d="M369.638,182.994V117.727a2.315,2.315,0,0,0-1.038-1.8L279.508,64.495c-.57-.332-1.038-.068-1.038.6v65.267a2.29,2.29,0,0,0,1.038,1.8L368.6,183.6C369.145,183.93,369.638,183.658,369.638,182.994Z" transform="translate(-275.242 -56.868)" fill="#fff" opacity="0.5"/>
              <path id="Trazado_668547" data-name="Trazado 668547" d="M331.714,183.032a3.609,3.609,0,0,1,1.626,2.817c0,1.038-.732,1.464-1.626.945a3.609,3.609,0,0,1-1.634-2.826C330.105,182.973,330.863,182.513,331.714,183.032Z" transform="translate(-282.923 -74.5)" fill="#455a64"/>
              <path id="Trazado_668548" data-name="Trazado 668548" d="M388.81,123.454a3.745,3.745,0,0,1,.511,1.7v73.387l3.251-1.881v-73.37a3.575,3.575,0,0,0-.511-1.7Z" transform="translate(-291.664 -65.387)" fill="#263238"/>
            </g>
          </g>
          <g id="freepik--Window--inject-59" transform="translate(116.558)">
            <g id="freepik--window--inject-59-2" data-name="freepik--window--inject-59">
              <path id="Trazado_668549" data-name="Trazado 668549" d="M292.749,39.368a.958.958,0,0,1,0-.153h0a.716.716,0,0,1,0-.145.68.68,0,0,1,.094-.213.281.281,0,0,1,.051-.085l.051-.06a.679.679,0,0,1,.111-.111h0a.853.853,0,0,1,.145-.085,1.217,1.217,0,0,1,1.115.145l109.953,63.446a3.7,3.7,0,0,1,1.66,2.885v79.575h0v.366a1.132,1.132,0,0,1-.6,1l-.077.051-.085.051h-.145a.852.852,0,0,1-.213,0,1.1,1.1,0,0,1-.545-.162h-.043l-1.464-.894L294.4,122.433a3.677,3.677,0,0,1-1.66-2.877V39.547C292.74,39.5,292.749,39.436,292.749,39.368Z" transform="translate(-292.74 -37.195)" fill="#455a64"/>
              <path id="Trazado_668550" data-name="Trazado 668550" d="M293.38,38.256a1.217,1.217,0,0,1,1.115.145l109.953,63.446a3.7,3.7,0,0,1,1.66,2.885V110.2l2.119-1.243v-5.388a3.677,3.677,0,0,0-1.66-2.877L296.614,37.2a1.158,1.158,0,0,0-1.2-.1C295.116,37.286,293.737,38.069,293.38,38.256Z" transform="translate(-292.835 -36.977)" fill="#9fb6eb"/>
              <path id="Trazado_668551" data-name="Trazado 668551" d="M292.74,39.555c0-1.047.749-1.473,1.66-.945l109.953,63.454a3.652,3.652,0,0,1,1.66,2.877v5.464L292.74,45.011Z" transform="translate(-292.74 -37.187)" fill="#9fb6eb"/>
              <g id="Grupo_898674" data-name="Grupo 898674" transform="translate(0.553 0)" opacity="0.5">
                <path id="Trazado_668552" data-name="Trazado 668552" d="M294.5,38.4,404.45,101.855a3.4,3.4,0,0,1,1.166,1.226l2.111-1.217a3.328,3.328,0,0,0-1.158-1.217L296.624,37.2a1.175,1.175,0,0,0-1.209-.1c-.3.187-1.7.97-2.026,1.158a1.175,1.175,0,0,1,1.107.145Z" transform="translate(-293.39 -36.978)" fill="#fff"/>
              </g>
              <path id="Trazado_668553" data-name="Trazado 668553" d="M427.862,120.259v-5.4a3.4,3.4,0,0,0-.5-1.7l-2.119,1.217a3.269,3.269,0,0,1,.5,1.651v5.507Z" transform="translate(-312.461 -48.316)" opacity="0.15"/>
              <path id="Trazado_668554" data-name="Trazado 668554" d="M421.256,114.523a2.477,2.477,0,0,1,.936,1.992c0,.792-.417,1.2-.936.9a2.477,2.477,0,0,1-.936-1.992C420.32,114.634,420.737,114.225,421.256,114.523Z" transform="translate(-311.728 -48.504)" fill="#455a64"/>
              <path id="Trazado_668555" data-name="Trazado 668555" d="M417.286,112.233a2.46,2.46,0,0,1,.936,1.983c0,.8-.417,1.2-.936.9a2.46,2.46,0,0,1-.936-1.983C416.35,112.335,416.767,111.935,417.286,112.233Z" transform="translate(-311.137 -48.163)" fill="#455a64"/>
              <path id="Trazado_668556" data-name="Trazado 668556" d="M413.316,109.979a2.477,2.477,0,0,1,.936,1.992c0,.792-.417,1.2-.936.9a2.485,2.485,0,0,1-.936-1.992C412.38,110.038,412.8,109.638,413.316,109.979Z" transform="translate(-310.547 -47.824)" fill="#455a64"/>
              <path id="Trazado_668557" data-name="Trazado 668557" d="M425.119,198.265l.085-.051,1.753-1.013a1.753,1.753,0,0,0,.851-1.285,2.249,2.249,0,0,0,0-.238V121.49l-2.128,1.251v74.519a1.1,1.1,0,0,1-.519.945h-.051Z" transform="translate(-312.441 -49.556)" fill="#263238" opacity="0.9"/>
            </g>
            <g id="freepik--Code--inject-59" transform="translate(2.698 14.086)">
              <path id="Trazado_668558" data-name="Trazado 668558" d="M332.207,79.425,355.385,92.78a1.26,1.26,0,0,1,.6.979c0,.357-.264.494-.6.3L332.207,80.7a1.268,1.268,0,0,1-.587-.979C331.62,79.365,331.884,79.238,332.207,79.425Z" transform="translate(-301.225 -57.368)" fill="#9fb6eb"/>
              <path id="Trazado_668559" data-name="Trazado 668559" d="M342.616,109.465l8.75,5.056a1.26,1.26,0,0,1,.587.979c0,.349-.264.485-.587.3l-8.75-5.039a1.243,1.243,0,0,1-.6-.979C342,109.414,342.284,109.278,342.616,109.465Z" transform="translate(-302.773 -61.84)" fill="#e6e6e6"/>
              <path id="Trazado_668560" data-name="Trazado 668560" d="M342.616,115.475l8.75,5.047a1.285,1.285,0,0,1,.587.987c0,.349-.264.485-.587.3l-8.75-5.047a1.26,1.26,0,0,1-.6-.979C342,115.415,342.284,115.288,342.616,115.475Z" transform="translate(-302.773 -62.734)" fill="#e6e6e6"/>
              <path id="Trazado_668561" data-name="Trazado 668561" d="M362.127,96.665l46.414,26.727a1.285,1.285,0,0,1,.587.987c0,.349-.264.485-.587.3L362.127,97.951a1.285,1.285,0,0,1-.587-.987C361.54,96.614,361.8,96.478,362.127,96.665Z" transform="translate(-305.678 -59.935)" fill="#9fb6eb"/>
              <path id="Trazado_668562" data-name="Trazado 668562" d="M342.837,151.6l14.129,8.18a1.243,1.243,0,0,1,.6.979c0,.349-.264.485-.6.3l-14.129-8.18a1.26,1.26,0,0,1-.587-.979C342.25,151.544,342.514,151.408,342.837,151.6Z" transform="translate(-302.807 -68.11)" fill="#9fb6eb"/>
              <path id="Trazado_668563" data-name="Trazado 668563" d="M362.127,162.755l46.414,26.761a1.268,1.268,0,0,1,.587.979c0,.357-.264.485-.587.3l-46.414-26.761a1.268,1.268,0,0,1-.587-.979C361.54,162.7,361.8,162.568,362.127,162.755Z" transform="translate(-305.678 -69.771)" fill="#9fb6eb"/>
              <path id="Trazado_668564" data-name="Trazado 668564" d="M332.207,85.445l11.652,6.707a1.268,1.268,0,0,1,.587.979c0,.357-.264.494-.587.3l-11.652-6.673a1.26,1.26,0,0,1-.587-.979C331.62,85.394,331.884,85.258,332.207,85.445Z" transform="translate(-301.225 -58.265)" fill="#9fb6eb"/>
              <path id="Trazado_668565" data-name="Trazado 668565" d="M332.207,85.445l11.652,6.707a1.268,1.268,0,0,1,.587.979c0,.357-.264.494-.587.3l-11.652-6.673a1.26,1.26,0,0,1-.587-.979C331.62,85.394,331.884,85.258,332.207,85.445Z" transform="translate(-301.225 -58.265)" fill="#fff" opacity="0.6"/>
              <path id="Trazado_668566" data-name="Trazado 668566" d="M332.207,91.445l5.464,3.149a1.268,1.268,0,0,1,.587.979c0,.349-.264.485-.587.3l-5.464-3.115a1.268,1.268,0,0,1-.587-.979C331.62,91.386,331.884,91.258,332.207,91.445Z" transform="translate(-301.225 -59.158)" fill="#9fb6eb"/>
              <path id="Trazado_668567" data-name="Trazado 668567" d="M332.207,91.445l5.464,3.149a1.268,1.268,0,0,1,.587.979c0,.349-.264.485-.587.3l-5.464-3.115a1.268,1.268,0,0,1-.587-.979C331.62,91.386,331.884,91.258,332.207,91.445Z" transform="translate(-301.225 -59.158)" fill="#fff" opacity="0.6"/>
              <path id="Trazado_668568" data-name="Trazado 668568" d="M332.207,103.455l5.464,3.149a1.285,1.285,0,0,1,.587.987c0,.349-.264.485-.587.3l-5.464-3.149a1.285,1.285,0,0,1-.587-.987C331.62,103.4,331.884,103.268,332.207,103.455Z" transform="translate(-301.225 -60.945)" fill="#9fb6eb"/>
              <path id="Trazado_668569" data-name="Trazado 668569" d="M332.207,103.455l5.464,3.149a1.285,1.285,0,0,1,.587.987c0,.349-.264.485-.587.3l-5.464-3.149a1.285,1.285,0,0,1-.587-.987C331.62,103.4,331.884,103.268,332.207,103.455Z" transform="translate(-301.225 -60.945)" fill="#fff" opacity="0.6"/>
              <path id="Trazado_668570" data-name="Trazado 668570" d="M332.207,109.465l5.464,3.149a1.268,1.268,0,0,1,.587.979c0,.357-.264.494-.587.3l-5.464-3.149a1.26,1.26,0,0,1-.587-.979C331.62,109.414,331.884,109.278,332.207,109.465Z" transform="translate(-301.225 -61.84)" fill="#9fb6eb"/>
              <path id="Trazado_668571" data-name="Trazado 668571" d="M332.207,109.465l5.464,3.149a1.268,1.268,0,0,1,.587.979c0,.357-.264.494-.587.3l-5.464-3.149a1.26,1.26,0,0,1-.587-.979C331.62,109.414,331.884,109.278,332.207,109.465Z" transform="translate(-301.225 -61.84)" fill="#fff" opacity="0.6"/>
              <path id="Trazado_668572" data-name="Trazado 668572" d="M348.616,94.875l7,4.06a1.26,1.26,0,0,1,.6.979c0,.357-.264.485-.6.3l-7-4.052a1.277,1.277,0,0,1-.6-.987C348,94.824,348.284,94.688,348.616,94.875Z" transform="translate(-303.666 -59.668)" fill="#9fb6eb"/>
              <path id="Trazado_668573" data-name="Trazado 668573" d="M348.616,94.875l7,4.06a1.26,1.26,0,0,1,.6.979c0,.357-.264.485-.6.3l-7-4.052a1.277,1.277,0,0,1-.6-.987C348,94.824,348.284,94.688,348.616,94.875Z" transform="translate(-303.666 -59.668)" fill="#fff" opacity="0.6"/>
              <path id="Trazado_668574" data-name="Trazado 668574" d="M361.336,138.315l47.086,27.11a1.26,1.26,0,0,1,.587.979c0,.349-.264.485-.587.3l-47.086-27.11a1.26,1.26,0,0,1-.6-.979C360.74,138.255,361,138.128,361.336,138.315Z" transform="translate(-305.559 -66.133)" fill="#fff"/>
              <path id="Trazado_668575" data-name="Trazado 668575" d="M408.427,159.384l7.005,4.052a1.268,1.268,0,0,1,.587.979c0,.357-.264.485-.587.3l-7.005-4.052a1.268,1.268,0,0,1-.587-.979C407.84,159.325,408.1,159.189,408.427,159.384Z" transform="translate(-312.569 -69.269)" fill="#fff"/>
              <path id="Trazado_668576" data-name="Trazado 668576" d="M350.417,125.984l47.086,27.11a1.285,1.285,0,0,1,.587.987c0,.349-.264.485-.587.3l-47.086-27.118a1.277,1.277,0,0,1-.587-.987C349.83,125.925,350.094,125.789,350.417,125.984Z" transform="translate(-303.935 -64.297)" fill="#fff"/>
              <path id="Trazado_668577" data-name="Trazado 668577" d="M342.616,97.454l11.669,6.707a1.243,1.243,0,0,1,.6.979c0,.349-.264.485-.6.3l-11.669-6.682a1.26,1.26,0,0,1-.6-.979C342,97.395,342.284,97.259,342.616,97.454Z" transform="translate(-302.773 -60.051)" fill="#9fb6eb"/>
              <path id="Trazado_668578" data-name="Trazado 668578" d="M342.616,97.454l11.669,6.707a1.243,1.243,0,0,1,.6.979c0,.349-.264.485-.6.3l-11.669-6.682a1.26,1.26,0,0,1-.6-.979C342,97.395,342.284,97.259,342.616,97.454Z" transform="translate(-302.773 -60.051)" fill="#fff" opacity="0.6"/>
              <path id="Trazado_668579" data-name="Trazado 668579" d="M359.017,106.885l48.712,28.174a1.285,1.285,0,0,1,.587.987c0,.349-.264.485-.587.3l-48.712-28.182a1.268,1.268,0,0,1-.587-.979C358.43,106.825,358.694,106.7,359.017,106.885Z" transform="translate(-305.215 -61.455)" fill="#9fb6eb"/>
              <path id="Trazado_668580" data-name="Trazado 668580" d="M359.017,106.885l48.712,28.174a1.285,1.285,0,0,1,.587.987c0,.349-.264.485-.587.3l-48.712-28.182a1.268,1.268,0,0,1-.587-.979C358.43,106.825,358.694,106.7,359.017,106.885Z" transform="translate(-305.215 -61.455)" fill="#fff" opacity="0.6"/>
              <path id="Trazado_668581" data-name="Trazado 668581" d="M342.613,133.625,405.6,169.961a1.268,1.268,0,0,1,.587.979c0,.357-.264.494-.587.306L342.613,134.9a1.26,1.26,0,0,1-.613-.97C342,133.565,342.281,133.438,342.613,133.625Z" transform="translate(-302.77 -65.435)" fill="#e6e6e6"/>
              <path id="Trazado_668582" data-name="Trazado 668582" d="M332.207,127.615l5.464,3.149a1.268,1.268,0,0,1,.587.979c0,.357-.264.485-.587.3l-5.464-3.149a1.26,1.26,0,0,1-.587-.979C331.62,127.564,331.884,127.428,332.207,127.615Z" transform="translate(-301.225 -64.541)" fill="#9fb6eb"/>
              <path id="Trazado_668583" data-name="Trazado 668583" d="M332.207,127.615l5.464,3.149a1.268,1.268,0,0,1,.587.979c0,.357-.264.485-.587.3l-5.464-3.149a1.26,1.26,0,0,1-.587-.979C331.62,127.564,331.884,127.428,332.207,127.615Z" transform="translate(-301.225 -64.541)" fill="#fff" opacity="0.6"/>
              <path id="Trazado_668584" data-name="Trazado 668584" d="M342.613,139.625,405.6,175.97a1.268,1.268,0,0,1,.587.979c0,.357-.264.485-.587.3L342.613,140.9a1.243,1.243,0,0,1-.613-.97C342,139.574,342.281,139.438,342.613,139.625Z" transform="translate(-302.77 -66.329)" fill="#e6e6e6"/>
              <path id="Trazado_668585" data-name="Trazado 668585" d="M332.207,133.625l5.464,3.149a1.26,1.26,0,0,1,.587.979c0,.349-.264.485-.587.3l-5.464-3.149a1.268,1.268,0,0,1-.587-.979C331.62,133.565,331.884,133.438,332.207,133.625Z" transform="translate(-301.225 -65.435)" fill="#9fb6eb"/>
              <path id="Trazado_668586" data-name="Trazado 668586" d="M332.207,133.625l5.464,3.149a1.26,1.26,0,0,1,.587.979c0,.349-.264.485-.587.3l-5.464-3.149a1.268,1.268,0,0,1-.587-.979C331.62,133.565,331.884,133.438,332.207,133.625Z" transform="translate(-301.225 -65.435)" fill="#fff" opacity="0.6"/>
              <path id="Trazado_668587" data-name="Trazado 668587" d="M342.613,145.635,405.6,181.98a1.26,1.26,0,0,1,.587.979c0,.349-.264.485-.587.3l-62.986-36.345a1.26,1.26,0,0,1-.613-.979C342,145.575,342.281,145.448,342.613,145.635Z" transform="translate(-302.77 -67.223)" fill="#e6e6e6"/>
              <path id="Trazado_668588" data-name="Trazado 668588" d="M332.207,139.625l5.464,3.149a1.268,1.268,0,0,1,.587.979c0,.357-.264.494-.587.306l-5.464-3.158a1.26,1.26,0,0,1-.587-.979C331.62,139.574,331.884,139.438,332.207,139.625Z" transform="translate(-301.225 -66.329)" fill="#9fb6eb"/>
              <path id="Trazado_668589" data-name="Trazado 668589" d="M332.207,139.625l5.464,3.149a1.268,1.268,0,0,1,.587.979c0,.357-.264.494-.587.306l-5.464-3.158a1.26,1.26,0,0,1-.587-.979C331.62,139.574,331.884,139.438,332.207,139.625Z" transform="translate(-301.225 -66.329)" fill="#fff" opacity="0.6"/>
              <g id="Grupo_898675" data-name="Grupo 898675" transform="translate(21.883 16.848)" opacity="0.6">
                <path id="Trazado_668590" data-name="Trazado 668590" d="M322.207,73.4l3.209,1.856a1.285,1.285,0,0,1,.579,1.013v1.183c0,.366-.255.519-.579.332l-3.209-1.856a1.277,1.277,0,0,1-.587-1V73.737C321.62,73.363,321.884,73.218,322.207,73.4Z" transform="translate(-321.62 -73.32)" fill="#fff"/>
                <path id="Trazado_668591" data-name="Trazado 668591" d="M322.207,79.466l3.209,1.856a1.285,1.285,0,0,1,.579,1v1.183c0,.375-.255.519-.579.34l-3.209-1.856a1.294,1.294,0,0,1-.587-1.013V79.8C321.62,79.432,321.884,79.279,322.207,79.466Z" transform="translate(-321.62 -74.223)" fill="#fff"/>
                <path id="Trazado_668592" data-name="Trazado 668592" d="M322.207,85.527l3.209,1.856a1.285,1.285,0,0,1,.579,1.013v1.183c0,.366-.255.519-.579.332l-3.209-1.856a1.294,1.294,0,0,1-.587-1V85.867C321.62,85.493,321.884,85.348,322.207,85.527Z" transform="translate(-321.62 -75.126)" fill="#fff"/>
                <path id="Trazado_668593" data-name="Trazado 668593" d="M322.207,91.6l3.209,1.856a1.285,1.285,0,0,1,.579,1v1.183c0,.375-.255.519-.579.34l-3.209-1.856a1.294,1.294,0,0,1-.587-1.013V91.928C321.62,91.562,321.884,91.409,322.207,91.6Z" transform="translate(-321.62 -76.029)" fill="#fff"/>
                <path id="Trazado_668594" data-name="Trazado 668594" d="M322.207,97.656l3.209,1.856a1.285,1.285,0,0,1,.579,1.013V101.7c0,.375-.255.528-.579.34l-3.209-1.856a1.294,1.294,0,0,1-.587-1V98C321.62,97.622,321.884,97.469,322.207,97.656Z" transform="translate(-321.62 -76.931)" fill="#fff"/>
                <path id="Trazado_668595" data-name="Trazado 668595" d="M322.207,103.726l3.209,1.856a1.268,1.268,0,0,1,.579,1v1.183c0,.375-.255.519-.579.34l-3.209-1.856a1.294,1.294,0,0,1-.587-1.013v-1.183C321.62,103.692,321.884,103.539,322.207,103.726Z" transform="translate(-321.62 -77.834)" fill="#fff"/>
                <path id="Trazado_668596" data-name="Trazado 668596" d="M322.207,109.786l3.209,1.856a1.285,1.285,0,0,1,.579,1.013v1.175c0,.375-.255.528-.579.34l-3.209-1.856a1.294,1.294,0,0,1-.587-1v-1.183C321.62,109.752,321.884,109.6,322.207,109.786Z" transform="translate(-321.62 -78.736)" fill="#fff"/>
                <path id="Trazado_668597" data-name="Trazado 668597" d="M322.207,115.856l3.209,1.856a1.268,1.268,0,0,1,.579,1V119.9c0,.375-.255.519-.579.332l-3.209-1.847a1.294,1.294,0,0,1-.587-1.013v-1.183C321.62,115.822,321.884,115.669,322.207,115.856Z" transform="translate(-321.62 -79.639)" fill="#fff"/>
                <path id="Trazado_668598" data-name="Trazado 668598" d="M322.207,121.916l3.209,1.856a1.285,1.285,0,0,1,.579,1.013v1.175c0,.375-.255.528-.579.34l-3.209-1.856a1.294,1.294,0,0,1-.587-1.013v-1.175C321.62,121.882,321.884,121.729,322.207,121.916Z" transform="translate(-321.62 -80.541)" fill="#fff"/>
                <path id="Trazado_668599" data-name="Trazado 668599" d="M322.207,127.987l3.209,1.856a1.26,1.26,0,0,1,.579,1v1.183c0,.375-.255.519-.579.332l-3.209-1.821a1.294,1.294,0,0,1-.587-1.013v-1.183C321.62,127.987,321.884,127.8,322.207,127.987Z" transform="translate(-321.62 -81.446)" fill="#fff"/>
                <path id="Trazado_668600" data-name="Trazado 668600" d="M322.207,134.045l3.209,1.856a1.285,1.285,0,0,1,.579,1.013v1.175c0,.375-.255.528-.579.34l-3.209-1.881a1.294,1.294,0,0,1-.587-1.013V134.36C321.62,133.994,321.884,133.858,322.207,134.045Z" transform="translate(-321.62 -82.346)" fill="#fff"/>
                <path id="Trazado_668601" data-name="Trazado 668601" d="M322.207,140.116l3.209,1.847a1.285,1.285,0,0,1,.579,1.013v1.183c0,.375-.255.519-.579.332l-3.209-1.847a1.294,1.294,0,0,1-.587-1.013v-1.183C321.62,140.082,321.884,139.929,322.207,140.116Z" transform="translate(-321.62 -83.25)" fill="#fff"/>
              </g>
              <path id="Trazado_668602" data-name="Trazado 668602" d="M297.076,53.683,314.44,63.709a2.553,2.553,0,0,1,1.166,2.017V85.78c0,.741-.519,1.047-1.166.672L297.076,76.426a2.553,2.553,0,0,1-1.166-2.017V54.364C295.91,53.615,296.429,53.317,297.076,53.683Z" transform="translate(-295.91 -53.527)" fill="#37474f"/>
              <path id="Trazado_668603" data-name="Trazado 668603" d="M299.067,77.045l1.6.928a1.285,1.285,0,0,1,.6.979c0,.357-.272.485-.6.3l-1.6-.928a1.26,1.26,0,0,1-.587-.979C298.48,76.994,298.744,76.858,299.067,77.045Z" transform="translate(-296.293 -57.014)" fill="#9fb6eb"/>
              <path id="Trazado_668604" data-name="Trazado 668604" d="M299.067,77.045l1.6.928a1.285,1.285,0,0,1,.6.979c0,.357-.272.485-.6.3l-1.6-.928a1.26,1.26,0,0,1-.587-.979C298.48,76.994,298.744,76.858,299.067,77.045Z" transform="translate(-296.293 -57.014)" fill="#fff" opacity="0.6"/>
              <path id="Trazado_668605" data-name="Trazado 668605" d="M299.067,57.755l1.6.928a1.285,1.285,0,0,1,.6.979c0,.357-.272.485-.6.3l-1.6-.919a1.285,1.285,0,0,1-.587-.987C298.48,57.7,298.744,57.568,299.067,57.755Z" transform="translate(-296.293 -54.143)" fill="#9fb6eb"/>
              <path id="Trazado_668606" data-name="Trazado 668606" d="M299.067,57.755l1.6.928a1.285,1.285,0,0,1,.6.979c0,.357-.272.485-.6.3l-1.6-.919a1.285,1.285,0,0,1-.587-.987C298.48,57.7,298.744,57.568,299.067,57.755Z" transform="translate(-296.293 -54.143)" fill="#fff" opacity="0.6"/>
              <path id="Trazado_668607" data-name="Trazado 668607" d="M301.707,63.135l1.6.919a1.268,1.268,0,0,1,.587.979c0,.357-.264.494-.587.3l-1.6-.919a1.268,1.268,0,0,1-.587-.979C301.12,63.075,301.384,62.948,301.707,63.135Z" transform="translate(-296.685 -54.944)" fill="#9fb6eb"/>
              <path id="Trazado_668608" data-name="Trazado 668608" d="M301.707,63.135l1.6.919a1.268,1.268,0,0,1,.587.979c0,.357-.264.494-.587.3l-1.6-.919a1.268,1.268,0,0,1-.587-.979C301.12,63.075,301.384,62.948,301.707,63.135Z" transform="translate(-296.685 -54.944)" fill="#fff" opacity="0.6"/>
              <path id="Trazado_668609" data-name="Trazado 668609" d="M301.707,66.984l1.6.928a1.268,1.268,0,0,1,.587.979c0,.357-.264.485-.587.3l-1.6-.919a1.268,1.268,0,0,1-.587-.979C301.12,66.925,301.384,66.789,301.707,66.984Z" transform="translate(-296.685 -55.516)" fill="#9fb6eb"/>
              <path id="Trazado_668610" data-name="Trazado 668610" d="M301.707,66.984l1.6.928a1.268,1.268,0,0,1,.587.979c0,.357-.264.485-.587.3l-1.6-.919a1.268,1.268,0,0,1-.587-.979C301.12,66.925,301.384,66.789,301.707,66.984Z" transform="translate(-296.685 -55.516)" fill="#fff" opacity="0.6"/>
              <path id="Trazado_668611" data-name="Trazado 668611" d="M299.067,69.325l1.6.928a1.285,1.285,0,0,1,.6.979c0,.357-.272.485-.6.3l-1.6-.919a1.277,1.277,0,0,1-.587-.987C298.48,69.274,298.744,69.138,299.067,69.325Z" transform="translate(-296.293 -55.865)" fill="#9fb6eb"/>
              <path id="Trazado_668612" data-name="Trazado 668612" d="M299.067,69.325l1.6.928a1.285,1.285,0,0,1,.6.979c0,.357-.272.485-.6.3l-1.6-.919a1.277,1.277,0,0,1-.587-.987C298.48,69.274,298.744,69.138,299.067,69.325Z" transform="translate(-296.293 -55.865)" fill="#fff" opacity="0.6"/>
              <path id="Trazado_668613" data-name="Trazado 668613" d="M301.707,74.705l1.6.928a1.26,1.26,0,0,1,.587.979c0,.349-.264.485-.587.3l-1.6-.928A1.26,1.26,0,0,1,301.12,75C301.12,74.654,301.384,74.518,301.707,74.705Z" transform="translate(-296.685 -56.666)" fill="#9fb6eb"/>
              <path id="Trazado_668614" data-name="Trazado 668614" d="M301.707,74.705l1.6.928a1.26,1.26,0,0,1,.587.979c0,.349-.264.485-.587.3l-1.6-.928A1.26,1.26,0,0,1,301.12,75C301.12,74.654,301.384,74.518,301.707,74.705Z" transform="translate(-296.685 -56.666)" fill="#fff" opacity="0.6"/>
              <path id="Trazado_668615" data-name="Trazado 668615" d="M304.216,60.725l9.754,5.643a1.243,1.243,0,0,1,.6.979c0,.349-.264.485-.6.3l-9.754-5.635a1.26,1.26,0,0,1-.6-.987C303.62,60.674,303.884,60.538,304.216,60.725Z" transform="translate(-297.058 -54.585)" fill="#9fb6eb"/>
              <path id="Trazado_668616" data-name="Trazado 668616" d="M304.216,60.725l9.754,5.643a1.243,1.243,0,0,1,.6.979c0,.349-.264.485-.6.3l-9.754-5.635a1.26,1.26,0,0,1-.6-.987C303.62,60.674,303.884,60.538,304.216,60.725Z" transform="translate(-297.058 -54.585)" fill="#fff" opacity="0.8"/>
              <path id="Trazado_668617" data-name="Trazado 668617" d="M304.216,79.989l9.754,5.643a1.243,1.243,0,0,1,.6.979c0,.349-.264.485-.6.3l-9.754-5.635a1.277,1.277,0,0,1-.6-.987C303.62,79.989,303.884,79.827,304.216,79.989Z" transform="translate(-297.058 -57.456)" fill="#9fb6eb"/>
              <path id="Trazado_668618" data-name="Trazado 668618" d="M304.216,79.989l9.754,5.643a1.243,1.243,0,0,1,.6.979c0,.349-.264.485-.6.3l-9.754-5.635a1.277,1.277,0,0,1-.6-.987C303.62,79.989,303.884,79.827,304.216,79.989Z" transform="translate(-297.058 -57.456)" fill="#fff" opacity="0.8"/>
              <path id="Trazado_668619" data-name="Trazado 668619" d="M306.9,66.1l7.507,4.341a1.26,1.26,0,0,1,.6.987c0,.349-.264.485-.6.3L306.9,67.382a1.26,1.26,0,0,1-.6-.979C306.265,66.045,306.529,65.918,306.9,66.1Z" transform="translate(-297.456 -55.386)" fill="#9fb6eb"/>
              <path id="Trazado_668620" data-name="Trazado 668620" d="M306.9,66.1l7.507,4.341a1.26,1.26,0,0,1,.6.987c0,.349-.264.485-.6.3L306.9,67.382a1.26,1.26,0,0,1-.6-.979C306.265,66.045,306.529,65.918,306.9,66.1Z" transform="translate(-297.456 -55.386)" fill="#fff" opacity="0.8"/>
              <path id="Trazado_668621" data-name="Trazado 668621" d="M306.9,69.982l7.507,4.349a1.26,1.26,0,0,1,.6.979c0,.357-.264.485-.6.3L306.9,71.242a1.26,1.26,0,0,1-.6-.979C306.265,69.906,306.529,69.77,306.9,69.982Z" transform="translate(-297.456 -55.961)" fill="#9fb6eb"/>
              <path id="Trazado_668622" data-name="Trazado 668622" d="M306.9,69.982l7.507,4.349a1.26,1.26,0,0,1,.6.979c0,.357-.264.485-.6.3L306.9,71.242a1.26,1.26,0,0,1-.6-.979C306.265,69.906,306.529,69.77,306.9,69.982Z" transform="translate(-297.456 -55.961)" fill="#fff" opacity="0.8"/>
              <path id="Trazado_668623" data-name="Trazado 668623" d="M304.216,72.3l9.754,5.635a1.26,1.26,0,0,1,.6.979c0,.357-.264.485-.6.3l-9.754-5.635a1.26,1.26,0,0,1-.6-.979C303.62,72.245,303.884,72.118,304.216,72.3Z" transform="translate(-297.058 -56.309)" fill="#9fb6eb"/>
              <path id="Trazado_668624" data-name="Trazado 668624" d="M304.216,72.3l9.754,5.635a1.26,1.26,0,0,1,.6.979c0,.357-.264.485-.6.3l-9.754-5.635a1.26,1.26,0,0,1-.6-.979C303.62,72.245,303.884,72.118,304.216,72.3Z" transform="translate(-297.058 -56.309)" fill="#fff" opacity="0.8"/>
              <path id="Trazado_668625" data-name="Trazado 668625" d="M306.9,77.675l7.507,4.349A1.243,1.243,0,0,1,315,83c0,.349-.264.485-.6.3L306.9,78.952a1.242,1.242,0,0,1-.6-.979C306.265,77.624,306.529,77.488,306.9,77.675Z" transform="translate(-297.456 -57.108)" fill="#9fb6eb"/>
              <path id="Trazado_668626" data-name="Trazado 668626" d="M306.9,77.675l7.507,4.349A1.243,1.243,0,0,1,315,83c0,.349-.264.485-.6.3L306.9,78.952a1.242,1.242,0,0,1-.6-.979C306.265,77.624,306.529,77.488,306.9,77.675Z" transform="translate(-297.456 -57.108)" fill="#fff" opacity="0.8"/>
              <path id="Trazado_668627" data-name="Trazado 668627" d="M297.076,84.842,314.44,94.86a2.553,2.553,0,0,1,1.166,2.009v39.613c0,.749-.519,1.047-1.166.672l-17.364-10.027a2.553,2.553,0,0,1-1.166-2.017v-39.6C295.91,84.765,296.429,84.467,297.076,84.842Z" transform="translate(-295.91 -58.163)" fill="#37474f"/>
              <path id="Trazado_668628" data-name="Trazado 668628" d="M299.067,88.905l1.6.919a1.285,1.285,0,0,1,.6.979c0,.357-.272.485-.6.3l-1.6-.919a1.268,1.268,0,0,1-.587-.979C298.48,88.854,298.744,88.718,299.067,88.905Z" transform="translate(-296.293 -58.78)" fill="#9fb6eb"/>
              <path id="Trazado_668629" data-name="Trazado 668629" d="M299.067,88.905l1.6.919a1.285,1.285,0,0,1,.6.979c0,.357-.272.485-.6.3l-1.6-.919a1.268,1.268,0,0,1-.587-.979C298.48,88.854,298.744,88.718,299.067,88.905Z" transform="translate(-296.293 -58.78)" fill="#fff" opacity="0.6"/>
              <path id="Trazado_668630" data-name="Trazado 668630" d="M301.707,94.285l1.6.919a1.277,1.277,0,0,1,.587.987c0,.349-.264.485-.587.3l-1.6-.928a1.268,1.268,0,0,1-.587-.979C301.12,94.225,301.384,94.1,301.707,94.285Z" transform="translate(-296.685 -59.58)" fill="#9fb6eb"/>
              <path id="Trazado_668631" data-name="Trazado 668631" d="M301.707,94.285l1.6.919a1.277,1.277,0,0,1,.587.987c0,.349-.264.485-.587.3l-1.6-.928a1.268,1.268,0,0,1-.587-.979C301.12,94.225,301.384,94.1,301.707,94.285Z" transform="translate(-296.685 -59.58)" fill="#fff" opacity="0.6"/>
              <path id="Trazado_668632" data-name="Trazado 668632" d="M301.707,98.134l1.6.919a1.268,1.268,0,0,1,.587.979c0,.357-.264.485-.587.3l-1.6-.919a1.268,1.268,0,0,1-.587-.979C301.12,98.075,301.384,97.939,301.707,98.134Z" transform="translate(-296.685 -60.152)" fill="#9fb6eb"/>
              <path id="Trazado_668633" data-name="Trazado 668633" d="M301.707,98.134l1.6.919a1.268,1.268,0,0,1,.587.979c0,.357-.264.485-.587.3l-1.6-.919a1.268,1.268,0,0,1-.587-.979C301.12,98.075,301.384,97.939,301.707,98.134Z" transform="translate(-296.685 -60.152)" fill="#fff" opacity="0.6"/>
              <path id="Trazado_668634" data-name="Trazado 668634" d="M299.067,100.484l1.6.919a1.285,1.285,0,0,1,.6.979c0,.357-.272.485-.6.3l-1.6-.919a1.268,1.268,0,0,1-.587-.979C298.48,100.425,298.744,100.289,299.067,100.484Z" transform="translate(-296.293 -60.502)" fill="#9fb6eb"/>
              <path id="Trazado_668635" data-name="Trazado 668635" d="M299.067,100.484l1.6.919a1.285,1.285,0,0,1,.6.979c0,.357-.272.485-.6.3l-1.6-.919a1.268,1.268,0,0,1-.587-.979C298.48,100.425,298.744,100.289,299.067,100.484Z" transform="translate(-296.293 -60.502)" fill="#fff" opacity="0.6"/>
              <path id="Trazado_668636" data-name="Trazado 668636" d="M304.216,91.884l9.754,5.635a1.243,1.243,0,0,1,.6.979c0,.349-.264.485-.6.3l-9.754-5.635a1.26,1.26,0,0,1-.6-.979C303.62,91.825,303.884,91.689,304.216,91.884Z" transform="translate(-297.058 -59.222)" fill="#9fb6eb"/>
              <path id="Trazado_668637" data-name="Trazado 668637" d="M304.216,91.884l9.754,5.635a1.243,1.243,0,0,1,.6.979c0,.349-.264.485-.6.3l-9.754-5.635a1.26,1.26,0,0,1-.6-.979C303.62,91.825,303.884,91.689,304.216,91.884Z" transform="translate(-297.058 -59.222)" fill="#fff" opacity="0.8"/>
              <path id="Trazado_668638" data-name="Trazado 668638" d="M306.9,97.255,314.4,101.6a1.243,1.243,0,0,1,.6.979c0,.349-.264.485-.6.3L306.9,98.532a1.26,1.26,0,0,1-.6-.979C306.265,97.2,306.529,97.068,306.9,97.255Z" transform="translate(-297.456 -60.022)" fill="#9fb6eb"/>
              <path id="Trazado_668639" data-name="Trazado 668639" d="M306.9,97.255,314.4,101.6a1.243,1.243,0,0,1,.6.979c0,.349-.264.485-.6.3L306.9,98.532a1.26,1.26,0,0,1-.6-.979C306.265,97.2,306.529,97.068,306.9,97.255Z" transform="translate(-297.456 -60.022)" fill="#fff" opacity="0.8"/>
              <path id="Trazado_668640" data-name="Trazado 668640" d="M306.9,101.114l7.507,4.341a1.26,1.26,0,0,1,.6.979c0,.357-.264.494-.6.306l-7.507-4.349a1.26,1.26,0,0,1-.6-.979C306.265,101.055,306.529,100.919,306.9,101.114Z" transform="translate(-297.456 -60.596)" fill="#9fb6eb"/>
              <path id="Trazado_668641" data-name="Trazado 668641" d="M306.9,101.114l7.507,4.341a1.26,1.26,0,0,1,.6.979c0,.357-.264.494-.6.306l-7.507-4.349a1.26,1.26,0,0,1-.6-.979C306.265,101.055,306.529,100.919,306.9,101.114Z" transform="translate(-297.456 -60.596)" fill="#fff" opacity="0.8"/>
              <path id="Trazado_668642" data-name="Trazado 668642" d="M304.216,103.455l9.754,5.635a1.26,1.26,0,0,1,.6.979c0,.357-.264.485-.6.3l-9.754-5.609a1.26,1.26,0,0,1-.6-.979C303.62,103.4,303.884,103.268,304.216,103.455Z" transform="translate(-297.058 -60.945)" fill="#9fb6eb"/>
              <path id="Trazado_668643" data-name="Trazado 668643" d="M304.216,103.455l9.754,5.635a1.26,1.26,0,0,1,.6.979c0,.357-.264.485-.6.3l-9.754-5.609a1.26,1.26,0,0,1-.6-.979C303.62,103.4,303.884,103.268,304.216,103.455Z" transform="translate(-297.058 -60.945)" fill="#fff" opacity="0.8"/>
              <path id="Trazado_668644" data-name="Trazado 668644" d="M301.707,105.875l1.6.928a1.268,1.268,0,0,1,.587.979c0,.357-.264.485-.587.3l-1.6-.919a1.268,1.268,0,0,1-.587-.979C301.12,105.824,301.384,105.688,301.707,105.875Z" transform="translate(-296.685 -61.305)" fill="#9fb6eb"/>
              <path id="Trazado_668645" data-name="Trazado 668645" d="M301.707,105.875l1.6.928a1.268,1.268,0,0,1,.587.979c0,.357-.264.485-.587.3l-1.6-.919a1.268,1.268,0,0,1-.587-.979C301.12,105.824,301.384,105.688,301.707,105.875Z" transform="translate(-296.685 -61.305)" fill="#fff" opacity="0.6"/>
              <path id="Trazado_668646" data-name="Trazado 668646" d="M301.707,109.725l1.6.928a1.268,1.268,0,0,1,.587.979c0,.349-.264.485-.587.3l-1.6-.928a1.26,1.26,0,0,1-.587-.979C301.12,109.674,301.384,109.538,301.707,109.725Z" transform="translate(-296.685 -61.878)" fill="#9fb6eb"/>
              <path id="Trazado_668647" data-name="Trazado 668647" d="M301.707,109.725l1.6.928a1.268,1.268,0,0,1,.587.979c0,.349-.264.485-.587.3l-1.6-.928a1.26,1.26,0,0,1-.587-.979C301.12,109.674,301.384,109.538,301.707,109.725Z" transform="translate(-296.685 -61.878)" fill="#fff" opacity="0.6"/>
              <path id="Trazado_668648" data-name="Trazado 668648" d="M306.9,108.845l7.507,4.349a1.26,1.26,0,0,1,.6.979c0,.357-.264.494-.6.3l-7.507-4.341a1.26,1.26,0,0,1-.6-.979C306.265,108.794,306.529,108.658,306.9,108.845Z" transform="translate(-297.456 -61.747)" fill="#9fb6eb"/>
              <path id="Trazado_668649" data-name="Trazado 668649" d="M306.9,108.845l7.507,4.349a1.26,1.26,0,0,1,.6.979c0,.357-.264.494-.6.3l-7.507-4.341a1.26,1.26,0,0,1-.6-.979C306.265,108.794,306.529,108.658,306.9,108.845Z" transform="translate(-297.456 -61.747)" fill="#fff" opacity="0.8"/>
              <path id="Trazado_668650" data-name="Trazado 668650" d="M306.9,112.705l7.507,4.349a1.26,1.26,0,0,1,.6.979c0,.357-.264.485-.6.3l-7.507-4.349a1.242,1.242,0,0,1-.6-.979C306.265,112.654,306.529,112.518,306.9,112.705Z" transform="translate(-297.456 -62.322)" fill="#9fb6eb"/>
              <path id="Trazado_668651" data-name="Trazado 668651" d="M306.9,112.705l7.507,4.349a1.26,1.26,0,0,1,.6.979c0,.357-.264.485-.6.3l-7.507-4.349a1.242,1.242,0,0,1-.6-.979C306.265,112.654,306.529,112.518,306.9,112.705Z" transform="translate(-297.456 -62.322)" fill="#fff" opacity="0.8"/>
              <path id="Trazado_668652" data-name="Trazado 668652" d="M299.067,119.815l1.6.928a1.268,1.268,0,0,1,.6.979c0,.349-.272.485-.6.3l-1.6-.928a1.26,1.26,0,0,1-.587-.979C298.48,119.764,298.744,119.628,299.067,119.815Z" transform="translate(-296.293 -63.38)" fill="#9fb6eb"/>
              <path id="Trazado_668653" data-name="Trazado 668653" d="M299.067,119.815l1.6.928a1.268,1.268,0,0,1,.6.979c0,.349-.272.485-.6.3l-1.6-.928a1.26,1.26,0,0,1-.587-.979C298.48,119.764,298.744,119.628,299.067,119.815Z" transform="translate(-296.293 -63.38)" fill="#fff" opacity="0.6"/>
              <path id="Trazado_668654" data-name="Trazado 668654" d="M304.216,122.785l9.754,5.643a1.243,1.243,0,0,1,.6.979c0,.349-.264.485-.6.3l-9.754-5.635a1.26,1.26,0,0,1-.6-.979C303.62,122.734,303.884,122.6,304.216,122.785Z" transform="translate(-297.058 -63.822)" fill="#9fb6eb"/>
              <path id="Trazado_668655" data-name="Trazado 668655" d="M304.216,122.785l9.754,5.643a1.243,1.243,0,0,1,.6.979c0,.349-.264.485-.6.3l-9.754-5.635a1.26,1.26,0,0,1-.6-.979C303.62,122.734,303.884,122.6,304.216,122.785Z" transform="translate(-297.058 -63.822)" fill="#fff" opacity="0.8"/>
              <path id="Trazado_668656" data-name="Trazado 668656" d="M301.707,125.215l1.6.928a1.26,1.26,0,0,1,.587.979c0,.349-.264.485-.587.3l-1.6-.928a1.26,1.26,0,0,1-.587-.979C301.12,125.164,301.384,125.019,301.707,125.215Z" transform="translate(-296.685 -64.183)" fill="#9fb6eb"/>
              <path id="Trazado_668657" data-name="Trazado 668657" d="M301.707,125.215l1.6.928a1.26,1.26,0,0,1,.587.979c0,.349-.264.485-.587.3l-1.6-.928a1.26,1.26,0,0,1-.587-.979C301.12,125.164,301.384,125.019,301.707,125.215Z" transform="translate(-296.685 -64.183)" fill="#fff" opacity="0.6"/>
              <path id="Trazado_668658" data-name="Trazado 668658" d="M301.707,129.065l1.6.919a1.285,1.285,0,0,1,.587.987c0,.349-.264.485-.587.3l-1.6-.928a1.268,1.268,0,0,1-.587-.979C301.12,129,301.384,128.877,301.707,129.065Z" transform="translate(-296.685 -64.756)" fill="#9fb6eb"/>
              <path id="Trazado_668659" data-name="Trazado 668659" d="M301.707,129.065l1.6.919a1.285,1.285,0,0,1,.587.987c0,.349-.264.485-.587.3l-1.6-.928a1.268,1.268,0,0,1-.587-.979C301.12,129,301.384,128.877,301.707,129.065Z" transform="translate(-296.685 -64.756)" fill="#fff" opacity="0.6"/>
              <path id="Trazado_668660" data-name="Trazado 668660" d="M306.9,128.187l7.507,4.349a1.243,1.243,0,0,1,.6.979c0,.349-.264.485-.6.3l-7.507-4.349a1.242,1.242,0,0,1-.6-.979C306.265,128.136,306.529,128.016,306.9,128.187Z" transform="translate(-297.456 -64.627)" fill="#9fb6eb"/>
              <path id="Trazado_668661" data-name="Trazado 668661" d="M306.9,128.187l7.507,4.349a1.243,1.243,0,0,1,.6.979c0,.349-.264.485-.6.3l-7.507-4.349a1.242,1.242,0,0,1-.6-.979C306.265,128.136,306.529,128.016,306.9,128.187Z" transform="translate(-297.456 -64.627)" fill="#fff" opacity="0.8"/>
              <path id="Trazado_668662" data-name="Trazado 668662" d="M306.9,132.045l7.507,4.349a1.243,1.243,0,0,1,.6.979c0,.349-.264.485-.6.3l-7.507-4.349a1.26,1.26,0,0,1-.6-.979C306.265,131.994,306.529,131.858,306.9,132.045Z" transform="translate(-297.456 -65.2)" fill="#9fb6eb"/>
              <path id="Trazado_668663" data-name="Trazado 668663" d="M306.9,132.045l7.507,4.349a1.243,1.243,0,0,1,.6.979c0,.349-.264.485-.6.3l-7.507-4.349a1.26,1.26,0,0,1-.6-.979C306.265,131.994,306.529,131.858,306.9,132.045Z" transform="translate(-297.456 -65.2)" fill="#fff" opacity="0.8"/>
              <path id="Trazado_668664" data-name="Trazado 668664" d="M301.707,113.555l1.6.928a1.26,1.26,0,0,1,.587.979c0,.349-.264.485-.587.3l-1.6-.928a1.26,1.26,0,0,1-.587-.979C301.12,113.5,301.384,113.368,301.707,113.555Z" transform="translate(-296.685 -62.448)" fill="#9fb6eb"/>
              <path id="Trazado_668665" data-name="Trazado 668665" d="M301.707,113.555l1.6.928a1.26,1.26,0,0,1,.587.979c0,.349-.264.485-.587.3l-1.6-.928a1.26,1.26,0,0,1-.587-.979C301.12,113.5,301.384,113.368,301.707,113.555Z" transform="translate(-296.685 -62.448)" fill="#fff" opacity="0.6"/>
              <path id="Trazado_668666" data-name="Trazado 668666" d="M299.067,115.905l1.6.928a1.268,1.268,0,0,1,.6.979c0,.349-.272.485-.6.3l-1.6-.928a1.26,1.26,0,0,1-.587-.979C298.48,115.854,298.744,115.718,299.067,115.905Z" transform="translate(-296.293 -62.798)" fill="#9fb6eb"/>
              <path id="Trazado_668667" data-name="Trazado 668667" d="M299.067,115.905l1.6.928a1.268,1.268,0,0,1,.6.979c0,.349-.272.485-.6.3l-1.6-.928a1.26,1.26,0,0,1-.587-.979C298.48,115.854,298.744,115.718,299.067,115.905Z" transform="translate(-296.293 -62.798)" fill="#fff" opacity="0.6"/>
              <path id="Trazado_668668" data-name="Trazado 668668" d="M306.9,116.535l7.507,4.349a1.243,1.243,0,0,1,.6.979c0,.349-.264.485-.6.3l-7.507-4.349a1.242,1.242,0,0,1-.6-.979C306.265,116.484,306.529,116.348,306.9,116.535Z" transform="translate(-297.456 -62.892)" fill="#9fb6eb"/>
              <path id="Trazado_668669" data-name="Trazado 668669" d="M306.9,116.535l7.507,4.349a1.243,1.243,0,0,1,.6.979c0,.349-.264.485-.6.3l-7.507-4.349a1.242,1.242,0,0,1-.6-.979C306.265,116.484,306.529,116.348,306.9,116.535Z" transform="translate(-297.456 -62.892)" fill="#fff" opacity="0.8"/>
              <path id="Trazado_668670" data-name="Trazado 668670" d="M304.216,118.875l9.754,5.643a1.243,1.243,0,0,1,.6.979c0,.349-.264.485-.6.3l-9.754-5.635a1.277,1.277,0,0,1-.6-.987C303.62,118.824,303.884,118.688,304.216,118.875Z" transform="translate(-297.058 -63.24)" fill="#9fb6eb"/>
              <path id="Trazado_668671" data-name="Trazado 668671" d="M304.216,118.875l9.754,5.643a1.243,1.243,0,0,1,.6.979c0,.349-.264.485-.6.3l-9.754-5.635a1.277,1.277,0,0,1-.6-.987C303.62,118.824,303.884,118.688,304.216,118.875Z" transform="translate(-297.058 -63.24)" fill="#fff" opacity="0.8"/>
              <path id="Trazado_668672" data-name="Trazado 668672" d="M299.067,131.465l1.6.928a1.268,1.268,0,0,1,.6.979c0,.349-.272.485-.6.3l-1.6-.911a1.26,1.26,0,0,1-.587-.979C298.48,131.414,298.744,131.278,299.067,131.465Z" transform="translate(-296.293 -65.114)" fill="#9fb6eb"/>
              <path id="Trazado_668673" data-name="Trazado 668673" d="M299.067,131.465l1.6.928a1.268,1.268,0,0,1,.6.979c0,.349-.272.485-.6.3l-1.6-.911a1.26,1.26,0,0,1-.587-.979C298.48,131.414,298.744,131.278,299.067,131.465Z" transform="translate(-296.293 -65.114)" fill="#fff" opacity="0.6"/>
              <path id="Trazado_668674" data-name="Trazado 668674" d="M304.216,134.445l9.754,5.635a1.243,1.243,0,0,1,.6.979c0,.349-.264.485-.6.3l-9.754-5.6a1.26,1.26,0,0,1-.6-.979C303.62,134.385,303.884,134.249,304.216,134.445Z" transform="translate(-297.058 -65.557)" fill="#9fb6eb"/>
              <path id="Trazado_668675" data-name="Trazado 668675" d="M304.216,134.445l9.754,5.635a1.243,1.243,0,0,1,.6.979c0,.349-.264.485-.6.3l-9.754-5.6a1.26,1.26,0,0,1-.6-.979C303.62,134.385,303.884,134.249,304.216,134.445Z" transform="translate(-297.058 -65.557)" fill="#fff" opacity="0.8"/>
            </g>
          </g>
          <g id="freepik--window--inject-59-3" data-name="freepik--window--inject-59" transform="translate(217.03 94.315)">
            <g id="Grupo_898676" data-name="Grupo 898676" transform="translate(0 1.271)" opacity="0.8">
              <path id="Trazado_668676" data-name="Trazado 668676" d="M410.78,150.139v65.012a2.988,2.988,0,0,0,1.353,2.341l37.349,21.551a.936.936,0,0,0,.451.128h.357l.077-.051.077-.068a1.038,1.038,0,0,0,.247-.357,1.6,1.6,0,0,0,.145-.681V173.325a2.979,2.979,0,0,0-1.353-2.341l-37.349-21.526a.987.987,0,0,0-.911-.119l-.111.068h0l-.094.085a.178.178,0,0,0,0,.051.221.221,0,0,0-.043.077.46.46,0,0,0-.085.17.493.493,0,0,0,0,.119h0v.128C410.789,150.029,410.78,150.088,410.78,150.139Z" transform="translate(-410.78 -149.278)" fill="#455a64"/>
            </g>
            <path id="Trazado_668677" data-name="Trazado 668677" d="M411.3,149.023a.987.987,0,0,1,.911.119l37.349,21.526a2.979,2.979,0,0,1,1.353,2.341v4.409l2.153-1.243V171.8a2.962,2.962,0,0,0-1.353-2.332l-37.349-21.5a.945.945,0,0,0-.979-.085C413.139,147.968,411.589,148.879,411.3,149.023Z" transform="translate(-410.857 -147.785)" fill="#9fb6eb"/>
            <path id="Trazado_668678" data-name="Trazado 668678" d="M410.79,150.114c0-.851.6-1.192,1.345-.766l37.349,21.526a2.988,2.988,0,0,1,1.353,2.341v4.409l-40-23.075Z" transform="translate(-410.781 -147.99)" fill="#9fb6eb"/>
            <g id="Grupo_898677" data-name="Grupo 898677" transform="translate(0.451)" opacity="0.5">
              <path id="Trazado_668679" data-name="Trazado 668679" d="M412.212,149.143l37.349,21.526a2.784,2.784,0,0,1,.953,1l2.145-1.234a2.749,2.749,0,0,0-.945-.979l-37.349-21.492a.945.945,0,0,0-.979-.085c-.238.153-1.8,1.021-2.077,1.175a.945.945,0,0,1,.9.085Z" transform="translate(-411.31 -147.785)" fill="#fff"/>
            </g>
            <path id="Trazado_668680" data-name="Trazado 668680" d="M459.922,180.147v-4.383a2.86,2.86,0,0,0-.409-1.353l-2.153,1.226a2.69,2.69,0,0,1,.409,1.345v4.409Z" transform="translate(-417.713 -151.747)" opacity="0.15"/>
            <path id="Trazado_668681" data-name="Trazado 668681" d="M455.4,176.786a2.017,2.017,0,0,1,.766,1.617c0,.647-.34.979-.766.732a2.009,2.009,0,0,1-.766-1.609C454.63,176.871,454.945,176.548,455.4,176.786Z" transform="translate(-417.306 -152.089)" fill="#455a64"/>
            <path id="Trazado_668682" data-name="Trazado 668682" d="M452.167,174.925a1.983,1.983,0,0,1,.766,1.609c0,.655-.34.979-.766.741a2.034,2.034,0,0,1-.758-1.617C451.41,174.976,451.75,174.678,452.167,174.925Z" transform="translate(-416.827 -151.811)" fill="#455a64"/>
            <path id="Trazado_668683" data-name="Trazado 668683" d="M448.95,173.056a2.034,2.034,0,0,1,.783,1.643c0,.647-.34.979-.758.732a2,2,0,0,1-.766-1.617C448.184,173.141,448.525,172.818,448.95,173.056Z" transform="translate(-416.351 -151.534)" fill="#455a64"/>
            <g id="Grupo_898678" data-name="Grupo 898678" transform="translate(39.562 28.391)" opacity="0.9">
              <path id="Trazado_668684" data-name="Trazado 668684" d="M457.26,243.786l.162-.094.417-.238h0a1.479,1.479,0,0,1,.221-.128h0l.357-.2.723-.409.17-.094a.765.765,0,0,0,.23-.179.937.937,0,0,0,.179-.281,1.608,1.608,0,0,0,.162-.715V181.14l-2.153,1.243v60.271a1.966,1.966,0,0,1-.145.681,1.039,1.039,0,0,1-.247.357.2.2,0,0,1-.077.068Z" transform="translate(-457.26 -181.14)" fill="#37474f"/>
            </g>
            <path id="Trazado_668685" data-name="Trazado 668685" d="M414.43,164.071a.213.213,0,0,1,.068-.17l.97-.851h.043a.145.145,0,0,1,.077.094.247.247,0,0,1,0,.136v.672a.927.927,0,0,1,0,.187.7.7,0,0,1-.068.1l-.519.468.519,1.064c0,.068.051.128.068.187a1.218,1.218,0,0,1,0,.2v.775a.06.06,0,0,1-.077,0h0l-.043-.06-.97-2.017a.571.571,0,0,1-.068-.247Z" transform="translate(-411.323 -150.057)" fill="#9fb6eb"/>
            <path id="Trazado_668686" data-name="Trazado 668686" d="M418.3,163.131a.256.256,0,0,1,.077-.111h.145l.358.213a.145.145,0,0,1,.077.094.246.246,0,0,1,0,.136.171.171,0,0,1,0,.06l-1.7,5.175a.221.221,0,0,1-.068.111h-.145l-.349-.2a.17.17,0,0,1-.077-.094.272.272,0,0,1,0-.136v-.06Z" transform="translate(-411.648 -150.052)" fill="#9fb6eb"/>
            <path id="Trazado_668687" data-name="Trazado 668687" d="M421.424,168.5a.221.221,0,0,1-.068.179l-.97.851a.059.059,0,0,1-.051,0h0a.17.17,0,0,1-.077-.094.273.273,0,0,1,0-.136v-.672a.854.854,0,0,1,0-.187.3.3,0,0,1,.068-.111l.511-.468-.511-1.055a1.8,1.8,0,0,1-.068-.187,1.224,1.224,0,0,1,0-.2v-.681a.1.1,0,0,1,0-.094h.077a.187.187,0,0,1,.051.06l.97,2.009a.57.57,0,0,1,.068.255Z" transform="translate(-412.189 -150.442)" fill="#9fb6eb"/>
            <path id="Trazado_668688" data-name="Trazado 668688" d="M424.7,172.068a.246.246,0,0,1,.094.111.409.409,0,0,1,0,.17v.741a.153.153,0,0,1,0,.119.068.068,0,0,1-.094,0l-.46-.264a.247.247,0,0,1-.094-.111.417.417,0,0,1,0-.17v-.689a.179.179,0,0,1,0-.128.068.068,0,0,1,.094,0Z" transform="translate(-412.768 -151.363)" fill="#9fb6eb"/>
            <path id="Trazado_668689" data-name="Trazado 668689" d="M426.5,173.1a.247.247,0,0,1,.094.111.408.408,0,0,1,0,.17v.741a.153.153,0,0,1,0,.119.077.077,0,0,1-.094,0l-.46-.264a.306.306,0,0,1-.094-.111.451.451,0,0,1-.043-.17v-.723a.179.179,0,0,1,.043-.128.068.068,0,0,1,.094,0Z" transform="translate(-413.03 -151.512)" fill="#9fb6eb"/>
            <path id="Trazado_668690" data-name="Trazado 668690" d="M428.3,174.138a.213.213,0,0,1,.094.111.408.408,0,0,1,0,.17v.74a.171.171,0,0,1,0,.119.077.077,0,0,1-.094,0l-.46-.264a.281.281,0,0,1-.094-.119.383.383,0,0,1-.043-.162v-.758a.17.17,0,0,1,.043-.119.077.077,0,0,1,.094,0Z" transform="translate(-413.298 -151.663)" fill="#9fb6eb"/>
            <path id="Trazado_668691" data-name="Trazado 668691" d="M414.827,171.159l22.437,12.955a1.021,1.021,0,0,1,.485.8c0,.289-.213.392-.485.238L414.827,172.2a1.03,1.03,0,0,1-.477-.792C414.35,171.116,414.563,171.014,414.827,171.159Z" transform="translate(-411.311 -151.254)" fill="#9fb6eb"/>
            <path id="Trazado_668692" data-name="Trazado 668692" d="M423.287,190.7l22.437,12.955a1.013,1.013,0,0,1,.485.792c0,.289-.213.4-.485.247l-22.437-12.955a1.03,1.03,0,0,1-.477-.8C422.81,190.647,423.023,190.544,423.287,190.7Z" transform="translate(-412.571 -154.161)" fill="#e6e6e6"/>
            <path id="Trazado_668693" data-name="Trazado 668693" d="M423.288,200.458l10.75,6.2a1.03,1.03,0,0,1,.477.8c0,.289-.213.392-.477.238L423.3,201.5a1.013,1.013,0,0,1-.477-.792C422.811,200.415,423.024,200.3,423.288,200.458Z" transform="translate(-412.572 -155.614)" fill="#e6e6e6"/>
            <path id="Trazado_668694" data-name="Trazado 668694" d="M443.377,187.638l8.937,5.107a1.013,1.013,0,0,1,.485.792c0,.289-.221.4-.485.247l-8.937-5.107a1.013,1.013,0,0,1-.477-.792C442.9,187.6,443.113,187.485,443.377,187.638Z" transform="translate(-415.561 -153.706)" fill="#9fb6eb"/>
            <path id="Trazado_668695" data-name="Trazado 668695" d="M414.827,224.878l22.437,12.955a1.013,1.013,0,0,1,.485.792c0,.289-.213.4-.485.247l-22.437-12.955a1.03,1.03,0,0,1-.477-.8C414.35,224.827,414.563,224.724,414.827,224.878Z" transform="translate(-411.311 -159.248)" fill="#9fb6eb"/>
            <path id="Trazado_668696" data-name="Trazado 668696" d="M443.377,241.358l8.937,5.107a1.038,1.038,0,0,1,.485.8c0,.281-.221.392-.485.238l-8.937-5.107a1.03,1.03,0,0,1-.477-.8C442.9,241.315,443.113,241.2,443.377,241.358Z" transform="translate(-415.561 -161.701)" fill="#9fb6eb"/>
            <path id="Trazado_668697" data-name="Trazado 668697" d="M443.377,226.728l8.937,5.107a1.021,1.021,0,0,1,.485.792c0,.289-.221.4-.485.247l-8.937-5.107a1.03,1.03,0,0,1-.477-.8C442.9,226.685,443.113,226.575,443.377,226.728Z" transform="translate(-415.561 -159.524)" fill="#9fb6eb"/>
            <path id="Trazado_668698" data-name="Trazado 668698" d="M443.377,231.618l8.937,5.107a1.038,1.038,0,0,1,.485.792c0,.289-.221.4-.485.247l-8.937-5.107a1.03,1.03,0,0,1-.477-.8C442.9,231.567,443.113,231.464,443.377,231.618Z" transform="translate(-415.561 -160.251)" fill="#9fb6eb"/>
            <path id="Trazado_668699" data-name="Trazado 668699" d="M434.417,221.548l5.022,2.9a1,1,0,0,1,.485.792c0,.289-.213.4-.485.247l-5.022-2.9a1.03,1.03,0,0,1-.477-.8C433.94,221.505,434.153,221.395,434.417,221.548Z" transform="translate(-414.227 -158.753)" fill="#9fb6eb"/>
            <path id="Trazado_668700" data-name="Trazado 668700" d="M414.827,176.057l13.091,7.55a1.03,1.03,0,0,1,.477.792c0,.289-.213.4-.477.247l-13.091-7.55a1.03,1.03,0,0,1-.477-.8C414.35,176,414.563,175.9,414.827,176.057Z" transform="translate(-411.311 -151.982)" fill="#9fb6eb"/>
            <path id="Trazado_668701" data-name="Trazado 668701" d="M414.827,176.057l13.091,7.55a1.03,1.03,0,0,1,.477.792c0,.289-.213.4-.477.247l-13.091-7.55a1.03,1.03,0,0,1-.477-.8C414.35,176,414.563,175.9,414.827,176.057Z" transform="translate(-411.311 -151.982)" fill="#fff" opacity="0.6"/>
            <path id="Trazado_668702" data-name="Trazado 668702" d="M414.827,180.928l4.443,2.553a1.03,1.03,0,0,1,.477.792c0,.289-.213.4-.477.247l-4.443-2.553a1.03,1.03,0,0,1-.477-.792C414.35,180.885,414.563,180.775,414.827,180.928Z" transform="translate(-411.311 -152.707)" fill="#9fb6eb"/>
            <path id="Trazado_668703" data-name="Trazado 668703" d="M414.827,180.928l4.443,2.553a1.03,1.03,0,0,1,.477.792c0,.289-.213.4-.477.247l-4.443-2.553a1.03,1.03,0,0,1-.477-.792C414.35,180.885,414.563,180.775,414.827,180.928Z" transform="translate(-411.311 -152.707)" fill="#fff" opacity="0.6"/>
            <path id="Trazado_668704" data-name="Trazado 668704" d="M414.827,185.808l4.443,2.553a1.03,1.03,0,0,1,.477.8c0,.281-.213.392-.477.238l-4.443-2.554a1,1,0,0,1-.477-.792C414.35,185.765,414.563,185.655,414.827,185.808Z" transform="translate(-411.311 -153.434)" fill="#9fb6eb"/>
            <path id="Trazado_668705" data-name="Trazado 668705" d="M414.827,185.808l4.443,2.553a1.03,1.03,0,0,1,.477.8c0,.281-.213.392-.477.238l-4.443-2.554a1,1,0,0,1-.477-.792C414.35,185.765,414.563,185.655,414.827,185.808Z" transform="translate(-411.311 -153.434)" fill="#fff" opacity="0.6"/>
            <path id="Trazado_668706" data-name="Trazado 668706" d="M414.827,190.7l4.443,2.553a1.013,1.013,0,0,1,.477.792c0,.289-.213.4-.477.247l-4.443-2.553a1.03,1.03,0,0,1-.477-.8C414.35,190.647,414.563,190.544,414.827,190.7Z" transform="translate(-411.311 -154.161)" fill="#9fb6eb"/>
            <path id="Trazado_668707" data-name="Trazado 668707" d="M414.827,190.7l4.443,2.553a1.03,1.03,0,0,1,.477.8c0,.289-.213.392-.477.238l-4.443-2.553a1.03,1.03,0,0,1-.477-.8C414.35,190.647,414.563,190.544,414.827,190.7Z" transform="translate(-411.311 -154.161)" fill="#fff" opacity="0.6"/>
            <path id="Trazado_668708" data-name="Trazado 668708" d="M423.287,195.578l13.091,7.55a1.03,1.03,0,0,1,.477.8c0,.281-.213.392-.477.238l-13.091-7.55a1.03,1.03,0,0,1-.477-.8C422.81,195.535,423.023,195.425,423.287,195.578Z" transform="translate(-412.571 -154.888)" fill="#9fb6eb" opacity="0.6"/>
            <path id="Trazado_668709" data-name="Trazado 668709" d="M440.847,205.708l5.694,3.3a1,1,0,0,1,.477.792c0,.289-.213.4-.477.247l-5.694-3.3a1.03,1.03,0,0,1-.477-.792C440.37,205.665,440.583,205.555,440.847,205.708Z" transform="translate(-415.184 -156.395)" fill="#9fb6eb" opacity="0.6"/>
            <path id="Trazado_668710" data-name="Trazado 668710" d="M423.287,195.578l13.091,7.55a1.03,1.03,0,0,1,.477.8c0,.281-.213.392-.477.238l-13.091-7.55a1.03,1.03,0,0,1-.477-.8C422.81,195.535,423.023,195.425,423.287,195.578Z" transform="translate(-412.571 -154.888)" fill="#fff" opacity="0.6"/>
            <path id="Trazado_668711" data-name="Trazado 668711" d="M440.847,205.708l5.694,3.3a1,1,0,0,1,.477.792c0,.289-.213.4-.477.247l-5.694-3.3a1.03,1.03,0,0,1-.477-.792C440.37,205.665,440.583,205.555,440.847,205.708Z" transform="translate(-415.184 -156.395)" fill="#fff" opacity="0.6"/>
            <path id="Trazado_668712" data-name="Trazado 668712" d="M414.827,195.578l4.443,2.553a1.03,1.03,0,0,1,.477.792c0,.289-.213.4-.477.247l-4.443-2.553a1.03,1.03,0,0,1-.477-.792C414.35,195.535,414.563,195.425,414.827,195.578Z" transform="translate(-411.311 -154.888)" fill="#9fb6eb"/>
            <path id="Trazado_668713" data-name="Trazado 668713" d="M414.827,195.578l4.443,2.553a1.03,1.03,0,0,1,.477.792c0,.289-.213.4-.477.247l-4.443-2.553a1.03,1.03,0,0,1-.477-.792C414.35,195.535,414.563,195.425,414.827,195.578Z" transform="translate(-411.311 -154.888)" fill="#fff" opacity="0.6"/>
            <path id="Trazado_668714" data-name="Trazado 668714" d="M432.387,186.187l5.694,3.294a1.03,1.03,0,0,1,.477.8c0,.281-.213.392-.477.238l-5.694-3.294a1.03,1.03,0,0,1-.477-.8C431.91,186.144,432.123,186.016,432.387,186.187Z" transform="translate(-413.925 -153.489)" fill="#9fb6eb"/>
            <path id="Trazado_668715" data-name="Trazado 668715" d="M432.387,186.187l5.694,3.294a1.03,1.03,0,0,1,.477.8c0,.281-.213.392-.477.238l-5.694-3.294a1.03,1.03,0,0,1-.477-.8C431.91,186.144,432.123,186.016,432.387,186.187Z" transform="translate(-413.925 -153.489)" fill="#fff" opacity="0.6"/>
            <path id="Trazado_668716" data-name="Trazado 668716" d="M429.627,208.99l13.091,7.55a1.038,1.038,0,0,1,.485.8c0,.289-.221.392-.485.247l-13.091-7.558a1.03,1.03,0,0,1-.477-.792C429.15,208.99,429.363,208.845,429.627,208.99Z" transform="translate(-413.514 -156.886)" fill="#fff"/>
            <path id="Trazado_668717" data-name="Trazado 668717" d="M438.51,218.992l13.116,7.584a1.038,1.038,0,0,1,.485.8c0,.281-.221.392-.485.238l-13.082-7.55a1.021,1.021,0,0,1-.485-.8C438.008,218.992,438.237,218.873,438.51,218.992Z" transform="translate(-414.839 -158.376)" fill="#fff"/>
            <path id="Trazado_668718" data-name="Trazado 668718" d="M447.2,219.139l5.72,3.277a1.039,1.039,0,0,1,.485.792c0,.289-.221.4-.485.247l-5.686-3.294a1.021,1.021,0,0,1-.485-.8C446.715,219.088,446.962,219.012,447.2,219.139Z" transform="translate(-416.133 -158.396)" fill="#fff"/>
            <path id="Trazado_668719" data-name="Trazado 668719" d="M447.2,238.478l5.686,3.294a1.038,1.038,0,0,1,.485.8c0,.281-.221.392-.485.238l-5.686-3.294a1.021,1.021,0,0,1-.485-.8C446.71,238.435,446.957,238.325,447.2,238.478Z" transform="translate(-416.128 -161.273)" fill="#e6e6e6"/>
            <path id="Trazado_668720" data-name="Trazado 668720" d="M423.287,185.808l13.091,7.558a1.013,1.013,0,0,1,.477.792c0,.289-.213.4-.477.247l-13.091-7.592a1,1,0,0,1-.477-.792C422.81,185.765,423.023,185.655,423.287,185.808Z" transform="translate(-412.571 -153.433)" fill="#9fb6eb"/>
            <path id="Trazado_668721" data-name="Trazado 668721" d="M423.287,185.808l13.091,7.558a1.013,1.013,0,0,1,.477.792c0,.289-.213.4-.477.247l-13.091-7.592a1,1,0,0,1-.477-.792C422.81,185.765,423.023,185.655,423.287,185.808Z" transform="translate(-412.571 -153.433)" fill="#fff" opacity="0.6"/>
            <path id="Trazado_668722" data-name="Trazado 668722" d="M440.847,195.984l5.694,3.294a1.03,1.03,0,0,1,.477.8c0,.281-.213.392-.477.238l-5.694-3.294a1.03,1.03,0,0,1-.477-.8C440.37,195.9,440.583,195.8,440.847,195.984Z" transform="translate(-415.184 -154.944)" fill="#9fb6eb"/>
            <path id="Trazado_668723" data-name="Trazado 668723" d="M440.847,195.984l5.694,3.294a1.03,1.03,0,0,1,.477.8c0,.281-.213.392-.477.238l-5.694-3.294a1.03,1.03,0,0,1-.477-.8C440.37,195.9,440.583,195.8,440.847,195.984Z" transform="translate(-415.184 -154.944)" fill="#fff" opacity="0.6"/>
          </g>
          <g id="freepik--Mouse--inject-59" transform="translate(151.622 167.931)">
            <path id="Trazado_668724" data-name="Trazado 668724" d="M335.795,249.326l8.018,4.63a8.835,8.835,0,0,0,8.852-.468l13.236-9.661c2.358-1.7,2.222-4.256-.306-5.762l-4.017-2.332a10.921,10.921,0,0,0-9.3-.281L335.94,244.3C333.326,245.615,333.258,247.862,335.795,249.326Z" transform="translate(-333.935 -234.313)" opacity="0.15"/>
            <path id="Trazado_668725" data-name="Trazado 668725" d="M366.343,239.582,357.2,246.74l-6.758,5.286a5.958,5.958,0,0,1-2.153.519,5.856,5.856,0,0,1-3.209-.672l-7.175-4.145h-.043a5.107,5.107,0,0,1-1.456-7.26l.213-.3a9.567,9.567,0,0,1,5.779-3.66l3.634-.724c5.89-1.2,10.716-1.779,11.278-1.4l9,5.209Z" transform="translate(-334.165 -234.272)" fill="#37474f"/>
            <path id="Trazado_668726" data-name="Trazado 668726" d="M363.282,243.776l.519-.409-8.078-4.656,7.065-2.187-.715-.417-7.065,2.188-4.818-2.775-.911.17Z" transform="translate(-336.219 -234.458)" fill="#9fb6eb"/>
            <path id="Trazado_668727" data-name="Trazado 668727" d="M353.476,252.515h0l6.435-4.647,8.673-6.265v-1.021a.085.085,0,0,0-.043-.077h-.051c-.647-.221-4.409.911-8.954,2.715l-3.013,1.2a9.542,9.542,0,0,0-6.043,8.912v.153a5.958,5.958,0,0,0,2.154-.519Z" transform="translate(-336.398 -235.196)" fill="#263238"/>
          </g>
        </g>
      </g>
      <g id="freepik--Character--inject-59" transform="translate(74.324 103.116)">
        <g id="freepik--character--inject-59-2" data-name="freepik--character--inject-59" transform="translate(0 0)">
          <path id="Trazado_668743" data-name="Trazado 668743" d="M213.012,346.684c0-.17-2.732-10.044-2.732-10.044s.894.911,6.6-.6a32.345,32.345,0,0,0,6.2-2.6l1.626,7.218c1.524,2.775,6.562,1.5,12.078.851.928-.111,1.881-.264,2.834-.426h.06c2.979-.162,5.958,1.626,2.877,4.171s-8.214,3.5-12.921,4.349C223.967,350.668,214.025,352.327,213.012,346.684Z" transform="translate(-101.806 -149.041)" fill="#ffa8a7"/>
          <path id="Trazado_668744" data-name="Trazado 668744" d="M252.954,348a5.78,5.78,0,0,1,.409,3.03c-.1,1.1-2.826,4.826-7.66,7.116s-10.742,2.434-13.516,3.234-5.328,2.392-8.605,3.192-6.52,1.226-9.805-.945c-.6-.928-1.268-3.081-1.081-3.294C213.29,359.772,252.954,348,252.954,348Z" transform="translate(-102.161 -151.208)" fill="#263238"/>
          <path id="Trazado_668745" data-name="Trazado 668745" d="M225.788,342.822c2.111,1.456,6.486.443,11.21-.094,4.46-.511,9.473-2.077,12.5-1.021s5.558,4.613,1.464,9.184c-1.183,1.319-3.686,3.643-5.694,4.366-5.107,1.822-9.652,1.966-12.921,2.775-4.256,1.047-6.588,2.937-10.52,3.4-5.107.6-8.324-.715-9.21-2.077s-1.7-12.333.485-12.1c0,0,.919,3.549,9.252.1C225.992,345.836,225.933,343.606,225.788,342.822Z" transform="translate(-102.019 -150.219)" fill="#9fb6eb"/>
          <path id="Trazado_668746" data-name="Trazado 668746" d="M225.788,342.822c2.111,1.456,6.486.443,11.21-.094,4.46-.511,9.473-2.077,12.5-1.021s5.558,4.613,1.464,9.184c-1.183,1.319-3.686,3.643-5.694,4.366-5.107,1.822-9.652,1.966-12.921,2.775-4.256,1.047-6.588,2.937-10.52,3.4-5.107.6-8.324-.715-9.21-2.077s-1.7-12.333.485-12.1c0,0,.919,3.549,9.252.1C225.992,345.836,225.933,343.606,225.788,342.822Z" transform="translate(-102.019 -150.219)" opacity="0.4"/>
          <path id="Trazado_668747" data-name="Trazado 668747" d="M243.838,348.948s-.477-4.63-3.9-5.856a1.8,1.8,0,0,0-1.89.247s3.175.46,4.256,5.9c0,0,.162.357.851.23C243.361,349.416,243.872,349.322,243.838,348.948Z" transform="translate(-105.94 -150.454)" fill="#fafafa"/>
          <path id="Trazado_668748" data-name="Trazado 668748" d="M234.62,343.761s0-.153.8-.3a1.43,1.43,0,0,1,.945.1s2.554,1.107,3.03,5.958c0,0,0,.579-.792.741a.7.7,0,0,1-.911-.477S237.165,344.689,234.62,343.761Z" transform="translate(-105.429 -150.528)" fill="#fafafa"/>
          <path id="Trazado_668749" data-name="Trazado 668749" d="M231.4,343.889s.145-.289.741-.289c.758,0,.936.3.936.3s1.821,1.864,1.839,5.916c0,0,.077.681-.851.749s-.851-.7-.851-.7S232.89,344.707,231.4,343.889Z" transform="translate(-104.95 -150.554)" fill="#fafafa"/>
          <path id="Trazado_668750" data-name="Trazado 668750" d="M206.134,270.2c4.171,12.538,15.236,55.709,15.236,55.709s-7.2,6.469-15.015,3.524l-18.615-53.76Z" transform="translate(-98.452 -139.629)" fill="#37474f"/>
          <path id="Trazado_668751" data-name="Trazado 668751" d="M246.432,363.063c-.851-1.268-4.052-10.044-4.052-10.044s3.337,1.907,9.082.545c2.919-.7,5.652-3.864,5.652-3.864l2.451,8.435c1.447,2.817,6.137,1.89,11.669,1.4.928-.085,1.881-.221,2.843-.357h.06c2.979-.085,5.958,1.77,2.766,4.256s-8.29,3.3-13.023,4.035C258.229,368.323,249.623,367.83,246.432,363.063Z" transform="translate(-106.584 -151.461)" fill="#ffa8a7"/>
          <path id="Trazado_668752" data-name="Trazado 668752" d="M289.945,365.09a6.222,6.222,0,0,1,.366,3.268c-.145,1.175-3.166,5.107-8.375,7.431s-11.6,2.332-14.606,3.115-5.779,2.434-9.32,3.209-7.031,1.132-10.495-1.268c-.63-1.021-1.294-3.354-1.072-3.575C247.013,376.683,289.945,365.09,289.945,365.09Z" transform="translate(-107.182 -153.752)" fill="#263238"/>
          <path id="Trazado_668753" data-name="Trazado 668753" d="M260.9,358.706a8.88,8.88,0,0,0,1.047.647,3.124,3.124,0,0,0,1.158.238,16.083,16.083,0,0,0,2.792.068c2.332-.111,4.656-.468,6.988-.672,4.792-.426,10.214-1.975,13.44-.766s6.171,5.107,1.651,9.882a22.129,22.129,0,0,1-6.043,4.588c-5.354,2.239-10.912,1.822-14.47,2.6-4.6,1.013-7.15,2.979-11.389,3.362-5.49.5-8.912-.987-9.822-2.477-.511-.851.051-5.107-.63-8.469-.6-2.877-.443-4.835.6-4.707a5.106,5.106,0,0,0,.8,1.021,3.838,3.838,0,0,0,1.217.962,9.609,9.609,0,0,0,2.06.689,12.166,12.166,0,0,0,3.822.528,1.856,1.856,0,0,0,1.038-.332,2.187,2.187,0,0,0,.6-1.294c.085-.426.179-.851.264-1.277a1.787,1.787,0,0,1,.238-.655,1.7,1.7,0,0,1,.647-.519A5.583,5.583,0,0,0,259,360.536a4.92,4.92,0,0,0,.613-1.975.485.485,0,0,1,.136-.323c.153-.119.383,0,.553.094Z" transform="translate(-107.014 -152.662)" fill="#9fb6eb"/>
          <path id="Trazado_668754" data-name="Trazado 668754" d="M260.9,358.706a8.88,8.88,0,0,0,1.047.647,3.124,3.124,0,0,0,1.158.238,16.083,16.083,0,0,0,2.792.068c2.332-.111,4.656-.468,6.988-.672,4.792-.426,10.214-1.975,13.44-.766s6.171,5.107,1.651,9.882a22.129,22.129,0,0,1-6.043,4.588c-5.354,2.239-10.912,1.822-14.47,2.6-4.6,1.013-7.15,2.979-11.389,3.362-5.49.5-8.912-.987-9.822-2.477-.511-.851.051-5.107-.63-8.469-.6-2.877-.443-4.835.6-4.707a5.106,5.106,0,0,0,.8,1.021,3.838,3.838,0,0,0,1.217.962,9.609,9.609,0,0,0,2.06.689,12.166,12.166,0,0,0,3.822.528,1.856,1.856,0,0,0,1.038-.332,2.187,2.187,0,0,0,.6-1.294c.085-.426.179-.851.264-1.277a1.787,1.787,0,0,1,.238-.655,1.7,1.7,0,0,1,.647-.519A5.583,5.583,0,0,0,259,360.536a4.92,4.92,0,0,0,.613-1.975.485.485,0,0,1,.136-.323c.153-.119.383,0,.553.094Z" transform="translate(-107.014 -152.662)" opacity="0.4"/>
          <path id="Trazado_668755" data-name="Trazado 668755" d="M280.139,365.678s-.391-4.988-4.034-6.392a1.941,1.941,0,0,0-2.034.213s3.4.579,4.375,6.443c0,0,.17.392.919.272C279.611,366.181,280.164,366.1,280.139,365.678Z" transform="translate(-111.301 -152.859)" fill="#fafafa"/>
          <path id="Trazado_668756" data-name="Trazado 668756" d="M270.38,359.881s0-.17.851-.306a1.515,1.515,0,0,1,1,.136s2.715,1.251,3.1,6.469c0,0,0,.621-.851.775a.758.758,0,0,1-.97-.536S273.1,360.936,270.38,359.881Z" transform="translate(-110.751 -152.926)" fill="#fafafa"/>
          <path id="Trazado_668757" data-name="Trazado 668757" d="M266.92,359.949s.162-.306.809-.289c.809,0,.987.34.987.34s1.907,2.051,1.821,6.392c0,0,.068.741-.962.792s-.851-.775-.851-.775S268.5,360.843,266.92,359.949Z" transform="translate(-110.236 -152.944)" fill="#fafafa"/>
          <path id="Trazado_668758" data-name="Trazado 668758" d="M240.064,287.352c3.286,10.1,11.678,38.864,15.508,53.623,0,0-6.886,6.2-15.747,5.652L218.47,291.25l8.512-5.26Z" transform="translate(-103.025 -141.979)" fill="#455a64"/>
          <path id="Trazado_668759" data-name="Trazado 668759" d="M160.987,433.953a1.387,1.387,0,0,0,1.387-1.387v-89a1.387,1.387,0,0,0-2.775,0v89.023a1.387,1.387,0,0,0,1.387,1.362Z" transform="translate(-94.263 -150.342)" fill="#455a64"/>
          <path id="Trazado_668760" data-name="Trazado 668760" d="M96.277,399.419a1.379,1.379,0,0,0,1.285-.851l27.3-69.1a1.379,1.379,0,1,0-2.553-1.013L94.983,397.487a1.387,1.387,0,0,0,.775,1.8,1.369,1.369,0,0,0,.519.136Z" transform="translate(-84.632 -148.153)" fill="#455a64"/>
          <path id="Trazado_668761" data-name="Trazado 668761" d="M100.128,392.14a1.37,1.37,0,0,0,1-.434l50.8-53.751,50.7,53.521a1.387,1.387,0,0,0,2.009-1.907l-51.708-54.585a1.4,1.4,0,0,0-1-.434h0a1.388,1.388,0,0,0-1,.434L99.124,389.8a1.387,1.387,0,0,0,1,2.341Z" transform="translate(-85.206 -149.207)" fill="#455a64"/>
          <path id="Trazado_668762" data-name="Trazado 668762" d="M220.913,399.4a1.371,1.371,0,0,0,.511-.1,1.387,1.387,0,0,0,.775-1.8l-27.3-69.089a1.387,1.387,0,1,0-2.553,1.013l27.305,69.1A1.379,1.379,0,0,0,220.913,399.4Z" transform="translate(-99.11 -148.135)" fill="#455a64"/>
          <path id="Trazado_668763" data-name="Trazado 668763" d="M207.2,302.373c1-5.584-3.549-9.942-12.112-15.721a202.962,202.962,0,0,0-24.794-13.934c-7.167-3.285-14.47-2.979-23.654,1.7-12.767,6.545-51.07,29.791-51.07,29.791s57.3,32.344,68.323,30.9,38.575-19.373,40.762-25.68S207.2,302.373,207.2,302.373Z" transform="translate(-84.733 -139.679)" fill="#9fb6eb"/>
          <g id="Grupo_898683" data-name="Grupo 898683" transform="translate(10.837 130.855)" opacity="0.4">
            <path id="Trazado_668764" data-name="Trazado 668764" d="M207.2,302.373c1-5.584-3.549-9.942-12.112-15.721a202.962,202.962,0,0,0-24.794-13.934c-7.167-3.285-14.47-2.979-23.654,1.7-12.767,6.545-51.07,29.791-51.07,29.791s57.3,32.344,68.323,30.9,38.575-19.373,40.762-25.68S207.2,302.373,207.2,302.373Z" transform="translate(-95.57 -270.534)"/>
          </g>
          <path id="Trazado_668765" data-name="Trazado 668765" d="M169.35,333.892c8.222,7.448,16.819,1.038,30.421-7.788,15.4-9.984,18.411-18.164,18.411-18.164s0,6.128-1.149,9-3.634,6.128-14.734,13.78-19.143,11.482-26.607,12.9l-5.89-.809" transform="translate(-95.715 -145.246)" fill="#9fb6eb"/>
          <path id="Trazado_668766" data-name="Trazado 668766" d="M199.771,326.1c15.4-9.984,18.411-18.164,18.411-18.164s0,6.128-1.149,9-3.634,6.128-14.734,13.78-19.143,11.482-26.607,12.9l-5.89-.809-.451-8.92C177.564,341.34,186.169,334.93,199.771,326.1Z" transform="translate(-95.715 -145.246)" opacity="0.5"/>
          <path id="Trazado_668767" data-name="Trazado 668767" d="M98.246,399.22l-4.256,9.72a1.353,1.353,0,0,0-.051.255,1.139,1.139,0,0,0,0,.179,1.2,1.2,0,0,0,.536.647,2.554,2.554,0,0,0,2.281.111,1,1,0,0,0,.468-.451h0v-.128l3.915-9.116Z" transform="translate(-84.49 -158.832)" fill="#9fb6eb"/>
          <path id="Trazado_668768" data-name="Trazado 668768" d="M223.225,399.7l3.634,9.525a1.149,1.149,0,0,1,0,.247v.17a1.115,1.115,0,0,1-.545.6,2.383,2.383,0,0,1-2.2,0,.979.979,0,0,1-.434-.443h0v-.136l-3.345-8.929Z" transform="translate(-103.304 -158.903)" fill="#9fb6eb"/>
          <path id="Trazado_668769" data-name="Trazado 668769" d="M159.35,440.231v7.882a.851.851,0,0,0,.468.647,2.468,2.468,0,0,0,2.264,0,.792.792,0,0,0,.46-.647v-7.882A3.4,3.4,0,0,0,159.35,440.231Z" transform="translate(-94.226 -164.877)" fill="#9fb6eb"/>
          <path id="Trazado_668770" data-name="Trazado 668770" d="M122.54,267.319c3.26,3.8,32.957-4.741,40.856-5.813,12.682-1.7,22.981-2.988,27.322-1.634s6.137,3.549,7.456,8.707c1.558,6.077,2.358,9.184,2.358,9.184s-21.075,8.086-37.707,10.035S122.54,267.319,122.54,267.319Z" transform="translate(-88.748 -138.007)" fill="#37474f"/>
          <path id="Trazado_668771" data-name="Trazado 668771" d="M115.4,274.517c-3.294,12.546-6.248,27.135,1.37,35.119,5.107,5.379,30.906,19.355,47.538,13.848,16.376-5.422,50.3-30.642,53.708-33.136s6.494-4.256,6.171-5.345c-4.571-15.185-11.261-16.376-23.654-13.619-15.168,3.337-48.448,16.913-48.448,16.913Z" transform="translate(-87.175 -139.631)" fill="#455a64"/>
          <path id="Trazado_668772" data-name="Trazado 668772" d="M199.29,178.124l-11.44,12.929-18.47-8.767,12.912-17.866Z" transform="translate(-95.719 -123.885)" fill="#ffa8a7"/>
          <path id="Trazado_668773" data-name="Trazado 668773" d="M221.19,151.66s4.681,6.758,4.179,7.448-3.813,1.37-3.813,1.37Z" transform="translate(-103.43 -121.986)" fill="#f28f8f"/>
          <path id="Trazado_668774" data-name="Trazado 668774" d="M220.171,154.951a5.6,5.6,0,1,1,5.6-5.6,5.6,5.6,0,0,1-5.6,5.6Zm0-10.171a4.554,4.554,0,1,1,0,.034Z" transform="translate(-102.445 -120.809)" fill="#263238"/>
          <path id="Trazado_668775" data-name="Trazado 668775" d="M201.043,129.554c9.2,1.7,11.916,5.686,13.133,20.215,1.243,15.176-.2,19.994-2.145,22.079-1.319,1.413-8.8,1.839-12.606.851-4.758-1.2-15.534-4.741-20.709-12.274-6.094-8.861-7.924-21.015-1.7-26.156C185.7,127.06,197.3,128.856,201.043,129.554Z" transform="translate(-96.281 -118.589)" fill="#ffa8a7"/>
          <path id="Trazado_668776" data-name="Trazado 668776" d="M204.346,179.889c3.958.851,9.984.349,11.772-.672a13.619,13.619,0,0,1-6.665-.247,21.8,21.8,0,0,1-6.1-2.69Z" transform="translate(-100.775 -125.65)" fill="#f28f8f"/>
          <path id="Trazado_668777" data-name="Trazado 668777" d="M214.516,133.712h0a20.951,20.951,0,0,1-8.784,2.988c.238,2.46-.536,4.894-1.3,7.252-.528,1.626-2.443,6.741-4.528,3.932-1.507-2.026-2.868-3.873-5.754-3.4-4.749.851-5.252,6.9-2.162,10.529s5.856,2.145,5.856,2.145.434,6.545-3.022,11.176a15.558,15.558,0,0,1-12.384.783c-4.562-1.507-11.15-7.26-13.576-11.755-6.682-12.359-6.716-24.207,1.387-27.85.749-5.958,5.337-8.682,10.605-10.018,7.312-1.856,14.9,2.732,21.969-.3,1.49-.638,2.86-1.541,4.383-2.094a3.03,3.03,0,0,1,2.63,0,3.2,3.2,0,0,1,1.124,2.009,5.635,5.635,0,0,1-.281,4.256,12.768,12.768,0,0,1,3.328-1.226,4.171,4.171,0,0,1,3.354.758,4.315,4.315,0,0,1,1.345,2.928C218.968,128.946,217.07,131.933,214.516,133.712Z" transform="translate(-94.918 -116.797)" fill="#263238"/>
          <path id="Trazado_668778" data-name="Trazado 668778" d="M170.22,133.269l-5.55-3.107a3.183,3.183,0,1,1,5.55,3.107Z" transform="translate(-95.018 -118.525)" fill="#263238"/>
          <rect id="Rectngulo_302846" data-name="Rectngulo 302846" width="18.096" height="0.877" transform="matrix(0.983, -0.183, 0.183, 0.983, 104.875, 30.684)" fill="#263238"/>
          <path id="Trazado_668779" data-name="Trazado 668779" d="M243.753,188.613c-.477-.8-1.541-.962-2.426-1.268-1.634-.57-2.911-1.873-4.486-2.554a8.852,8.852,0,0,0-5.669-.383,14.367,14.367,0,0,0-1.89.6,23.78,23.78,0,0,0-3.4,1.7c-4.511,2.664-7.9,8.7-12.333,11.465-1.651,1.03-3.192,1.966-4.715,2.9l10.614,9.405a63.38,63.38,0,0,1,5.226-3.975c2.6-1.549,5.235-1.583,8.163-2.009a40.5,40.5,0,0,0,5.958-1.49,2.63,2.63,0,0,0,1.762-1.149,1.77,1.77,0,0,0-1.141-2.179,15.32,15.32,0,0,0-3.09-.426c-.766-.119-2.809.332-3.26-.434-.238-.409.06-.9.349-1.268,1.839-2.29,4.162-4.741,7.1-5.43a6.163,6.163,0,0,0,2.553-1.03,2.034,2.034,0,0,0,.689-2.485Z" transform="translate(-101.591 -126.816)" fill="#ffa8a7"/>
          <path id="Trazado_668780" data-name="Trazado 668780" d="M169.258,176.474c-11.244-6.137-21.483-2.2-25.169,5.694-3.345,7.141-10.359,34.77-10.359,34.77C137.1,223.288,169.258,176.474,169.258,176.474Z" transform="translate(-90.413 -125.232)" fill="#9fb6eb"/>
          <path id="Trazado_668781" data-name="Trazado 668781" d="M164.948,178.858l1.7-2.222c-12.7-6.026-24.062,1.89-34.047,17.466-10.793,16.785-16.453,40.856-16.5,66.314,0,0,2.153,11.431,16.589,17.142,15.321,6.069,36.694,3.5,43.358-12.384,0,0,.136-15.857,4.954-23.671,3.124-5.056,10.4-16.283,15.815-24.343,4.715-7.014,8.384-22.981-1.464-28.812a83.626,83.626,0,0,0-8.009-4.086C178.337,187.225,163.791,182.416,164.948,178.858Z" transform="translate(-87.789 -125.402)" fill="#9fb6eb"/>
          <path id="Trazado_668782" data-name="Trazado 668782" d="M164.979,178.918l1.651-2.281c-12.7-6.026-24.062,1.89-34.047,17.466-10.793,16.785-16.453,40.856-16.5,66.314,0,0,2.153,11.431,16.589,17.142,15.321,6.069,36.694,3.5,43.358-12.384,0,0,.136-15.857,4.954-23.671,3.124-5.056,10.4-16.283,15.815-24.343,4.715-7.014,8.384-22.981-1.464-28.812a83.624,83.624,0,0,0-8.009-4.086C178.334,187.225,163.822,182.475,164.979,178.918Z" transform="translate(-87.786 -125.402)" fill="#fff" opacity="0.75"/>
          <path id="Trazado_668783" data-name="Trazado 668783" d="M200.88,211.034a25.706,25.706,0,0,0,.392-9.244h0a49.368,49.368,0,0,1-9.584,14.649c-5.167,5.439-11.542,9.678-16.334,15.449-5.107,6.111-8.724,13.508-12.98,20.181-1.7,2.681-4.035,7.848-7.2,8.061-3.864.247-7.558-4.46-9.661-7.712-3.4-5.175-6.248-11.652-10.427-16.172-3.651-3.975-9.3-9.065-14.274-6.758h0c-.375,1.319-.723,2.656-1.055,4s-.638,2.741-.928,4.111v.162c-.281,1.379-.545,2.766-.792,4.154a1.7,1.7,0,0,1,0,.221q-.357,2.068-.638,4.137A134.179,134.179,0,0,0,116.13,264.5s2.153,11.431,16.589,17.142c15.321,6.069,36.694,3.5,43.358-12.384,0,0,.136-15.857,4.954-23.671.485-.783,1.081-1.7,1.7-2.783h0l.111-.179c.553-.851,1.149-1.813,1.8-2.817,0-.06.077-.119.119-.179a.348.348,0,0,1,0-.077c1.379-2.153,2.928-4.537,4.528-7l.723-1.115c1.549-2.366,3.124-4.758,4.622-7.014h0c.5-.758,1-1.5,1.49-2.222.2-.315.417-.621.613-.928h0c.17-.247.34-.519.5-.792l.153-.255.357-.63.153-.289.383-.749a2.048,2.048,0,0,1,.094-.2c.162-.332.315-.672.468-1.021v-.1c.136-.323.272-.647.4-.97a.8.8,0,0,1,.085-.238c.119-.315.238-.63.349-.945V214.9c.2-.587.392-1.2.562-1.813h0c.17-.621.323-1.251.46-1.881v-.077Z" transform="translate(-87.793 -129.447)" fill="#9fb6eb" opacity="0.1"/>
          <path id="Trazado_668784" data-name="Trazado 668784" d="M272.164,225.052a23.477,23.477,0,0,1-2.639,2.724c-3.881,3.515-8.418,5.209-13.7,8.631-4.256,2.766-10.835,6.809-16.376,10.257A82.793,82.793,0,0,1,221.58,254.9c-5.107,1.515-8.026,1.575-11.065-6.665-1.49-4.043-2.673-8.2-3.966-12.308q-2.868-9.184-5.652-18.394s-6.809-16.879,8.512-25.356c6.665,3.813,9.2,5.354,11.295,13.338,2.5,9.559,6.554,28.42,6.554,28.42A133.409,133.409,0,0,0,243.08,227.2c1.941-.962,4.332-1.634,5.72-3.362a25.684,25.684,0,0,0,2.434-3.8c.655-1.175,1.124-2.451,1.847-3.575a31.67,31.67,0,0,1,5.03-5.541,2.068,2.068,0,0,1,1.217-.723,1.413,1.413,0,0,1,1.234.749c.562.987.043,1.949-.247,2.954-.332,1.149-.664,2.3-.987,3.4a30,30,0,0,0,9.763-9.107,4.994,4.994,0,0,1,.766-.97,1.481,1.481,0,0,1,1.141-.417c1.021.128,2.034,1.779,2.085,2.724a15.521,15.521,0,0,0,.077,2.885c.23.851.851,1.617,1.115,2.485a14.465,14.465,0,0,1,.579,2.758,9.448,9.448,0,0,1-1.549,5.779A13.625,13.625,0,0,1,272.164,225.052Z" transform="translate(-100.185 -128.017)" fill="#ffa8a7"/>
          <path id="Trazado_668785" data-name="Trazado 668785" d="M208.255,191.35c5.83,2.358,10.035,5.022,12.691,13.925S226.5,228.5,226.5,228.5s.051,2.988-7.031,7.167a17.432,17.432,0,0,1-13.712,1.847l-5.345-17.193S190.925,197.291,208.255,191.35Z" transform="translate(-99.952 -127.893)" fill="#9fb6eb"/>
          <path id="Trazado_668786" data-name="Trazado 668786" d="M157.577,331.582c-4.681-.238-8.35-3.677-19.483-8.316-20.564-8.571-35.987-15.44-41.869-26.2s-10.035-41.86-8.563-55.326a17.322,17.322,0,0,1,1-4.46l-1.447-.213,3.745-3.192h0c3.847-3.132,10.095-.34,14.81,2.23,13.465,7.32,23.994,14.47,32.344,40.149,6.256,19.33,10.384,36.966,19.032,46.4" transform="translate(-83.491 -134.016)" fill="#9fb6eb"/>
          <path id="Trazado_668787" data-name="Trazado 668787" d="M88.667,237.282l-1.447-.213,3.745-3.192h0c3.847-3.132,10.095-.34,14.81,2.23,13.465,7.32,23.994,14.47,32.344,40.149,6.256,19.33,10.384,36.966,19.032,46.4l.451,8.92c-4.681-.238-8.35-3.677-19.483-8.316-20.59-8.563-36.013-15.432-41.894-26.19s-10.035-41.86-8.563-55.326a17.687,17.687,0,0,1,1-4.46Z" transform="translate(-83.491 -134.016)" opacity="0.3"/>
          <path id="Trazado_668788" data-name="Trazado 668788" d="M101.225,240.006c13.457,7.32,23.986,14.47,32.344,40.149s12.878,48.414,29.28,52.815c0,0-7.414,2.954-30.14-6.665-7.235-3.056-16.01-8.631-21.773-11.865C99.642,308.1,92.79,302.907,91.709,300.958c-5.958-10.716-10.035-41.86-8.571-55.326S94.475,236.329,101.225,240.006Z" transform="translate(-82.839 -134.595)" fill="#9fb6eb"/>
        </g>
      </g>
      <g id="freepik--speech-bubble--inject-59" transform="translate(142.75 24.878)">
        <g id="freepik--speech-bubble--inject-59-2" data-name="freepik--speech-bubble--inject-59">
          <path id="Trazado_668789" data-name="Trazado 668789" d="M191.616,103.033l-3.694-6.988,2.988-8.639V82.12l-9.15,5.286v5.286l3.932,6.809a.528.528,0,0,0,.272.238h0Z" transform="translate(-165.988 -33.397)" fill="#9fb6eb"/>
          <path id="Trazado_668790" data-name="Trazado 668790" d="M191.616,103.033l-3.694-6.988,2.988-8.639V82.12l-9.15,5.286v5.286l3.932,6.809a.528.528,0,0,0,.272.238h0Z" transform="translate(-165.988 -33.397)" opacity="0.2"/>
          <path id="Trazado_668791" data-name="Trazado 668791" d="M210.7,31.578a6.077,6.077,0,0,0-2.749-4.758l-2.23-1.285a6.06,6.06,0,0,0-5.49,0L165.971,45.359a6.069,6.069,0,0,0-2.741,4.758V87.832a6.069,6.069,0,0,0,2.741,4.75l2.239,1.294a6.06,6.06,0,0,0,5.49,0l11.023-6.367,3.932,6.809a.579.579,0,0,0,1.055-.1l4.154-11.984,14.112-8.171a6.077,6.077,0,0,0,2.724-4.767Z" transform="translate(-163.23 -24.878)" fill="#9fb6eb"/>
          <path id="Trazado_668792" data-name="Trazado 668792" d="M163.23,91.772a6.069,6.069,0,0,0,2.741,4.75l2.239,1.294a6.137,6.137,0,0,0,5.022.221c-1.294.485-2.281-.238-2.281-1.8V58.517a5.652,5.652,0,0,1,.809-2.707l-7.729-4.46a5.635,5.635,0,0,0-.8,2.707Z" transform="translate(-163.23 -28.818)" opacity="0.2"/>
          <path id="Trazado_668793" data-name="Trazado 668793" d="M210.773,30.8c-.315-1.166-1.379-1.532-2.647-.809L173.841,49.819a5.422,5.422,0,0,0-1.932,2.051l-7.729-4.46a5.6,5.6,0,0,1,1.932-2.043l34.276-19.832a6.06,6.06,0,0,1,5.49,0l2.247,1.294A6.026,6.026,0,0,1,210.773,30.8Z" transform="translate(-163.371 -24.878)" fill="#fff" opacity="0.5"/>
          <g id="freepik----inject-59" transform="translate(12.762 23.032)">
            <path id="Trazado_668794" data-name="Trazado 668794" d="M178.229,74.744a2.009,2.009,0,0,1,.136-.783,5.955,5.955,0,0,1,.4-.732l7.456-12.044a.562.562,0,0,1,.119-.145l.085-.06a.2.2,0,0,1,.272,0,.494.494,0,0,1,.119.366v4.647a1.992,1.992,0,0,1-.221.97,6.093,6.093,0,0,1-.374.638l-3.847,5.856,3.847,1.77a1.634,1.634,0,0,1,.375.179c.145.094.221.332.221.706v3.3a1.106,1.106,0,0,1-.119.494.706.706,0,0,1-.272.34h-.085a.2.2,0,0,1-.119,0l-7.456-3.4a.759.759,0,0,1-.536-.894Z" transform="translate(-178.223 -53.275)" fill="#fff"/>
            <path id="Trazado_668795" data-name="Trazado 668795" d="M196.218,54.8a4.768,4.768,0,0,1,.281-.749,1.354,1.354,0,0,1,.545-.587l2.494-1.473a.221.221,0,0,1,.289,0,.519.519,0,0,1,.119.375,1.253,1.253,0,0,1,0,.281l-6.3,26.846a3.618,3.618,0,0,1-.264.723,1.353,1.353,0,0,1-.553.6l-2.443,1.413a.221.221,0,0,1-.289,0,.477.477,0,0,1-.119-.374,1.133,1.133,0,0,1,0-.272Z" transform="translate(-179.971 -51.937)" fill="#fff"/>
            <path id="Trazado_668796" data-name="Trazado 668796" d="M211.9,59.437a1.958,1.958,0,0,1-.136.783,5.957,5.957,0,0,1-.4.732L203.9,73a1.115,1.115,0,0,1-.119.136l-.085.068a.213.213,0,0,1-.281,0,.468.468,0,0,1-.111-.366V68.178a1.907,1.907,0,0,1,.213-.953c.145-.255.272-.46.383-.621l3.26-5.039-3.26-1.243a1.362,1.362,0,0,1-.383-.2c-.145-.1-.213-.34-.213-.723V54.756a1.132,1.132,0,0,1,.111-.494.792.792,0,0,1,.281-.332h.2l7.456,3.4a.741.741,0,0,1,.536.851Z" transform="translate(-181.955 -52.233)" fill="#fff"/>
          </g>
        </g>
      </g>
    </g>
  </g>
</svg>
