<svg xmlns="http://www.w3.org/2000/svg" width="400" height="244.121" viewBox="0 0 400 244.121">
  <g id="Grupo_899196" data-name="Grupo 899196" transform="translate(-935 -1404)">
    <g id="JavaScript_frameworks-pana" data-name="JavaScript frameworks-pana" transform="translate(885.42 1356.21)">
      <g id="freepik--background-complete--inject-6" transform="translate(71.939 47.79)">
        <path id="Trazado_663824" data-name="Trazado 663824" d="M604.328,110.939a31.657,31.657,0,0,1,6.846,4.825l7.32-2.6,6.871,10.854-5.476,5.531a31.411,31.411,0,0,1,1.432,8.254l7.019,3.331-2.815,12.538h-7.762a31.658,31.658,0,0,1-4.831,6.853l2.606,7.314-10.854,6.877-5.531-5.476a31.657,31.657,0,0,1-8.2,1.426l-3.331,7.019-12.544-2.815v-7.762a31.659,31.659,0,0,1-6.865-4.831l-7.32,2.606-6.877-10.854,5.482-5.531a31.918,31.918,0,0,1-1.438-8.254L551,136.936l2.815-12.538h7.762a31.509,31.509,0,0,1,4.831-6.853l-2.606-7.314,10.854-6.877,5.531,5.476a31.658,31.658,0,0,1,8.254-1.432l3.331-7.019,12.538,2.815v7.762Zm-11.063,14.75a45.533,45.533,0,1,0,.006.006Z" transform="translate(-265.191 -68.059)" fill="#e0e0e0" fill-rule="evenodd"/>
        <path id="Trazado_663825" data-name="Trazado 663825" d="M517.6,78.312a7.768,7.768,0,0,1,2.4.756,10.255,10.255,0,0,1,5.777,9.538A10.418,10.418,0,1,1,505.8,84.144a10.282,10.282,0,0,1,2.889-3.823A10.128,10.128,0,0,1,515.1,78a7.744,7.744,0,0,1,2.5.344c0,.074-.891-.178-2.458-.117a10.116,10.116,0,0,0-6.146,2.458,9.919,9.919,0,0,0-3.4,8.881,9.219,9.219,0,0,0,.774,2.735,9.347,9.347,0,0,0,1.6,2.5,9.833,9.833,0,0,0,11.407,2.557,9.959,9.959,0,0,0,5.1-13.208,10.171,10.171,0,0,0-4.523-4.818A18.952,18.952,0,0,0,517.6,78.312Z" transform="translate(-247.441 -59.432)" fill="#e0e0e0"/>
        <path id="Trazado_663826" data-name="Trazado 663826" d="M513.936,55.78a3.1,3.1,0,0,1,0-.363V54.335q0-1.493-.055-4.3l.074.092L504.68,48.1l.166-.08L502.387,53.2l-.043.1h-.1a23.459,23.459,0,0,0-6.048,1.076l-.111.037-.08-.086-4.075-4.019h.258L484.2,55.4l.092-.27c.615,1.672,1.26,3.515,1.936,5.4l.049.135-.1.111a23,23,0,0,0-3.516,5.009l-.068.135H476.7l.258-.2c-.651,2.907-1.352,6.048-2.065,9.262l-.154-.307,5.181,2.458.154.068v.215a23.2,23.2,0,0,0,1.051,6.017l.055.166-.123.117-4.044,4.069.037-.356c1.61,2.538,3.337,5.255,5.083,7.99l-.344-.117,5.4-1.924.172-.061.129.117a22.788,22.788,0,0,0,4.984,3.515h0l.16.258h0v5.728l-.227-.289,9.262,2.083-.326.154q1.229-2.612,2.458-5.175l.08-.16h.172a22.911,22.911,0,0,0,6.017-1.045l.166-.049.123.123,4.056,4.05-.363-.012,7.99-5.064-.111.313c-.651-1.844-1.285-3.632-1.917-5.4l-.049-.154.1-.117A22.978,22.978,0,0,0,523.6,87.2l.068-.135h5.888l-.24.191c.738-3.257,1.438-6.33,2.1-9.256l.123.252L526.369,75.8l-.117-.055v-.166a23.16,23.16,0,0,0-1.032-6.041l-.037-.111.086-.086,4.056-4.05V65.5l-5.04-8.033.154.049-5.415,1.893h-.055l-.043-.043a23.8,23.8,0,0,0-3.688-2.833l-.983-.615a3.407,3.407,0,0,1-.326-.2,2.552,2.552,0,0,1,.35.154c.227.117.565.295,1.008.553a22.736,22.736,0,0,1,3.761,2.784h-.092l5.39-1.961.1-.037.055.092,5.113,7.99.074.117-.1.1q-1.844,1.844-4.032,4.081l.043-.2a23.358,23.358,0,0,1,1.088,6.146l-.117-.184,5.187,2.458.16.08-.043.172c-.615,2.932-1.334,6-2.053,9.262l-.043.191h-5.931l.227-.135a23.414,23.414,0,0,1-3.6,5.113l.055-.264q.94,2.655,1.93,5.4l.068.2-.178.117-7.99,5.083-.19.117-.154-.154-4.069-4.044.283.068a23.28,23.28,0,0,1-6.146,1.076l.252-.16-2.458,5.181-.1.209-.227-.055-9.293-2.047-.227-.049V97.222h0c.313.516.086.141.154.258h0a23.834,23.834,0,0,1-5.113-3.608l.3.061-5.421,1.924-.221.074-.123-.2-5.07-7.99-.123-.191.16-.166,4.05-4.062-.068.289a23.589,23.589,0,0,1-1.069-6.146l.154.24-5.175-2.458-.2-.092.049-.215,2.09-9.219.043-.209h5.943l-.221.135a23.4,23.4,0,0,1,3.608-5.175l-.049.246-1.918-5.427-.061-.172.16-.1,8.014-5.04.141-.086.117.117c1.432,1.42,2.815,2.821,4.044,4.05l-.2-.049a23.386,23.386,0,0,1,6.146-1.045l-.148.092c.9-1.844,1.733-3.6,2.458-5.163l.049-.111h.117l9.219,2.133h.074V50q0,2.766-.037,4.253v1.1A3.291,3.291,0,0,1,513.936,55.78Z" transform="translate(-235.618 -47.79)" fill="#e0e0e0"/>
        <path id="Trazado_663827" data-name="Trazado 663827" d="M115.281,276.972a16.162,16.162,0,0,1,3.03,2.975l3.878-.707,2.551,5.992-3.19,2.3a15.832,15.832,0,0,1,.049,4.247l3.239,2.237-2.428,6.048-3.89-.615a15.98,15.98,0,0,1-2.968,3.036l.707,3.872-5.992,2.557-2.3-3.19a15.836,15.836,0,0,1-4.247.043l-2.237,3.2-6.048-2.458.615-3.884a15.831,15.831,0,0,1-3.036-2.975l-3.872.707-2.557-5.992,3.19-2.3a15.838,15.838,0,0,1-.043-4.247l-3.227-2.2,2.458-6.041,3.884.615a15.833,15.833,0,0,1,2.975-3.036l-.707-3.872,5.986-2.557,2.3,3.214a16.087,16.087,0,0,1,4.247-.043l2.237-3.239,6.041,2.428-.615,3.884Zm-6.76,6.484a5.367,5.367,0,1,0,.025,0Z" transform="translate(-86.168 -133.686)" fill="none"/>
        <path id="Trazado_663828" data-name="Trazado 663828" d="M116.241,291.111a5.4,5.4,0,0,1,1.549.774,6.951,6.951,0,0,1,2.716,3.817,7.129,7.129,0,0,1,.147,3.288,7.159,7.159,0,0,1-13.115,2.391,6.988,6.988,0,0,1-.842-1.979,6.706,6.706,0,0,1-.221-2.053,7.2,7.2,0,0,1,1.137-3.6,7.061,7.061,0,0,1,6.976-3.147,5.272,5.272,0,0,1,1.653.51c0,.049-.615-.215-1.672-.356a6.952,6.952,0,0,0-4.437.971,6.822,6.822,0,0,0-2.243,2.2,6.933,6.933,0,0,0-1.045,3.436,6.576,6.576,0,0,0,.221,1.942,6.367,6.367,0,0,0,.811,1.844,6.761,6.761,0,0,0,7.449,2.993,6.824,6.824,0,0,0,4.9-8.383,6.963,6.963,0,0,0-2.532-3.768A16.43,16.43,0,0,0,116.241,291.111Z" transform="translate(-93.864 -141.342)" fill="#e0e0e0"/>
        <path id="Trazado_663829" data-name="Trazado 663829" d="M115.073,276.872a1.032,1.032,0,0,1,0-.24,5.943,5.943,0,0,1,.1-.738c.1-.676.24-1.653.43-2.913l.037.068-6.054-2.4.117-.037c-.67.989-1.42,2.077-2.219,3.251l-.043.055h-.074a15.665,15.665,0,0,0-4.21.061h-.08l-.049-.068-2.3-3.147.166.049-5.98,2.569.092-.172c.221,1.2.467,2.514.713,3.872v.1l-.08.061a15.862,15.862,0,0,0-2.9,2.975l-.061.086h-.1l-3.89-.615.2-.111c-.762,1.9-1.579,3.952-2.421,6.048l-.068-.221,3.239,2.237.1.061v.117a16.01,16.01,0,0,0,.049,4.192v.117l-.092.074-3.19,2.3.061-.234,2.563,5.992-.221-.117,3.872-.707H92.9l.074.092a15.765,15.765,0,0,0,2.993,2.932h0c.037.086-.074-.19.08.2h0v.184L96,303.1l-.074.486-.16.977c-.1.645-.209,1.3-.313,1.936l-.123-.215,6.048,2.428-.24.074,2.237-3.239.068-.1h.123a15.424,15.424,0,0,0,4.192-.043h.117l.068.092,2.3,3.2-.227-.068,5.992-2.551-.111.2q-.35-1.973-.7-3.872v-.111l.086-.061a15.98,15.98,0,0,0,2.944-3l.061-.086h.1l3.884.615-.184.1,2.458-6.035.055.184-3.233-2.249-.074-.049v-.086a15.979,15.979,0,0,0-.037-4.21v-.08l.068-.043,3.2-2.3-.037.141c-.983-2.323-1.844-4.3-2.532-6l.1.049-3.878.682h-.037v-.031a16.2,16.2,0,0,0-2.182-2.323l-.615-.516c-.141-.111-.2-.166-.2-.172l.215.147c.141.1.356.264.615.486a16.058,16.058,0,0,1,2.243,2.3h-.068l3.872-.737h.068v.068l2.581,5.98.037.086-.074.055-3.184,2.317.055-.123a16.011,16.011,0,0,1,.055,4.3l-.061-.135,3.245,2.231.1.068-.049.111c-.762,1.917-1.567,3.921-2.415,6.054l-.049.123h-.135l-3.884-.615.166-.068a16.109,16.109,0,0,1-3,3.073l.068-.178q.35,1.911.707,3.872v.147l-.166.031-5.992,2.563-.135.061-.092-.123-2.311-3.19.184.08a16.2,16.2,0,0,1-4.3.049l.184-.086q-1.106,1.6-2.237,3.239l-.086.135-.147-.061-6.048-2.428-.147-.055v-.16l.313-1.936.154-.977.08-.486.037-.246v-.234h0c.154.381.043.1.074.191h0a15.826,15.826,0,0,1-3.073-3.005l.191.074-3.872.707-.16.031-.061-.148c-.879-2.059-1.745-4.093-2.551-5.992l-.061-.147.123-.092,3.2-2.3-.08.191a16.317,16.317,0,0,1-.043-4.3l.08.184L86.083,285.7l-.123-.086.055-.135c.842-2.1,1.666-4.148,2.458-6.041l.055-.135h.141l3.884.615-.166.068a16.157,16.157,0,0,1,3.005-3.073l-.061.16c-.246-1.352-.479-2.673-.7-3.872v-.123l.117-.049,5.992-2.544.1-.043.068.092,2.3,3.2-.123-.055a16.114,16.114,0,0,1,4.3-.031l-.111.049,2.249-3.227.049-.068.074.031,6.029,2.458h.049v.049l-.5,2.876c-.055.313-.1.559-.135.744a1.469,1.469,0,0,1-.025.314Z" transform="translate(-85.96 -133.586)" fill="#e0e0e0"/>
        <path id="Trazado_663830" data-name="Trazado 663830" d="M185.309,327.123a27.867,27.867,0,0,1,5.31,5.206l6.761-1.229,4.48,10.5-5.593,4.044a27.909,27.909,0,0,1,.086,7.443L202.026,357l-4.259,10.589-6.81-1.094a27.724,27.724,0,0,1-5.206,5.316l1.229,6.76-10.5,4.48-4.007-5.587a28.173,28.173,0,0,1-7.443.08l-3.915,5.673-10.6-4.253,1.094-6.81a27.934,27.934,0,0,1-5.316-5.212l-6.791,1.229-4.474-10.5,5.587-4.044a28.178,28.178,0,0,1-.08-7.443l-5.673-3.921,4.253-10.589,6.81,1.094a27.935,27.935,0,0,1,5.212-5.316l-1.229-6.791,10.5-4.48,4.044,5.593a27.92,27.92,0,0,1,7.443-.08l3.921-5.673,10.577,4.284Zm-11.8,11.358a12.249,12.249,0,1,0,6.8,15.93,12.249,12.249,0,0,0-6.8-15.93Z" transform="translate(-104.81 -151.172)" fill="#e0e0e0" fill-rule="evenodd"/>
      </g>
      <g id="freepik--JavaScript--inject-6" transform="translate(69.247 64.009)">
        <path id="Trazado_663831" data-name="Trazado 663831" d="M169.727,166.307H95.65V74.18l56.665.166,17.411,18.911Z" transform="translate(-87.003 -74.18)" fill="#ebebeb"/>
        <path id="Trazado_663832" data-name="Trazado 663832" d="M124.874,146.238a19.828,19.828,0,0,1-3.233-2.889c-1.911-1.868-4.511-4.5-7.338-7.449l-.313-.332.313-.332v-.031c2.815-2.968,5.4-5.624,7.314-7.51a20.185,20.185,0,0,1,3.227-2.919,19.715,19.715,0,0,1-2.735,3.386c-1.782,2.01-4.3,4.732-7.111,7.707h-.031v-.633c2.827,2.95,5.341,5.654,7.129,7.646A20.669,20.669,0,0,1,124.874,146.238Z" transform="translate(-94.071 -93.678)" fill="#263238"/>
        <path id="Trazado_663833" data-name="Trazado 663833" d="M180.066,124.777a19.39,19.39,0,0,1,3.239,2.889c1.911,1.868,4.511,4.5,7.332,7.449l.32.332-.313.332h-.031c-2.821,2.975-5.408,5.624-7.314,7.51a19.437,19.437,0,0,1-3.233,2.919,19.6,19.6,0,0,1,2.741-3.386c1.782-2.01,4.3-4.732,7.1-7.7v.627c-2.821-2.95-5.341-5.654-7.129-7.639A18.6,18.6,0,0,1,180.066,124.777Z" transform="translate(-119.535 -93.678)" fill="#263238"/>
        <path id="Trazado_663834" data-name="Trazado 663834" d="M141.214,146.763c-.221-.135,3.62-6.834,8.6-14.959s9.176-14.6,9.4-14.455-3.614,6.834-8.6,14.959S141.442,146.9,141.214,146.763Z" transform="translate(-104.56 -90.817)" fill="#263238"/>
        <path id="Trazado_663835" data-name="Trazado 663835" d="M187.8,74.46l-.068,15.432a3.97,3.97,0,0,0,4.087,3.983l13.4-.5Z" transform="translate(-122.491 -74.288)" fill="#e0e0e0"/>
        <rect id="Rectángulo_299250" data-name="Rectángulo 299250" width="32.85" height="19.968" transform="translate(0 62.406)" fill="#4db5e1"/>
        <path id="Trazado_663836" data-name="Trazado 663836" d="M96.77,193.014l.854-.989a2.575,2.575,0,0,0,2.151,1.229c1.162,0,1.764-.707,1.764-2.1v-5.789H97.815V184.09H103v6.994c0,2.3-1.119,3.436-3.227,3.436a3.608,3.608,0,0,1-3.005-1.506Z" transform="translate(-87.434 -116.54)" fill="#fff"/>
        <path id="Trazado_663837" data-name="Trazado 663837" d="M110.26,193.115l.547-1.149a5.285,5.285,0,0,0,3.4,1.192c1.788,0,2.551-.695,2.551-1.592,0-2.52-6.244-.928-6.244-4.757,0-1.592,1.229-2.95,3.946-2.95a6.072,6.072,0,0,1,3.319.916l-.492,1.18a5.286,5.286,0,0,0-2.827-.842c-1.752,0-2.5.738-2.5,1.635,0,2.52,6.244.946,6.244,4.732,0,1.573-1.266,2.932-3.995,2.932A6.146,6.146,0,0,1,110.26,193.115Z" transform="translate(-92.634 -116.451)" fill="#fff"/>
      </g>
      <g id="freepik--Angular--inject-6" transform="translate(212.415 54.729)">
        <path id="Trazado_663838" data-name="Trazado 663838" d="M317.216,73.812a4.868,4.868,0,0,0-2.686,4.407l.234,36.55a4.868,4.868,0,0,0,2.361,4.174l30.348,18.087h0l29.052-18.837a4.874,4.874,0,0,0,2.206-4.136l-.24-38.16a4.874,4.874,0,0,0-2.9-4.45l-28.6-12.366Z" transform="translate(-314.529 -59.08)" fill="#4db5e1"/>
        <g id="Grupo_895337" data-name="Grupo 895337" transform="translate(32.457 0)" opacity="0.2">
          <path id="Trazado_663839" data-name="Trazado 663839" d="M367.34,59.08l.492,77.949,29.015-18.8a4.874,4.874,0,0,0,2.249-4.118L398.868,75.8a4.751,4.751,0,0,0-2.852-4.345Z" transform="translate(-367.34 -59.08)"/>
        </g>
        <path id="Trazado_663840" data-name="Trazado 663840" d="M364.715,114.279l-17.7.111-3.608,8.555H338.49L353.363,88.73h4.708l15.365,34.024-5,.037Zm-1.69-3.872-7.289-16.692-7.1,16.766Z" transform="translate(-323.764 -70.507)" fill="#fff"/>
      </g>
      <g id="freepik--Screen--inject-6" transform="translate(231.056 114.461)">
        <rect id="Rectángulo_299251" data-name="Rectángulo 299251" width="167.07" height="97.351" fill="#263238"/>
        <path id="Trazado_663841" data-name="Trazado 663841" d="M366.02,250.931c-.086,0-.16-19.907-.16-44.459s.086-44.472.16-44.472.16,19.9.16,44.459S366.112,250.931,366.02,250.931Z" transform="translate(-352.954 -158.478)" fill="#e0e0e0"/>
        <path id="Trazado_663842" data-name="Trazado 663842" d="M357.061,168.02a24.013,24.013,0,0,1-5.531,0A24.013,24.013,0,0,1,357.061,168.02Z" transform="translate(-347.431 -160.737)" fill="#e0e0e0"/>
        <path id="Trazado_663843" data-name="Trazado 663843" d="M357.061,177.55a24.013,24.013,0,0,1-5.531,0A24.013,24.013,0,0,1,357.061,177.55Z" transform="translate(-347.431 -164.41)" fill="#e0e0e0"/>
        <path id="Trazado_663844" data-name="Trazado 663844" d="M357.061,187.09a24.01,24.01,0,0,1-5.531,0A24.01,24.01,0,0,1,357.061,187.09Z" transform="translate(-347.431 -168.087)" fill="#e0e0e0"/>
        <path id="Trazado_663845" data-name="Trazado 663845" d="M357.061,196.62a24.011,24.011,0,0,1-5.531,0A24.01,24.01,0,0,1,357.061,196.62Z" transform="translate(-347.431 -171.76)" fill="#e0e0e0"/>
        <path id="Trazado_663846" data-name="Trazado 663846" d="M357.061,206.15a24.011,24.011,0,0,1-5.531,0A24.013,24.013,0,0,1,357.061,206.15Z" transform="translate(-347.431 -175.433)" fill="#e0e0e0"/>
        <path id="Trazado_663847" data-name="Trazado 663847" d="M357.061,215.69a24.01,24.01,0,0,1-5.531,0A24.013,24.013,0,0,1,357.061,215.69Z" transform="translate(-347.431 -179.109)" fill="#e0e0e0"/>
        <path id="Trazado_663848" data-name="Trazado 663848" d="M357.061,225.22a24.013,24.013,0,0,1-5.531,0,24.011,24.011,0,0,1,5.531,0Z" transform="translate(-347.431 -182.782)" fill="#e0e0e0"/>
        <path id="Trazado_663849" data-name="Trazado 663849" d="M357.061,234.75a24.013,24.013,0,0,1-5.531,0,24.012,24.012,0,0,1,5.531,0Z" transform="translate(-347.431 -186.455)" fill="#e0e0e0"/>
        <path id="Trazado_663850" data-name="Trazado 663850" d="M357.061,244.29a24.013,24.013,0,0,1-5.531,0A24.013,24.013,0,0,1,357.061,244.29Z" transform="translate(-347.431 -190.132)" fill="#e0e0e0"/>
        <path id="Trazado_663851" data-name="Trazado 663851" d="M357.061,253.82a24.012,24.012,0,0,1-5.531,0A24.012,24.012,0,0,1,357.061,253.82Z" transform="translate(-347.431 -193.805)" fill="#e0e0e0"/>
        <path id="Trazado_663852" data-name="Trazado 663852" d="M357.061,263.35a24.012,24.012,0,0,1-5.531,0A24.015,24.015,0,0,1,357.061,263.35Z" transform="translate(-347.431 -197.478)" fill="#e0e0e0"/>
        <path id="Trazado_663853" data-name="Trazado 663853" d="M357.061,272.9a24.015,24.015,0,0,1-5.531,0A24.012,24.012,0,0,1,357.061,272.9Z" transform="translate(-347.431 -201.159)" fill="#e0e0e0"/>
        <path id="Trazado_663854" data-name="Trazado 663854" d="M357.061,282.42a24.01,24.01,0,0,1-5.531,0,24.013,24.013,0,0,1,5.531,0Z" transform="translate(-347.431 -204.828)" fill="#e0e0e0"/>
        <path id="Trazado_663855" data-name="Trazado 663855" d="M357.061,291.95a24.012,24.012,0,0,1-5.531,0A24.015,24.015,0,0,1,357.061,291.95Z" transform="translate(-347.431 -208.501)" fill="#e0e0e0"/>
        <path id="Trazado_663856" data-name="Trazado 663856" d="M357.061,301.49a24.013,24.013,0,0,1-5.531,0A24.01,24.01,0,0,1,357.061,301.49Z" transform="translate(-347.431 -212.177)" fill="#e0e0e0"/>
        <path id="Trazado_663857" data-name="Trazado 663857" d="M387.613,167.46c0,.086-3.214.16-7.178.16s-7.185-.074-7.185-.16,3.214-.16,7.185-.16S387.613,167.368,387.613,167.46Z" transform="translate(-355.802 -160.521)" fill="#4db5e1"/>
        <path id="Trazado_663858" data-name="Trazado 663858" d="M387.613,301.49c0,.086-3.214.16-7.178.16s-7.185-.074-7.185-.16,3.214-.16,7.185-.16S387.613,301.4,387.613,301.49Z" transform="translate(-355.802 -212.177)" fill="#4db5e1"/>
        <path id="Trazado_663859" data-name="Trazado 663859" d="M412.31,187.09c0,.086-6.017.16-13.435.16s-13.435-.074-13.435-.16,6.017-.16,13.435-.16S412.31,186.973,412.31,187.09Z" transform="translate(-360.5 -168.087)" fill="#4db5e1"/>
        <path id="Trazado_663860" data-name="Trazado 663860" d="M462.854,187.09c0,.086-6.011.16-13.429.16s-13.435-.074-13.435-.16,6.011-.16,13.435-.16S462.854,186.973,462.854,187.09Z" transform="translate(-379.982 -168.087)" fill="#e0e0e0"/>
        <path id="Trazado_663861" data-name="Trazado 663861" d="M435.558,196.62c0,.086-8.869.16-19.8.16s-19.8-.074-19.8-.16,8.862-.16,19.8-.16S435.558,196.534,435.558,196.62Z" transform="translate(-364.554 -171.76)" fill="#e0e0e0"/>
        <path id="Trazado_663862" data-name="Trazado 663862" d="M435.573,206.15c0,.092-8.869.16-19.8.16S396,206.242,396,206.15s8.862-.16,19.8-.16S435.573,206.064,435.573,206.15Z" transform="translate(-364.57 -175.433)" fill="#e0e0e0"/>
        <path id="Trazado_663863" data-name="Trazado 663863" d="M479.9,234.75c0,.092-8.862.16-19.8.16s-19.8-.068-19.8-.16,8.862-.16,19.8-.16S479.9,234.664,479.9,234.75Z" transform="translate(-381.647 -186.455)" fill="#e0e0e0"/>
        <path id="Trazado_663864" data-name="Trazado 663864" d="M460.768,215.69c0,.086-8.868.16-19.8.16s-19.8-.074-19.8-.16,8.862-.16,19.8-.16S460.768,215.6,460.768,215.69Z" transform="translate(-374.271 -179.109)" fill="#e0e0e0"/>
        <path id="Trazado_663865" data-name="Trazado 663865" d="M539.492,215.69c0,.086-8.862.16-19.8.16s-19.8-.074-19.8-.16,8.862-.16,19.8-.16S539.492,215.6,539.492,215.69Z" transform="translate(-404.614 -179.109)" fill="#e0e0e0"/>
        <path id="Trazado_663866" data-name="Trazado 663866" d="M512.112,196.62c0,.086-8.862.16-19.8.16s-19.8-.074-19.8-.16,8.862-.16,19.8-.16S512.112,196.534,512.112,196.62Z" transform="translate(-394.061 -171.76)" fill="#fafafa"/>
        <path id="Trazado_663867" data-name="Trazado 663867" d="M556.61,234.75c0,.092-8.869.16-19.8.16S517,234.842,517,234.75s8.862-.16,19.8-.16S556.61,234.664,556.61,234.75Z" transform="translate(-411.204 -186.455)" fill="#fafafa"/>
        <path id="Trazado_663868" data-name="Trazado 663868" d="M534.019,206.15c0,.092-13.767.16-30.73.16s-30.73-.068-30.73-.16,13.761-.16,30.73-.16S534.019,206.064,534.019,206.15Z" transform="translate(-394.077 -175.433)" fill="#455a64"/>
        <path id="Trazado_663869" data-name="Trazado 663869" d="M387.613,177.55c0,.092-3.214.16-7.178.16s-7.185-.068-7.185-.16,3.214-.16,7.185-.16S387.613,177.464,387.613,177.55Z" transform="translate(-355.802 -164.41)" fill="#fafafa"/>
        <path id="Trazado_663870" data-name="Trazado 663870" d="M387.613,291.95c0,.092-3.214.16-7.178.16s-7.185-.068-7.185-.16,3.214-.16,7.185-.16S387.613,291.864,387.613,291.95Z" transform="translate(-355.802 -208.501)" fill="#fafafa"/>
        <path id="Trazado_663871" data-name="Trazado 663871" d="M399.187,215.69c0,.086-3.214.16-7.178.16s-7.178-.074-7.178-.16,3.214-.16,7.178-.16S399.187,215.6,399.187,215.69Z" transform="translate(-360.265 -179.109)" fill="#fafafa"/>
        <path id="Trazado_663872" data-name="Trazado 663872" d="M586.447,215.69c0,.086-3.214.16-7.178.16s-7.178-.074-7.178-.16,3.214-.16,7.178-.16S586.447,215.6,586.447,215.69Z" transform="translate(-432.437 -179.109)" fill="#4db5e1"/>
        <path id="Trazado_663873" data-name="Trazado 663873" d="M412.31,253.76c0,.092-6.017.16-13.435.16s-13.435-.068-13.435-.16,6.017-.16,13.435-.16S412.31,253.674,412.31,253.76Z" transform="translate(-360.5 -193.782)" fill="#4db5e1"/>
        <path id="Trazado_663874" data-name="Trazado 663874" d="M462.858,253.76c0,.092-6.011.16-13.429.16S436,253.846,436,253.76s6.011-.16,13.435-.16S462.858,253.674,462.858,253.76Z" transform="translate(-379.986 -193.782)" fill="#e0e0e0"/>
        <path id="Trazado_663875" data-name="Trazado 663875" d="M435.573,263.3c0,.086-8.869.16-19.8.16S396,263.386,396,263.3s8.862-.16,19.8-.16S435.573,263.208,435.573,263.3Z" transform="translate(-364.57 -197.459)" fill="#e0e0e0"/>
        <path id="Trazado_663876" data-name="Trazado 663876" d="M435.558,272.83c0,.086-8.869.16-19.8.16s-19.8-.074-19.8-.16,8.862-.16,19.8-.16S435.558,272.744,435.558,272.83Z" transform="translate(-364.554 -201.132)" fill="#e0e0e0"/>
        <path id="Trazado_663877" data-name="Trazado 663877" d="M460.768,282.36c0,.092-8.868.16-19.8.16s-19.8-.068-19.8-.16,8.862-.16,19.8-.16S460.768,282.274,460.768,282.36Z" transform="translate(-374.271 -204.805)" fill="#e0e0e0"/>
        <path id="Trazado_663878" data-name="Trazado 663878" d="M539.492,282.36c0,.092-8.862.16-19.8.16s-19.8-.068-19.8-.16,8.862-.16,19.8-.16S539.492,282.274,539.492,282.36Z" transform="translate(-404.614 -204.805)" fill="#e0e0e0"/>
        <path id="Trazado_663879" data-name="Trazado 663879" d="M512.112,263.3c0,.086-8.862.16-19.8.16s-19.8-.074-19.8-.16,8.862-.16,19.8-.16S512.112,263.208,512.112,263.3Z" transform="translate(-394.061 -197.459)" fill="#fafafa"/>
        <path id="Trazado_663880" data-name="Trazado 663880" d="M534.019,272.83c0,.086-13.767.16-30.73.16s-30.73-.074-30.73-.16,13.761-.16,30.73-.16S534.019,272.744,534.019,272.83Z" transform="translate(-394.077 -201.132)" fill="#455a64"/>
        <path id="Trazado_663881" data-name="Trazado 663881" d="M399.187,282.36c0,.092-3.214.16-7.178.16s-7.178-.068-7.178-.16,3.214-.16,7.178-.16S399.187,282.274,399.187,282.36Z" transform="translate(-360.265 -204.805)" fill="#fafafa"/>
        <path id="Trazado_663882" data-name="Trazado 663882" d="M586.447,282.36c0,.092-3.214.16-7.178.16s-7.178-.068-7.178-.16,3.214-.16,7.178-.16S586.447,282.274,586.447,282.36Z" transform="translate(-432.437 -204.805)" fill="#4db5e1"/>
      </g>
      <g id="freepik--React--inject-6" transform="translate(378.364 187.541)">
        <path id="Trazado_663883" data-name="Trazado 663883" d="M633.976,298.1c-.117.068-1.155-1.659-3.251-4.622-1.045-1.481-2.366-3.263-4.007-5.242a58.379,58.379,0,0,0-6.017-6.275,33.344,33.344,0,0,0-3.97-3.073,15.015,15.015,0,0,0-4.812-2.163,5.869,5.869,0,0,0-2.593-.037,3.866,3.866,0,0,0-2.114,1.358,6.252,6.252,0,0,0-1.162,2.508,13.573,13.573,0,0,0-.369,2.993,29.568,29.568,0,0,0,.7,6.386,51.867,51.867,0,0,0,1.844,6.527A81.743,81.743,0,0,0,622.514,321.2a53.048,53.048,0,0,0,4.72,4.874,29.621,29.621,0,0,0,5.181,3.8,14.129,14.129,0,0,0,2.778,1.18,6.372,6.372,0,0,0,2.753.246,3.841,3.841,0,0,0,2.231-1.162,5.788,5.788,0,0,0,1.266-2.256,14.945,14.945,0,0,0,.529-5.249,32.458,32.458,0,0,0-.658-4.972,57.649,57.649,0,0,0-2.458-8.346c-.891-2.409-1.776-4.443-2.532-6.091-1.518-3.3-2.5-5.058-2.379-5.126a5.713,5.713,0,0,1,.861,1.192c.5.817,1.229,2.04,2.077,3.657a64.375,64.375,0,0,1,2.809,6.041,55.157,55.157,0,0,1,2.7,8.438,33.471,33.471,0,0,1,.787,5.132,16.188,16.188,0,0,1-.5,5.722,7.191,7.191,0,0,1-1.536,2.8,5.182,5.182,0,0,1-2.993,1.6,7.7,7.7,0,0,1-3.374-.24,15.11,15.11,0,0,1-3.073-1.278,30.378,30.378,0,0,1-5.494-3.952,53.02,53.02,0,0,1-4.917-5,81.07,81.07,0,0,1-14.566-25.2,52.4,52.4,0,0,1-1.844-6.76,30.589,30.589,0,0,1-.682-6.76,15.031,15.031,0,0,1,.443-3.313,7.769,7.769,0,0,1,1.475-3.073,5.248,5.248,0,0,1,2.889-1.788,7.159,7.159,0,0,1,3.2.068,16.212,16.212,0,0,1,5.2,2.428,34.468,34.468,0,0,1,4.056,3.245,55.651,55.651,0,0,1,5.974,6.613c1.6,2.059,2.852,3.909,3.829,5.451s1.678,2.784,2.126,3.632a5.585,5.585,0,0,1,.59,1.34Z" transform="translate(-592.118 -275.178)" fill="#4db5e1"/>
        <path id="Trazado_663884" data-name="Trazado 663884" d="M615.8,299.19c.111.068-.885,1.745-2.458,4.917-.774,1.573-1.684,3.522-2.6,5.832a52.921,52.921,0,0,0-2.5,8.027,30.2,30.2,0,0,0-.688,4.794,14.136,14.136,0,0,0,.492,5.064,5.832,5.832,0,0,0,1.229,2.194,4.032,4.032,0,0,0,2.139,1.192,6.146,6.146,0,0,0,2.673-.074,12.432,12.432,0,0,0,2.741-.983A26.906,26.906,0,0,0,622,326.742a48.786,48.786,0,0,0,4.757-4.511,75.3,75.3,0,0,0,14.523-23.465,48.171,48.171,0,0,0,1.911-6.275,26.922,26.922,0,0,0,.744-6.146,12.608,12.608,0,0,0-.344-2.889,6.183,6.183,0,0,0-1.125-2.428,4.038,4.038,0,0,0-2.028-1.383,5.827,5.827,0,0,0-2.508-.111,14.191,14.191,0,0,0-4.751,1.813,31.19,31.19,0,0,0-3.983,2.759,53.56,53.56,0,0,0-6.066,5.82c-1.659,1.844-3,3.534-4.062,4.917-2.127,2.79-3.184,4.431-3.294,4.364a4.67,4.67,0,0,1,.615-1.285c.461-.805,1.168-1.985,2.169-3.442a64.542,64.542,0,0,1,3.891-5.15,50.717,50.717,0,0,1,6.023-6.109,30.428,30.428,0,0,1,4.075-2.95,15.366,15.366,0,0,1,5.175-2.065,7.234,7.234,0,0,1,3.073.111,5.421,5.421,0,0,1,2.741,1.813,7.664,7.664,0,0,1,1.432,2.95,14.282,14.282,0,0,1,.418,3.22,28.062,28.062,0,0,1-.682,6.484,49.159,49.159,0,0,1-1.936,6.49,75.2,75.2,0,0,1-14.842,23.969,49.278,49.278,0,0,1-4.917,4.634,28.171,28.171,0,0,1-5.531,3.552,14.051,14.051,0,0,1-3.073,1.063,7.547,7.547,0,0,1-3.276.037,5.421,5.421,0,0,1-2.846-1.641,7.208,7.208,0,0,1-1.481-2.716,15.366,15.366,0,0,1-.461-5.531,30.456,30.456,0,0,1,.824-4.966,50.7,50.7,0,0,1,2.778-8.119,64.022,64.022,0,0,1,2.87-5.777c.86-1.549,1.6-2.7,2.114-3.479S615.747,299.16,615.8,299.19Z" transform="translate(-592.917 -276.302)" fill="#4db5e1"/>
        <path id="Trazado_663885" data-name="Trazado 663885" d="M615.7,300.8c0,.135-1.954.166-5.451.5-1.745.172-3.878.43-6.324.86a53.928,53.928,0,0,0-8.143,2.1,30.772,30.772,0,0,0-4.437,1.936,14.068,14.068,0,0,0-4.05,3.073,5.857,5.857,0,0,0-1.229,2.188,4.086,4.086,0,0,0,.111,2.458,6.281,6.281,0,0,0,1.469,2.237,12.828,12.828,0,0,0,2.28,1.807,26.938,26.938,0,0,0,5.624,2.612,48.033,48.033,0,0,0,6.349,1.672,75.066,75.066,0,0,0,27.589,0,47.936,47.936,0,0,0,6.349-1.666,26.844,26.844,0,0,0,5.63-2.612,12.835,12.835,0,0,0,2.28-1.807,6.28,6.28,0,0,0,1.469-2.237,4.087,4.087,0,0,0,.111-2.458,5.859,5.859,0,0,0-1.229-2.188,14.07,14.07,0,0,0-4.05-3.073,29.5,29.5,0,0,0-4.437-1.936,53.934,53.934,0,0,0-8.143-2.1c-2.458-.43-4.579-.688-6.324-.86-3.5-.338-5.451-.369-5.445-.5a4.771,4.771,0,0,1,1.414-.147c.928-.031,2.3-.049,4.075.031a63.067,63.067,0,0,1,6.422.615,50.765,50.765,0,0,1,8.365,1.905,31.159,31.159,0,0,1,4.652,1.917,15.278,15.278,0,0,1,4.48,3.313,7.192,7.192,0,0,1,1.53,2.686,5.445,5.445,0,0,1-.1,3.282,7.6,7.6,0,0,1-1.758,2.772,13.657,13.657,0,0,1-2.52,2.047,28.084,28.084,0,0,1-5.925,2.821,48.659,48.659,0,0,1-6.539,1.764,74.883,74.883,0,0,1-28.2,0,48.664,48.664,0,0,1-6.539-1.764,28.082,28.082,0,0,1-5.925-2.821,13.855,13.855,0,0,1-2.52-2.047,7.547,7.547,0,0,1-1.758-2.772,5.445,5.445,0,0,1-.1-3.282,7.233,7.233,0,0,1,1.53-2.686,15.309,15.309,0,0,1,4.48-3.313,30.231,30.231,0,0,1,4.652-1.911,50.083,50.083,0,0,1,8.365-1.911c2.5-.356,4.659-.522,6.422-.615s3.147-.061,4.075-.031a4.836,4.836,0,0,1,1.426.141Z" transform="translate(-584.544 -284.988)" fill="#4db5e1"/>
        <circle id="Elipse_7483" data-name="Elipse 7483" cx="5.144" cy="5.144" r="5.144" transform="translate(26.762 33.198) rotate(-80.76)" fill="#4db5e1"/>
      </g>
      <g id="freepik--Device--inject-6" transform="translate(130.558 163.136)">
        <path id="Trazado_663886" data-name="Trazado 663886" d="M199.143,235.47h182.81a4.142,4.142,0,0,1,4.142,4.142v113.7a8.955,8.955,0,0,1-8.955,8.955H203.335a8.955,8.955,0,0,1-8.955-8.955V240.227A4.763,4.763,0,0,1,199.143,235.47Z" transform="translate(-186.366 -235.47)" fill="#455a64"/>
        <path id="Trazado_663887" data-name="Trazado 663887" d="M181.34,426.5H389.072v2.661a8.432,8.432,0,0,1-8.432,8.432H189.772a8.432,8.432,0,0,1-8.432-8.432Z" transform="translate(-181.34 -309.095)" fill="#455a64"/>
        <rect id="Rectángulo_299252" data-name="Rectángulo 299252" width="180.886" height="107.062" transform="translate(13.158 5.04)" fill="#e0e0e0"/>
        <path id="Trazado_663888" data-name="Trazado 663888" d="M319.6,426.5l2.575,4.1h36.267l2.4-4.1Z" transform="translate(-234.627 -309.095)" fill="#263238"/>
        <rect id="Rectángulo_299253" data-name="Rectángulo 299253" width="191.715" height="0.608" transform="translate(8.045 117.362)" fill="#263238"/>
        <rect id="Rectángulo_299254" data-name="Rectángulo 299254" width="170.586" height="100.86" transform="translate(18.53 11.241)" fill="#263238"/>
        <path id="Trazado_663889" data-name="Trazado 663889" d="M232.68,352.88c-.086,0-.16-21.48-.16-47.975s.074-47.975.16-47.975.135,21.474.135,47.981S232.766,352.88,232.68,352.88Z" transform="translate(-201.065 -243.741)" fill="#e0e0e0"/>
        <path id="Trazado_663890" data-name="Trazado 663890" d="M223.7,270.98a24.12,24.12,0,0,1-5.544,0,24.122,24.122,0,0,1,5.531,0Z" transform="translate(-195.531 -249.095)" fill="#e0e0e0"/>
        <path id="Trazado_663891" data-name="Trazado 663891" d="M224.054,262.12a24.121,24.121,0,0,1-5.544,0,24.122,24.122,0,0,1,5.531,0Z" transform="translate(-195.666 -245.68)" fill="#e0e0e0"/>
        <path id="Trazado_663892" data-name="Trazado 663892" d="M223.711,280.53a24.125,24.125,0,0,1-5.531,0,24.123,24.123,0,0,1,5.531,0Z" transform="translate(-195.538 -252.775)" fill="#e0e0e0"/>
        <path id="Trazado_663893" data-name="Trazado 663893" d="M223.711,290.067a24.122,24.122,0,0,1-5.531,0,24.014,24.014,0,0,1,5.531,0Z" transform="translate(-195.538 -256.442)" fill="#e0e0e0"/>
        <path id="Trazado_663894" data-name="Trazado 663894" d="M223.711,299.617a24.122,24.122,0,0,1-5.531,0,24,24,0,0,1,5.531,0Z" transform="translate(-195.538 -260.123)" fill="#e0e0e0"/>
        <path id="Trazado_663895" data-name="Trazado 663895" d="M223.711,309.167a24.122,24.122,0,0,1-5.531,0,24.014,24.014,0,0,1,5.531,0Z" transform="translate(-195.538 -263.804)" fill="#e0e0e0"/>
        <path id="Trazado_663896" data-name="Trazado 663896" d="M223.7,318.72a23.239,23.239,0,0,1-5.544,0,24.122,24.122,0,0,1,5.531,0Z" transform="translate(-195.531 -267.494)" fill="#e0e0e0"/>
        <path id="Trazado_663897" data-name="Trazado 663897" d="M223.7,328.27a24.12,24.12,0,0,1-5.544,0,24.125,24.125,0,0,1,5.531,0Z" transform="translate(-195.531 -271.175)" fill="#e0e0e0"/>
        <path id="Trazado_663898" data-name="Trazado 663898" d="M223.7,337.82a24.116,24.116,0,0,1-5.544,0,24.123,24.123,0,0,1,5.531,0Z" transform="translate(-195.531 -274.855)" fill="#e0e0e0"/>
        <path id="Trazado_663899" data-name="Trazado 663899" d="M223.7,347.37a24.116,24.116,0,0,1-5.544,0,24.123,24.123,0,0,1,5.531,0Z" transform="translate(-195.531 -278.536)" fill="#e0e0e0"/>
        <path id="Trazado_663900" data-name="Trazado 663900" d="M223.711,356.9a24.122,24.122,0,0,1-5.531,0,24.122,24.122,0,0,1,5.531,0Z" transform="translate(-195.538 -282.209)" fill="#e0e0e0"/>
        <path id="Trazado_663901" data-name="Trazado 663901" d="M223.711,366.457a24.122,24.122,0,0,1-5.531,0,24.014,24.014,0,0,1,5.531,0Z" transform="translate(-195.538 -285.884)" fill="#e0e0e0"/>
        <path id="Trazado_663902" data-name="Trazado 663902" d="M223.711,376.007a24.123,24.123,0,0,1-5.531,0,24.016,24.016,0,0,1,5.531,0Z" transform="translate(-195.538 -289.564)" fill="#e0e0e0"/>
        <path id="Trazado_663903" data-name="Trazado 663903" d="M223.711,385.557a24.122,24.122,0,0,1-5.531,0,24.014,24.014,0,0,1,5.531,0Z" transform="translate(-195.538 -293.245)" fill="#e0e0e0"/>
        <path id="Trazado_663904" data-name="Trazado 663904" d="M223.711,395.1a24.122,24.122,0,0,1-5.531,0,23.128,23.128,0,0,1,5.531,0Z" transform="translate(-195.538 -296.922)" fill="#e0e0e0"/>
        <path id="Trazado_663905" data-name="Trazado 663905" d="M223.7,404.66a24.12,24.12,0,0,1-5.544,0,24.123,24.123,0,0,1,5.531,0Z" transform="translate(-195.531 -300.616)" fill="#e0e0e0"/>
        <path id="Trazado_663906" data-name="Trazado 663906" d="M254.308,270.42c0,.086-3.22.16-7.191.16s-7.2-.074-7.2-.16,3.22-.16,7.2-.16S254.308,270.328,254.308,270.42Z" transform="translate(-203.917 -248.878)" fill="#4db5e1"/>
        <path id="Trazado_663907" data-name="Trazado 663907" d="M254.308,404.66c0,.092-3.22.16-7.191.16s-7.2-.068-7.2-.16,3.22-.16,7.2-.16S254.308,404.574,254.308,404.66Z" transform="translate(-203.917 -300.616)" fill="#4db5e1"/>
        <path id="Trazado_663908" data-name="Trazado 663908" d="M279.043,290.08c0,.086-6.029.16-13.46.16s-13.453-.074-13.453-.16,6.023-.16,13.453-.16S279.043,289.969,279.043,290.08Z" transform="translate(-208.623 -256.456)" fill="#4db5e1"/>
        <path id="Trazado_663909" data-name="Trazado 663909" d="M329.673,290.08c0,.086-6.029.16-13.46.16s-13.453-.074-13.453-.16,6.023-.16,13.453-.16S329.673,289.969,329.673,290.08Z" transform="translate(-228.136 -256.456)" fill="#e0e0e0"/>
        <path id="Trazado_663910" data-name="Trazado 663910" d="M302.33,299.63c0,.086-8.881.16-19.833.16s-19.827-.074-19.827-.16,8.875-.16,19.827-.16S302.33,299.538,302.33,299.63Z" transform="translate(-212.685 -260.136)" fill="#e0e0e0"/>
        <path id="Trazado_663911" data-name="Trazado 663911" d="M302.33,309.18c0,.086-8.881.16-19.833.16s-19.827-.074-19.827-.16,8.875-.16,19.827-.16S302.33,309.088,302.33,309.18Z" transform="translate(-212.685 -263.817)" fill="#e0e0e0"/>
        <path id="Trazado_663912" data-name="Trazado 663912" d="M346.74,337.82c0,.092-8.875.16-19.827.16s-19.833-.068-19.833-.16,8.881-.16,19.833-.16S346.74,337.734,346.74,337.82Z" transform="translate(-229.801 -274.855)" fill="#e0e0e0"/>
        <path id="Trazado_663913" data-name="Trazado 663913" d="M327.58,318.72c0,.092-8.881.166-19.833.166s-19.827-.074-19.827-.166,8.875-.16,19.827-.16S327.58,318.634,327.58,318.72Z" transform="translate(-222.417 -267.494)" fill="#e0e0e0"/>
        <path id="Trazado_663914" data-name="Trazado 663914" d="M406.43,318.72c0,.092-8.881.166-19.827.166s-19.833-.074-19.833-.166,8.881-.16,19.833-.16S406.43,318.634,406.43,318.72Z" transform="translate(-252.806 -267.494)" fill="#e0e0e0"/>
        <path id="Trazado_663915" data-name="Trazado 663915" d="M379.01,299.63c0,.086-8.881.16-19.833.16s-19.827-.074-19.827-.16,8.875-.16,19.827-.16S379.01,299.538,379.01,299.63Z" transform="translate(-242.239 -260.136)" fill="#fafafa"/>
        <path id="Trazado_663916" data-name="Trazado 663916" d="M423.58,337.82c0,.092-8.881.16-19.827.16s-19.833-.068-19.833-.16,8.881-.16,19.833-.16S423.58,337.734,423.58,337.82Z" transform="translate(-259.416 -274.855)" fill="#fafafa"/>
        <path id="Trazado_663917" data-name="Trazado 663917" d="M400.932,309.18c0,.086-13.785.16-30.791.16s-30.791-.074-30.791-.16,13.785-.16,30.791-.16S400.932,309.088,400.932,309.18Z" transform="translate(-242.239 -263.817)" fill="#455a64"/>
        <path id="Trazado_663918" data-name="Trazado 663918" d="M254.308,280.53c0,.086-3.22.16-7.191.16s-7.2-.074-7.2-.16,3.22-.16,7.2-.16S254.308,280.444,254.308,280.53Z" transform="translate(-203.917 -252.775)" fill="#fafafa"/>
        <path id="Trazado_663919" data-name="Trazado 663919" d="M254.308,395.116c0,.086-3.22.16-7.191.16s-7.2-.074-7.2-.16,3.22-.166,7.2-.166S254.308,395.024,254.308,395.116Z" transform="translate(-203.917 -296.935)" fill="#fafafa"/>
        <path id="Trazado_663920" data-name="Trazado 663920" d="M265.9,318.72c0,.092-3.22.166-7.191.166s-7.191-.074-7.191-.166,3.214-.16,7.191-.16S265.9,318.634,265.9,318.72Z" transform="translate(-208.388 -267.494)" fill="#fafafa"/>
        <path id="Trazado_663921" data-name="Trazado 663921" d="M453.461,318.72c0,.092-3.22.166-7.191.166s-7.191-.074-7.191-.166,3.214-.16,7.191-.16S453.461,318.634,453.461,318.72Z" transform="translate(-280.675 -267.494)" fill="#4db5e1"/>
        <path id="Trazado_663922" data-name="Trazado 663922" d="M279.043,356.9c0,.092-6.029.16-13.46.16s-13.453-.068-13.453-.16,6.023-.16,13.453-.16S279.043,356.789,279.043,356.9Z" transform="translate(-208.623 -282.209)" fill="#4db5e1"/>
        <path id="Trazado_663923" data-name="Trazado 663923" d="M329.673,356.9c0,.092-6.029.16-13.46.16s-13.453-.068-13.453-.16,6.023-.16,13.453-.16S329.673,356.789,329.673,356.9Z" transform="translate(-228.136 -282.209)" fill="#e0e0e0"/>
        <path id="Trazado_663924" data-name="Trazado 663924" d="M302.33,366.41c0,.092-8.881.16-19.833.16s-19.827-.068-19.827-.16,8.875-.16,19.827-.16S302.33,366.324,302.33,366.41Z" transform="translate(-212.685 -285.874)" fill="#e0e0e0"/>
        <path id="Trazado_663925" data-name="Trazado 663925" d="M302.33,375.96c0,.092-8.881.16-19.833.16s-19.827-.068-19.827-.16,8.875-.16,19.827-.16S302.33,375.874,302.33,375.96Z" transform="translate(-212.685 -289.555)" fill="#e0e0e0"/>
        <path id="Trazado_663926" data-name="Trazado 663926" d="M327.58,385.51c0,.086-8.881.16-19.833.16s-19.827-.074-19.827-.16,8.875-.16,19.827-.16S327.58,385.424,327.58,385.51Z" transform="translate(-222.417 -293.235)" fill="#e0e0e0"/>
        <path id="Trazado_663927" data-name="Trazado 663927" d="M406.43,385.51c0,.086-8.881.16-19.827.16s-19.833-.074-19.833-.16,8.881-.16,19.833-.16S406.43,385.424,406.43,385.51Z" transform="translate(-252.806 -293.235)" fill="#e0e0e0"/>
        <path id="Trazado_663928" data-name="Trazado 663928" d="M379.01,366.41c0,.092-8.881.16-19.833.16s-19.827-.068-19.827-.16,8.875-.16,19.827-.16S379.01,366.324,379.01,366.41Z" transform="translate(-242.239 -285.874)" fill="#fafafa"/>
        <path id="Trazado_663929" data-name="Trazado 663929" d="M400.932,375.96c0,.092-13.785.16-30.791.16s-30.791-.068-30.791-.16,13.785-.16,30.791-.16S400.932,375.874,400.932,375.96Z" transform="translate(-242.239 -289.555)" fill="#455a64"/>
        <path id="Trazado_663930" data-name="Trazado 663930" d="M265.9,385.51c0,.086-3.22.16-7.191.16s-7.191-.074-7.191-.16,3.214-.16,7.191-.16S265.9,385.424,265.9,385.51Z" transform="translate(-208.388 -293.235)" fill="#fafafa"/>
        <path id="Trazado_663931" data-name="Trazado 663931" d="M453.461,385.51c0,.086-3.22.16-7.191.16s-7.191-.074-7.191-.16,3.214-.16,7.191-.16S453.461,385.424,453.461,385.51Z" transform="translate(-280.675 -293.235)" fill="#4db5e1"/>
      </g>
      <g id="freepik--Floor--inject-6" transform="translate(49.58 291.481)">
        <path id="Trazado_663932" data-name="Trazado 663932" d="M449.58,444.46c0,.086-89.552.16-199.988.16s-200.012-.074-200.012-.16,89.534-.16,200.012-.16S449.58,444.368,449.58,444.46Z" transform="translate(-49.58 -444.3)" fill="#263238"/>
      </g>
      <g id="freepik--character-2--inject-6" transform="translate(342.307 199.893)">
        <path id="Trazado_663933" data-name="Trazado 663933" d="M568.584,384.355l2.458,7.676a8.869,8.869,0,0,0,6.883,6.146l16.385,3.073,4.456-.141-4.456-5.531-12.292-4.2a3.3,3.3,0,0,1-2.458-2.36l-4.917-10.669-6.214,3.81Z" transform="translate(-542.276 -327.294)" fill="#ffbe9d"/>
        <path id="Trazado_663934" data-name="Trazado 663934" d="M541,300.78a5.4,5.4,0,0,0-.922-3.4,4.161,4.161,0,0,0-2.692-2.077,3.073,3.073,0,0,0-3.19,1.881,4.007,4.007,0,0,0,.492,3.786,5.056,5.056,0,0,0,1.493,1.4,9.378,9.378,0,0,0-3.687,4.7c-.227.651-.381,1.328-.664,1.954a2.913,2.913,0,0,1-1.358,1.506c-.467.209-.99.227-1.469.406a2.692,2.692,0,0,0-1.616,1.844,3.27,3.27,0,0,0,.436,2.458,2.539,2.539,0,0,1,.553,1.143,2.945,2.945,0,0,1-.178.854,2.335,2.335,0,0,0,3.835,2.28,3.325,3.325,0,0,0,1.414,1.776c.7.332,1.733.031,1.844-.731a1.844,1.844,0,0,0,3.509-.664l13.214-14.449C550.042,300.19,542.329,300.638,541,300.78Z" transform="translate(-526.427 -295.277)" fill="#4db5e1"/>
        <path id="Trazado_663935" data-name="Trazado 663935" d="M545.015,311.005a1.659,1.659,0,0,0-1.475,1.672h0l.934,22.248c.037,2.63,4.806,5.74,7.615,5.679h0c2.846-.061,2.01-3.073,2.047-5.574.074-4.179.068-5.746.074-5.722s3.589-.615,4.333-5.279a50.123,50.123,0,0,0,.055-9.268c-.178-2.809-2.04-6.257-4.837-5.962Z" transform="translate(-532.684 -300.482)" fill="#ffbe9d"/>
        <path id="Trazado_663936" data-name="Trazado 663936" d="M565.312,323.1a.615.615,0,0,1-.578.615.578.578,0,0,1-.615-.541.615.615,0,0,1,.578-.615.578.578,0,0,1,.615.541Z" transform="translate(-540.615 -305.792)" fill="#263238"/>
        <path id="Trazado_663937" data-name="Trazado 663937" d="M565.194,321.343c-.074.08-.529-.258-1.174-.258s-1.125.326-1.192.246.043-.172.246-.326a1.683,1.683,0,0,1,.953-.3,1.611,1.611,0,0,1,.94.307C565.163,321.165,565.231,321.306,565.194,321.343Z" transform="translate(-540.11 -305.079)" fill="#263238"/>
        <path id="Trazado_663938" data-name="Trazado 663938" d="M555.032,323.1a.615.615,0,0,1-.578.615.578.578,0,0,1-.615-.541.615.615,0,0,1,.578-.615.578.578,0,0,1,.615.541Z" transform="translate(-536.653 -305.792)" fill="#263238"/>
        <path id="Trazado_663939" data-name="Trazado 663939" d="M554.852,321.543c-.074.074-.529-.258-1.174-.258s-1.119.326-1.192.246.043-.178.252-.326a1.623,1.623,0,0,1,.953-.295,1.6,1.6,0,0,1,.934.3C554.822,321.365,554.889,321.506,554.852,321.543Z" transform="translate(-536.123 -305.156)" fill="#263238"/>
        <path id="Trazado_663940" data-name="Trazado 663940" d="M559.985,326.36a4.017,4.017,0,0,1,1.051-.19c.166,0,.32-.049.35-.166a.847.847,0,0,0-.111-.486c-.16-.4-.32-.817-.492-1.26a21.266,21.266,0,0,1-1.094-3.288,21.611,21.611,0,0,1,1.358,3.2c.16.442.32.86.467,1.26a.964.964,0,0,1,.086.651.418.418,0,0,1-.27.24,1.021,1.021,0,0,1-.283.037A4.264,4.264,0,0,1,559.985,326.36Z" transform="translate(-538.908 -305.18)" fill="#263238"/>
        <path id="Trazado_663941" data-name="Trazado 663941" d="M556.965,341.132a11.936,11.936,0,0,1-6.275-1.672s1.524,3.214,6.207,2.778Z" transform="translate(-535.439 -312.306)" fill="#eb996e"/>
        <path id="Trazado_663942" data-name="Trazado 663942" d="M558.514,332a1.155,1.155,0,0,0-1.039-.43,1.076,1.076,0,0,0-.737.393.67.67,0,0,0-.049.768.78.78,0,0,0,.848.215,2.409,2.409,0,0,0,.824-.492.775.775,0,0,0,.184-.191.215.215,0,0,0,0-.24" transform="translate(-537.713 -309.26)" fill="#eb996e"/>
        <path id="Trazado_663943" data-name="Trazado 663943" d="M557.005,330.46c.111,0,.111.7.707,1.229s1.352.418,1.358.516-.172.135-.486.148a1.8,1.8,0,0,1-1.131-.393,1.542,1.542,0,0,1-.547-1C556.883,330.632,556.962,330.46,557.005,330.46Z" transform="translate(-537.834 -308.837)" fill="#263238"/>
        <path id="Trazado_663944" data-name="Trazado 663944" d="M554.964,319.793c-.068.172-.713.092-1.469.184s-1.371.295-1.475.135.061-.24.313-.406a2.459,2.459,0,0,1,1.088-.387,2.5,2.5,0,0,1,1.149.135C554.847,319.571,554.988,319.731,554.964,319.793Z" transform="translate(-535.94 -304.537)" fill="#4db5e1"/>
        <path id="Trazado_663945" data-name="Trazado 663945" d="M564.9,318.287c-.111.147-.559,0-1.094,0s-.989.1-1.094-.055,0-.221.227-.363a1.537,1.537,0,0,1,.891-.24,1.518,1.518,0,0,1,.873.3C564.89,318.065,564.958,318.213,564.9,318.287Z" transform="translate(-540.058 -303.891)" fill="#4db5e1"/>
        <path id="Trazado_663946" data-name="Trazado 663946" d="M542.936,324.5a1.186,1.186,0,0,0-1.229.061,2.169,2.169,0,0,0,1.37,4.032" transform="translate(-531.557 -306.485)" fill="#ffbe9d"/>
        <path id="Trazado_663947" data-name="Trazado 663947" d="M551.042,306.262a9.514,9.514,0,0,1,4.5,1.4,6.533,6.533,0,0,1,3.214,3.817,1.34,1.34,0,0,1-.037,1.057,1.039,1.039,0,0,1-1.285.277,3.012,3.012,0,0,1-1.045-.965,2,2,0,0,1-3.89-.043,1.758,1.758,0,0,1-1.807,1.61,2.3,2.3,0,0,1-1.991-1.573,5.906,5.906,0,0,1-.824,2.286,2,2,0,0,1-2.12.867,4.167,4.167,0,0,1,0,2.1,1.432,1.432,0,0,1-1.653.965c-.651-.221-.9-.989-1.051-1.659a15.468,15.468,0,0,1-.5-3.927,5.746,5.746,0,0,1,4.64-5.826,15.365,15.365,0,0,1,4.075-.375" transform="translate(-532.3 -299.506)" fill="#4db5e1"/>
        <path id="Trazado_663948" data-name="Trazado 663948" d="M543.194,327.875c0-.031-.184.043-.412-.061a.817.817,0,0,1-.4-.8.83.83,0,0,1,.5-.756,2.693,2.693,0,0,1,.418-.08.531.531,0,0,0-.467-.08.836.836,0,0,0-.461.283,1.052,1.052,0,0,0-.234.615.934.934,0,0,0,.615.971A.409.409,0,0,0,543.194,327.875Z" transform="translate(-532.141 -307.149)" fill="#eb996e"/>
        <path id="Trazado_663949" data-name="Trazado 663949" d="M539.331,329.38a.626.626,0,0,0-.2.049,3.989,3.989,0,0,0-2.047,1.678,3,3,0,0,0-.418,1.407,3.3,3.3,0,0,0,.393,1.647,3.865,3.865,0,0,0,1.229,1.389,3.466,3.466,0,0,0,1.911.615,3.632,3.632,0,0,0,3.165-1.979,3.072,3.072,0,0,0,.332-1.659,3.46,3.46,0,0,0-.455-1.4,3.343,3.343,0,0,0-1.549-1.414,2.23,2.23,0,0,0-.547-.166q-.2-.037-.2,0a3.763,3.763,0,0,1,.707.27,3.405,3.405,0,0,1,1.444,1.407,3.358,3.358,0,0,1,.4,1.334,2.933,2.933,0,0,1-.332,1.543,3.417,3.417,0,0,1-2.962,1.844,3.491,3.491,0,0,1-2.956-1.844,2.925,2.925,0,0,1,0-2.864,6.243,6.243,0,0,1,2.083-1.862Z" transform="translate(-530.035 -308.421)" fill="#263238"/>
        <path id="Trazado_663950" data-name="Trazado 663950" d="M543.8,302.979c-.049,0-.147-.412-.436-1.02a5.624,5.624,0,0,0-3.976-3.134c-.664-.141-1.094-.135-1.094-.19a2.336,2.336,0,0,1,1.131-.037,5.23,5.23,0,0,1,2.52,1.069,5.169,5.169,0,0,1,1.623,2.2,2.335,2.335,0,0,1,.234,1.112Z" transform="translate(-530.66 -296.537)" fill="#e0e0e0"/>
        <path id="Trazado_663951" data-name="Trazado 663951" d="M529.548,324.127s-.08,0-.166-.154a.9.9,0,0,1-.111-.615,1.334,1.334,0,0,1,.578-.848,11.189,11.189,0,0,1,1.162-.615,1.42,1.42,0,0,0,.811-1.155,6.8,6.8,0,0,0-.32-1.764,3.511,3.511,0,0,1-.1-1.033,1.721,1.721,0,0,1,.443-1.02,4.234,4.234,0,0,1,1.973-1.039,3.282,3.282,0,0,0,1.77-1.02,2.649,2.649,0,0,0,.295-1.844,9.63,9.63,0,0,1-.129-1.844,5.113,5.113,0,0,1,1.776-3.466,3.158,3.158,0,0,1,.522-.363.714.714,0,0,1,.2-.1,6.455,6.455,0,0,0-.615.553,5.162,5.162,0,0,0-1.26,1.874,5,5,0,0,0-.338,1.518,9.989,9.989,0,0,0,.154,1.8,2.9,2.9,0,0,1-.326,2.065,3.515,3.515,0,0,1-1.93,1.143,4,4,0,0,0-1.844.946,1.9,1.9,0,0,0-.289,1.782,6.632,6.632,0,0,1,.295,1.844,1.6,1.6,0,0,1-.332.836,1.925,1.925,0,0,1-.615.5,9.193,9.193,0,0,0-1.168.615,1.229,1.229,0,0,0-.559.731A.915.915,0,0,0,529.548,324.127Z" transform="translate(-527.179 -299.892)" fill="#e0e0e0"/>
        <path id="Trazado_663952" data-name="Trazado 663952" d="M553.283,311.384c-.049,0-.092-.5-.338-1.229a6.551,6.551,0,0,0-1.586-2.6,6.655,6.655,0,0,0-2.6-1.573c-.75-.246-1.229-.283-1.229-.338a2.907,2.907,0,0,1,1.309.123,5.986,5.986,0,0,1,4.339,4.3A2.8,2.8,0,0,1,553.283,311.384Z" transform="translate(-534.221 -299.263)" fill="#e0e0e0"/>
        <path id="Trazado_663953" data-name="Trazado 663953" d="M556.945,308.969a11.681,11.681,0,0,0-.817-1.45,6.41,6.41,0,0,0-3.208-2.231,9.927,9.927,0,0,0-3.964-.32c-1.026.111-1.653.252-1.666.2a5.472,5.472,0,0,1,1.635-.424,9.053,9.053,0,0,1,4.093.234,6.208,6.208,0,0,1,3.294,2.409,4.16,4.16,0,0,1,.547,1.125A1.1,1.1,0,0,1,556.945,308.969Z" transform="translate(-534.129 -298.876)" fill="#e0e0e0"/>
        <path id="Trazado_663954" data-name="Trazado 663954" d="M546.61,303.85a2.266,2.266,0,0,1-.479.682,4.615,4.615,0,0,1-1.709,1.069,4.523,4.523,0,0,1-2,.252,1.592,1.592,0,0,1-.805-.227,8.082,8.082,0,0,0,2.7-.326A8.235,8.235,0,0,0,546.61,303.85Z" transform="translate(-531.944 -298.581)" fill="#263238"/>
        <path id="Trazado_663955" data-name="Trazado 663955" d="M551.253,432.95c-11.253-3.724-3.54-18.61-3.54-18.61l49.167,4.628a7.111,7.111,0,0,1,7.172,7.117h0a7.111,7.111,0,0,1-7.1,7.1l-45.695-.246" transform="translate(-533.298 -341.165)" fill="#263238"/>
        <path id="Trazado_663956" data-name="Trazado 663956" d="M532.622,432.934c-10.964-3.688-3.4-18.6-3.4-18.6l47.938,4.523c4.683.061,6.97,2.323,6.97,7.1h0c0,3.927-1.463,7.24-6.951,7.129l-44.558-.147" transform="translate(-526.185 -341.161)" fill="#263238"/>
        <path id="Trazado_663957" data-name="Trazado 663957" d="M554.46,418.43h.535l1.536.061,5.636.289,18.6,1.02c.91.043,1.807.123,2.692.135s1.764.049,2.618.1,1.7.117,2.526.2a9.183,9.183,0,0,1,2.4.492,5.918,5.918,0,0,1,2,1.278,5.28,5.28,0,0,1,1.229,1.942,9.51,9.51,0,0,1,.5,2.1,14.881,14.881,0,0,1,.129,1.985,8.457,8.457,0,0,1-.615,3.337,5.532,5.532,0,0,1-1.493,2.034,4.056,4.056,0,0,1-1.358.762c-.338.111-.344.074,0-.049a4.2,4.2,0,0,0,1.315-.793,5.567,5.567,0,0,0,1.426-2.016,8.388,8.388,0,0,0,.615-3.276,14.5,14.5,0,0,0-.148-1.954,9.538,9.538,0,0,0-.492-2.047,5.12,5.12,0,0,0-1.174-1.844,5.434,5.434,0,0,0-1.924-1.229,8.752,8.752,0,0,0-2.342-.473c-.817-.086-1.659-.147-2.514-.2s-1.727-.086-2.606-.1-1.788-.092-2.7-.135l-18.684-1.1-5.642-.363-1.53-.111-.4-.037Z" transform="translate(-536.892 -342.742)" fill="#455a64"/>
        <path id="Trazado_663958" data-name="Trazado 663958" d="M560.492,391.052l-3.939-1.936-2.747-9.127-.264-11.677,5.568-2.348-4.419-11.093c-.805-1.641-2.458-5.986-6.613-7.412a5.01,5.01,0,0,1,.148-1.844c.326-.547-10.2-.873-10.792-.658s.1,2.139.031,2.458c-3.743,1.033-7.375,2.575-8.746,7.719a28.053,28.053,0,0,0-.061,8.272l2.919,15.445-1.641,5.07s-5.746,11.972-3.565,16.649a10.426,10.426,0,0,0,5.882,5.734l28.628-.061Z" transform="translate(-525.876 -314.399)" fill="#4db5e1"/>
        <g id="Grupo_895338" data-name="Grupo 895338" transform="translate(5.89 57.386)" opacity="0.3">
          <path id="Trazado_663959" data-name="Trazado 663959" d="M535.46,389.6a57.724,57.724,0,0,0,2.1,7.308,15.777,15.777,0,0,0,2.3,4.216,10.663,10.663,0,0,0,5.531,3.362,17.374,17.374,0,0,0,6.521.32l-10.835-6.146-2.882-10.012Z" transform="translate(-535.46 -388.65)"/>
        </g>
        <path id="Trazado_663960" data-name="Trazado 663960" d="M570.9,388.227a4.572,4.572,0,0,1-.08-.83c0-.578-.062-1.34-.111-2.256-.08-1.905-.172-4.542-.264-7.455s-.154-5.531-.184-7.455V367.97a5.13,5.13,0,0,1,0-.83,4.914,4.914,0,0,1,.074.824c.031.578.068,1.34.111,2.262.08,1.905.178,4.542.264,7.455s.154,5.531.191,7.455V387.4A5.173,5.173,0,0,1,570.9,388.227Z" transform="translate(-542.975 -322.974)" fill="#263238"/>
        <path id="Trazado_663961" data-name="Trazado 663961" d="M545.039,372.248a.969.969,0,0,1-.2.086l-.615.221-2.36.83-8.641,2.981-.141.049-.031-.147c-.584-3.141-1.272-6.816-2.016-10.792h0a43.256,43.256,0,0,1-.344-6.146,5.581,5.581,0,0,1,.424-1.506,6.807,6.807,0,0,1,.713-1.358,5.765,5.765,0,0,1,2.274-1.942,4.978,4.978,0,0,1,5.4.584,6.762,6.762,0,0,1,1.444,2.2,20.671,20.671,0,0,1,.842,2.311c.455,1.512.805,2.944,1.143,4.259l1.567,6.146c.178.707.313,1.26.412,1.666.043.172.074.313.1.424s0,.147,0,.141a.69.69,0,0,1-.055-.154q-.055-.178-.129-.442c-.117-.406-.27-.965-.473-1.672-.4-1.469-.971-3.552-1.672-6.109-.356-1.278-.707-2.7-1.174-4.2a20.526,20.526,0,0,0-.848-2.274,6.435,6.435,0,0,0-1.377-2.1,4.7,4.7,0,0,0-5.064-.522,5.445,5.445,0,0,0-2.151,1.844,6.692,6.692,0,0,0-.682,1.3,5.366,5.366,0,0,0-.4,1.426,43.435,43.435,0,0,0,.338,6.1h0c.725,3.976,1.4,7.652,1.967,10.8l-.172-.1,8.6-2.833,2.415-.774.615-.2Z" transform="translate(-527.717 -317.904)" fill="#263238"/>
        <path id="Trazado_663962" data-name="Trazado 663962" d="M539.532,386.954a2.583,2.583,0,0,1-.51-1.063c-.2-.615-.289-1.137-.2-1.162s.313.449.51,1.063S539.637,386.93,539.532,386.954Z" transform="translate(-530.851 -329.753)" fill="#263238"/>
        <path id="Trazado_663963" data-name="Trazado 663963" d="M544.263,385.71c-.086,0-.277-.443-.418-1.039s-.2-1.088-.111-1.112.277.443.418,1.039S544.349,385.674,544.263,385.71Z" transform="translate(-532.743 -329.302)" fill="#263238"/>
        <path id="Trazado_663964" data-name="Trazado 663964" d="M548.888,384.277c-.086,0-.277-.356-.424-.848s-.2-.91-.111-.94.27.356.418.848S548.968,384.253,548.888,384.277Z" transform="translate(-534.522 -328.889)" fill="#263238"/>
        <path id="Trazado_663965" data-name="Trazado 663965" d="M573.772,380.263c-.074.043-.4-.363-.615-.959s-.252-1.112-.172-1.125.258.449.473,1.014S573.852,380.214,573.772,380.263Z" transform="translate(-544.017 -327.229)" fill="#263238"/>
        <path id="Trazado_663966" data-name="Trazado 663966" d="M577.212,378.509c-.08.043-.338-.313-.578-.787s-.369-.891-.289-.934.338.313.578.787S577.292,378.472,577.212,378.509Z" transform="translate(-545.318 -326.691)" fill="#263238"/>
        <path id="Trazado_663967" data-name="Trazado 663967" d="M547.129,347.948a.769.769,0,0,1,.055.277h-.166a10.577,10.577,0,0,1-.2-1.463,4.984,4.984,0,0,1,0-1.752,4.738,4.738,0,0,1,.307,1.727,10.918,10.918,0,0,1,.043,1.475h-.166C547.061,348.04,547.1,347.942,547.129,347.948Z" transform="translate(-533.918 -314.445)" fill="#263238"/>
        <path id="Trazado_663968" data-name="Trazado 663968" d="M551.329,347.99a3.5,3.5,0,0,1-.264-1.426,3.221,3.221,0,0,1,.055-1.444,3.5,3.5,0,0,1,.264,1.426A3.221,3.221,0,0,1,551.329,347.99Z" transform="translate(-535.562 -314.487)" fill="#263238"/>
        <path id="Trazado_663969" data-name="Trazado 663969" d="M555.759,348.568a4.654,4.654,0,0,1-.184-1.721,4.881,4.881,0,0,1,.135-1.727,4.653,4.653,0,0,1,.184,1.721,4.879,4.879,0,0,1-.135,1.727Z" transform="translate(-537.313 -314.487)" fill="#263238"/>
        <path id="Trazado_663970" data-name="Trazado 663970" d="M559.339,348.294a3.558,3.558,0,0,1-.16-1.469,3.6,3.6,0,0,1,.16-1.475,3.422,3.422,0,0,1,.166,1.475A3.386,3.386,0,0,1,559.339,348.294Z" transform="translate(-538.704 -314.576)" fill="#263238"/>
        <path id="Trazado_663971" data-name="Trazado 663971" d="M567.569,419.513c0,.086-5.341-.2-11.917-.651s-11.9-.885-11.892-.971,5.341.2,11.917.651S567.575,419.427,567.569,419.513Z" transform="translate(-532.768 -342.528)" fill="#263238"/>
        <path id="Trazado_663972" data-name="Trazado 663972" d="M537.53,387.621l2.637,8.6a8.911,8.911,0,0,0,6.871,6.232l16.385,3.116,4.456-.148-1.512-3.8-15.26-6.035a3.325,3.325,0,0,1-2.458-2.391l-2.3-8.635Z" transform="translate(-530.367 -329.688)" fill="#ffbe9d"/>
        <path id="Trazado_663973" data-name="Trazado 663973" d="M561.1,408.185l.141-1.063,12.587-.492L580,391.05l23.533,1.6-7.94,17.295Z" transform="translate(-539.451 -332.189)" fill="#455a64"/>
        <path id="Trazado_663974" data-name="Trazado 663974" d="M605.508,406.307a1.229,1.229,0,1,1-.381-1.7A1.229,1.229,0,0,1,605.508,406.307Z" transform="translate(-555.693 -337.342)" fill="#fff"/>
      </g>
      <g id="freepik--character-1--inject-6" transform="translate(120.613 72.301)">
        <path id="Trazado_663975" data-name="Trazado 663975" d="M248.86,224.854c10.257-3.724,4.99-19.194,4.99-19.194L201.8,210.429a7.338,7.338,0,0,0-7.375,7.338h0a7.338,7.338,0,0,0,7.338,7.338l47.115-.252" transform="translate(-176.435 -133.145)" fill="#263238"/>
        <path id="Trazado_663976" data-name="Trazado 663976" d="M170.554,301.144l-.1-5.163,9.9-3.522.412,7.191-.559.27c-2.458,1.174-12.722,5.8-14.633,5.974C163.437,306.085,170.554,301.144,170.554,301.144Z" transform="translate(-165.163 -166.599)" fill="#4db5e1"/>
        <g id="Grupo_895339" data-name="Grupo 895339" transform="translate(0 132.849)" opacity="0.4">
          <path id="Trazado_663977" data-name="Trazado 663977" d="M167.126,308.077s-2.421,1.905-1.893,2.219,11.063-3.97,15.525-6.263l-.1-.2-12.23,5.1S167.673,307.88,167.126,308.077Z" transform="translate(-165.157 -303.83)" fill="#fff"/>
        </g>
        <path id="Trazado_663978" data-name="Trazado 663978" d="M180.821,303.73l-.154.08-.443.215-1.623.75c-1.4.615-3.331,1.469-5.488,2.348s-4.136,1.641-5.568,2.163l-1.7.615-.467.16-.166.043.16-.068.455-.178,1.69-.651c1.426-.547,3.393-1.309,5.531-2.194s4.1-1.709,5.531-2.311l1.659-.719.449-.191a.687.687,0,0,1,.135-.061Z" transform="translate(-165.178 -170.943)" fill="#263238"/>
        <path id="Trazado_663979" data-name="Trazado 663979" d="M169.67,311.682a4.768,4.768,0,0,0-.615-.67,4.223,4.223,0,0,0-.836-.412,1.629,1.629,0,0,1,1.475,1.082Z" transform="translate(-166.338 -173.59)" fill="#263238"/>
        <path id="Trazado_663980" data-name="Trazado 663980" d="M173.587,307.958a2.205,2.205,0,0,1-.436-.234c-.221-.154-.387-.307-.363-.338s.209.08.43.24S173.606,307.928,173.587,307.958Z" transform="translate(-168.097 -172.35)" fill="#263238"/>
        <path id="Trazado_663981" data-name="Trazado 663981" d="M174.506,307c0,.031-.2,0-.412-.086s-.387-.166-.375-.2.2,0,.412.086S174.543,306.965,174.506,307Z" transform="translate(-168.457 -172.088)" fill="#263238"/>
        <path id="Trazado_663982" data-name="Trazado 663982" d="M174.629,305.45a1.288,1.288,0,0,1-.455.258,1.229,1.229,0,0,1-.5.147,1.288,1.288,0,0,1,.455-.258A1.229,1.229,0,0,1,174.629,305.45Z" transform="translate(-168.438 -171.605)" fill="#263238"/>
        <path id="Trazado_663983" data-name="Trazado 663983" d="M174.427,304.35a1.063,1.063,0,0,1-.473.375.971.971,0,0,1-.584.147,3.527,3.527,0,0,1,.529-.258A3.253,3.253,0,0,1,174.427,304.35Z" transform="translate(-168.323 -171.182)" fill="#263238"/>
        <path id="Trazado_663984" data-name="Trazado 663984" d="M171.755,306.944a1.846,1.846,0,0,1-.615.234,3.331,3.331,0,0,1-.688.117,1.891,1.891,0,0,1-.418,0,.338.338,0,0,1-.227-.123.277.277,0,0,1,0-.277,1.18,1.18,0,0,1,1.475-.227,1.168,1.168,0,0,1,.356.32c.061.092.086.148.08.154a1.69,1.69,0,0,0-.479-.4,1.149,1.149,0,0,0-.615-.123.989.989,0,0,0-.682.338c-.068.111,0,.2.141.221a1.682,1.682,0,0,0,.393,0,4.8,4.8,0,0,0,.676-.086C171.546,307.018,171.755,306.926,171.755,306.944Z" transform="translate(-166.935 -172.012)" fill="#263238"/>
        <path id="Trazado_663985" data-name="Trazado 663985" d="M172.644,306.5a.67.67,0,0,1-.234-.387,1.026,1.026,0,0,1,0-.5.615.615,0,0,1,.369-.5.258.258,0,0,1,.295.2.744.744,0,0,1,0,.307,2.116,2.116,0,0,1-.135.467.94.94,0,0,1-.24.381,3.906,3.906,0,0,0,.16-.412,1.991,1.991,0,0,0,.1-.455c.031-.16,0-.406-.166-.369s-.246.252-.289.406a1.038,1.038,0,0,0,0,.455A2.457,2.457,0,0,0,172.644,306.5Z" transform="translate(-167.941 -171.472)" fill="#263238"/>
        <path id="Trazado_663986" data-name="Trazado 663986" d="M187.126,299.75a3.721,3.721,0,0,0-.67.3,3.116,3.116,0,0,0-1.629,2.907,3.913,3.913,0,0,0,.092.731.828.828,0,0,1-.08-.191,2.618,2.618,0,0,1-.1-.535,3.011,3.011,0,0,1,1.678-2.987,2.323,2.323,0,0,1,.51-.2.615.615,0,0,1,.2-.031Z" transform="translate(-172.7 -169.409)" fill="#263238"/>
        <path id="Trazado_663987" data-name="Trazado 663987" d="M184.54,294.14a17.449,17.449,0,0,1,.848,1.844,16.306,16.306,0,0,1,.737,1.905,16.979,16.979,0,0,1-.848-1.844A18.1,18.1,0,0,1,184.54,294.14Z" transform="translate(-172.628 -167.247)" fill="#263238"/>
        <path id="Trazado_663988" data-name="Trazado 663988" d="M180.886,305.559a6.046,6.046,0,0,1-1.291.682,5.8,5.8,0,0,1-1.4.436c0-.031.615-.24,1.346-.553S180.867,305.528,180.886,305.559Z" transform="translate(-170.184 -171.646)" fill="#263238"/>
        <path id="Trazado_663989" data-name="Trazado 663989" d="M185.444,304.359c.031,0,0,.147,0,.307v.313a.466.466,0,0,1-.1-.32C185.346,304.47,185.414,304.34,185.444,304.359Z" transform="translate(-172.936 -171.184)" fill="#263238"/>
        <path id="Trazado_663990" data-name="Trazado 663990" d="M185.915,302.529a.979.979,0,0,1-.043.264c-.043.135-.129.24-.16.227s0-.135.049-.27S185.884,302.517,185.915,302.529Z" transform="translate(-173.075 -170.479)" fill="#263238"/>
        <path id="Trazado_663991" data-name="Trazado 663991" d="M187.092,301.24c0,.037-.117.086-.234.184s-.184.215-.215.2,0-.166.135-.289S187.092,301.21,187.092,301.24Z" transform="translate(-173.434 -169.977)" fill="#263238"/>
        <path id="Trazado_663992" data-name="Trazado 663992" d="M188.239,300.494a.209.209,0,0,1-.08.154c-.08.061-.135.086-.154.061s0-.092.074-.154S188.215,300.469,188.239,300.494Z" transform="translate(-173.961 -169.692)" fill="#263238"/>
        <path id="Trazado_663993" data-name="Trazado 663993" d="M211.045,212.28l-29.07.547a9.329,9.329,0,0,0-9.09,8.192l-5.765,46.85h15.789l4.818-40.465h22.955Z" transform="translate(-165.914 -135.697)" fill="#263238"/>
        <path id="Trazado_663994" data-name="Trazado 663994" d="M167.44,297.821c0,.074,3.46.16,7.725.184s7.652-.08,7.725-.086c.492-.049-3.46-.16-7.725-.184S167.44,297.748,167.44,297.821Z" transform="translate(-166.037 -168.629)" fill="#455a64"/>
        <path id="Trazado_663995" data-name="Trazado 663995" d="M237.638,209.88h-.572l-1.647.074-6.011.283-19.8,1.02c-.971.043-1.924.123-2.864.135s-1.881.055-2.8.1-1.807.117-2.686.209a9.871,9.871,0,0,0-2.557.5,6.189,6.189,0,0,0-2.12,1.285,5.316,5.316,0,0,0-1.291,1.961,9.4,9.4,0,0,0-.522,2.114,13.414,13.414,0,0,0-.141,2,8.063,8.063,0,0,0,.676,3.368,5.476,5.476,0,0,0,1.586,2.053,4.425,4.425,0,0,0,1.444.774c.363.1.369.074,0-.049a4.647,4.647,0,0,1-1.4-.805,5.531,5.531,0,0,1-1.518-2.028,8.045,8.045,0,0,1-.615-3.313,13.934,13.934,0,0,1,.154-1.973,9.539,9.539,0,0,1,.529-2.065,5.132,5.132,0,0,1,1.229-1.844,6.029,6.029,0,0,1,2.053-1.229,10.2,10.2,0,0,1,2.5-.473c.873-.086,1.77-.148,2.68-.2s1.844-.086,2.778-.1,1.9-.092,2.87-.135l19.821-1.106,6.011-.369,1.629-.111.424-.037A.461.461,0,0,0,237.638,209.88Z" transform="translate(-176.516 -134.772)" fill="#455a64"/>
        <path id="Trazado_663996" data-name="Trazado 663996" d="M232.913,174.406l-2.526,7.916a9.139,9.139,0,0,1-7.1,6.361l-14.676,4.069-1.143-2.716-1.069-4.013,12.7-4.3a3.4,3.4,0,0,0,2.563-2.458l5.058-11,6.4,3.927Z" transform="translate(-181.053 -118.731)" fill="#b78876"/>
        <path id="Trazado_663997" data-name="Trazado 663997" d="M249.805,137.6c-5.378.615-7.111,2.815-9.3,5.992a17.982,17.982,0,0,0-2.176,4.259l-4.075,11.542,8.5,2.624-.283,9.385L238.6,182.872l32.653,2.569-.092-16.674-.234-10.061c.307-3.81,1.1-11.886.424-13.8-2.907-8.192-9.317-6.619-14.019-7.787a31.664,31.664,0,0,0-6.478,0" transform="translate(-191.786 -106.664)" fill="#4db5e1"/>
        <path id="Trazado_663998" data-name="Trazado 663998" d="M276.548,186.9c0,.086-6.386.16-14.265.16S248,187,248,186.9s6.386-.16,14.265-.16S276.548,186.826,276.548,186.9Z" transform="translate(-197.086 -125.854)" fill="#fafafa"/>
        <path id="Trazado_663999" data-name="Trazado 663999" d="M275.779,196.2c0,.092-6.386.16-14.265.16s-14.265-.068-14.265-.16,6.386-.16,14.265-.16S275.779,196.114,275.779,196.2Z" transform="translate(-196.797 -129.438)" fill="#fafafa"/>
        <path id="Trazado_664000" data-name="Trazado 664000" d="M275,206.84c0,.092-6.76.16-15.082.16s-15.088-.068-15.088-.16,6.76-.16,15.088-.16S275,206.754,275,206.84Z" transform="translate(-195.864 -133.539)" fill="#fafafa"/>
        <g id="Grupo_895340" data-name="Grupo 895340" transform="translate(51.345 56.658)" opacity="0.3">
          <path id="Trazado_664001" data-name="Trazado 664001" d="M272.528,180.622a46.549,46.549,0,0,1-1.364,6.711,16.249,16.249,0,0,1-2.182,4.443,10.989,10.989,0,0,1-5.531,3.688c-2.157.67-12.525,2.987-14.75,2.815l18.966-8.979,2.286-9.44Z" transform="translate(-248.7 -179.86)"/>
        </g>
        <path id="Trazado_664002" data-name="Trazado 664002" d="M266.7,179.454l-2.083,8.027a9.219,9.219,0,0,1-6.822,6.76l-16.741,3.921-4.6.049v-6.336l16.852-4.554a3.429,3.429,0,0,0,2.458-2.569l1.623-7.062Z" transform="translate(-192.634 -122.366)" fill="#b78876"/>
        <path id="Trazado_664003" data-name="Trazado 664003" d="M275,149.03c0,.086-7.037.16-15.721.16s-15.721-.074-15.721-.16,7.037-.16,15.721-.16S275,148.95,275,149.03Z" transform="translate(-195.374 -111.258)" fill="#fafafa"/>
        <path id="Trazado_664004" data-name="Trazado 664004" d="M273.749,157.9c0,.092-7.584.16-16.944.16s-16.944-.068-16.944-.16,7.584-.16,16.944-.16S273.749,157.8,273.749,157.9Z" transform="translate(-193.948 -114.677)" fill="#fafafa"/>
        <path id="Trazado_664005" data-name="Trazado 664005" d="M271.976,167.511c0,.092-7.99.227-17.823.3s-17.823.068-17.823,0,7.99-.221,17.823-.3S271.97,167.425,271.976,167.511Z" transform="translate(-192.588 -118.418)" fill="#fafafa"/>
        <path id="Trazado_664006" data-name="Trazado 664006" d="M276.029,177.59c0,.086-6.386.16-14.265.16s-14.265-.074-14.265-.16,6.386-.16,14.265-.16S276.029,177.5,276.029,177.59Z" transform="translate(-196.893 -122.265)" fill="#fafafa"/>
        <path id="Trazado_664007" data-name="Trazado 664007" d="M281.857,166.452a.326.326,0,0,1,0-.135l.055-.387c.055-.363.135-.86.227-1.487.2-1.3.5-3.19.824-5.531s.7-5.206.891-8.414a9.579,9.579,0,0,0-.615-4.917,5.212,5.212,0,0,0-1.727-1.954,6.146,6.146,0,0,0-2.526-.977h-.037a5.224,5.224,0,0,0-3.11.215,8.856,8.856,0,0,0-2.876,1.561,2.242,2.242,0,0,0-.442.5,6.254,6.254,0,0,0-.326.615,9.529,9.529,0,0,0-.473,1.291,25.2,25.2,0,0,0-.565,2.673c-.32,1.776-.615,3.509-.928,5.175-.615,3.331-1.149,6.4-1.641,9.127l-.092-.141,9.465,1.985,2.6.578.682.16a1.16,1.16,0,0,1,.227.068l-.24-.031-.682-.123-2.618-.51-9.489-1.918h-.111v-.123c.479-2.723,1.014-5.8,1.6-9.139.3-1.666.615-3.4.916-5.181a24.009,24.009,0,0,1,.572-2.7,8.969,8.969,0,0,1,.486-1.34q.157-.316.344-.615a2.74,2.74,0,0,1,.5-.565,9.219,9.219,0,0,1,2.993-1.629,5.531,5.531,0,0,1,3.306-.2h-.031a6.435,6.435,0,0,1,2.667,1.039,5.532,5.532,0,0,1,1.844,2.071,6.552,6.552,0,0,1,.479,1.26,7.864,7.864,0,0,1,.191,1.3l.037.615v.615c0,.418-.031.824-.055,1.229-.209,3.227-.615,6.066-.959,8.432s-.682,4.247-.916,5.531c-.117.615-.215,1.119-.283,1.481l-.08.381a.774.774,0,0,1-.08.123Z" transform="translate(-204.921 -108.694)" fill="#263238"/>
        <path id="Trazado_664008" data-name="Trazado 664008" d="M247.727,179.146a5.6,5.6,0,0,0,.043-.854v-2.335c0-1.967,0-4.683-.055-7.689s-.08-5.722-.129-7.689c-.031-.953-.055-1.733-.074-2.335a5.708,5.708,0,0,0-.061-.854,4.734,4.734,0,0,0-.043.854c0,.615,0,1.383,0,2.335,0,1.967,0,4.689.055,7.689s.086,5.728.135,7.695c0,.946.055,1.733.074,2.329A4.732,4.732,0,0,0,247.727,179.146Z" transform="translate(-196.856 -114.542)" fill="#263238"/>
        <path id="Trazado_664009" data-name="Trazado 664009" d="M237.177,201.5l.289-1.371-12.679-1.352-5.531-15.887-25.825-.178,8.463,18.425Z" transform="translate(-176.054 -124.3)" fill="#455a64"/>
        <path id="Trazado_664010" data-name="Trazado 664010" d="M219.134,197.769a1.272,1.272,0,1,0-.96.168,1.272,1.272,0,0,0,.96-.168" transform="translate(-185.207 -129.2)" fill="#fff"/>
        <path id="Trazado_664011" data-name="Trazado 664011" d="M247.183,95.344a3.429,3.429,0,0,0-1.229,6.33,1.844,1.844,0,0,0,1.727.2,2.12,2.12,0,0,0,.934-1.352,7.24,7.24,0,0,0-.412-5.279" transform="translate(-195.654 -90.589)" fill="#263238"/>
        <path id="Trazado_664012" data-name="Trazado 664012" d="M259.738,127.592h0a5.531,5.531,0,0,1-5.531-5.574c0-1.911.049-3.571.049-3.571s-4.425-.412-4.751-4.794-.184-14.5-.184-14.5h0a15.291,15.291,0,0,1,15.432.983l.676.461-.209,21.511A5.531,5.531,0,0,1,259.738,127.592Z" transform="translate(-197.583 -91.468)" fill="#b78876"/>
        <path id="Trazado_664013" data-name="Trazado 664013" d="M257.39,130.229a10.2,10.2,0,0,0,5.617-1.979s-1.155,3.239-5.531,3.116Z" transform="translate(-200.705 -103.311)" fill="#aa6550"/>
        <path id="Trazado_664014" data-name="Trazado 664014" d="M273.21,110.4c.086,0,2.778-.381,2.52,2.8s-3.38,1.844-3.38,1.776S273.21,110.4,273.21,110.4Z" transform="translate(-206.47 -96.426)" fill="#b78876"/>
        <path id="Trazado_664015" data-name="Trazado 664015" d="M274.078,114.622a1.631,1.631,0,0,0,.147.1.547.547,0,0,0,.412.037,1.364,1.364,0,0,0,.731-1.174,1.844,1.844,0,0,0-.092-.811.615.615,0,0,0-.381-.455.277.277,0,0,0-.338.123c-.049.086-.037.154-.055.16s-.061-.061,0-.191a.363.363,0,0,1,.141-.191.412.412,0,0,1,.313-.055.775.775,0,0,1,.535.541,1.8,1.8,0,0,1,.123.9,1.444,1.444,0,0,1-.916,1.309.615.615,0,0,1-.5-.123C274.078,114.7,274.065,114.628,274.078,114.622Z" transform="translate(-207.135 -97.107)" fill="#aa6550"/>
        <path id="Trazado_664016" data-name="Trazado 664016" d="M251.13,97.172a12.508,12.508,0,0,0,2.065-1.493,3.35,3.35,0,0,0,5.156.615,1.721,1.721,0,0,0,.867,1.383,1.7,1.7,0,0,0,1.629,0l.068,5.07a2.317,2.317,0,0,0,.32,1.4.805.805,0,0,0,1.229.1,3.509,3.509,0,0,1,.172-1.844,1.229,1.229,0,0,1,1.53-.682,12.6,12.6,0,0,0,.178-3,2.662,2.662,0,0,1,.123-.916c.172-.283.252-.068.578-.135a2.268,2.268,0,0,0,1.709-2.047,2.858,2.858,0,0,0-1.229-2.458,3.915,3.915,0,0,0-2.716-.651,1.727,1.727,0,0,0,0-2.311,2.821,2.821,0,0,0-2.311-.848c-.854.055-1.813.529-1.918,1.371a3.5,3.5,0,0,0-6.92-.191c-1.02-.455-2.458-.953-3.466-.492a3.349,3.349,0,0,0-2.108,2.919s-.258,3.479,1.948,4.179S251.13,97.172,251.13,97.172Z" transform="translate(-196.344 -87.672)" fill="#263238"/>
        <path id="Trazado_664017" data-name="Trazado 664017" d="M251.26,111.253a.616.616,0,1,0,.615-.553A.615.615,0,0,0,251.26,111.253Z" transform="translate(-198.342 -96.547)" fill="#263238"/>
        <path id="Trazado_664018" data-name="Trazado 664018" d="M251,110.065c.074.08.541-.264,1.229-.258s1.143.332,1.229.252-.043-.184-.252-.338a1.709,1.709,0,0,0-.977-.3,1.629,1.629,0,0,0-.959.313A.6.6,0,0,0,251,110.065Z" transform="translate(-198.242 -96.054)" fill="#263238"/>
        <path id="Trazado_664019" data-name="Trazado 664019" d="M261.8,111.5a.616.616,0,1,0,.615-.553A.615.615,0,0,0,261.8,111.5Z" transform="translate(-202.404 -96.643)" fill="#263238"/>
        <path id="Trazado_664020" data-name="Trazado 664020" d="M261.614,110.265c.074.086.541-.264,1.229-.258s1.143.332,1.229.252-.043-.184-.252-.338a1.709,1.709,0,0,0-.977-.3,1.629,1.629,0,0,0-.959.313C261.645,110.087,261.577,110.235,261.614,110.265Z" transform="translate(-202.329 -96.131)" fill="#263238"/>
        <path id="Trazado_664021" data-name="Trazado 664021" d="M256.659,115.2a4.3,4.3,0,0,0-1.069-.2c-.172,0-.332-.049-.363-.166a.848.848,0,0,1,.117-.5l.5-1.291a22.39,22.39,0,0,0,1.125-3.362,21.993,21.993,0,0,0-1.4,3.263c-.166.455-.326.885-.473,1.3a.959.959,0,0,0-.092.664.449.449,0,0,0,.277.246,1.057,1.057,0,0,0,.289.037,4.456,4.456,0,0,0,1.088.006Z" transform="translate(-199.777 -96.158)" fill="#263238"/>
        <path id="Trazado_664022" data-name="Trazado 664022" d="M259.558,119.4c-.1,0-.111.713-.725,1.229s-1.377.43-1.383.529.172.141.492.147a1.758,1.758,0,0,0,1.155-.4,1.573,1.573,0,0,0,.565-1.026C259.687,119.572,259.632,119.394,259.558,119.4Z" transform="translate(-200.728 -99.9)" fill="#263238"/>
        <path id="Trazado_664023" data-name="Trazado 664023" d="M261.338,106.147c.068.178.725.092,1.5.184s1.407.307,1.512.147-.068-.246-.32-.424a2.513,2.513,0,0,0-1.119-.387,2.458,2.458,0,0,0-1.174.135C261.455,105.919,261.314,106.061,261.338,106.147Z" transform="translate(-202.225 -94.6)" fill="#263238"/>
        <path id="Trazado_664024" data-name="Trazado 664024" d="M251.428,106.939c.117.148.572,0,1.119,0s1.008.1,1.119-.055,0-.227-.227-.369a1.629,1.629,0,0,0-1.807.055C251.441,106.718,251.373,106.866,251.428,106.939Z" transform="translate(-198.4 -94.839)" fill="#263238"/>
        <path id="Trazado_664025" data-name="Trazado 664025" d="M251.626,93.83a.478.478,0,0,1-.172-.049A.565.565,0,0,0,251,93.9a.615.615,0,0,0-.2.664,1.082,1.082,0,0,0,.658.719,1.407,1.407,0,0,0,1.18-.074,1.463,1.463,0,0,0,.713-1.137,1.635,1.635,0,0,0-.553-1.389,1.942,1.942,0,0,0-1.549-.5,2.526,2.526,0,0,0-1.506.75,2.815,2.815,0,0,0-.719,1.407,3.8,3.8,0,0,0,.449,2.673,4.431,4.431,0,0,0,1.229,1.4c.363.258.615.369.615.393a2,2,0,0,1-.651-.289,4.191,4.191,0,0,1-1.383-1.389,3.983,3.983,0,0,1-.541-2.846,3.073,3.073,0,0,1,.787-1.573,2.766,2.766,0,0,1,1.69-.842,2.256,2.256,0,0,1,1.8.578,1.93,1.93,0,0,1,.615,1.653,1.727,1.727,0,0,1-.879,1.34,1.653,1.653,0,0,1-1.4.049,1.229,1.229,0,0,1-.737-.885.756.756,0,0,1,.307-.811.615.615,0,0,1,.541-.08C251.6,93.787,251.632,93.824,251.626,93.83Z" transform="translate(-197.344 -89.283)" fill="#455a64"/>
      </g>
      <g id="freepik--Plants--inject-6" transform="translate(54.734 214.676)">
        <path id="Trazado_664026" data-name="Trazado 664026" d="M75.226,405.488c.412-1.635-.664-3.263-1.844-4.443s-2.643-2.231-3.276-3.792c-1.026-2.532.313-5.826-1.426-7.928-1.02-1.229-2.846-1.647-3.749-2.975a6.76,6.76,0,0,1-.86-2.372,24.19,24.19,0,0,0-6.084-11.2A20.945,20.945,0,0,0,60.445,383.6a13.743,13.743,0,0,1,1.813,4.105c.393,2.409-.94,4.917-.338,7.264.694,2.7,3.749,4.5,3.909,7.289.135,2.354-1.911,4.437-1.739,6.791a6.342,6.342,0,0,0,1.063,2.79c1.844,3.018,4.53,5.089,8.6,5l4.972.148Z" transform="translate(-57.966 -339.93)" fill="#4db5e1"/>
        <g id="Grupo_895341" data-name="Grupo 895341" transform="translate(0 32.85)" opacity="0.3">
          <path id="Trazado_664027" data-name="Trazado 664027" d="M75.226,405.488c.412-1.635-.664-3.263-1.844-4.443s-2.643-2.231-3.276-3.792c-1.026-2.532.313-5.826-1.426-7.928-1.02-1.229-2.846-1.647-3.749-2.975a6.76,6.76,0,0,1-.86-2.372,24.19,24.19,0,0,0-6.084-11.2A20.945,20.945,0,0,0,60.445,383.6a13.743,13.743,0,0,1,1.813,4.105c.393,2.409-.94,4.917-.338,7.264.694,2.7,3.749,4.5,3.909,7.289.135,2.354-1.911,4.437-1.739,6.791a6.342,6.342,0,0,0,1.063,2.79c1.844,3.018,4.53,5.089,8.6,5l4.972.148Z" transform="translate(-57.966 -372.78)"/>
        </g>
        <path id="Trazado_664028" data-name="Trazado 664028" d="M91.671,406.282a3.855,3.855,0,0,0,1.364-.037,8.277,8.277,0,0,0,1.616-.418,6.812,6.812,0,0,0,1.985-1.1,2.871,2.871,0,0,0,.817-1.1,5.088,5.088,0,0,0,.221-1.487,14.567,14.567,0,0,1,.111-1.6,4.358,4.358,0,0,1,.615-1.6c.578-1.032,1.549-2.016,1.844-3.411a12.036,12.036,0,0,0-.16-4.357,9.268,9.268,0,0,1,.086-4.671c.559-1.555,1.61-2.968,2.145-4.72s.264-3.687.369-5.531a7.437,7.437,0,0,1,.615-2.759c.4-.885.953-1.715,1.383-2.643a18.884,18.884,0,0,0,1.229-6.084c.111-1.045.227-2.108.338-3.177a15.981,15.981,0,0,1,.535-3.184,27.708,27.708,0,0,1,1.174-3.073,10.376,10.376,0,0,0,.565-1.61,16.478,16.478,0,0,0,.154-1.709,20.172,20.172,0,0,0-.154-3.442c-.141-1.149-.356-2.28-.486-3.429v-.43l-.2.1a7.682,7.682,0,0,0-2.661,2.274,12.077,12.077,0,0,0-1.629,3.036,37.432,37.432,0,0,0-1.512,6.521,17.559,17.559,0,0,1-2.01,6.023c-.535.885-1.192,1.7-1.764,2.563a7.037,7.037,0,0,0-1.229,2.839c-.283,2.108.885,3.946.658,5.808a6.428,6.428,0,0,1-.891,2.587c-.449.793-.977,1.536-1.475,2.28a14.537,14.537,0,0,0-1.321,2.3,7.333,7.333,0,0,0-.615,2.5c-.111,1.678.135,3.263,0,4.769a10.989,10.989,0,0,1-1.229,4.087c-.615,1.229-1.229,2.335-1.844,3.411-.277.541-.535,1.063-.744,1.592a7.681,7.681,0,0,0-.424,1.573,9.76,9.76,0,0,0,0,2.833,7.16,7.16,0,0,0,1.444,3.614,3.47,3.47,0,0,0,.406.43,2.3,2.3,0,0,0,.326.277c.184.135.289.2.289.2a6.144,6.144,0,0,1-.971-.946,7.166,7.166,0,0,1-1.371-3.583,9.778,9.778,0,0,1,.049-2.8,7.676,7.676,0,0,1,.43-1.537,16.44,16.44,0,0,1,.75-1.567c.559-1.069,1.229-2.176,1.844-3.4a11.106,11.106,0,0,0,1.229-4.167c.123-1.53-.117-3.128,0-4.763a7.166,7.166,0,0,1,.615-2.415,14.946,14.946,0,0,1,1.309-2.249c.5-.737,1.033-1.481,1.487-2.3a6.638,6.638,0,0,0,.934-2.686c.227-1.985-.928-3.841-.645-5.8a6.791,6.791,0,0,1,1.18-2.716c.559-.848,1.229-1.659,1.776-2.575a17.927,17.927,0,0,0,2.053-6.146,37.684,37.684,0,0,1,1.5-6.459,11.861,11.861,0,0,1,1.586-2.962,7.32,7.32,0,0,1,2.551-2.176l-.227-.129v.2c.129,1.162.344,2.3.486,3.429a20.239,20.239,0,0,1,.147,3.386c-.031.559-.061,1.137-.141,1.659a9.778,9.778,0,0,1-.553,1.555,28.932,28.932,0,0,0-1.18,3.116,16.077,16.077,0,0,0-.541,3.233c-.111,1.076-.221,2.133-.332,3.184a18.58,18.58,0,0,1-1.229,5.992c-.412.9-.965,1.733-1.377,2.643a7.731,7.731,0,0,0-.615,2.87c-.1,1.918.16,3.792-.35,5.494s-1.579,3.11-2.12,4.714a9.884,9.884,0,0,0-.08,4.788,11.138,11.138,0,0,1,.184,4.271,13.67,13.67,0,0,1-1.807,3.368,4.671,4.671,0,0,0-.615,1.665,13.78,13.78,0,0,0-.092,1.629,4.954,4.954,0,0,1-.209,1.45,2.637,2.637,0,0,1-.762,1.045,6.761,6.761,0,0,1-1.887,1.094,8.729,8.729,0,0,1-1.592.443,6.288,6.288,0,0,1-1.008.1Z" transform="translate(-69.943 -329.108)" fill="#263238"/>
        <path id="Trazado_664029" data-name="Trazado 664029" d="M108.687,349.49a.461.461,0,0,0-.049.147,2.047,2.047,0,0,1-.111.449c-.092.393-.209.983-.387,1.721a24.843,24.843,0,0,1-1.02,2.606,36.039,36.039,0,0,0-1.162,3.528c-.369,1.328-.7,2.8-1.039,4.382a18.351,18.351,0,0,1-1.567,4.861c-.4.811-.854,1.635-1.229,2.526a11.713,11.713,0,0,0-.7,2.858,57.16,57.16,0,0,1-1.039,6.017c-.971,4.081-1.9,7.99-2.747,11.505s-1.641,6.7-2.3,9.379-1.162,4.806-1.524,6.33c-.172.725-.307,1.3-.4,1.721-.043.184-.074.332-.1.455a.486.486,0,0,0,0,.154l.049-.148q.055-.178.129-.443l.455-1.709c.393-1.518.946-3.688,1.623-6.306l2.372-9.366c.848-3.54,1.788-7.424,2.772-11.505a56.231,56.231,0,0,0,1.033-6.041,11.389,11.389,0,0,1,.676-2.784c.344-.873.793-1.69,1.192-2.507a18.437,18.437,0,0,0,1.561-4.917c.332-1.579.615-3.073,1-4.376s.731-2.508,1.106-3.528a25.164,25.164,0,0,0,.971-2.63c.178-.787.258-1.346.338-1.745a2.507,2.507,0,0,1,.074-.455A.929.929,0,0,0,108.687,349.49Z" transform="translate(-71.588 -330.954)" fill="#263238"/>
        <path id="Trazado_664030" data-name="Trazado 664030" d="M83.238,396.516c3.239-1.948,4.136-7.811,2.76-11.327s-3.761-6.73-4.148-10.485c-.3-2.889.615-5.857-.055-8.678-.928-3.8-4.671-6.76-4.646-10.657,0-2.194,1.229-4.3,1.137-6.466-.135-2.7-2.219-4.818-3.509-7.185-1.985-3.62-2.139-7.916-2.827-11.985s-2.274-8.42-5.894-10.405c-.479,3.485-1.407,5.839-1.094,10.522.111,1.678,2.083,4.886,2.366,8.574.172,2.2.3,4.407.443,6.613a21.137,21.137,0,0,0,1.076,6.33,47.353,47.353,0,0,1,2,4.511c.836,2.987-.227,6.226.455,9.25.578,2.563,2.366,4.763,2.747,7.375.529,3.651-1.844,7.461-.615,10.94.615,1.721,2.04,3.1,2.458,4.886.32,1.389,0,2.858.283,4.247.467,2.237,4.757,3.958,7.037,3.8" transform="translate(-60.637 -319.33)" fill="#4db5e1"/>
        <path id="Trazado_664031" data-name="Trazado 664031" d="M68.267,324.91a.946.946,0,0,0,0,.2c0,.141.049.332.08.565.074.5.166,1.229.338,2.182s.682,2.022,1.082,3.313.842,2.772,1.229,4.437.7,3.509,1.039,5.488a22.918,22.918,0,0,0,1.7,6.2c.461,1.039.977,2.071,1.364,3.177a14.233,14.233,0,0,1,.707,3.5,70.136,70.136,0,0,0,1,7.559c1.02,5.113,2,9.987,2.882,14.424l2.458,11.751c.738,3.325,1.321,6.029,1.727,7.934.2.916.363,1.635.479,2.151q.086.338.129.553a.806.806,0,0,0,.055.191.682.682,0,0,0,0-.2,4.005,4.005,0,0,0-.1-.559c-.1-.516-.24-1.229-.418-2.163-.387-1.893-.928-4.6-1.6-7.934S80.909,380.34,80,375.915L77.141,361.5a72.52,72.52,0,0,1-1.051-7.553,14.5,14.5,0,0,0-.725-3.577c-.406-1.125-.928-2.163-1.389-3.19a23.059,23.059,0,0,1-1.709-6.146c-.344-1.979-.682-3.829-1.076-5.494a45.038,45.038,0,0,0-1.248-4.425c-.418-1.3-.934-2.36-1.131-3.288s-.3-1.666-.4-2.157c-.043-.234-.08-.424-.1-.565a1.149,1.149,0,0,0-.043-.191Z" transform="translate(-61.934 -321.481)" fill="#263238"/>
        <path id="Trazado_664032" data-name="Trazado 664032" d="M659.754,411.42a1.933,1.933,0,0,1-2.882.061,5.457,5.457,0,0,1-1.229-2.5,13.029,13.029,0,0,1-.75-6.324,3.515,3.515,0,0,1,.805-1.721,1.844,1.844,0,0,1,1.739-.578,2.674,2.674,0,0,1,1.524,1.592,15.144,15.144,0,0,1,1.487,6.472,5.2,5.2,0,0,1-.707,3" transform="translate(-287.967 -350.544)" fill="#4db5e1"/>
        <g id="Grupo_895342" data-name="Grupo 895342" transform="translate(366.769 49.776)" opacity="0.2">
          <path id="Trazado_664033" data-name="Trazado 664033" d="M659.754,411.42a1.933,1.933,0,0,1-2.882.061,5.457,5.457,0,0,1-1.229-2.5,13.029,13.029,0,0,1-.75-6.324,3.515,3.515,0,0,1,.805-1.721,1.844,1.844,0,0,1,1.739-.578,2.674,2.674,0,0,1,1.524,1.592,15.144,15.144,0,0,1,1.487,6.472,5.2,5.2,0,0,1-.707,3" transform="translate(-654.736 -400.32)"/>
        </g>
        <path id="Trazado_664034" data-name="Trazado 664034" d="M654.306,426.805a6.459,6.459,0,0,0-4.026-.486,3.337,3.337,0,0,0-1.991.885,1.432,1.432,0,0,0,0,1.985,1.881,1.881,0,0,0,1.229.32c1.063,0,2.249-.2,3.073.442.485.363.805.971,1.389,1.149a1.364,1.364,0,0,0,1.506-.67,2.33,2.33,0,0,0,.172-1.727A2.649,2.649,0,0,0,654.306,426.805Z" transform="translate(-285.328 -360.516)" fill="#4db5e1"/>
        <path id="Trazado_664035" data-name="Trazado 664035" d="M665.743,415.109a3.872,3.872,0,0,1-.615-3.577,6.9,6.9,0,0,1,2.12-3.073,11.45,11.45,0,0,1,3.8-2.243,4.074,4.074,0,0,1,1.708-.289,1.789,1.789,0,0,1,1.432.867,2.769,2.769,0,0,1-.4,2.458,28.947,28.947,0,0,1-2.5,3.8,6.76,6.76,0,0,1-2.741,2.348,2.487,2.487,0,0,1-2.932-.406" transform="translate(-291.898 -352.704)" fill="#4db5e1"/>
        <path id="Trazado_664036" data-name="Trazado 664036" d="M659.512,438.469a2.619,2.619,0,0,1-.068-.492c0-.35-.074-.793-.129-1.321a19.409,19.409,0,0,0-.295-1.948,15.417,15.417,0,0,0-.707-2.3,8.726,8.726,0,0,0-1.174-2.077,4.3,4.3,0,0,0-1.481-1.229,4.161,4.161,0,0,0-1.229-.393,2.456,2.456,0,0,1-.479-.068,2.153,2.153,0,0,1,.492,0,3.689,3.689,0,0,1,1.3.338,4.376,4.376,0,0,1,1.561,1.229,8.221,8.221,0,0,1,1.229,2.12,14.219,14.219,0,0,1,.7,2.335,16.253,16.253,0,0,1,.258,1.967c.043.565.061,1.02.068,1.34A1.963,1.963,0,0,1,659.512,438.469Z" transform="translate(-287.664 -361.454)" fill="#263238"/>
        <path id="Trazado_664037" data-name="Trazado 664037" d="M661.277,429.256a1.487,1.487,0,0,1,0-.221v-.645c0-.559,0-1.371-.031-2.372-.049-2-.221-4.763-.553-7.8s-.781-5.765-1.186-7.725c-.1-.492-.191-.934-.283-1.321s-.16-.719-.233-.99l-.148-.615a.867.867,0,0,1-.043-.227.933.933,0,0,1,.08.215l.19.615c.08.27.166.615.264.989s.2.824.314,1.315a75.535,75.535,0,0,1,1.229,7.738c.332,3.042.486,5.808.5,7.818,0,1,0,1.813-.037,2.372a3.283,3.283,0,0,1-.037.645A2.086,2.086,0,0,0,661.277,429.256Z" transform="translate(-289.533 -353.25)" fill="#263238"/>
        <path id="Trazado_664038" data-name="Trazado 664038" d="M662.8,424.891a4.314,4.314,0,0,1,0-.67,18.223,18.223,0,0,1,.209-1.844,23.86,23.86,0,0,1,.615-2.661,23.441,23.441,0,0,1,1.112-3.147,16.686,16.686,0,0,1,3.27-5.089,7.9,7.9,0,0,1,.768-.713c.117-.1.221-.2.326-.277l.3-.209a4.1,4.1,0,0,1,.565-.363,19.509,19.509,0,0,0-1.844,1.659,17.687,17.687,0,0,0-3.184,5.07,24.658,24.658,0,0,0-1.119,3.116,21.62,21.62,0,0,0-.615,2.63c-.129.787-.215,1.383-.264,1.813A4.625,4.625,0,0,1,662.8,424.891Z" transform="translate(-291.071 -354.244)" fill="#263238"/>
      </g>
    </g>
  </g>
</svg>
