<svg xmlns="http://www.w3.org/2000/svg" width="447.733" height="330.167" viewBox="0 0 447.733 330.167">
  <g id="Grupo_899198" data-name="Grupo 899198" transform="translate(-915 -2630)">
    <g id="Cross-platform_software-rafiki" data-name="Cross-platform software-rafiki" transform="translate(915 2575)">
      <g id="freepik--background-complete--inject-26" transform="translate(0 55)">
        <rect id="Rectángulo_299217" data-name="Rectángulo 299217" width="29.658" height="0.224" transform="translate(373.212 307.583)" fill="#ebebeb"/>
        <rect id="Rectángulo_299218" data-name="Rectángulo 299218" width="7.782" height="0.224" transform="translate(288.814 310.019)" fill="#ebebeb"/>
        <rect id="Rectángulo_299219" data-name="Rectángulo 299219" width="17.184" height="0.224" transform="translate(355.133 299.273)" fill="#ebebeb"/>
        <rect id="Rectángulo_299220" data-name="Rectángulo 299220" width="38.675" height="0.224" transform="translate(46.976 300.778)" fill="#ebebeb"/>
        <rect id="Rectángulo_299221" data-name="Rectángulo 299221" width="5.668" height="0.224" transform="translate(93.63 300.778)" fill="#ebebeb"/>
        <rect id="Rectángulo_299222" data-name="Rectángulo 299222" width="83.887" height="0.224" transform="translate(117.727 304.557)" fill="#ebebeb"/>
        <path id="Trazado_662170" data-name="Trazado 662170" d="M217.617,308.238H44.7a5.113,5.113,0,0,1-5.113-5.113V60.068A5.113,5.113,0,0,1,44.7,55H217.617a5.113,5.113,0,0,1,5.113,5.113V303.124A5.113,5.113,0,0,1,217.617,308.238ZM44.7,55.179a4.9,4.9,0,0,0-4.889,4.889V303.124a4.9,4.9,0,0,0,4.889,4.889H217.617a4.9,4.9,0,0,0,4.889-4.889V60.068a4.9,4.9,0,0,0-4.889-4.889Z" transform="translate(-4.139 -55)" fill="#ebebeb"/>
        <path id="Trazado_662171" data-name="Trazado 662171" d="M433.917,308.238H261a5.113,5.113,0,0,1-5.113-5.113V60.068A5.113,5.113,0,0,1,261,55H433.917a5.113,5.113,0,0,1,5.113,5.113V303.124A5.113,5.113,0,0,1,433.917,308.238ZM261,55.179a4.9,4.9,0,0,0-4.889,4.889V303.124A4.9,4.9,0,0,0,261,308.014H433.917a4.9,4.9,0,0,0,4.889-4.889V60.068a4.9,4.9,0,0,0-4.889-4.889Z" transform="translate(-26.749 -55)" fill="#ebebeb"/>
        <rect id="Rectángulo_299223" data-name="Rectángulo 299223" width="447.733" height="0.224" transform="translate(0 293.175)" fill="#ebebeb"/>
        <path id="Trazado_662172" data-name="Trazado 662172" d="M376.031,290.274s12.357-11.641,12.151-19.3-7.719,10.28-7.9,6.51,8.543-14.6,8.91-21.993-8.874,13.271-9.367,9.85,8.462-18.85,8.391-24.222-7.826,13.62-8.955,10.262,6.456-15.912,4.477-25.306-6.062,15.223-6.689,12.125,4.621-19.19.9-25.6-2.686,17.363-3.931,14.6-2.033-16.4-6.752-21.034,1.245,13.727-.206,14.659-8.185-12.751-10-10.155,9.573,17.291,9.68,20.8-9.187-5.865-10.02-2.06,12.939,9.8,13.647,13.432-11.462-2.874-11.408.9,11.578,5.767,12.268,10.029-11.292-3.089-10.629,1.916,8.713,4.021,9.635,8.955-8.328-.689-7.979,3.994,9.59,5.2,10.558,8.776-8.82-1.666-8.552,2.131S374.106,283.763,376.031,290.274Z" transform="translate(-37.285 -70.723)" fill="#e0e0e0"/>
        <path id="Trazado_662173" data-name="Trazado 662173" d="M376.229,308.962a146.386,146.386,0,0,0,2.6-26.148c.466-19.064-1.934-38.29-8.283-56.316-.466-1.316-2.606-.842-2.14.484,6.268,17.909,8.686,36.866,8.229,55.761a143.276,143.276,0,0,1-2.5,25.61c-.278,1.37,1.791,2.033,2.1.654Z" transform="translate(-38.504 -72.846)" fill="#f0f0f0"/>
        <path id="Trazado_662174" data-name="Trazado 662174" d="M381.584,295.388s-8.588-16.441-5.847-27.58,4.746,14.793,6.026,8.587-4.056-18.241.913-27.2.367,16.8,3.653,11.14-.564-20.094,4.021-25.592,1.46,11.874,3.645,9.134,1.648-15.518,5.122-18.447.358,12.241,2.185,9.313,6.027-16.253,11.874-17.909-3.833,8.211,0,7.3,12.6-2.919,13.333,1.1-18.447,8.4-20.64,13.333,8.767-3.842,10.746-.188-16.808,8.767-18.267,14.247,15.527-4.567,15.16,1.1-19.548,6.752-20.461,11.686,15.715-5.48,15.16-.546-17.166,8.767-18.259,14.059,12.232-4.925,12.6-.725S381.584,295.388,381.584,295.388Z" transform="translate(-39.221 -71.898)" fill="#ebebeb"/>
        <path id="Trazado_662175" data-name="Trazado 662175" d="M363.872,294.89s8.31-14.82,5.829-22.055-4.289,12.205-5.624,8.623,3.788-16.477,1.925-23.64-4.477,15.312-6.009,12.142,2.445-20.506.77-25.61-3.4,15.339-5.489,12.465,1.406-17.112-3.26-25.5-1.227,16.369-2.758,13.575-1.325-19.7-6.788-24.7,2.686,17.363.618,15.1-6.85-15.035-12.742-18.053,5.292,12.734,4.191,14.05-11.641-9.716-12.581-6.7,14.327,13.638,15.456,16.96-10.522-2.857-10.181,1.03,15.286,5.48,17.014,8.74-11.793.69-10.62,4.253,12.769,2.042,14.7,5.9-11.695.43-9.573,5.006,9.519,1.236,11.874,5.668-8.149,1.791-6.412,6.2,10.7,2.1,12.689,5.221-8.955,1.039-7.522,4.585S360.093,289.284,363.872,294.89Z" transform="translate(-33.651 -71.919)" fill="#ebebeb"/>
        <path id="Trazado_662176" data-name="Trazado 662176" d="M369.458,312.957a147.346,147.346,0,0,0-5.373-25.727c-5.265-18.33-13.3-35.962-24.751-51.274-.833-1.11-2.74,0-1.889,1.11,11.346,15.169,19.315,32.577,24.527,50.746a144.246,144.246,0,0,1,5.292,25.145C367.4,314.345,369.592,314.354,369.458,312.957Z" transform="translate(-35.252 -73.868)" fill="#f0f0f0"/>
        <path id="Trazado_662177" data-name="Trazado 662177" d="M381.666,309.952a157.547,157.547,0,0,1,2.686-22.718c2.633-14.48,6.832-29.273,14.927-41.711,4.612-7.1,10.656-13.181,18.384-16.808,1.281-.6.17-2.489-1.1-1.9-13.826,6.5-22.109,20.336-27.365,34.108-4.88,12.823-7.585,26.479-9.017,40.1-.313,2.964-.591,5.946-.69,8.955-.045,1.415,2.14,1.406,2.194,0Z" transform="translate(-39.67 -72.949)" fill="#f5f5f5"/>
        <path id="Trazado_662178" data-name="Trazado 662178" d="M396.613,314.92H351.32l5.113,48.454v11.686H391.5V363.374Z" transform="translate(-36.725 -82.171)" fill="#ebebeb"/>
        <path id="Trazado_662179" data-name="Trazado 662179" d="M91.047,100.418a1.137,1.137,0,1,1,1.349.859,1.146,1.146,0,0,1-1.349-.859Zm.9,2.839,1.7-.376,2.06,9.393-1.7.376Z" transform="translate(-9.515 -59.602)" fill="#e0e0e0"/>
        <path id="Trazado_662180" data-name="Trazado 662180" d="M62.507,113.711a6.752,6.752,0,1,1,7.986,4.911,6.752,6.752,0,0,1-7.986-4.911ZM73.915,111.2a4.934,4.934,0,1,0-3.752,5.821,4.764,4.764,0,0,0,3.752-5.821Z" transform="translate(-6.523 -60.305)" fill="#e0e0e0"/>
        <path id="Trazado_662181" data-name="Trazado 662181" d="M80.016,114.908l.349-1.522a6.591,6.591,0,0,0,4.415.537c2.14-.475,2.874-1.5,2.686-2.588-.663-3.027-7.755.528-8.767-4.074-.421-1.916.707-3.868,3.967-4.585a7.432,7.432,0,0,1,4.227.224l-.269,1.54A6.617,6.617,0,0,0,83,104.18c-2.1.466-2.821,1.549-2.579,2.633.663,3.027,7.764-.519,8.758,4.03.421,1.9-.743,3.868-4.021,4.585A7.549,7.549,0,0,1,80.016,114.908Z" transform="translate(-8.218 -59.962)" fill="#e0e0e0"/>
        <path id="Trazado_662182" data-name="Trazado 662182" d="M197.19,109.739c-.242-.457-.5-.9-.788-1.343a18.044,18.044,0,0,0-22.494-6.7c-.466.206-.9.439-1.388.689a17.972,17.972,0,0,0-8.65,10.969l34.762,9.635A17.99,17.99,0,0,0,197.19,109.739Zm-21.867,1.4-2.794-.779.77-2.794,2.794.779Zm17.211,4.764-2.794-.77.77-2.794,2.794.77Z" transform="translate(-17.13 -59.718)" fill="#e0e0e0"/>
        <path id="Trazado_662183" data-name="Trazado 662183" d="M198.2,113.947l-1.057-1.3,10.405-6.349Z" transform="translate(-20.608 -60.363)" fill="#e0e0e0"/>
        <path id="Trazado_662184" data-name="Trazado 662184" d="M172.783,106.563l1.567-.555L168.7,95.2Z" transform="translate(-17.635 -59.202)" fill="#e0e0e0"/>
        <rect id="Rectángulo_299224" data-name="Rectángulo 299224" width="18.518" height="10.352" transform="translate(97.776 14.721)" fill="#e0e0e0"/>
        <rect id="Rectángulo_299225" data-name="Rectángulo 299225" width="18.518" height="10.352" transform="translate(118.004 14.721)" fill="#e0e0e0"/>
        <rect id="Rectángulo_299226" data-name="Rectángulo 299226" width="18.518" height="10.352" transform="translate(97.776 26.667)" fill="#e0e0e0"/>
        <rect id="Rectángulo_299227" data-name="Rectángulo 299227" width="18.518" height="10.352" transform="translate(118.004 26.667)" fill="#e0e0e0"/>
        <rect id="Rectángulo_299228" data-name="Rectángulo 299228" width="28.888" height="28.888" rx="8.58" transform="translate(364.508 9.411) rotate(25.28)" fill="#e0e0e0"/>
        <path id="Trazado_662185" data-name="Trazado 662185" d="M421.142,84.2,415.68,95.84a.287.287,0,0,1-.394.143L404.54,90.942a.3.3,0,0,1-.143-.4l7.092-15.089a.3.3,0,0,1,.394-.143l7.235,3.394Z" transform="translate(-42.27 -57.12)" fill="#f5f5f5"/>
        <path id="Trazado_662186" data-name="Trazado 662186" d="M420.671,79.06,419,82.588a.3.3,0,0,0,.143.4l3.492,1.639Z" transform="translate(-43.797 -57.515)" fill="#fff"/>
        <rect id="Rectángulo_299229" data-name="Rectángulo 299229" width="0.627" height="10.11" rx="0.3" transform="matrix(0.423, -0.906, 0.906, 0.423, 367.45, 24.977)" fill="#e0e0e0"/>
        <rect id="Rectángulo_299230" data-name="Rectángulo 299230" width="0.627" height="10.11" rx="0.3" transform="matrix(0.423, -0.906, 0.906, 0.423, 366.358, 27.309)" fill="#e0e0e0"/>
        <rect id="Rectángulo_299231" data-name="Rectángulo 299231" width="0.627" height="10.11" rx="0.3" transform="matrix(0.423, -0.906, 0.906, 0.423, 365.257, 29.633)" fill="#e0e0e0"/>
        <path id="Trazado_662187" data-name="Trazado 662187" d="M411.385,92.1l-4.2-1.934a.269.269,0,0,0-.358.134v.081a.269.269,0,0,0,.134.358l4.164,1.961a.269.269,0,0,0,.358-.134v-.081a.269.269,0,0,0-.1-.385Z" transform="translate(-42.525 -58.674)" fill="#e0e0e0"/>
        <rect id="Rectángulo_299232" data-name="Rectángulo 299232" width="28.843" height="28.843" rx="8.57" transform="matrix(0.972, -0.233, 0.233, 0.972, 210.577, 37.705)" fill="#e0e0e0"/>
        <path id="Trazado_662188" data-name="Trazado 662188" d="M255.245,102.959l.94,3.949a3.054,3.054,0,0,1-2.248,3.671l-3.779.9-3.268,5.373-1.039-4.307a3.054,3.054,0,0,1-3.671-2.257l-.94-3.949a3.045,3.045,0,0,1,2.248-3.671l8.059-1.934a3.045,3.045,0,0,1,3.7,2.23Z" transform="translate(-25.209 -59.771)" fill="#fff"/>
        <path id="Trazado_662189" data-name="Trazado 662189" d="M246.712,117.673l-1.155-4.8a3.412,3.412,0,0,1-3.752-2.579l-.9-3.949a3.4,3.4,0,0,1,2.507-4.092l8.059-1.934a3.394,3.394,0,0,1,4.092,2.507l.949,3.949a3.394,3.394,0,0,1-2.507,4.092l-3.636.9Zm-3.179-14.739a2.686,2.686,0,0,0-1.988,3.251l.94,3.949a2.686,2.686,0,0,0,3.251,2l.34-.081.9,3.824,2.91-4.746,3.9-.9a2.686,2.686,0,0,0,2-3.251l-.94-3.949a2.686,2.686,0,0,0-3.251-2Z" transform="translate(-25.174 -59.728)" fill="#fafafa"/>
        <path id="Trazado_662190" data-name="Trazado 662190" d="M265.831,107.607l.725,3.036a2.337,2.337,0,0,1-1.728,2.821l.788,3.313-4.11-2.516-2.928.672a2.346,2.346,0,0,1-2.83-1.728l-.725-3.036a2.346,2.346,0,0,1,1.728-2.83l6.215-1.486a2.346,2.346,0,0,1,2.865,1.755Z" transform="translate(-26.652 -60.308)" fill="#fff"/>
        <path id="Trazado_662191" data-name="Trazado 662191" d="M266.116,117.481l-4.7-2.892-2.758.663a2.686,2.686,0,0,1-3.251-1.988l-.725-3.036a2.686,2.686,0,0,1,1.988-3.251l6.215-1.486a2.686,2.686,0,0,1,3.251,2l.725,3.036a2.686,2.686,0,0,1-1.657,3.143Zm-9.277-9.85a2,2,0,0,0-1.477,2.409l.725,3.036a2,2,0,0,0,2.409,1.469l3.036-.725,3.51,2.158-.672-2.839.331-.081a1.988,1.988,0,0,0,1.478-2.4l-.725-3.036a1.988,1.988,0,0,0-2.4-1.478Z" transform="translate(-26.615 -60.27)" fill="#fafafa"/>
        <path id="Trazado_662192" data-name="Trazado 662192" d="M252.547,104.259l-7.307,1.791a.35.35,0,0,1-.161-.681l7.307-1.791a.35.35,0,0,1,.161.681Z" transform="translate(-25.591 -60.077)" fill="#e0e0e0"/>
        <path id="Trazado_662193" data-name="Trazado 662193" d="M253.006,106.169l-7.316,1.791a.35.35,0,1,1-.161-.681l7.316-1.791a.35.35,0,1,1,.161.681Z" transform="translate(-25.638 -60.277)" fill="#e0e0e0"/>
        <path id="Trazado_662194" data-name="Trazado 662194" d="M251.433,108.611l-5.283,1.272a.35.35,0,1,1-.161-.681l5.274-1.263a.349.349,0,0,1,.17.672Z" transform="translate(-25.686 -60.534)" fill="#e0e0e0"/>
        <rect id="Rectángulo_299233" data-name="Rectángulo 299233" width="28.888" height="28.888" rx="8.58" transform="matrix(0.968, 0.25, -0.25, 0.968, 370.087, 62.229)" fill="#e0e0e0"/>
        <path id="Trazado_662195" data-name="Trazado 662195" d="M433.621,147.714c-.081.3-.376,1.352-.492,1.63l-21.339-5.516c0-.152.26-1.075.3-1.227a4.97,4.97,0,0,1,5.579-3.662c0-.054,0-.116,0-.179a5.812,5.812,0,0,1,11.435,1.146,6.045,6.045,0,0,1,.976.358,6.447,6.447,0,0,1,3.546,7.45Z" transform="translate(-43.046 -63.299)" fill="#fafafa"/>
      </g>
      <g id="freepik--Shadow--inject-26" transform="translate(50.245 364.894)">
        <ellipse id="freepik--path--inject-26" cx="173.622" cy="10.137" rx="173.622" ry="10.137" fill="rgba(0,0,0,0.06)"/>
      </g>
      <g id="freepik--Arrow--inject-26" transform="translate(264.673 82.912)">
        <path id="Trazado_662196" data-name="Trazado 662196" d="M391.036,131.087,373.52,149.775,356,131.087h7.871V116.249c0-6.716-4.862-12.169-10.844-12.169H324.323c-5.982,0-10.844,5.453-10.844,12.169v17.068H295.57V116.249c0-16.584,12.9-30.079,28.753-30.079h28.709c15.859,0,28.753,13.495,28.753,30.079v14.838Z" transform="translate(-295.57 -86.17)" fill="#263238"/>
      </g>
      <g id="freepik--Plant--inject-26" transform="translate(233.26 325.783)">
        <path id="Trazado_662197" data-name="Trazado 662197" d="M289.931,375.8,287,376.07c-.43.045-.43-.636,0-.672l2.928-.269C290.369,375.085,290.36,375.766,289.931,375.8Z" transform="translate(-263.228 -359.247)"/>
        <path id="Trazado_662198" data-name="Trazado 662198" d="M290.444,386.532l1.728,1.3c.349.26,0,.851-.34.591l-1.728-1.307c-.34-.251,0-.842.34-.582Z" transform="translate(-263.571 -360.433)"/>
        <path id="Trazado_662199" data-name="Trazado 662199" d="M295.271,382.439l2.866.591c.43.081.251.734-.179.645l-2.866-.582C294.671,383,294.85,382.349,295.271,382.439Z" transform="translate(-264.082 -360.011)"/>
        <path id="Trazado_662200" data-name="Trazado 662200" d="M292.372,378.576l-1.379-2.113c-.242-.358.34-.7.582-.34L293,378.236c.242.358-.34.7-.582.34Z" transform="translate(-263.673 -359.336)"/>
        <path id="Trazado_662201" data-name="Trazado 662201" d="M287.091,382.149l2.3.519c.43.1.242.743-.179.654l-2.3-.519C286.491,382.7,286.67,382.059,287.091,382.149Z" transform="translate(-263.227 -359.98)"/>
        <path id="Trazado_662202" data-name="Trazado 662202" d="M264.748,385.23l-2.866.322c-.43.054-.421-.627,0-.672l2.866-.331C265.178,384.5,265.178,385.177,264.748,385.23Z" transform="translate(-260.602 -360.232)"/>
        <path id="Trazado_662203" data-name="Trazado 662203" d="M288.689,366.817l-2.149.994c-.394.188-.734-.394-.34-.582l2.149-1C288.743,366.047,289.083,366.629,288.689,366.817Z" transform="translate(-263.159 -358.313)"/>
        <path id="Trazado_662204" data-name="Trazado 662204" d="M282.535,358.812l-1.083,2.812c-.152.4-.806.224-.654-.179.367-.94.725-1.88,1.083-2.821.152-.4.806-.224.654.179Z" transform="translate(-262.61 -357.498)"/>
        <path id="Trazado_662205" data-name="Trazado 662205" d="M264.457,381.822h-2.57a.34.34,0,0,1,0-.672h2.57a.34.34,0,0,1,0,.672Z" transform="translate(-260.606 -359.877)"/>
        <path id="Trazado_662206" data-name="Trazado 662206" d="M264.411,374.308l-2.14-.475c-.43-.09-.251-.743.179-.645l2.14.466C265.02,373.744,264.832,374.4,264.411,374.308Z" transform="translate(-260.65 -359.044)"/>
        <path id="Trazado_662207" data-name="Trazado 662207" d="M273.922,360.39l-.663-2.257a.34.34,0,0,1,.654-.179l.663,2.257a.34.34,0,0,1-.654.179Z" transform="translate(-261.824 -357.429)"/>
        <path id="Trazado_662208" data-name="Trazado 662208" d="M284.652,389.619s15.474-6.465,10.8-11.981c-4.477-5.256-6.412,6.931-10.8,8.507S284.652,389.619,284.652,389.619Z" transform="translate(-262.812 -359.373)" fill="#0b5999"/>
        <path id="Trazado_662209" data-name="Trazado 662209" d="M284.652,389.619s15.474-6.465,10.8-11.981c-4.477-5.256-6.412,6.931-10.8,8.507S284.652,389.619,284.652,389.619Z" transform="translate(-262.812 -359.373)" fill="#fff" opacity="0.1"/>
        <path id="Trazado_662210" data-name="Trazado 662210" d="M283.244,391.239s10.522-32.031-8.265-31.529-8.516,33.464-8.516,33.464Z" transform="translate(-260.821 -357.635)" fill="#0b5999"/>
        <path id="Trazado_662211" data-name="Trazado 662211" d="M283.244,391.239s10.522-32.031-8.265-31.529-8.516,33.464-8.516,33.464Z" transform="translate(-260.821 -357.635)" fill="#fff" opacity="0.3"/>
        <path id="Trazado_662212" data-name="Trazado 662212" d="M266.464,394.824s-3.17-10.19-2.758-19.324c.734,14.829,13.638,14.032,13.638,14.032l.9,3.931Z" transform="translate(-260.822 -359.286)" opacity="0.2"/>
        <path id="Trazado_662213" data-name="Trazado 662213" d="M292.181,389.84l-2.409,19.485a5.525,5.525,0,0,1-5.489,4.853H268.4a5.525,5.525,0,0,1-5.5-4.853L260.49,389.84Z" transform="translate(-260.49 -360.785)" fill="#263238"/>
        <path id="Trazado_662214" data-name="Trazado 662214" d="M292.181,389.84l-2.409,19.485a5.525,5.525,0,0,1-5.489,4.853H268.4a5.525,5.525,0,0,1-5.5-4.853L260.49,389.84Z" transform="translate(-260.49 -360.785)" fill="#263238"/>
        <path id="Trazado_662215" data-name="Trazado 662215" d="M292.181,389.84l-2.409,19.485a5.525,5.525,0,0,1-5.489,4.853H268.4a5.525,5.525,0,0,1-5.5-4.853L260.49,389.84Z" transform="translate(-260.49 -360.785)" fill="#fff" opacity="0.2"/>
        <g id="Grupo_895307" data-name="Grupo 895307" transform="translate(10.972 4.405)" opacity="0.2">
          <path id="Trazado_662216" data-name="Trazado 662216" d="M282.277,386.371c1.254-7.907,1.048-21.563-9.125-22.969-.716-.1-.412-1.182.3-1.083,10.9,1.5,11.256,15.9,9.913,24.357-.116.716-1.2.412-1.083-.3Z" transform="translate(-272.743 -362.313)" fill="#fff"/>
        </g>
        <g id="Grupo_895308" data-name="Grupo 895308" transform="translate(11.28 8.205)" opacity="0.5">
          <path id="Trazado_662217" data-name="Trazado 662217" d="M278.283,386.117c.555-6.394-.725-13.656-5.05-18.581-.475-.537.313-1.343.8-.8,4.477,5.14,5.964,12.68,5.373,19.378-.063.716-1.191.725-1.128,0Z" transform="translate(-273.086 -366.557)" fill="#fff"/>
        </g>
        <g id="Grupo_895309" data-name="Grupo 895309" transform="translate(8.92 11.094)" opacity="0.2">
          <path id="Trazado_662218" data-name="Trazado 662218" d="M273.522,386.606c-1.316-5.319-2.248-10.746-3.062-16.118-.107-.707.976-1.012,1.083-.3.824,5.373,1.791,10.835,3.063,16.118a.563.563,0,0,1-1.084.3Z" transform="translate(-270.452 -369.783)" fill="#fff"/>
        </g>
        <g id="Grupo_895310" data-name="Grupo 895310" transform="translate(4.765 12.043)" opacity="0.5">
          <path id="Trazado_662219" data-name="Trazado 662219" d="M268.022,386.717a37.833,37.833,0,0,1-2.122-15.33c0-.725,1.173-.725,1.128,0a36.822,36.822,0,0,0,2.086,15.026C269.365,387.1,268.273,387.388,268.022,386.717Z" transform="translate(-265.811 -370.842)" fill="#fff"/>
        </g>
        <g id="Grupo_895311" data-name="Grupo 895311" transform="translate(24.794 19.838)" opacity="0.3">
          <path id="Trazado_662220" data-name="Trazado 662220" d="M288.457,386.221c2.337-1.343,5.435-3.456,6.071-6.268.161-.707,1.254-.412,1.084.3-.7,3.08-3.994,5.418-6.582,6.913a.566.566,0,1,1-.573-.976Z" transform="translate(-288.178 -379.547)" fill="#fff"/>
        </g>
        <g id="Grupo_895312" data-name="Grupo 895312" transform="translate(26.528 19.518)" opacity="0.2">
          <path id="Trazado_662221" data-name="Trazado 662221" d="M293.818,380q-1.307,1.845-2.624,3.662c-.421.582-1.4,0-.976-.564l2.633-3.662C293.272,378.85,294.248,379.432,293.818,380Z" transform="translate(-290.115 -379.19)" fill="#fff"/>
        </g>
        <path id="Trazado_662222" data-name="Trazado 662222" d="M268.568,362.342s2.364-.994,2.445-1.737c.107-1.084-1.872-3.34-2.946-3.206-.9.116-1.692,3.206-1.692,3.206s-.788-3.1-1.692-3.206c-1.191-.134-3.3,2.445-3.134,3.636.1.689,2.355,1.513,2.355,1.513s-2.463,0-2.785.672c-.457.9.627,3.582,1.63,3.734.779.152,2.248-2.23,2.248-2.23s-1.343,2.212-.9,2.839,2.794.9,3.376.3-.475-3.134-.475-3.134,1.28,2.248,2.042,2.23c1.021,0,2.839-2.1,2.633-3.107C271.46,363.014,268.568,362.342,268.568,362.342Z" transform="translate(-260.544 -357.394)" fill="#0b5999"/>
        <path id="Trazado_662223" data-name="Trazado 662223" d="M289.3,379.9l-2.3-.17c-.43,0-.43-.716,0-.681l2.3.179C289.734,379.229,289.742,379.936,289.3,379.9Z" transform="translate(-263.228 -359.657)"/>
        <path id="Trazado_662224" data-name="Trazado 662224" d="M289.693,371.124l-2.2.5c-.421.1-.609-.555-.179-.645l2.2-.5C289.944,370.38,290.123,371.034,289.693,371.124Z" transform="translate(-263.268 -358.76)"/>
        <path id="Trazado_662225" data-name="Trazado 662225" d="M286.394,362.111l-1.88,2.015c-.3.322-.77-.161-.475-.475l1.88-2.024C286.215,361.305,286.69,361.789,286.394,362.111Z" transform="translate(-262.942 -357.825)"/>
        <path id="Trazado_662226" data-name="Trazado 662226" d="M265.516,388.452l-3.062.743a.34.34,0,0,1-.179-.654l3.063-.743C265.758,387.7,265.937,388.354,265.516,388.452Z" transform="translate(-260.653 -360.571)"/>
        <path id="Trazado_662227" data-name="Trazado 662227" d="M264.006,378.008l-2.212-.555a.34.34,0,0,1,.179-.654l2.212.555a.34.34,0,0,1-.179.654Z" transform="translate(-260.603 -359.422)"/>
        <path id="Trazado_662228" data-name="Trazado 662228" d="M264.411,371.35l-2.14-.448c-.43-.09-.251-.743.179-.654l2.14.457C265.02,370.8,264.841,371.44,264.411,371.35Z" transform="translate(-260.65 -358.737)"/>
        <path id="Trazado_662229" data-name="Trazado 662229" d="M277.43,360.324V358.3a.34.34,0,0,1,.681,0v2.024a.34.34,0,1,1-.681,0Z" transform="translate(-262.261 -357.453)"/>
        <path id="Trazado_662230" data-name="Trazado 662230" d="M286.723,385.349l1.916.519a.335.335,0,1,1-.179.645l-1.916-.51a.34.34,0,0,1,.179-.654Z" transform="translate(-263.19 -360.315)"/>
        <path id="Trazado_662231" data-name="Trazado 662231" d="M286.2,388l1.952.466c.421.1.242.752-.179.654l-1.952-.475C285.6,388.545,285.78,387.891,286.2,388Z" transform="translate(-263.134 -360.592)"/>
        <path id="Trazado_662232" data-name="Trazado 662232" d="M293,384.787l2.346,1.289c.385.206.045.788-.34.582l-2.346-1.289a.34.34,0,0,1,.34-.582Z" transform="translate(-263.839 -360.254)"/>
        <path id="Trazado_662233" data-name="Trazado 662233" d="M295.9,379.425l2.489-1.37c.385-.206.725.376.34.591l-2.489,1.361a.34.34,0,0,1-.34-.582Z" transform="translate(-264.178 -359.549)"/>
        <path id="Trazado_662234" data-name="Trazado 662234" d="M294.489,377.014l.564-2.8c.09-.43.734-.251.654.179l-.564,2.812c-.09.421-.734.242-.654-.188Z" transform="translate(-264.043 -359.126)"/>
        <path id="Trazado_662235" data-name="Trazado 662235" d="M290.842,380.2l-1.254-1.307c-.3-.322.17-.8.475-.484l1.254,1.316C291.621,380.038,291.147,380.521,290.842,380.2Z" transform="translate(-263.522 -359.58)"/>
      </g>
      <g id="freepik--device-1--inject-26" transform="translate(43.385 129.53)">
        <path id="Trazado_662236" data-name="Trazado 662236" d="M133.42,403.5v2.767a2.606,2.606,0,0,0,2.606,2.606h99.4a2.4,2.4,0,0,0,2.391-2.4v-2.686a2.391,2.391,0,0,0-2.391-2.391H210.708a4.522,4.522,0,0,1-4.477-5.3L214.9,345.95H158.457l-24.178,53.5A9.733,9.733,0,0,0,133.42,403.5Z" transform="translate(-57.332 -159.944)" fill="#263238"/>
        <path id="Trazado_662237" data-name="Trazado 662237" d="M237.813,403.818V406.5a2.382,2.382,0,0,1-2.391,2.391h-99.4a2.615,2.615,0,0,1-2.606-2.6v-2.776a9.968,9.968,0,0,1,.242-2.185,10.744,10.744,0,0,1,.609-1.791l24.178-53.486h56.468l-8.668,50.092a3.653,3.653,0,0,0-.063.9,4.477,4.477,0,0,0,3.582,4.325,3.957,3.957,0,0,0,.9.1h24.724a2.391,2.391,0,0,1,2.427,2.346Z" transform="translate(-57.332 -159.955)" fill="#fff" opacity="0.2"/>
        <path id="Trazado_662238" data-name="Trazado 662238" d="M130.705,399.515l24.178-53.5h3.2l-24.178,53.5a9.733,9.733,0,0,0-.9,3.994v2.767a2.606,2.606,0,0,0,2.606,2.606h-3.2a2.606,2.606,0,0,1-2.606-2.606v-2.767a9.734,9.734,0,0,1,.9-3.994Z" transform="translate(-56.955 -159.951)" fill="#263238"/>
        <path id="Trazado_662239" data-name="Trazado 662239" d="M160.706,346.02h56.459l-2.212,12.787H154.93Z" transform="translate(-59.581 -159.951)" opacity="0.2"/>
        <path id="Trazado_662240" data-name="Trazado 662240" d="M152.6,410.285v2.543a2.516,2.516,0,0,0,2.507,2.507h82.329a2.391,2.391,0,0,0,2.391-2.4v-2.686a2.391,2.391,0,0,0-2.391-2.391H212.713a4.565,4.565,0,0,1-.9-.1h-56.71a2.507,2.507,0,0,0-2.507,2.525Z" transform="translate(-59.337 -166.405)" fill="#fff" opacity="0.3"/>
        <path id="Trazado_662241" data-name="Trazado 662241" d="M133.7,407.275h76.115a4.477,4.477,0,0,1-3.582-4.325h-70.59Z" transform="translate(-57.362 -165.902)" opacity="0.1"/>
        <path id="Trazado_662242" data-name="Trazado 662242" d="M63.211,329.922h240.88a8.811,8.811,0,0,0,8.8-8.811V147.032a8.8,8.8,0,0,0-8.8-8.8H63.211a8.8,8.8,0,0,0-8.811,8.8V321.111A8.811,8.811,0,0,0,63.211,329.922Z" transform="translate(-49.072 -138.23)" fill="#0b5999"/>
        <path id="Trazado_662243" data-name="Trazado 662243" d="M312.914,321.44v18.8a8.811,8.811,0,0,1-8.8,8.811H63.231a8.811,8.811,0,0,1-8.811-8.811v-18.8Z" transform="translate(-49.074 -157.382)" fill="#0b5999"/>
        <path id="Trazado_662244" data-name="Trazado 662244" d="M312.914,321.44v18.8a8.811,8.811,0,0,1-8.8,8.811H63.231a8.811,8.811,0,0,1-8.811-8.811v-18.8Z" transform="translate(-49.074 -157.382)" fill="#fff" opacity="0.6"/>
        <path id="Trazado_662245" data-name="Trazado 662245" d="M63.853,297.59H304.437a4.773,4.773,0,0,0,4.773-4.773V148.943a4.764,4.764,0,0,0-4.773-4.773H63.853a4.773,4.773,0,0,0-4.773,4.773V292.817a4.773,4.773,0,0,0,4.773,4.773Z" transform="translate(-49.561 -138.851)" fill="#0b5999"/>
        <path id="Trazado_662246" data-name="Trazado 662246" d="M63.853,297.59H304.437a4.773,4.773,0,0,0,4.773-4.773V148.943a4.764,4.764,0,0,0-4.773-4.773H63.853a4.773,4.773,0,0,0-4.773,4.773V292.817a4.773,4.773,0,0,0,4.773,4.773Z" transform="translate(-49.561 -138.851)" fill="#fff" opacity="0.8"/>
        <rect id="Rectángulo_299234" data-name="Rectángulo 299234" width="44.155" height="30.401" transform="translate(27.473 13.101)" opacity="0.2"/>
        <rect id="Rectángulo_299235" data-name="Rectángulo 299235" width="44.155" height="2.785" transform="translate(27.473 13.101)" fill="#0b5999"/>
        <path id="Trazado_662247" data-name="Trazado 662247" d="M87.728,170.909l7.226,4a2.248,2.248,0,0,1,.716.537.967.967,0,0,1,.179.609,1.128,1.128,0,0,1-.331.815,1.092,1.092,0,0,1-.788.34,2.113,2.113,0,0,1-.9-.322l-9.313-5.185a.9.9,0,0,1,0-1.6l9.331-5.14a2.212,2.212,0,0,1,.9-.313,1.093,1.093,0,0,1,.8.331,1.11,1.11,0,0,1,.331.806.949.949,0,0,1-.179.609,2.382,2.382,0,0,1-.716.546Z" transform="translate(-52.169 -140.992)" fill="#fff"/>
        <path id="Trazado_662248" data-name="Trazado 662248" d="M107.806,163.082l-7.164,15.393a2.1,2.1,0,0,1-.493.752,1.039,1.039,0,0,1-.681.224,1.092,1.092,0,0,1-.788-.322,1,1,0,0,1-.331-.743,2.463,2.463,0,0,1,.26-.9l7.164-15.384a2.274,2.274,0,0,1,.484-.743,1.11,1.11,0,0,1,1.46.09.985.985,0,0,1,.331.734A2.364,2.364,0,0,1,107.806,163.082Z" transform="translate(-53.666 -140.624)" fill="#fff"/>
        <path id="Trazado_662249" data-name="Trazado 662249" d="M117.992,170.905l-7.217-4a2.328,2.328,0,0,1-.725-.546,1,1,0,0,1-.179-.609A1.128,1.128,0,0,1,111,164.61a2.167,2.167,0,0,1,.9.313l9.313,5.176a.9.9,0,0,1,0,1.6l-9.313,5.185a2.087,2.087,0,0,1-.9.322,1.075,1.075,0,0,1-.8-.349,1.128,1.128,0,0,1-.331-.806,1.021,1.021,0,0,1,.179-.609,2.2,2.2,0,0,1,.725-.537Z" transform="translate(-54.87 -140.988)" fill="#fff"/>
        <path id="Trazado_662250" data-name="Trazado 662250" d="M57.261,138.23h5.328a8.8,8.8,0,0,0-8.811,8.8V321.111a8.811,8.811,0,0,0,8.811,8.811H57.261a8.82,8.82,0,0,1-8.811-8.811V147.032a8.811,8.811,0,0,1,8.811-8.8Z" transform="translate(-48.45 -138.23)" fill="#0b5999"/>
        <path id="Trazado_662251" data-name="Trazado 662251" d="M57.261,138.23h5.328a8.8,8.8,0,0,0-8.811,8.8V321.111a8.811,8.811,0,0,0,8.811,8.811H57.261a8.82,8.82,0,0,1-8.811-8.811V147.032a8.811,8.811,0,0,1,8.811-8.8Z" transform="translate(-48.45 -138.23)" fill="#263238"/>
        <g id="Grupo_895313" data-name="Grupo 895313" transform="translate(106.757 13.298)" opacity="0.2">
          <path id="Trazado_662252" data-name="Trazado 662252" d="M172.8,163.333h0a5.122,5.122,0,0,1-5.131-5.131h0a5.122,5.122,0,0,1,5.131-5.122h0a5.122,5.122,0,0,1,5.122,5.122h0a5.122,5.122,0,0,1-5.122,5.131Z" transform="translate(-167.67 -153.08)"/>
          <path id="Trazado_662253" data-name="Trazado 662253" d="M172.8,192.973h0a5.122,5.122,0,0,1-5.131-5.131h0a5.122,5.122,0,0,1,5.131-5.122h0a5.122,5.122,0,0,1,5.122,5.122h0a5.122,5.122,0,0,1-5.122,5.131Z" transform="translate(-167.67 -156.178)"/>
          <path id="Trazado_662254" data-name="Trazado 662254" d="M172.8,222.613h0a5.122,5.122,0,0,1-5.131-5.131h0a5.122,5.122,0,0,1,5.131-5.122h0a5.122,5.122,0,0,1,5.122,5.122h0a5.122,5.122,0,0,1-5.122,5.131Z" transform="translate(-167.67 -159.277)"/>
          <path id="Trazado_662255" data-name="Trazado 662255" d="M172.8,250.544h0a5.122,5.122,0,0,1-5.131-5.122h0A5.122,5.122,0,0,1,172.8,240.3h0a5.122,5.122,0,0,1,5.122,5.122h0a5.122,5.122,0,0,1-5.122,5.122Z" transform="translate(-167.67 -162.197)"/>
          <path id="Trazado_662256" data-name="Trazado 662256" d="M172.8,280.183h0a5.122,5.122,0,0,1-5.131-5.122h0a5.131,5.131,0,0,1,5.131-5.131h0a5.131,5.131,0,0,1,5.122,5.131h0a5.122,5.122,0,0,1-5.122,5.122Z" transform="translate(-167.67 -165.295)"/>
          <path id="Trazado_662257" data-name="Trazado 662257" d="M172.8,309.8h0a5.122,5.122,0,0,1-5.131-5.122h0a5.131,5.131,0,0,1,5.131-5.131h0a5.131,5.131,0,0,1,5.122,5.131h0A5.122,5.122,0,0,1,172.8,309.8Z" transform="translate(-167.67 -168.391)"/>
          <rect id="Rectángulo_299236" data-name="Rectángulo 299236" width="40.869" height="3.071" transform="translate(19.996 0.788)"/>
          <rect id="Rectángulo_299237" data-name="Rectángulo 299237" width="14.56" height="3.071" transform="translate(29.524 27.392)"/>
          <rect id="Rectángulo_299238" data-name="Rectángulo 299238" width="14.56" height="3.071" transform="translate(92.878 57.247)"/>
          <rect id="Rectángulo_299239" data-name="Rectángulo 299239" width="14.56" height="3.071" transform="translate(29.524 80.941)"/>
          <rect id="Rectángulo_299240" data-name="Rectángulo 299240" width="14.56" height="3.071" transform="translate(50.513 80.941)"/>
          <rect id="Rectángulo_299241" data-name="Rectángulo 299241" width="37.198" height="3.071" transform="translate(50.513 57.247)"/>
          <rect id="Rectángulo_299242" data-name="Rectángulo 299242" width="24.491" height="3.071" transform="translate(72.183 80.941)"/>
          <rect id="Rectángulo_299243" data-name="Rectángulo 299243" width="14.56" height="3.071" transform="translate(72.103 137.839)"/>
          <rect id="Rectángulo_299244" data-name="Rectángulo 299244" width="14.56" height="3.071" transform="translate(93.093 137.839)"/>
          <rect id="Rectángulo_299245" data-name="Rectángulo 299245" width="8.131" height="3.071" transform="translate(114.763 137.839)"/>
          <rect id="Rectángulo_299246" data-name="Rectángulo 299246" width="45.302" height="3.071" transform="translate(51.373 27.392)"/>
          <rect id="Rectángulo_299247" data-name="Rectángulo 299247" width="14.56" height="3.071" transform="translate(50.513 108.656)"/>
          <rect id="Rectángulo_299248" data-name="Rectángulo 299248" width="8.417" height="3.071" transform="translate(69.936 108.656)"/>
          <rect id="Rectángulo_299249" data-name="Rectángulo 299249" width="23.775" height="3.071" transform="translate(84.792 108.656)"/>
        </g>
        <path id="Trazado_662258" data-name="Trazado 662258" d="M315.563,144.17h-9.25L273.7,297.59h9.259Z" transform="translate(-71.996 -138.851)" fill="#fff" opacity="0.5"/>
        <path id="Trazado_662259" data-name="Trazado 662259" d="M259.2,297.59l32.613-153.42H257.043L224.43,297.59Z" transform="translate(-66.846 -138.851)" fill="#fff" opacity="0.5"/>
      </g>
      <g id="freepik--Gears--inject-26" transform="translate(110.68 182.326)">
        <path id="Trazado_662260" data-name="Trazado 662260" d="M125.6,228.338v1.012l-2,1.11a13.629,13.629,0,0,0,.743,2.776h2.283a10.745,10.745,0,0,0,1.021,1.791l-1.173,1.961a13.513,13.513,0,0,0,2.024,2.024l1.961-1.173a10.745,10.745,0,0,0,1.791,1.021l-.045,2.283a13.629,13.629,0,0,0,2.776.743l1.11-2h2.033l1.11,2a13.547,13.547,0,0,0,2.767-.743V238.86a11.158,11.158,0,0,0,1.791-1.021l1.961,1.173a13.513,13.513,0,0,0,2.024-2.024l-1.173-1.961a10.744,10.744,0,0,0,1.021-1.791h2.283a13.631,13.631,0,0,0,.743-2.776l-2-1.11c0-.331.045-.672.045-1.012a7.722,7.722,0,0,0-.045-1.021l2-1.11a13.55,13.55,0,0,0-.743-2.767h-2.283a11.158,11.158,0,0,0-1.021-1.791l1.173-1.961a13.513,13.513,0,0,0-2.024-2.024l-1.961,1.173A11.16,11.16,0,0,0,142,217.817v-2.283a13.549,13.549,0,0,0-2.767-.743l-1.11,2c-.331,0-.672-.045-1.021-.045a7.518,7.518,0,0,0-1.012.045l-1.11-2a13.627,13.627,0,0,0-2.776.743l.045,2.283a10.745,10.745,0,0,0-1.791,1.021l-1.961-1.173a13.514,13.514,0,0,0-2.024,2.024l1.173,1.961a11.157,11.157,0,0,0-1.021,1.791h-2.283a13.55,13.55,0,0,0-.743,2.767l2,1.11C125.615,227.649,125.6,227.989,125.6,228.338Zm11.444-5.2a5.2,5.2,0,1,1-5.2,5.2A5.2,5.2,0,0,1,137.041,223.136Z" transform="translate(-123.6 -199.03)" fill="#0b5999"/>
        <path id="Trazado_662261" data-name="Trazado 662261" d="M163.285,209.386a8.714,8.714,0,0,0-.107-2.516l2.373-1.683-1.119-2.516-2.839.636a8.614,8.614,0,0,0-4.039-2.928l-.269-2.9-2.74-.287-.9,2.776A8.6,8.6,0,0,0,149.1,202l-2.686-1.218-1.522,2.23,1.979,2.14a8.5,8.5,0,0,0-.528,4.961L143.97,211.8l1.119,2.516,2.839-.645a8.569,8.569,0,0,0,4.039,2.937l.269,2.9,2.74.287.9-2.776a8.6,8.6,0,0,0,4.549-2.033l2.686,1.218,1.621-2.23-1.979-2.14a8.765,8.765,0,0,0,.537-2.445Zm-9.026,3.752a4.477,4.477,0,1,1,4.907-3.976A4.477,4.477,0,0,1,154.259,213.138Z" transform="translate(-125.729 -197.19)" fill="#0b5999"/>
      </g>
      <g id="freepik--Character--inject-26" transform="translate(56.075 169.082)">
        <g id="freepik--Character--inject-2--inject-26">
          <path id="Trazado_662262" data-name="Trazado 662262" d="M133.109,254.757c-.475.349-.9.6-1.272.9a11.184,11.184,0,0,1-1.281.788,23.547,23.547,0,0,1-2.686,1.3,19.521,19.521,0,0,1-6.17,1.451,13.987,13.987,0,0,1-7.047-1.361,13.01,13.01,0,0,1-3.107-2.194,20.928,20.928,0,0,1-2.257-2.543c-.2-.287-.4-.573-.582-.9a43.806,43.806,0,0,1-4.925-9.68c-.609-1.639-1.173-3.251-1.657-4.862-.063-.17-.107-.34-.161-.51-.278-.9-.519-1.791-.761-2.686s-.439-1.791-.654-2.812l8.677-1.925c.179.707.421,1.576.636,2.391l.7,2.471c.5,1.63,1,3.259,1.558,4.853s1.146,3.161,1.791,4.639a27.651,27.651,0,0,0,2.158,4.11,14.755,14.755,0,0,0,1.191,1.594,6.869,6.869,0,0,0,1.173,1.048,7.164,7.164,0,0,0,3.313,1.191,16.835,16.835,0,0,0,4.477-.081c.815-.116,1.612-.26,2.418-.439l1.2-.287,1.146-.3Z" transform="translate(-66.586 -187.346)" fill="#ffc3bd"/>
          <path id="Trazado_662263" data-name="Trazado 662263" d="M96.85,227.324c4.2-5.328,10.566-3.376,14.139,5.113,1.988,4.522.528,6.438,3.322,11.471L100.763,251.7C96.841,243.675,92.534,232.8,96.85,227.324Z" transform="translate(-66.011 -186.786)" fill="#0b5999"/>
          <path id="Trazado_662264" data-name="Trazado 662264" d="M109.014,253.047h-.152a43.806,43.806,0,0,1-4.925-9.68c-.609-1.639-1.173-3.251-1.657-4.862.6-.815,1.155-1.164,1.567-.9C106.605,239.508,114.1,242.087,109.014,253.047Z" transform="translate(-66.767 -188.162)" opacity="0.3"/>
          <path id="Trazado_662265" data-name="Trazado 662265" d="M134.991,251.026l2.883-1.576,1,6.438s-4.809,2.892-6.188.5l.143-1.666A5.256,5.256,0,0,1,134.991,251.026Z" transform="translate(-69.946 -189.409)" fill="#ffc3bd"/>
          <path id="Trazado_662266" data-name="Trazado 662266" d="M142.1,249.1l2.525,5.167-5.158,1.585-1-6.438Z" transform="translate(-70.549 -189.372)" fill="#ffc3bd"/>
          <path id="Trazado_662267" data-name="Trazado 662267" d="M105.318,230.928c-.26,7.352-2.364,15.948-2.686,43.7l-31.52,3.85c-.072-.582-.143-1.173-.206-1.791a1,1,0,0,1,0-.152c.439-1.173,3.125-9.3-1.88-22.216h0c-.063-2.149-.063-4.173,0-5.991,0-1.048.09-2.113.152-3.2a150.1,150.1,0,0,1,1.791-17.766,6.671,6.671,0,0,1,5.946-5.373l7.728-.681,1.791-.161,7.638,1.075,6.662,2.176a6.617,6.617,0,0,1,4.585,6.528Z" transform="translate(-63.286 -186.45)" fill="#0b5999"/>
          <path id="Trazado_662268" data-name="Trazado 662268" d="M105.7,274.956c.376-5.1.537-12.895.4-19.073a9.77,9.77,0,0,1,2.283-6.626,4.97,4.97,0,0,0,.752-1.146,5.2,5.2,0,0,0,.1-3.949,24.715,24.715,0,0,1-1.182-9.152,15.55,15.55,0,0,0-2.686-10.038c-1.7-.7-5.659-1.746-5.659-1.791,1.961,2.552,1.692,9.34-2.91,14.668,0,12.483-.287,25.279-.322,37.762A12.689,12.689,0,0,0,105.7,274.956Z" transform="translate(-66.161 -186.663)" fill="#263238"/>
          <path id="Trazado_662269" data-name="Trazado 662269" d="M89.109,237.262c0,12.483-.636,26.165-.6,38.648-3.125.9-16.862.833-18.044.824h-.081a.327.327,0,0,1,.063-.152c.439-1.173,3.125-9.3-1.88-22.216h0a59.8,59.8,0,0,0-4.227-8.695,8.193,8.193,0,0,0,4.4-.493c4.683-1.889,6.761-7.925,6.653-10.746-.107-3.089-.9-10.746-.9-12.537,0-.278,7.164-.6,7.164-.546C81.569,230.6,86.064,235.838,89.109,237.262Z" transform="translate(-62.801 -186.471)" fill="#263238"/>
          <path id="Trazado_662270" data-name="Trazado 662270" d="M107.73,374.174l6.77,1.872,6.062-15.895-6.752-1.872Z" transform="translate(-67.337 -200.785)" fill="#ffc3bd"/>
          <path id="Trazado_662271" data-name="Trazado 662271" d="M117.806,375.514a3.528,3.528,0,0,0-1.925-1.648l-6.653-2.463a.618.618,0,0,0-.806.3l-3.161,5.919a1.4,1.4,0,0,0,.555,1.889h0c2.364,1.415,4.137,1.352,7.97,2.776,2.364.9,7.226,3.34,10.674,3.761s4-2.964,2.606-3.448A17.666,17.666,0,0,1,117.806,375.514Z" transform="translate(-67.061 -202.152)" fill="#0b5999"/>
          <g id="Grupo_895314" data-name="Grupo 895314" transform="translate(43.339 157.495)" opacity="0.2">
            <path id="Trazado_662272" data-name="Trazado 662272" d="M120.906,360.16l-3.224,8.453-6.662-2.14,3.125-8.194Z" transform="translate(-111.02 -358.28)"/>
          </g>
          <path id="Trazado_662273" data-name="Trazado 662273" d="M135.1,306.983a45.992,45.992,0,0,1-1.361,7.45c-1.791,6.9-4.835,13.933-7.37,20.793-5,13.548-9.331,25.351-9.331,25.351l-9.277-3.206s8.337-39.177,13.987-43.224H87.285a13.434,13.434,0,0,1-1.925-.125c5.937-.761,15.169-4.415,23.748-8.059,7.585-3.233,14.668-6.447,18.518-7.692h0C132.309,300.258,135.47,303.034,135.1,306.983Z" transform="translate(-64.998 -194.512)" fill="#263238"/>
          <path id="Trazado_662274" data-name="Trazado 662274" d="M135.1,306.983a45.992,45.992,0,0,1-1.361,7.45c-1.791,6.9-4.835,13.933-7.37,20.793-5,13.548-9.331,25.351-9.331,25.351l-9.277-3.206s8.337-39.177,13.987-43.224H87.285a13.434,13.434,0,0,1-1.925-.125c5.937-.761,15.169-4.415,23.748-8.059,7.585-3.233,14.668-6.447,18.518-7.692h0C132.309,300.258,135.47,303.034,135.1,306.983Z" transform="translate(-64.998 -194.512)" opacity="0.1"/>
          <path id="Trazado_662275" data-name="Trazado 662275" d="M126.513,296.981c-3.851,1.245-10.934,4.477-18.518,7.692-8.579,3.662-17.811,7.316-23.748,8.059C74.263,311.4,70.5,299.5,80.952,285.77c6.779,0,13.6,6.492,13.6,6.492S115.06,292.164,126.513,296.981Z" transform="translate(-63.885 -193.205)" opacity="0.6"/>
          <path id="Trazado_662276" data-name="Trazado 662276" d="M159.739,358.543h7.576l-7.934-18.993-5.131,8.722Z" transform="translate(-72.2 -198.827)" fill="#ffc3bd"/>
          <path id="Trazado_662277" data-name="Trazado 662277" d="M166.729,358.522l-8.892-2.015a.618.618,0,0,0-.743.394l-2.48,6.832a1.37,1.37,0,0,0,.9,1.692h.045c3.116.645,4.647.806,8.552,1.692,2.409.546,8.5,2.14,11.82,2.892s4.191-2.5,2.865-3.116c-5.928-2.74-9.143-5.373-10.862-7.6A2.149,2.149,0,0,0,166.729,358.522Z" transform="translate(-72.232 -200.598)" fill="#0b5999"/>
          <g id="Grupo_895315" data-name="Grupo 895315" transform="translate(82.05 140.723)" opacity="0.2">
            <path id="Trazado_662278" data-name="Trazado 662278" d="M159.381,339.55l3.376,8.1-6.806,3.806-1.7-3.17Z" transform="translate(-154.25 -339.55)"/>
          </g>
          <path id="Trazado_662279" data-name="Trazado 662279" d="M153.952,338.614l-8.337,5.041s-6.94-14.6-13.584-31.055a45.991,45.991,0,0,0,1.361-7.45c.367-3.958-2.794-6.734-7.468-8.695h0c-3.851,1.245-10.934,4.477-18.518,7.692-8.579,3.662-17.811,7.316-23.748,8.059a15.5,15.5,0,0,1-2.051.152c-11.39,0-15.33-9.984-10.746-26.945,6.788,0,18.393-.725,18.393-.725s22.387-5.373,38.505-3.582a18.178,18.178,0,0,1,15.76,14.56C147.648,316.308,153.952,338.614,153.952,338.614Z" transform="translate(-63.287 -192.68)" fill="#263238"/>
          <path id="Trazado_662280" data-name="Trazado 662280" d="M153.952,338.614l-8.337,5.041s-6.94-14.6-13.584-31.055a45.991,45.991,0,0,0,1.361-7.45c.367-3.958-2.794-6.734-7.468-8.695h0c-3.851,1.245-10.934,4.477-18.518,7.692-8.579,3.662-17.811,7.316-23.748,8.059a15.5,15.5,0,0,1-2.051.152c-11.39,0-15.33-9.984-10.746-26.945,6.788,0,18.393-.725,18.393-.725s22.387-5.373,38.505-3.582a18.178,18.178,0,0,1,15.76,14.56C147.648,316.308,153.952,338.614,153.952,338.614Z" transform="translate(-63.287 -192.68)" fill="#263238"/>
          <path id="Trazado_662281" data-name="Trazado 662281" d="M70.961,282.952l-.824,2.588c-.107.2.125.4.457.421l31.753-1.907c.26,0,.475-.107.5-.278l.34-2.6c0-.179-.2-.34-.484-.349l-31.234,1.943A.555.555,0,0,0,70.961,282.952Z" transform="translate(-63.404 -192.689)" fill="#263238"/>
          <path id="Trazado_662282" data-name="Trazado 662282" d="M70.961,282.952l-.824,2.588c-.107.2.125.4.457.421l31.753-1.907c.26,0,.475-.107.5-.278l.34-2.6c0-.179-.2-.34-.484-.349l-31.234,1.943A.555.555,0,0,0,70.961,282.952Z" transform="translate(-63.404 -192.689)" opacity="0.1"/>
          <path id="Trazado_662283" data-name="Trazado 662283" d="M73.981,225.183c6.34-1.066,6.026,13.262,3.143,23.828-.842,3.054-4.477,1.791-5.668.985C67.453,247.4,66.1,229.786,73.981,225.183Z" transform="translate(-63.21 -186.866)" opacity="0.3"/>
          <path id="Trazado_662284" data-name="Trazado 662284" d="M73.648,246.063s-1.6,10.45,1.71,12.537,21.993,10.155,22.476,9.34c-.958,1.5-1.872,2.785-2.821,4.289,0,0-24.178-5.373-27.428-7.979-2.928-2.373-3.358-11.211-2.857-18.7C67.371,243.994,73.648,246.063,73.648,246.063Z" transform="translate(-62.823 -188.941)" fill="#ffc3bd"/>
          <path id="Trazado_662285" data-name="Trazado 662285" d="M70.93,222.314c6.528-1.916,8.955,3.3,7,12.268-.994,4.835-2.3,7.253-4.155,11.838l-9.644-.7C60.274,230.5,64.259,224.275,70.93,222.314Z" transform="translate(-62.621 -186.531)" fill="#0b5999"/>
          <path id="Trazado_662286" data-name="Trazado 662286" d="M89.545,207.32,93,211.3l4.692,5.427a6.116,6.116,0,0,0-.967,1.943,3.322,3.322,0,0,0,1.3,4.155c.716.34-1.791,8.561-3.868,9.85l-6.877-9.393c-.9-1.164-1.092-1.791-.2-3.045C89.634,216.633,89.831,211.439,89.545,207.32Z" transform="translate(-65.118 -185.005)" fill="#ffc3bd"/>
          <path id="Trazado_662287" data-name="Trazado 662287" d="M97.336,215.877,94.38,212a1.381,1.381,0,0,1-.116.376,10.5,10.5,0,0,0-.3,1.683c-.179,1.934,1.648,4.433,3.43,5.5l.179-.394a7.37,7.37,0,0,1,.9-1.791.233.233,0,0,1,.081-.081Z" transform="translate(-65.897 -185.494)" opacity="0.2"/>
          <path id="Trazado_662288" data-name="Trazado 662288" d="M108.4,216.3c1.361-1.164,3.17-3.027,2.928-4.8s-.9-3.492-.976-5.283c-.152-2.874,9.6-9.017-5.65-21.16a10.978,10.978,0,0,0-11.444-1.791c-2.033.9-14.166,11.5,3.215,12.85,2.758.224,5.006-2.3,7.764-2.57.484.242,1.03.663,1.513.9a5.176,5.176,0,0,1,1.245.8,1.675,1.675,0,0,1,.573,1.316c-.143,1.791-1.272,3.465-1.648,5.194-.851.573-.9,2.131-.824,3.143a17.13,17.13,0,0,0,.842,2.937,4.146,4.146,0,0,1,0,2.991,14.256,14.256,0,0,1-2.3,2.91c-.5.564-.242,1.791,0,2.507l4.979,3.645C108.007,218.756,107.442,217.117,108.4,216.3Z" transform="translate(-65.196 -182.4)" fill="#263238"/>
          <path id="Trazado_662289" data-name="Trazado 662289" d="M90.207,198.145c-.537,6.438-1.128,10.172,1.639,13.826,4.164,5.516,12.465,3.582,14.892-2.615,2.185-5.552,2.686-15.133-3.259-18.447a8.955,8.955,0,0,0-13.271,7.235Z" transform="translate(-65.458 -183.172)" fill="#ffc3bd"/>
          <path id="Trazado_662290" data-name="Trazado 662290" d="M88.791,203.973l2.749,1.191h0c.949-.385,1.128-1.5,1.066-2.525-.242-3.922,6.8-8.758,6.8-8.758s-7.459-2.821-9.734-2.821c-5.964,0-4.791,8.319-3.089,10.549A16.243,16.243,0,0,0,88.791,203.973Z" transform="translate(-64.982 -183.305)" fill="#263238"/>
          <path id="Trazado_662291" data-name="Trazado 662291" d="M106.456,204.6a2.83,2.83,0,1,1,1.03,3.868A2.83,2.83,0,0,1,106.456,204.6Zm.385.224a1.162,1.162,0,1,0,0-.009Z" transform="translate(-67.164 -184.572)" fill="#263238"/>
          <path id="Trazado_662292" data-name="Trazado 662292" d="M99.225,202.477a2.821,2.821,0,1,1,1.021,3.868,2.821,2.821,0,0,1-1.021-3.868Zm.385.224a2.382,2.382,0,1,0,1.443-1.126,2.382,2.382,0,0,0-1.443,1.126Z" transform="translate(-66.408 -184.353)" fill="#263238"/>
          <path id="Trazado_662293" data-name="Trazado 662293" d="M105.028,205.1a.77.77,0,0,1,1.1.269l.394-.2a1.218,1.218,0,0,0-1.683-.484Z" transform="translate(-67.035 -184.713)" fill="#263238"/>
          <path id="Trazado_662294" data-name="Trazado 662294" d="M90.7,202.24l7.692,1.137.09-.43L90.79,201.81Z" transform="translate(-65.557 -184.429)" fill="#263238"/>
          <path id="Trazado_662295" data-name="Trazado 662295" d="M86.568,203.846a5.874,5.874,0,0,0,1.845,3.761c1.37,1.254,3.045-.116,3.242-1.934.17-1.63-.654-4.012-2.31-4.567S86.407,202.056,86.568,203.846Z" transform="translate(-65.123 -184.343)" fill="#ffc3bd"/>
          <path id="Trazado_662296" data-name="Trazado 662296" d="M101.457,203.474c-.09.528.1,1.021.448,1.092s.663-.287.8-.815a.9.9,0,0,0-.448-1.092C101.941,202.578,101.556,202.963,101.457,203.474Z" transform="translate(-66.679 -184.516)" fill="#263238"/>
          <path id="Trazado_662297" data-name="Trazado 662297" d="M108.127,205.476c-.107.537.1,1.03.439,1.1s.7-.3.8-.806-.1-1.021-.439-1.092S108.225,204.965,108.127,205.476Z" transform="translate(-67.375 -184.728)" fill="#263238"/>
          <path id="Trazado_662298" data-name="Trazado 662298" d="M103.348,203.21A1.531,1.531,0,0,1,102.3,203v-.3C102.685,202.825,103,203.085,103.348,203.21Z" transform="translate(-66.769 -184.522)" fill="#263238"/>
          <path id="Trazado_662299" data-name="Trazado 662299" d="M110.012,205.18a1.513,1.513,0,0,1-1.012-.215v-.3C109.349,204.8,109.663,205.055,110.012,205.18Z" transform="translate(-67.47 -184.728)" fill="#263238"/>
          <path id="Trazado_662300" data-name="Trazado 662300" d="M105.646,205.81a17.811,17.811,0,0,0,1.128,4.406,2.6,2.6,0,0,1-2.194-.224Z" transform="translate(-67.007 -184.847)" fill="#ed847e"/>
          <path id="Trazado_662301" data-name="Trazado 662301" d="M102.275,212.079a4.63,4.63,0,0,1-2.686-2.454.161.161,0,0,1,.09-.206.17.17,0,0,1,.206.1,4.477,4.477,0,0,0,3.045,2.436.161.161,0,1,1,0,.313h0A5.874,5.874,0,0,1,102.275,212.079Z" transform="translate(-66.485 -185.223)" fill="#263238"/>
          <path id="Trazado_662302" data-name="Trazado 662302" d="M100.1,200.908a.278.278,0,0,1-.134-.09.322.322,0,0,1,0-.448,3,3,0,0,1,2.767-.663.313.313,0,0,1,.215.385h0a.313.313,0,0,1-.394.206,2.391,2.391,0,0,0-2.167.546A.3.3,0,0,1,100.1,200.908Z" transform="translate(-66.516 -184.199)" fill="#263238"/>
          <path id="Trazado_662303" data-name="Trazado 662303" d="M108.409,201.025a.332.332,0,0,1,0-.161.322.322,0,0,1,.394-.215,3.009,3.009,0,0,1,2.122,1.889.313.313,0,0,1-.206.394.3.3,0,0,1-.394-.206,2.4,2.4,0,0,0-1.683-1.469.331.331,0,0,1-.233-.233Z" transform="translate(-67.407 -184.306)" fill="#263238"/>
        </g>
        <path id="Trazado_662304" data-name="Trazado 662304" d="M113.532,278.718l40.591.116a2.91,2.91,0,0,0,2.839-2.6l1.863-20.551a2.355,2.355,0,0,0-2.373-2.606L115.861,253a2.91,2.91,0,0,0-2.839,2.6l-1.863,20.6a2.364,2.364,0,0,0,2.373,2.525Z" transform="translate(-67.695 -189.78)" fill="#263238"/>
        <path id="Trazado_662305" data-name="Trazado 662305" d="M114.862,278.608l40.591.125a2.919,2.919,0,0,0,2.848-2.6l1.854-20.6a2.364,2.364,0,0,0-2.373-2.615l-40.591-.116a2.91,2.91,0,0,0-2.839,2.6L112.5,275.958a2.337,2.337,0,0,0,2.364,2.651Z" transform="translate(-67.833 -189.76)" fill="#263238"/>
        <path id="Trazado_662306" data-name="Trazado 662306" d="M114.862,278.608l40.591.125a2.919,2.919,0,0,0,2.848-2.6l1.854-20.6a2.364,2.364,0,0,0-2.373-2.615l-40.591-.116a2.91,2.91,0,0,0-2.839,2.6L112.5,275.958a2.337,2.337,0,0,0,2.364,2.651Z" transform="translate(-67.833 -189.76)" fill="#fff" opacity="0.4"/>
        <path id="Trazado_662307" data-name="Trazado 662307" d="M155.921,281.706c0,1.227-.734,2.23-1.621,2.23h0l-41.917-.2c-.448,0-.824-.5-.824-1.11s.376-1.128.824-1.128Z" transform="translate(-67.737 -192.759)" fill="#263238"/>
        <path id="Trazado_662308" data-name="Trazado 662308" d="M155.921,281.706c0,1.227-.734,2.23-1.621,2.23h0l-41.917-.2c-.448,0-.824-.5-.824-1.11s.376-1.128.824-1.128Z" transform="translate(-67.737 -192.759)" fill="#fff" opacity="0.3"/>
        <path id="Trazado_662309" data-name="Trazado 662309" d="M109.659,283.738H89.493a1.943,1.943,0,0,1-1.943-1.943h0a.3.3,0,0,1,.3-.3h21.8a1.119,1.119,0,0,1,1.119,1.119h0a1.128,1.128,0,0,1-1.119,1.128Z" transform="translate(-65.227 -192.758)" fill="#263238"/>
        <path id="Trazado_662310" data-name="Trazado 662310" d="M109.659,283.738H89.493a1.943,1.943,0,0,1-1.943-1.943h0a.3.3,0,0,1,.3-.3h21.8a1.119,1.119,0,0,1,1.119,1.119h0a1.128,1.128,0,0,1-1.119,1.128Z" transform="translate(-65.227 -192.758)" fill="#fff" opacity="0.2"/>
        <path id="Trazado_662311" data-name="Trazado 662311" d="M103.824,271.264l2.874,1.988-6.6,4.943s-5.91-4.567-3.582-7.029l1.988-.412C100.206,270.4,102.31,270.118,103.824,271.264Z" transform="translate(-66.108 -191.603)" fill="#ffc3bd"/>
        <path id="Trazado_662312" data-name="Trazado 662312" d="M108.455,278.907l-5.238,1.451-3.627-2.445,7.486-4.343Z" transform="translate(-66.486 -191.93)" fill="#ffc3bd"/>
        <path id="Trazado_662313" data-name="Trazado 662313" d="M92.24,191.083c.564.842,5.632,2.588,7.011,3.152a2.239,2.239,0,0,1,3.582,1.289c.2,1.307,1.791,2.006,2.991,2.489.537.206,1.092.34,1.612.582a2.274,2.274,0,0,1,1.209,1.155,10.28,10.28,0,0,0-4.979-10.54C100.084,187.25,95.24,188.253,92.24,191.083Z" transform="translate(-65.718 -183.005)" fill="#263238"/>
      </g>
      <g id="freepik--device-2--inject-26" transform="translate(272.804 153.544)">
        <path id="Trazado_662314" data-name="Trazado 662314" d="M433.414,165.05H413.83l-19.7,225.4h19.557a18.268,18.268,0,0,0,17.847-16.4l16.853-192.579a14.8,14.8,0,0,0-14.972-16.414Z" transform="translate(-314.004 -165.047)" fill="#263238"/>
        <path id="Trazado_662315" data-name="Trazado 662315" d="M400.3,390.456H319.712a14.793,14.793,0,0,1-14.972-16.414l16.844-192.579A18.276,18.276,0,0,1,339.43,165.05h80.592A14.811,14.811,0,0,1,435,181.464L418.15,374.042A18.268,18.268,0,0,1,400.3,390.456Z" transform="translate(-304.65 -165.047)" fill="#0b5999"/>
        <path id="Trazado_662316" data-name="Trazado 662316" d="M420.137,169.25H399.2a3.036,3.036,0,0,0-2.91,2.382l-.143.663a7.423,7.423,0,0,1-7.11,5.812H369.123a5.973,5.973,0,0,1-6.089-5.812v-.663a2.445,2.445,0,0,0-2.5-2.382H339.572A14.086,14.086,0,0,0,325.818,181.9L308.992,374.482a11.408,11.408,0,0,0,11.543,12.644h80.592a14.086,14.086,0,0,0,13.754-12.644L431.671,181.9a11.408,11.408,0,0,0-11.534-12.653Z" transform="translate(-305.097 -165.487)" fill="#0b5999"/>
        <path id="Trazado_662317" data-name="Trazado 662317" d="M420.137,169.25H399.2a3.036,3.036,0,0,0-2.91,2.382l-.143.663a7.423,7.423,0,0,1-7.11,5.812H369.123a5.973,5.973,0,0,1-6.089-5.812v-.663a2.445,2.445,0,0,0-2.5-2.382H339.572A14.086,14.086,0,0,0,325.818,181.9L308.992,374.482a11.408,11.408,0,0,0,11.543,12.644h80.592a14.086,14.086,0,0,0,13.754-12.644L431.671,181.9a11.408,11.408,0,0,0-11.534-12.653Z" transform="translate(-305.097 -165.487)" fill="#fff" opacity="0.7"/>
        <g id="Grupo_895316" data-name="Grupo 895316" transform="translate(66.489 4.3)" opacity="0.2">
          <path id="Trazado_662318" data-name="Trazado 662318" d="M382.115,171.453a1.791,1.791,0,0,1-1.746,1.594,1.442,1.442,0,0,1-1.46-1.594,1.791,1.791,0,0,1,1.737-1.6,1.451,1.451,0,0,1,1.469,1.6Z" transform="translate(-378.901 -169.85)"/>
          <path id="Trazado_662319" data-name="Trazado 662319" d="M394.466,169.85h-5.48a1.791,1.791,0,0,0-1.746,1.6,1.451,1.451,0,0,0,1.46,1.594h5.489a1.791,1.791,0,0,0,1.737-1.594,1.442,1.442,0,0,0-1.46-1.6Z" transform="translate(-379.772 -169.85)"/>
        </g>
        <path id="Trazado_662320" data-name="Trazado 662320" d="M337.96,178.9h1.692l.143-1.692H338.1Z" transform="translate(-308.132 -166.319)" fill="#0b5999"/>
        <path id="Trazado_662321" data-name="Trazado 662321" d="M341.892,177.012l-.152,1.692h1.692l.152-1.692.143-1.692h-1.692Z" transform="translate(-308.527 -166.121)" fill="#0b5999"/>
        <path id="Trazado_662322" data-name="Trazado 662322" d="M345.968,173.43l-.143,1.692-.152,1.692-.152,1.692h1.7l.143-1.692.152-1.692.143-1.692Z" transform="translate(-308.922 -165.924)" fill="#0b5999"/>
        <path id="Trazado_662323" data-name="Trazado 662323" d="M427.245,173.55l-.107,1.245H426.3l-.215,2.48h.815l-.116,1.245h7.459l.439-4.97Zm2.991,3.725h-2.489l.215-2.48h2.525Z" transform="translate(-317.345 -165.936)" fill="#0b5999"/>
        <g id="Grupo_895317" data-name="Grupo 895317" transform="translate(8.471 3.761)" opacity="0.4">
          <path id="Trazado_662324" data-name="Trazado 662324" d="M369.727,179.14,314.11,385.992a11.641,11.641,0,0,0,6.94,2.212H325.4l56.208-209.02Z" transform="translate(-314.11 -170.282)" fill="#fff"/>
          <path id="Trazado_662325" data-name="Trazado 662325" d="M422.957,169.25H402.021a3.036,3.036,0,0,0-2.91,2.382l-.143.663a7.432,7.432,0,0,1-6.85,5.794L335.9,387.125h42.875l55.716-207.22A11.346,11.346,0,0,0,422.957,169.25Z" transform="translate(-316.388 -169.248)" fill="#fff"/>
        </g>
        <g id="Grupo_895318" data-name="Grupo 895318" transform="translate(24.327 36.412)" opacity="0.2">
          <path id="Trazado_662326" data-name="Trazado 662326" d="M343.584,212.238h-.627a2.946,2.946,0,0,1-2.928-3.188l.063-.654a2.928,2.928,0,0,1,2.919-2.686h.573A2.928,2.928,0,0,1,346.5,208.9l-.054.654a2.937,2.937,0,0,1-2.866,2.686Z" transform="translate(-332.674 -205.71)"/>
          <path id="Trazado_662327" data-name="Trazado 662327" d="M341.884,231.1h-.627a2.937,2.937,0,0,1-2.928-3.188l.063-.654a2.928,2.928,0,0,1,2.919-2.686h.636a2.928,2.928,0,0,1,2.919,3.188l-.054.654A2.937,2.937,0,0,1,341.884,231.1Z" transform="translate(-332.497 -207.682)"/>
          <path id="Trazado_662328" data-name="Trazado 662328" d="M340.239,249.958h-.582a2.946,2.946,0,0,1-2.928-3.188l.063-.654a2.928,2.928,0,0,1,2.919-2.686h.636a2.928,2.928,0,0,1,2.892,3.2l-.054.654a2.937,2.937,0,0,1-2.946,2.677Z" transform="translate(-332.329 -209.653)"/>
          <path id="Trazado_662329" data-name="Trazado 662329" d="M338.684,267.728h-.636a2.928,2.928,0,0,1-2.919-3.188l.054-.654a2.937,2.937,0,0,1,2.928-2.686h.627a2.946,2.946,0,0,1,2.928,3.188l-.063.654A2.928,2.928,0,0,1,338.684,267.728Z" transform="translate(-332.162 -211.511)"/>
          <path id="Trazado_662330" data-name="Trazado 662330" d="M337.034,286.587H336.4a2.937,2.937,0,0,1-2.919-3.2l.054-.654a2.937,2.937,0,0,1,2.928-2.686h.627a2.946,2.946,0,0,1,2.928,3.2l-.063.654a2.928,2.928,0,0,1-2.919,2.686Z" transform="translate(-331.99 -213.481)"/>
          <path id="Trazado_662331" data-name="Trazado 662331" d="M335.384,305.438h-.636a2.928,2.928,0,0,1-2.919-3.188l.054-.654a2.937,2.937,0,0,1,2.928-2.686h.627a2.937,2.937,0,0,1,2.928,3.188l-.063.654a2.928,2.928,0,0,1-2.919,2.686Z" transform="translate(-331.817 -215.453)"/>
          <path id="Trazado_662332" data-name="Trazado 662332" d="M380.274,208.241h-26l.17-1.961h26Z" transform="translate(-334.164 -205.77)"/>
          <path id="Trazado_662333" data-name="Trazado 662333" d="M368.649,227.142H359.39l.17-1.952h9.259Z" transform="translate(-334.699 -207.746)"/>
          <path id="Trazado_662334" data-name="Trazado 662334" d="M411.808,248.352H402.54l.179-1.952h9.259Z" transform="translate(-339.21 -209.964)"/>
          <path id="Trazado_662335" data-name="Trazado 662335" d="M365.319,265.182H356.06l.17-1.952h9.259Z" transform="translate(-334.351 -211.723)"/>
          <path id="Trazado_662336" data-name="Trazado 662336" d="M380.238,265.182H370.97l.17-1.952h9.268Z" transform="translate(-335.91 -211.723)"/>
          <path id="Trazado_662337" data-name="Trazado 662337" d="M396.108,248.352H372.45l.17-1.952h23.658Z" transform="translate(-336.065 -209.964)"/>
          <path id="Trazado_662338" data-name="Trazado 662338" d="M401.951,265.182H386.37l.17-1.952h15.581Z" transform="translate(-337.52 -211.723)"/>
          <path id="Trazado_662339" data-name="Trazado 662339" d="M392.029,305.6H382.77l.17-1.952H392.2Z" transform="translate(-337.143 -215.948)"/>
          <path id="Trazado_662340" data-name="Trazado 662340" d="M406.948,305.6H397.68l.179-1.952h9.259Z" transform="translate(-338.702 -215.948)"/>
          <path id="Trazado_662341" data-name="Trazado 662341" d="M418.256,305.6H413.08l.17-1.952h5.176Z" transform="translate(-340.312 -215.948)"/>
          <path id="Trazado_662342" data-name="Trazado 662342" d="M403.735,227.142H374.91l.17-1.952h28.825Z" transform="translate(-336.322 -207.746)"/>
          <path id="Trazado_662343" data-name="Trazado 662343" d="M378.509,284.872H369.25l.17-1.952h9.259Z" transform="translate(-335.73 -213.781)"/>
          <path id="Trazado_662344" data-name="Trazado 662344" d="M388.4,284.872H383.05l.17-1.952h5.355Z" transform="translate(-337.173 -213.781)"/>
          <path id="Trazado_662345" data-name="Trazado 662345" d="M408.724,284.872H393.6l.17-1.952h15.124Z" transform="translate(-338.276 -213.781)"/>
        </g>
        <g id="Grupo_895319" data-name="Grupo 895319" transform="translate(18.65 136.346)" opacity="0.2">
          <path id="Trazado_662346" data-name="Trazado 662346" d="M333.894,323.847h-.627a2.937,2.937,0,0,1-2.928-3.2L330.4,320a2.928,2.928,0,0,1,2.919-2.686h.627a2.937,2.937,0,0,1,2.928,3.2l-.054.645A2.937,2.937,0,0,1,333.894,323.847Z" transform="translate(-325.984 -317.31)"/>
          <path id="Trazado_662347" data-name="Trazado 662347" d="M332.248,342.7h-.591a2.937,2.937,0,0,1-2.928-3.188l.063-.654a2.928,2.928,0,0,1,2.919-2.686h.636a2.928,2.928,0,0,1,2.919,3.188l-.054.654A2.937,2.937,0,0,1,332.248,342.7Z" transform="translate(-325.816 -319.281)"/>
          <path id="Trazado_662348" data-name="Trazado 662348" d="M330.584,361.557h-.627a2.937,2.937,0,0,1-2.928-3.2l.063-.654a2.928,2.928,0,0,1,2.919-2.686h.636a2.937,2.937,0,0,1,2.919,3.2l-.054.654a2.937,2.937,0,0,1-2.928,2.686Z" transform="translate(-325.638 -321.252)"/>
          <path id="Trazado_662349" data-name="Trazado 662349" d="M329.044,379.328h-.636a2.928,2.928,0,0,1-2.919-3.188l.054-.654a2.937,2.937,0,0,1,2.928-2.686h.627a2.946,2.946,0,0,1,2.928,3.2l-.063.654a2.928,2.928,0,0,1-2.919,2.677Z" transform="translate(-325.477 -323.111)"/>
          <path id="Trazado_662350" data-name="Trazado 662350" d="M370.634,319.832h-26l.17-1.952h26Z" transform="translate(-327.479 -317.37)"/>
          <path id="Trazado_662351" data-name="Trazado 662351" d="M359.009,338.741H349.75l.17-1.961h9.259Z" transform="translate(-328.014 -319.345)"/>
          <path id="Trazado_662352" data-name="Trazado 662352" d="M402.168,359.942H392.9l.17-1.952h9.268Z" transform="translate(-332.525 -321.562)"/>
          <path id="Trazado_662353" data-name="Trazado 662353" d="M355.679,376.772H346.42l.17-1.952h9.259Z" transform="translate(-327.666 -323.322)"/>
          <path id="Trazado_662354" data-name="Trazado 662354" d="M370.6,376.772H361.33l.17-1.952h9.268Z" transform="translate(-329.225 -323.322)"/>
          <path id="Trazado_662355" data-name="Trazado 662355" d="M386.468,359.942H362.81l.17-1.952h23.658Z" transform="translate(-329.38 -321.562)"/>
          <path id="Trazado_662356" data-name="Trazado 662356" d="M422.275,336.78H403.64l-.17,1.952H422.1Z" transform="translate(-333.63 -319.345)"/>
          <path id="Trazado_662357" data-name="Trazado 662357" d="M392.311,376.772H376.73l.17-1.952h15.581Z" transform="translate(-330.835 -323.322)"/>
          <path id="Trazado_662358" data-name="Trazado 662358" d="M394.086,338.741H365.27l.17-1.961h28.816Z" transform="translate(-329.637 -319.345)"/>
          <path id="Trazado_662359" data-name="Trazado 662359" d="M393.529,319.832H384.27l.17-1.952H393.7Z" transform="translate(-331.623 -317.37)"/>
          <path id="Trazado_662360" data-name="Trazado 662360" d="M423.377,317.88H399.96l-.17,1.952H423.2Z" transform="translate(-333.245 -317.37)"/>
        </g>
      </g>
    </g>
  </g>
</svg>
